<svg class="total-fatalities-chart" xmlns="http://www.w3.org/2000/svg" viewBox="0 0 443 397">
  <title>fatalities-graph</title>
  <g class="x-axis">
    <text transform="translate(116.04 364.66)" font-size="14" fill="#172936" font-family="Karla" style="isolation: isolate">06/14</text>
    <text transform="translate(241.54 364.66)" font-size="14" fill="#172936" font-family="Karla" style="isolation: isolate">09/14</text>
    <text transform="translate(0.43 364.66)" font-size="14" fill="#172936" font-family="Karla" style="isolation: isolate">03/14</text>
    <text transform="translate(354.24 364.66)" font-size="14" fill="#172936" font-family="Karla" style="isolation: isolate">12/14</text>
    <text transform="translate(178.25 395.51)" font-size="14" fill="#172936" font-family="Karla" font-weight="700" style="isolation: isolate">Time</text>
    <g class="x-ticks">
      <line x1="45.1" y1="338.98" x2="45.1" y2="344.75" fill="none" stroke="#fff" stroke-miterlimit="10" stroke-width="2"/>
      <line x1="87.8" y1="338.98" x2="87.8" y2="344.75" fill="none" stroke="#fff" stroke-miterlimit="10" stroke-width="2"/>
      <line x1="173.2" y1="338.98" x2="173.2" y2="344.75" fill="none" stroke="#fff" stroke-miterlimit="10" stroke-width="2"/>
      <line x1="258.6" y1="338.98" x2="258.6" y2="344.75" fill="none" stroke="#fff" stroke-miterlimit="10" stroke-width="2"/>
      <line x1="130.5" y1="338.98" x2="130.5" y2="344.75" fill="none" stroke="#fff" stroke-miterlimit="10" stroke-width="2"/>
      <line x1="215.9" y1="338.98" x2="215.9" y2="344.75" fill="none" stroke="#fff" stroke-miterlimit="10" stroke-width="2"/>
      <line x1="344" y1="338.98" x2="344" y2="344.75" fill="none" stroke="#fff" stroke-miterlimit="10" stroke-width="2"/>
      <line x1="301.3" y1="338.98" x2="301.3" y2="344.75" fill="none" stroke="#fff" stroke-miterlimit="10" stroke-width="2"/>
    </g>
  </g>
  <g class="y-axis">
    <text transform="translate(405.42 334.89) rotate(90)" font-size="14" fill="#172936" font-family="Karla" style="isolation: isolate">0</text>
    <text transform="translate(402.42 243.19) rotate(90)" font-size="14" fill="#172936" font-family="Karla" style="isolation: isolate">500</text>
    <text transform="translate(402.42 155.36) rotate(90)" font-size="14" fill="#172936" font-family="Karla" style="isolation: isolate">1,000</text>
    <text transform="translate(402.42 71.85) rotate(90)" font-size="14" fill="#172936" font-family="Karla" style="isolation: isolate">1,500</text>
    <text transform="translate(402.42 2.5) rotate(90)" font-size="14" fill="#172936" font-family="Karla" style="isolation: isolate">2,000</text>
    <text transform="translate(431.49 123.44) rotate(90)" font-size="14" fill="#172936" font-family="Karla" font-weight="700" style="isolation: isolate"><tspan letter-spacing="-1">T</tspan><tspan x="6.17" y="0">otal fatalities</tspan></text>
    <g class="y-ticks">
      <line x1="386.69" y1="255.21" x2="392.46" y2="255.21" fill="none" stroke="#fff" stroke-miterlimit="10" stroke-width="2"/>
      <line x1="386.69" y1="171.62" x2="392.46" y2="171.62" fill="none" stroke="#fff" stroke-miterlimit="10" stroke-width="2"/>
      <line x1="386.69" y1="87.91" x2="392.46" y2="87.91" fill="none" stroke="#fff" stroke-miterlimit="10" stroke-width="2"/>
    </g>
  </g>
  <path class="path" d="M2.43 327.92 45.13 326.92 87.83 331.67 130.53 315.92 173.22 273.67 215.92 202.66 258.62 82.92 301.32 28.16 344.02 170.16 386.72 20.93" fill="none" stroke="#fff" stroke-miterlimit="10" stroke-width="3"/>
  <polyline class="fill" points="2.43 327.92 45.13 326.92 87.83 331.67 130.53 315.92 173.22 273.67 215.92 202.66 258.62 82.92 301.32 28.16 344.02 170.16 386.72 20.93 386.72 339.06 2.43 339.06 2.43 327.92" fill="#fff" opacity="0.4" style="isolation: isolate"/>
  <g class="arrow-container" transform="translate(-9,-60)">
    <path class="arrow js-arrow" d="M8.9,22.07a1,1,0,0,1-.77-0.36L0.66,12.8a1,1,0,0,1,.77-1.64h3.1V1.34a1,1,0,0,1,1-1h6.73a1,1,0,0,1,1,1v9.83h3.1a1,1,0,0,1,.77,1.64L9.66,21.71A1,1,0,0,1,8.9,22.07ZM3.57,13.16L8.9,19.51l5.32-6.35h-2a1,1,0,0,1-1-1V2.34H6.53v9.83a1,1,0,0,1-1,1h-2Z" fill="#fff" opacity="0"/>
  </g>
</svg>
