<svg class="total-fatalities-chart" xmlns="http://www.w3.org/2000/svg" viewBox="0 0 442.14 396.33">
  <title>fatalities-graph-2</title>
  <g class="x-axis">
    <text transform="translate(0 364.33)" font-size="14" fill="#172936" font-family="Karla" style="isolation: isolate">01/15</text>
    <text transform="translate(353.81 364.33)" font-size="14" fill="#172936" font-family="Karla" style="isolation: isolate">02/16</text>
    <text transform="translate(132.56 364.33)" font-size="14" fill="#172936" font-family="Karla" style="isolation: isolate">06/15</text>
    <text transform="translate(251.24 364.33)" font-size="14" fill="#172936" font-family="Karla" style="isolation: isolate">10/15</text>
    <text transform="translate(177.82 395.17)" font-size="14" fill="#172936" font-family="Karla" font-weight="700" style="isolation: isolate">Time</text>
    <g class="x-ticks">
      <line x1="31.54" y1="338.64" x2="31.54" y2="344.41" fill="none" stroke="#fff" stroke-miterlimit="10" stroke-width="2"/>
      <line x1="61.1" y1="338.64" x2="61.1" y2="344.41" fill="none" stroke="#fff" stroke-miterlimit="10" stroke-width="2"/>
      <line x1="120.22" y1="338.64" x2="120.22" y2="344.41" fill="none" stroke="#fff" stroke-miterlimit="10" stroke-width="2"/>
      <line x1="179.34" y1="338.64" x2="179.34" y2="344.41" fill="none" stroke="#fff" stroke-miterlimit="10" stroke-width="2"/>
      <line x1="238.46" y1="338.64" x2="238.46" y2="344.41" fill="none" stroke="#fff" stroke-miterlimit="10" stroke-width="2"/>
      <line x1="297.58" y1="338.64" x2="297.58" y2="344.41" fill="none" stroke="#fff" stroke-miterlimit="10" stroke-width="2"/>
      <line x1="356.7" y1="338.64" x2="356.7" y2="344.41" fill="none" stroke="#fff" stroke-miterlimit="10" stroke-width="2"/>
      <line x1="149.78" y1="338.64" x2="149.78" y2="344.41" fill="none" stroke="#fff" stroke-miterlimit="10" stroke-width="2"/>
      <line x1="208.9" y1="338.64" x2="208.9" y2="344.41" fill="none" stroke="#fff" stroke-miterlimit="10" stroke-width="2"/>
      <line x1="268.02" y1="338.64" x2="268.02" y2="344.41" fill="none" stroke="#fff" stroke-miterlimit="10" stroke-width="2"/>
      <line x1="327.14" y1="338.64" x2="327.14" y2="344.41" fill="none" stroke="#fff" stroke-miterlimit="10" stroke-width="2"/>
      <line x1="90.66" y1="338.64" x2="90.66" y2="344.41" fill="none" stroke="#fff" stroke-miterlimit="10" stroke-width="2"/>
    </g>
  </g>
  <g class="y-axis">
    <text transform="translate(404.99 334.56) rotate(90)" font-size="14" fill="#172936" font-family="Karla" style="isolation: isolate">0</text>
    <text transform="translate(401.99 242.86) rotate(90)" font-size="14" fill="#172936" font-family="Karla" style="isolation: isolate">500</text>
    <text transform="translate(401.99 155.02) rotate(90)" font-size="14" fill="#172936" font-family="Karla" style="isolation: isolate">1,000</text>
    <text transform="translate(401.99 71.51) rotate(90)" font-size="14" fill="#172936" font-family="Karla" style="isolation: isolate">1,500</text>
    <text transform="translate(401.99 2.17) rotate(90)" font-size="14" fill="#172936" font-family="Karla" style="isolation: isolate">2,000</text>
    <text transform="translate(431.07 123.11) rotate(90)" font-size="14" fill="#172936" font-family="Karla" font-weight="700" style="isolation: isolate"><tspan letter-spacing="-1">T</tspan><tspan x="6.17" y="0">otal fatalities</tspan></text>
    <g class="y-ticks">
      <line x1="386.26" y1="254.87" x2="392.03" y2="254.87" fill="none" stroke="#fff" stroke-miterlimit="10" stroke-width="2"/>
      <line x1="386.26" y1="171.28" x2="392.03" y2="171.28" fill="none" stroke="#fff" stroke-miterlimit="10" stroke-width="2"/>
      <line x1="386.26" y1="87.57" x2="392.03" y2="87.57" fill="none" stroke="#fff" stroke-miterlimit="10" stroke-width="2"/>
    </g>
  </g>
  <path class="path" d="M1.98 185.83 31.56 204.77 61.15 218.33 90.73 243.33 120.31 296.86 149.9 327.33 179.48 327.33 209.07 337.33 238.65 337.33 268.19 338.08 297.77 338.08 327.36 338.08 356.68 338.08 386.26 338.72" fill="none" stroke="#fff" stroke-miterlimit="10" stroke-width="3"/>
  <polygon class="fill" points="1.98 185.83 31.56 204.77 61.15 218.33 90.73 243.33 120.31 296.86 149.9 327.33 179.48 327.33 209.07 337.33 238.65 337.33 268.19 338.08 297.77 338.08 327.36 338.08 356.68 338.08 386.26 338.72 1.98 338.72 1.98 185.83" fill="#fff" opacity="0.4" style="isolation: isolate"/>
  <g class="arrow-container" transform="translate(-8,-45)">
    <path class="arrow js-arrow" d="M8.47,22a1,1,0,0,1-.77-0.36L0.23,12.73A1,1,0,0,1,1,11.09H4.1V1.26a1,1,0,0,1,1-1h6.73a1,1,0,0,1,1,1v9.83h3.1a1,1,0,0,1,.77,1.64L9.23,21.64A1,1,0,0,1,8.47,22ZM3.14,13.09l5.32,6.35,5.32-6.35h-2a1,1,0,0,1-1-1V2.26H6.1v9.83a1,1,0,0,1-1,1h-2Z" fill="#fff" opacity="0"/>
  </g>
</svg>
