<svg id="nw-africa" xmlns="http://www.w3.org/2000/svg" viewBox="0 0 418 490">
  <title>NW Africa</title>
  <g id="countries-data">
    <path id="guinea" class="guinea js-guinea-map" d="M119.88,324c1.17-1.57.43-5.19,2.51-6.24,6.42-3.22,10.52-6.71,14.08-14.49,0,0,.88-5.1.89-5.11,3.11-3.73,9.84.11,11.48,0.3,5,0.63,6.76-3.68,7.62-4.35,0.71-.56,1.79,0,2.67.07l2.68,0.08,10.72,0.28,2.68,0.07c0.9,0,1.88-.32,2.68.09,6.35,3.15,7.36,14.5,10.74,19.61,0.89,1.35,5.44,2.86,5.48,4.68,0,1.33-5.23,5.31-3.09,7.32,1.29,1.22,4-.09,5.17,1.27,0.54,0.63-1.5,4.74-1.39,5.66,0.21,2,3.87,5.5,3.8,6.91a3.27,3.27,0,0,1-1.16,1.68c-2.13,2.36-3.74,3.6-5.13,6.71-0.8,1.82-3.55,6.76-1.9,5.65,2.9-1.95,4.87-.91,7-2.7,4.15-3.47,4-5.59,10.35-6,3.55-.26,3.4,4.05,3.47,4a58.44,58.44,0,0,0,7-2.69l2.24-2.21c0.71,0.4.62,1.52,0.93,2.3s0.21,1.86.93,2.27c0.49,0.29-.22-1.22.09-1.7,0.45-.65,2,0.4,2,1.17s-1.27,1.78-.66,2.26S228,349,229,352.13c0.36,1.15-1.33,2.19-1.25,3.38,0.46,5.74,4.21,11.35,4.38,17.11,0.14,4.58-4.68,9-4.88,13-0.05.92,1.28-1.81,2.19-1.67,1.24,0.19,3.64,0,5.26.67,2,0.75,3.07,6.75,3.91,6.87,2.16,0.33,5-1.88,6.94-1.58,5.37,0.81,6.26-19.64,11.85-15.09,0.37,0.29,0,.94-0.07,1.42a2.9,2.9,0,0,0-.07,1.42c1.74,3.26,3.13.1,4.77,0.08,1.83,0,3.9,2.56,5.71,2.37,2.05-.22,3.87-9.51,4.44-11.24,2.62-8,4.66-1.59,4.21-8.41,0-.74.35-1.69-0.15-2.26l-2.69,1.09c-6.56-.9-3.88-4.13-4.89-8-0.14-.57-0.64-1.16-0.43-1.7,1.73-4.71,10-.46,11.6.79,3.29,2.5.16-2.25,2.21-1.65,6,1.74-.82,1.86,1.94,3.43l3.18,0.06c5.42-9.1-8.46-12.59-8.77-14.3-1.79-10,7.89-6.87,6.91-10-0.59-1.91-5.21-1.4-5-4.07,0-.65,2.66-6.47,2-6.73-2.66-1-7,2.82-8.27-3-0.86-3.9,2.11-8.61,1.81-12.39-0.24-2.84-3.71-1.68-.74-5.11,2-2.3,6.48-4,6.83-7.75s-9.56-5-10.38-10.42c-0.65-4.27,3.65-14.62-.93-17-5-2.58-6.3,5-10.22,3.13-1.76-.83,5.58-10.57,7.11-11.12,1.22-.44,4.37.12,3.75-1-1.18-2.2-2.33-.63-5-4.09-0.46-.61.28-1.82-0.35-2.26s-1.49.84-2.14,0.51c-1.57-.83-1.22-5.24-2.68-6.29-0.57-.41-1.4,0-2.1-0.06s-1.68.5-2.09-.06c-1.53-2.08,2.8-8.74,1.92-11.26-0.4-1.09-2.55-.7-3-1.78-1.58-3.76.25-10.77-3.67-13.11-1-.61-11.25-4.15-10.91-0.89,0,0,2.85,3.45,2.85,3.48,0.58,3.85-5.69,3.34-7.69,4.47-2.72,1.57-4.89,6.19-7.8,5.82-4.23-.55-13-8.84-17.21-6.77a62.9,62.9,0,0,0-6,3.22c-1.31,1-2.06,4.81-3.58,5.42-4.33,1.75-5.53-7.09-8.16-8.62-6.49-3.77-6.19,8-11.49,6.45-7.15-2-8.62-10.72-2.47-13.72l-3.54-1.26c-5.71-.52-7.38,1.32-13-0.44l-2.22,1.64c-1.42.07-2.64-1.38-4-1.28-2.43.18-5.78,4.1-8.12,3.7l-2.34-2.93c-3.32-2.19-.79.55-4.2,0.43-0.15,0-8.87-6.36-9.25-6.6-2.44-1.5-1.19,4.66-4.91,2.69s2.86-3.83-.51-5.73c-2.67-1.52-12.2-2.16-20-2.47v0c-0.34,3.51,3.36,12.47-1.39,14.82-0.13.06-11-.64-8.06,3.14,0.54,0.69,1.8-.24,2.59.1,5.25,2.27,6.5,10.35,3.82,15-1.84,3.23-3.08-1.43-4.55-1.3-0.42,0-1.61,3.85-4.48,3.85-2.61,0-6.1-2.54-8.64-2-2.81.59-5,4.52-7.74,5.47-1.65.56-3.65-.38-5.21,0.4C69.16,242.43,63,255.44,60,259.86L59.8,260c-0.09.68-1.31,1.81,1.11,4.33,3.64,3.79,1.67-2.7,1.78-2.81,1.16-1.14,2.34,3,2.73-1.64,0.08-.9-1.43-1.45-1.35-2.35,0.05-.54.95-0.94,1.18-1.68s1.46,2.74,5,1.88c0.73-.17,1.19-2.26,2.27-2.22,0.82,0-4.42,5.09-4.62,5.59-1.63,4,2.15.64,2.54,0.66,0.74,0-4.69,6.39-1,5.71a1.27,1.27,0,0,0,1-.61c0-.71.21-0.39,0,0,0,0.17,0,.37.05,0.64,0.81,5.63,5.21-4.26,6.22-6.11,0.47-.87-0.5,3.88-1.46,5.12-2.4,3.08-2.79,4.62-3.8,8.48-0.31,1.19,2.81-.25,3.57.69,1.34,1.67,2.82,3.7,2.64,5.83,0,0.21-1.61,3.09-.26,3.43,0.78,0.2,1.36-1.1,2.16-1.08,1.45,0,2.24,1.79,4,1.84,1,0,0,2.38.81,2.89s2.85,3.21,4.08,1.27c1.42-2.25.5-2.56,3-4.5,0.76-.61-1.05,1.91-0.75,2.85,0.91,2.8-2.21-1.24-1.78,2.81,0.13,1.28,7.65,6.53,8.36,6.56,1.58,0,2.38-4.58,3.38-3.35,1.24,1.53-3,4.43-2.55,6.24,0.51,2.21,2.5.88,3.12,0.08,0.07-.1.49-1.11,1.08-0.55,0.38,0.36-1.57,6.51-2.1,7.39-0.31.5,0,1.33,0.44,1.16a11.38,11.38,0,0,0,1.89-.82c0.24-.39.72-0.4,0,0-0.23.37-.18,1.08,1.67,2.06,0.32,0.17.68-.26,1-0.79,0.16-.35.33-0.66,0.46-0.91,0.24-.54.38-0.91,0.27-0.55a4.51,4.51,0,0,1-.27.55c-0.13.26-.3,0.56-0.46,0.91-0.62,1.29-1.26,3-.16,3.67a4,4,0,0,0,2.6.07c0.26,0,1.77,1.69,3.49,2.38,0.35,0.14.19,0.88-.08,1.15a8.64,8.64,0,0,0-.84,4.56,1,1,0,0,0,1,.6,33.41,33.41,0,0,0,4.21-.46c-1.45,1.42-5.15,3-5.6,5l0.56,0c2.72-1.17,7.78.31,9.54-2" fill="#b3b3b3"/>

    <path id="sierra-leone" class="sierra-leone js-sierra-leone-map" d="M170.06,389.64c3.3-3.15,17.27-16.39,19.88-17.83,0.79-.44,2,0.13,2.66-0.51,1.46-1.47-.4-7.14.49-9.11,2.14-4.69,7.93-1.74,9.79-5.47,1.17-2.35.72-8,1.6-10.74-3.17.9-3.83,2.77-7.09,5.5-2.13,1.78-4.1.75-7,2.7-1.65,1.11,1.1-3.83,1.9-5.65,1.4-3.12,3-4.35,5.13-6.71a3.27,3.27,0,0,0,1.16-1.68c0.08-1.41-3.59-4.89-3.8-6.91-0.11-.92,1.93-5,1.39-5.66-1.14-1.36-3.88,0-5.17-1.27-2.14-2,3.1-6,3.09-7.32,0-1.82-4.59-3.33-5.48-4.68-3.39-5.11-4.4-16.46-10.74-19.61-0.8-.4-1.78-0.07-2.68-0.09l-2.68-.07-10.72-.28-2.68-.08c-0.88,0-2-.62-2.67-0.07-0.86.67-2.6,5-7.62,4.35-1.64-.2-8.37-4-11.48-0.3,0,0-.89,5.1-0.89,5.11-3.56,7.78-7.66,11.27-14.08,14.49-2.08,1.05-1.34,4.67-2.51,6.24-1.76,2.35-6.82.87-9.54,2l-0.56,0c-0.25,1.17.54,2.5,3.41,4.05,5.44,2.95,6.08,2.13,6.64,2.46s-1.28.09-1.92,0.14c-2.64.19-2.85-.09-4.82-0.88s-1.9,10.73,0,10.3c2.91-.65.61-3.65,1.09-3.41a7.08,7.08,0,0,1,2,1.23,3.18,3.18,0,0,1,1.18-1.15c0.45-.31-0.52.68-0.92,1.58h0c-0.29.66-.31,1.25,0.75,1.28a5,5,0,0,0,3.68-1.08c0.63-1.27,2.23-3,1.76-2.23a9.77,9.77,0,0,1-1.76,2.23c-0.27.55-.38,1,0,1.17,0.67,0.27,1.6.07,2.05,0.61,0.63,0.76-1.92.52-2.92,0.5-1.52,0-4.66,1.79-5.7,3.29s3.51,0,2.44,2.92c-0.9,2.42-6.62-11.37-7.21-1.88-0.07,1,1.39,1.48,1.95,2.34,0.79,1.2,1.9,3.08,1.81,4.62,0,0.61-1.15,1.39-.63,1.7,1.09,0.65,3.86-4.18,5.93-2.72,0.62,0.43-.36,1.55-0.14,2.28s4.73,8.59,4.69,9.27c-0.09,1.57-4.66-1.12-4.74.45,0,0.65.94,0.87,1.51,1.19,0.14,0.09,1,1.25,1.47,1.75,1.11,1.31,1.64,0,3.14.06,0.78,0-1.09,1.62-.66,2.28,1,1.53,4.47,2.39,5.63,2.41,3.47,0.08,4.09-5,4.39-3.33,0.59,3.41-4.73,4.45-.78,4.55,1.16,0-.65,2.85.34,3.44,3,1.72,7.13-3.75,9-1.52,1.49,1.75-7.79,2-8,2.11-6,3,2.62,4.37,1.83,5.18-1,1-4.28-1.48-4.2-.08,0,0.28,11.51,4.73,16,6.53a65.43,65.43,0,0,1,15.06,9.65l0.19-.16c3.06-3.42,4-6.85,6.79-9.57" fill="#cdcdcd"/>

    <path id="liberia" class="liberia js-liberia-map" d="M284.49,472.62c-0.05-1.64,2.63-13.06,4-14.74s2.53,1.07,3.27-2.23c0.28-1.29-2.06-2.08-2-3.4,0,0,2.28-4.48,2.28-4.49,0.12-1.09-1.31-1.8-1.5-2.84,0,0,.17-4.53.17-4.54a6.34,6.34,0,0,0,.07-2.24c-1.14-3.39-9.37-.5-11-3.56-1.46-2.65-1.15-10.16-3.83-11.36-4.4-2-10.69.12-14.75-2.48-1.94-1.25,1.08-5.15-2.47-4.58-2,.34-4.56,3-4.75-0.63-0.09-1.88,6.79-6.37,7.78-8.37,3.75-7.61,2.51-20.93-1.91-27.78l0-.58c-0.82.48-1.66,0.6-2.6-1.16a2.9,2.9,0,0,1,.07-1.42c0-.48.44-1.12,0.07-1.42-5.59-4.55-6.48,15.9-11.85,15.09-2-.3-4.79,1.9-6.94,1.58-0.84-.12-1.91-6.12-3.91-6.87-1.62-.63-4-0.48-5.26-0.67-0.91-.14-2.24,2.59-2.19,1.67,0.2-4,5-8.39,4.88-13-0.17-5.76-3.93-11.37-4.38-17.11-0.08-1.19,1.61-2.23,1.25-3.38-1-3.11-4.74-.87-5.22-1.24s0.74-1.47.66-2.26-1.6-1.82-2-1.17c-0.31.48,0.4,2-.09,1.7-0.72-.41-0.62-1.53-0.93-2.27s-0.21-1.89-.93-2.3l-2.24,2.21a58.44,58.44,0,0,1-7,2.69c-0.06,0,.08-4.3-3.47-4a14.75,14.75,0,0,0-3.26.53c-0.88,2.74-.43,8.39-1.6,10.74-1.87,3.74-7.65.78-9.79,5.47-0.89,2,1,7.64-.49,9.11-0.63.64-1.87,0.07-2.66,0.51-2.61,1.44-16.58,14.68-19.88,17.83-2.84,2.72-3.73,6.15-6.79,9.57l-0.19.16a21,21,0,0,1,3.17,3.32c1,1.34-.11,2.91.31,4.57,0.2,0.77,11.36,4.62,14.44,7.1,1.31,1.06,4.62,2.77,4.59,3.49s-1.5.47-1.63,1.11c-0.17.81,1.23,1.52,1,2.3-0.19.51-1.53-1.16-1.56-.61-0.12,2.88,11.57,5.93,13.45,6.47,1.1,0.32-2.25-1.2-2.55-2.31-0.4-1.53,4.2.76,4.13,2.34-0.11,2.69,6,3.81,8.16,7.52,2.23,3.89,20.6,24.19,24.43,27,7.22,5.37,15.09,8.17,22.94,13.33,2.81,1.83,5.73,5.1,8.85,6.32,3,1.18,6.41,1.09,9.51,2.37,2.8,1.18,5,4.32,7.31,5.18a9.6,9.6,0,0,0,6.46.23L286,489c-2.68-2-1.38-12.42-1.51-16.34" fill="#fff"/>
  </g>
  <g id="countries">
    <g>
      <path d="M372.09,80.72s0-5.37,0-5.37q0-9.41,0-18.82,0-31.71.29-63.44H59.78c1,18.14-2.93,35.37-11.14,52.08C45.78,51,41,55.73,39,62.22,37.18,68,36.33,74,35.37,79.86h0.22c0.53,0.25-.65,2.11-0.23,1.72,3.85-3.61,4.19-11.43,8.11-15.1,3.49-3.28,6.31.32,9.5,1.07,6,1.42,11.65-1.7,16.12-2.61,2-.41,4.94.87,7,0.93a17.79,17.79,0,0,0,2.05-.18c4.65-.41.77-4.26,6.13-4,1.35,0.08,2,2,3.25,2.46,2,0.65,5.23.27,7.34,0.37,1.19,0.06,8.24-.4,8.87.44a127,127,0,0,1,9.45,14.16l2.9,1.29,0.17,2.85c1.58,0.28,2.76-2.34,4.34-2.08,1,0.16-.24,2.5.67,2.89,1.45,0.61,4.38-2.11,5.79-1.44,5.8,2.67,2.27,13.83,5.56,17.92,1,1.26,3.58.54,4.4,1.9s-1.41,2.66.62,3.45l3.14-.42c0.83,0.94,2.19,10.23,2.42,10.36,0.63,0.34,1.59-1,2.11-.48s-0.63,1.6-.26,2.26c1.36,2.48,7,2.65,8.72,4.92,1,1.25.19,3.29,1.05,4.6,2.26,3.45,8.15,4.61,11.2,6.14,0.51,0.26,7.87-5,8.38-5.9,1.48-2.74-.68-4.54-0.93-5.72-0.53-2.46,3.32-9.14,4.21-11.59,0,0,1.68-4.64,1.69-4.64,0.71-.27,1.17,1.28,1.92,1.22,1.53-.1,3.15-3.81,4.61-4.34,3.22-1.16,16.84,19.5,17,19.4,2.84-2,3.49-9.4,6.86-11.06,3.65-1.81,14.94,1.84,18.3,3,5.68,1.93,10.23-1.68,15.34-1.81l4.41-.11c0.74,0,1.77.54,2.21-.06s-1.34-9.72,3.46-8.33c1.73,0.49-1.28,6.11-.7,6.74,0.18,0.2,21.46.81,23.73,0.89q33.4,1.23,66.82,2.36c3.21,0.11,27.57,1.83,28.72.94s1.75-6.26,2.11-7.55c0.82-2.92,6.23-18.31,5.65-20.13C379.07,84,373.23,83.14,372.09,80.72Z" fill="#172936"/>
      <path d="M166,133.77a0.4,0.4,0,0,1-.19,0,32.23,32.23,0,0,0-3.06-1.25c-3.1-1.15-6.61-2.45-8.33-5.07a4.73,4.73,0,0,1-.57-2.5,3.65,3.65,0,0,0-.46-2.07c-0.74-1-2.41-1.55-4-2.12-1.94-.69-3.94-1.39-4.75-2.86a1.76,1.76,0,0,1,.15-1.57,1.84,1.84,0,0,0,.19-0.59,3.72,3.72,0,0,1-.45.29,1.56,1.56,0,0,1-1.54.29c-0.28-.16-0.3-0.17-0.87-3.23a58,58,0,0,0-1.58-7l-2.94.4-0.12,0c-1.64-.63-1.23-1.8-1-2.5a1.38,1.38,0,0,0,.11-1.16,2.62,2.62,0,0,0-1.87-.77,3.8,3.8,0,0,1-2.5-1.08c-1.49-1.86-1.66-4.89-1.84-8.11-0.23-4.06-.46-8.25-3.53-9.66-0.5-.23-1.55.27-2.48,0.71-1.16.55-2.37,1.13-3.3,0.74s-0.69-1.31-.62-2a2.7,2.7,0,0,0,0-.87,2.92,2.92,0,0,0-1.72,1,3.28,3.28,0,0,1-2.58,1.15l-0.39-.07-0.18-2.95L113,79.59l-0.16-.07-0.08-.15a121.34,121.34,0,0,0-9-13.5l-0.44-.6c-0.55-.42-5-0.31-6.7-0.26-0.86,0-1.48,0-1.79,0-0.65,0-1.42,0-2.23,0a17.35,17.35,0,0,1-5.24-.4,4.08,4.08,0,0,1-1.71-1.37,2.41,2.41,0,0,0-1.41-1.06c-2.39-.12-2.59.56-2.86,1.5S80.77,66,78.2,66.19l-0.66.08a9.69,9.69,0,0,1-1.45.11,15.72,15.72,0,0,1-2.95-.5,10.41,10.41,0,0,0-3.94-.44,39.68,39.68,0,0,0-4,1.13c-3.69,1.18-7.88,2.52-12.34,1.47A12.9,12.9,0,0,1,50,66.83c-2.13-1.1-4-2.05-6.17,0-1.88,1.76-2.94,4.64-4,7.42s-2.14,5.8-4.14,7.68A0.54,0.54,0,0,1,35,82c-0.36-.25-0.21-0.61,0-1a7,7,0,0,0,.25-0.67H34.78l0.41-2.52A112.1,112.1,0,0,1,38.5,62.07c1.23-4,3.48-7.31,5.66-10.55a57.76,57.76,0,0,0,4-6.58c8.43-17.15,12.06-34.1,11.09-51.83l0-.53H372.82v0.5c-0.2,21.54-.29,42.88-0.29,63.44q0,9.42,0,18.82c0,1.89,0,4.68,0,5.25,0.52,1,2.06,1.73,3.56,2.47,1.83,0.91,3.72,1.84,4.18,3.36,0.4,1.27-1.22,6.72-4.35,16.33-0.61,1.88-1.1,3.37-1.3,4.08-0.09.32-.21,1-0.36,1.71-0.59,3.08-1.1,5.48-1.93,6.1s-6.88.45-24.22-.58c-2.33-.14-4.1-0.24-4.82-0.27-22.14-.75-44.62-1.54-66.83-2.36l-3.19-.1c-20.6-.64-20.66-0.71-20.88-1-0.41-.45-0.18-1.22.36-2.93,0.39-1.21,1-3,.67-3.59a0.15,0.15,0,0,0-.1-0.09,1.8,1.8,0,0,0-1.67.15c-1.2.93-1.11,4-1.06,5.86,0,1.35,0,1.84-.19,2.14a1.74,1.74,0,0,1-1.9.36,3.87,3.87,0,0,0-.69-0.1l-0.94,0-3.48.09a21.47,21.47,0,0,0-5.59,1.15c-3.09.92-6.27,1.88-9.93,0.63-3.33-1.14-14.48-4.73-17.92-3-1.63.81-2.62,3.26-3.58,5.63s-1.77,4.39-3.22,5.39c-0.45.28-.45,0.28-2.16-2.13-10.52-14.89-13.94-17.57-15-17.21a6.54,6.54,0,0,0-1.86,1.92c-0.94,1.22-1.83,2.38-2.89,2.45a1.77,1.77,0,0,1-1.35-.82c-0.08-.09-0.19-0.22-0.29-0.32l-1.54,4.23c-0.26.72-.76,1.77-1.34,3-1.27,2.68-3.2,6.74-2.85,8.33a4.15,4.15,0,0,0,.46,1c0.65,1.14,1.63,2.86.42,5.1C174.58,128.16,167.6,133.77,166,133.77Zm0.26-.93h0Zm-21.21-18.09a0.86,0.86,0,0,1,.62.25,1.41,1.41,0,0,1,0,1.69,1.54,1.54,0,0,0-.2.69c0.62,1.14,2.44,1.78,4.21,2.4s3.56,1.26,4.48,2.45a4.41,4.41,0,0,1,.67,2.63,4,4,0,0,0,.4,2c1.53,2.34,4.88,3.58,7.84,4.68,1.12,0.41,2.17.81,3,1.23,1.15-.39,7.41-4.87,7.84-5.63,0.95-1.76.23-3-.41-4.13a4.64,4.64,0,0,1-.57-1.24c-0.42-1.92,1.44-5.83,2.93-9,0.57-1.19,1.06-2.22,1.3-2.9,1.64-4.53,1.79-4.93,2.07-5a1.49,1.49,0,0,1,1.45.75,1.43,1.43,0,0,0,.52.48c0.6,0,1.47-1.16,2.16-2.06a6.58,6.58,0,0,1,2.31-2.25c2.09-.76,6.76,4.33,16.12,17.57L203,121c1-1,1.77-2.83,2.5-4.65,1-2.55,2.09-5.18,4.06-6.16,3.68-1.83,14.29,1.47,18.69,3,3.35,1.14,6.25.27,9.32-.64a22.55,22.55,0,0,1,5.85-1.2l3.48-.09,0.93,0a4,4,0,0,1,.92.12,1.29,1.29,0,0,0,.9,0c0-.12,0-0.89,0-1.51-0.06-2.17-.15-5.44,1.45-6.68a2.75,2.75,0,0,1,2.56-.32,1.15,1.15,0,0,1,.71.58c0.5,0.93-.06,2.68-0.6,4.37a15.15,15.15,0,0,0-.51,1.84c2.19,0.18,14.61.56,20.12,0.73l3.19,0.1c22.2,0.82,44.69,1.61,66.82,2.36,0.72,0,2.5.13,4.84,0.27,6.68,0.4,22.33,1.33,23.59.75,0.55-.42,1.21-3.83,1.52-5.47,0.15-.8.27-1.43,0.38-1.79,0.21-.74.7-2.23,1.31-4.12,1.54-4.71,4.73-14.51,4.35-15.72s-2-2-3.67-2.76-3.44-1.71-4.06-3l0,0a50.89,50.89,0,0,1-.12-5.57q0-9.41,0-18.83c0-20.4.09-41.57,0.29-62.94H60.3c0.87,17.71-2.8,34.66-11.22,51.8A58.55,58.55,0,0,1,45,52.07c-2.14,3.18-4.36,6.47-5.54,10.29A111.41,111.41,0,0,0,36.17,78l-0.24,1.47a0.66,0.66,0,0,1,.25.35,27.06,27.06,0,0,0,2.72-5.92C40,71,41.08,68,43.14,66.11c2.72-2.55,5.16-1.29,7.31-.17a12.16,12.16,0,0,0,2.65,1.12c4.19,1,8.23-.31,11.8-1.45A40.27,40.27,0,0,1,69,64.45a11,11,0,0,1,4.37.44,15.06,15.06,0,0,0,2.75.47,8.48,8.48,0,0,0,1.3-.1l0.7-.08c1.88-.17,2.08-0.87,2.33-1.75,0.37-1.31.93-2.38,3.87-2.23a3.2,3.2,0,0,1,2.11,1.4,3.33,3.33,0,0,0,1.27,1.08A16.76,16.76,0,0,0,92.6,64c0.83,0,1.62,0,2.3,0,0.27,0,.94,0,1.72,0,5.29-.14,7.05,0,7.53.67l0.44,0.6a123.67,123.67,0,0,1,9,13.47c3,1.34,3,1.35,3,1.68l0.14,2.34a4,4,0,0,0,1.38-.91,3.33,3.33,0,0,1,2.58-1.15c1,0.15.85,1.22,0.77,1.92a2.43,2.43,0,0,0,0,1C122,83.84,123,83.34,124,82.9c1.18-.56,2.4-1.15,3.33-0.71,3.61,1.66,3.86,6.16,4.11,10.52,0.17,3.05.33,5.93,1.63,7.54a3,3,0,0,0,1.88.72,3.35,3.35,0,0,1,2.56,1.24,2.25,2.25,0,0,1,0,2c-0.25.71-.33,0.92,0.29,1.19L141,105l0.18,0.2c0.53,0.6,1,3,1.93,7.72,0.19,1,.38,2,0.49,2.49,0.13-.06.32-0.17,0.43-0.24A2.21,2.21,0,0,1,145.07,114.75Z" fill="#284a61"/>
    </g>
    <g>
      <path d="M44.5,181.51c1.16-.77-0.44-5.43.67-6.29,4.2-3.27,12.88,1.91,17-.44,1.85-1.06,2.65-7.71,5.41-7.24,1.46,0.25,3.34,4,4.63,4.78,3.8,2.41,7.34,3,11.44,3.9,1.83,0.38,3.54,3.38,5.24,4.21,3.29,1.62,13.43-.6,16.73-2.2,3.65-1.79,1-6.43-1.25-8.07-3.79-2.72-9.35,3.88-13.25,3.48-2.67-.28-3.66-5-5-6.5-2.94-3.42-6.57,2.31-8.66-.93-1.9-3-1.91-6.93-7.52-6.62-2,.11-11.74,2.45-12.76,4.06-0.74,1.14.21,3.26-.95,4-2.36,1.47-28.58-1.22-33.19-1.42H22.9c0.43,2.15,1.8,4.34,2.32,5.92,1.15,3.48,9.61-.8,10.11-0.78a153.38,153.38,0,0,0,16.47-.46L54,169.27c3.36,0.53,2.76,1.84,7.49,2,0.8,0-.92,1.68-1.72,1.65-2.66-.11-3-3.6-5.9-2.54-3.44,1.24-20,2.4-20.94,3.71a0.87,0.87,0,0,0-.06.57c0.68,6-3.42,2.73-5.36,2.08-2.93-1-.34,4.14-1.33,2.82-0.89-1.16-4.17-3.48-4.61-4.8-0.57-1.73.58-4.48,0.5-4.6-1.71-2.28-7.89,1.86-8.15,4.27-0.35,3.23,1.07,7,1.33,9.33l0.23,0c5-9,22.77,2,29-2.25" fill="#172936"/>
      <path d="M14.85,184.39l-0.06-.53a26.11,26.11,0,0,0-.54-2.76,20.9,20.9,0,0,1-.79-6.68c0.22-2,3.48-4.53,5.9-5.19,1.42-.39,2.53-0.15,3.16.68a1,1,0,0,1,0,.94c-0.23.79-.77,2.64-0.39,3.8,0.22,0.68,1.57,1.87,2.65,2.83l0.91,0.82a2,2,0,0,1,.39-1.82,1.6,1.6,0,0,1,1.67-.16,11.8,11.8,0,0,1,1.31.58c1,0.49,2.38,1.15,3,.73,0.26-.18.65-0.79,0.42-2.86a1.3,1.3,0,0,1,.13-0.89c0.53-.73,3.1-1.2,8.63-1.94-2,0-3.93,0-5.87-.06l-0.83.34c-2.05.81-6.32,2.5-8.5,1.49a2.26,2.26,0,0,1-1.23-1.38,20.24,20.24,0,0,0-.84-2,18.66,18.66,0,0,1-1.49-4l-0.12-.6h0.78c1.16,0.05,3.57.25,6.61,0.5,8,0.66,24.67,2,26.32,1,0.38-.23.4-0.78,0.39-1.65a3.89,3.89,0,0,1,.4-2.17c1.18-1.85,11.28-4.18,13.16-4.28,4.62-.26,5.76,2.26,6.87,4.7a16.89,16.89,0,0,0,1.1,2.15c0.75,1.17,1.64.9,3.27,0.26s3.6-1.41,5.35.62a11.32,11.32,0,0,1,1.33,2.36c0.85,1.79,1.81,3.81,3.33,4s3.32-.87,5.26-1.94c2.84-1.58,5.78-3.21,8.23-1.45,1.75,1.25,3.44,3.86,3.26,6a3.44,3.44,0,0,1-2.08,2.87c-3.16,1.53-13.61,4-17.17,2.2a9.59,9.59,0,0,1-2.4-2.05c-0.91-1-1.85-1.94-2.72-2.12l-1-.21c-3.79-.8-7.06-1.5-10.63-3.76a9.93,9.93,0,0,1-2-2.22c-0.8-1.06-1.8-2.38-2.45-2.49-1.25-.21-2.13,1.88-2.92,3.72-0.65,1.52-1.26,2.95-2.16,3.46-2.09,1.19-5.05.64-8.19,0.05-3.29-.61-6.7-1.25-8.75.35-0.34.26-.21,1.73-0.13,2.71,0.13,1.57.26,3-.57,3.6-2.82,1.92-7.62,1-12.7-.06C25.49,180.55,18.67,179.18,16,184l-0.12.21ZM20.6,170a3.82,3.82,0,0,0-1,.15c-2.21.61-5,3-5.17,4.34a20.17,20.17,0,0,0,.77,6.35c0.15,0.64.29,1.25,0.4,1.82,2.2-2.94,6-3.34,10.1-2.91a19.67,19.67,0,0,0-1.65-1.56c-1.29-1.15-2.63-2.33-2.94-3.26-0.48-1.45.1-3.44,0.38-4.39l0.06-.21A1.42,1.42,0,0,0,20.6,170Zm6.34,9.89c1.77,0.24,3.58.61,5.33,1,4.87,1,9.47,1.9,11.94.21h0c0.34-.23.21-1.77,0.13-2.69-0.13-1.54-.26-3,0.51-3.58,2.41-1.88,6-1.2,9.55-.54,3,0.55,5.74,1.07,7.51.06,0.61-.35,1.18-1.69,1.73-3,0.93-2.18,2-4.66,4-4.31,1,0.18,2,1.49,3.08,2.87a9.87,9.87,0,0,0,1.74,2c3.42,2.17,6.61,2.85,10.3,3.63l1,0.21C84.93,176,86,177.08,87,178.14A9.18,9.18,0,0,0,89.11,180c3.08,1.51,12.94-.58,16.3-2.2a2.46,2.46,0,0,0,1.52-2.06c0.15-1.75-1.35-4.08-2.84-5.15-1.94-1.39-4.48,0-7.16,1.51-2.08,1.16-4,2.25-5.84,2.07-2.08-.21-3.22-2.61-4.13-4.53a10.84,10.84,0,0,0-1.19-2.14c-1.28-1.49-2.65-1-4.22-.34s-3.24,1.27-4.47-.65a17.62,17.62,0,0,1-1.17-2.27c-1.1-2.42-2-4.33-5.9-4.12-2,.11-11.53,2.51-12.37,3.82a3.18,3.18,0,0,0-.24,1.62c0,0.92,0,2-.86,2.51-1.78,1.1-13.75.23-26.93-.85-2.64-.22-4.8-0.39-6.05-0.47a21.87,21.87,0,0,0,1.26,3.15,20.86,20.86,0,0,1,.89,2.09,1.27,1.27,0,0,0,.71.79c1.79,0.84,5.93-.81,7.7-1.51a4,4,0,0,1,1.24-.4,152,152,0,0,0,16.28-.44l2.28-1.67,0.2,0a8.7,8.7,0,0,1,3,1,8.88,8.88,0,0,0,4.44,1,0.68,0.68,0,0,1,.61.35,0.79,0.79,0,0,1-.1.83,3.43,3.43,0,0,1-2.27,1.47,4.29,4.29,0,0,1-2.93-1.6c-0.85-.84-1.46-1.45-2.77-1-1.6.58-5.73,1.11-10.11,1.68-4.22.54-10,1.29-10.6,1.88,0.06,0,0,.12,0,0.19,0.23,2,0,3.24-.83,3.81-1.07.76-2.62,0-4-.65a11.31,11.31,0,0,0-1.19-.53,0.83,0.83,0,0,0-.68-0.05c-0.28.26,0,1.51,0.13,1.92A2,2,0,0,1,26.94,179.93Zm30.51-8.88,0.1,0.1a3.4,3.4,0,0,0,2.27,1.31,3,3,0,0,0,1.11-.68A10,10,0,0,1,57.45,171.05Zm-3.3-1.25,0,0h0Z" fill="#284a61"/>
    </g>
    <g>
      <path d="M29.73,205.11c5.3-.55,11,2.44,16.29,1.78,6-.74,10-6.51,15.23-8a7.9,7.9,0,0,1,2.63.09l7.91,0.32,26.42,1c5.5,0.2,25.25.48,29.3,2.78,3.36,1.9-3.19,3.76.51,5.73s2.48-4.2,4.91-2.69c0.39,0.24,9.1,6.59,9.25,6.6,3.41,0.12.88-2.62,4.2-.43l2.34,2.93c2.35,0.4,5.7-3.53,8.12-3.7,1.41-.11,2.63,1.35,4,1.28l2.22-1.64c5.59,1.76,7.25-.08,13,0.44l3.54,1.26c0.55-.46-2.68-8.53-1.12-10.85,2-3,2.66-9.63,1.14-12.46-0.55-1-2.4-.78-2.95-1.8-1.2-2.23,0-5.85-1.33-8-2.7-4.46-4.31,1-6.37,1.48-3.18.82-1.47-4-1.63-4.61-0.81-3.13-4.45-5.87-5.89-8.75-0.19-.4,5.36-3.6,4.8-6.65-0.44-2.5-.54-12.39-1.25-13.13s-4.37-3.18-4.74-4.17c-1.85-5,3.64-5.61-.22-12.53l0.16-.37c-2.16-.92-4.24-2.08-5.38-3.82-0.86-1.31-.09-3.34-1.05-4.6-1.74-2.27-7.36-2.44-8.72-4.92-0.37-.66.8-1.74,0.26-2.26s-1.49.82-2.11,0.48c-0.23-.13-1.6-9.43-2.42-10.36l-3.14.42c-2-.79.11-2.21-0.62-3.45s-3.4-.65-4.4-1.9c-3.29-4.09.24-15.25-5.56-17.92-1.42-.67-4.34,2.05-5.79,1.44-0.91-.39.3-2.73-0.67-2.89-1.59-.26-2.76,2.35-4.34,2.08l-0.17-2.85-2.9-1.29A127,127,0,0,0,103.75,65c-0.62-.85-7.68-0.38-8.87-0.44-2.11-.11-5.36.28-7.34-0.37-1.29-.42-1.9-2.38-3.25-2.46-5.36-.27-1.48,3.57-6.13,4a17.84,17.84,0,0,1-2.05.18c-2.07-.06-5-1.34-7-0.93C64.63,65.85,59,69,53,67.55c-3.19-.75-6-4.35-9.5-1.07-3.92,3.67-4.26,11.48-8.11,15.1-0.42.39,0.76-1.47,0.22-1.72H35.37a107.77,107.77,0,0,1-2.28,11.38c-1.52,5.6-18.13,25.43-23,28.81-6.69,4.66-10.51,2-10,4.06s4.58,1.56,7,3.29c2.86,2,1.95,5.93,4.1,8.28,1.13,1.23,2.8.68,3.28,2.46,1,3.65,3.58,9,3.6,12.86,0,1.82.23-.18,3.49,0.73,1.23,0.35,2.15-.69,3.09-2l0.07-.09c1.53-2.09,3.21-4.75,6.66-3.24,0.91,0.4-4.9,1.13-6.66,3.24l-0.07.09a2.08,2.08,0,0,0-.42.95c-0.55,4.86-6.07-1.8-5.81,6.1,0.26,7.34,7.55-4.23,8.73-4.8s-1.08,2.6-1.48,4c-0.27,1,1.29,3.71.7,2.9-1.24-1.65-6.19-.7-5.49,3.22,1,5.39,1.94,1.06,1.79,2.39a5.48,5.48,0,0,0,.15,1.74h0.16c4.62,0.2,30.83,2.89,33.19,1.42,1.16-.72.2-2.84,0.95-4,1-1.6,10.8-3.95,12.76-4.06,5.61-.32,5.62,3.66,7.52,6.62,2.08,3.24,5.72-2.49,8.66.93,1.33,1.54,2.32,6.23,5,6.5,3.89,0.4,9.45-6.21,13.25-3.48,2.28,1.64,4.9,6.28,1.25,8.07-3.31,1.61-13.44,3.82-16.73,2.2-1.69-.83-3.41-3.84-5.24-4.21-4.1-.88-7.64-1.49-11.44-3.9-1.29-.82-3.18-4.53-4.63-4.78-2.75-.47-3.55,6.18-5.41,7.24-4.12,2.35-12.8-2.83-17,.44-1.11.86,0.49,5.52-.67,6.29-6.22,4.23-23.94-6.71-29,2.25l-0.23,0a5.08,5.08,0,0,1,.1,1.11c-0.25,2.45-3.1,10.29-2.68,10.86,0.63,0.82,3.64-1.38,3.13-.46-0.79,1.42-6.93,6.54-2.13,5.68,3.12-.56,3.85-7.34,5.38-7.28,1.29,0-2.28,3.7-1.45,4,6.59,2.17,2.74-1.06,4.21-1,0.47,0,1.25,3.93,3.12,4.73,1.07,0.46.82-1.69,2.21-1.64a34.93,34.93,0,0,0,6.24.07l0.42-.09a5.83,5.83,0,0,0,1.08-.25c1.2-.47.07-3.46,1.88-3.38,0.57,0-.38,1.19-0.18,1.73,0,0,1.53,1.64,2.32,2.49,0.59,0.22,1.23.43,1.92,0.69,2.34,0,4.25-1.2,6.13,1.25,1.32,1.73,2.67-1.73,4.2-5a2.4,2.4,0,0,1,.66-2.27,1.75,1.75,0,0,1,.58-0.16c1.24-2.17,2.63-3.44,4.2-1.36,0.59,0.75-2.82,1.09-4.2,1.36-0.43.73-.84,1.57-1.24,2.43,0.22,1.6,1.09,3.4-1.12,5.12-0.64.5-1.38,1.23-2.16,1.08-1-.21-4.24-1.42-7-2.44a5.81,5.81,0,0,1-1.45-.2l-0.47-.49a18.36,18.36,0,0,0-2.49-.77,7.67,7.67,0,0,0-2.62.19l-0.42.09c-2.88.7-6,2.24-8,2.17-9.44-.39-1.48-4.48-9.73-0.4-2.17,1.08-2.35-.44-3.81,2.15-0.5.88,1,3.15,2.93,5.41L15,209.1c5.22-.94,9.72-3.48,14.77-4" fill="#172936"/>
      <path d="M149.07,215.72a2.5,2.5,0,0,1-.43,0l-0.19,0-2.41-3a5.85,5.85,0,0,0-1.28-.71l0,0.08c-0.22.44-.64,1.27-2.56,1.19-0.23,0-.25,0-6.43-4.47-1.51-1.09-2.93-2.12-3.07-2.21a0.73,0.73,0,0,0-.48-0.15,2.37,2.37,0,0,0-.63,1.11,3.22,3.22,0,0,1-1.6,2.1,2.65,2.65,0,0,1-2.17-.34,2.4,2.4,0,0,1-1.41-1.51,2.8,2.8,0,0,1,.91-2.19,2.24,2.24,0,0,0,.71-1.32,1.43,1.43,0,0,0-.73-0.72c-3.48-2-19.72-2.44-26.65-2.64l-2.42-.07-17.26-.65-9.16-.34-4.84-.19-3.07-.13c-0.3,0-.61-0.06-0.92-0.1a3.63,3.63,0,0,0-1.55,0A21.66,21.66,0,0,0,55,203c-2.69,2-5.47,4-8.93,4.4-2.76.35-5.64-.28-8.42-0.88a25.8,25.8,0,0,0-7.87-.9h0a35.46,35.46,0,0,0-7.86,2,47.81,47.81,0,0,1-6.75,1.93l-0.44.33-0.3-.35c-3.84-4.47-3.2-5.6-3-6,0.94-1.67,1.46-1.87,2.42-1.94a3.67,3.67,0,0,0,1.6-.42c3.55-1.75,4.09-2,4.6-1.79a0.93,0.93,0,0,1,.51.61c0.14,0.36.45,1.14,3.48,1.44a8.65,8.65,0,0,1-2-3.19,0.88,0.88,0,0,1-.23.37c-0.46.44-1.39,0.53-4.4-.46a0.69,0.69,0,0,1-.32-0.21c-0.77,1.65-1.77,3.24-3.37,3.52-0.79.14-1.89,0.25-2.28-.46-0.51-.92.67-2.32,2.52-4.33l0.54-.59c-0.86.35-1.78,0.59-2.25,0-0.32-.44-0.15-1.27,1.12-5.57a45.17,45.17,0,0,0,1.46-5.65,3.22,3.22,0,0,0-.06-0.73l-0.1-.75,0.48-.08c3.15-5.21,10.54-3.74,17.07-2.43,4.87,1,9.47,1.9,11.94.21,0.34-.23.21-1.77,0.13-2.69-0.13-1.54-.26-3,0.51-3.58,2.41-1.88,6-1.2,9.55-.54,3,0.55,5.74,1.07,7.51.06,0.61-.35,1.18-1.69,1.73-3,0.93-2.18,2-4.66,4-4.31,1,0.18,2,1.49,3.08,2.87a9.87,9.87,0,0,0,1.74,2c3.42,2.17,6.61,2.85,10.3,3.63l1,0.21C84.93,176,86,177.08,87,178.14A9.18,9.18,0,0,0,89.11,180c3.08,1.51,12.94-.58,16.3-2.2a2.46,2.46,0,0,0,1.52-2.06c0.15-1.75-1.35-4.08-2.84-5.15-1.94-1.39-4.48,0-7.16,1.51-2.08,1.16-4,2.25-5.84,2.07-2.08-.21-3.22-2.61-4.13-4.53a10.84,10.84,0,0,0-1.19-2.14c-1.28-1.49-2.65-1-4.22-.34s-3.24,1.27-4.47-.65a17.62,17.62,0,0,1-1.17-2.27c-1.1-2.42-2-4.33-5.9-4.12-2,.11-11.53,2.51-12.37,3.82a3.18,3.18,0,0,0-.24,1.62c0,0.92,0,2-.86,2.51-1.78,1.1-13.75.23-26.93-.85-3-.25-5.44-0.44-6.55-0.49H22.5l-0.09-.39a8,8,0,0,1-.16-1,0.77,0.77,0,0,1-.31,0c-0.56-.1-1-0.68-1.47-3.18a3.8,3.8,0,0,1,.55-2.89,2.09,2.09,0,0,1-1.76.37c-0.79-.27-1.21-1.2-1.27-2.84-0.07-2.09.24-3.39,1-4.09a2.65,2.65,0,0,1,2-.62,3.8,3.8,0,0,0-2.24.1,0.85,0.85,0,0,1-.83,0,1.32,1.32,0,0,1-.32-1.18c0-2.52-1.19-5.77-2.22-8.63-0.53-1.48-1-2.88-1.37-4.11a1.7,1.7,0,0,0-1.4-1.21,4.06,4.06,0,0,1-1.77-1,8.83,8.83,0,0,1-1.78-4c-0.42-1.64-.81-3.2-2.24-4.2a10.63,10.63,0,0,0-3.55-1.33c-1.71-.43-3.33-0.83-3.69-2.24a1.29,1.29,0,0,1,.12-1.07c0.33-.45.93-0.5,1.84-0.56a14.92,14.92,0,0,0,8.23-3c4.74-3.3,21.28-23,22.79-28.53a107,107,0,0,0,2.27-11.33l0.07-.41,0.75,0,0.1,0a0.69,0.69,0,0,1,.39.43,27.06,27.06,0,0,0,2.72-5.92C40,71,41.08,68,43.14,66.11c2.72-2.55,5.16-1.29,7.31-.17a12.15,12.15,0,0,0,2.65,1.12c4.19,1,8.23-.31,11.8-1.45A40.27,40.27,0,0,1,69,64.45a11,11,0,0,1,4.37.44,15.06,15.06,0,0,0,2.75.47,8.16,8.16,0,0,0,1.3-.1l0.7-.08c1.88-.17,2.08-0.87,2.33-1.75,0.37-1.31.92-2.38,3.87-2.23a3.19,3.19,0,0,1,2.11,1.4,3.33,3.33,0,0,0,1.27,1.08,16.78,16.78,0,0,0,4.9.35c0.83,0,1.62,0,2.31,0,0.27,0,.94,0,1.71,0,5.29-.14,7.06,0,7.53.67l0.44,0.59a123.82,123.82,0,0,1,9,13.47c3,1.34,3,1.35,3,1.68l0.14,2.34a4,4,0,0,0,1.38-.91,3.33,3.33,0,0,1,2.58-1.15c1,0.15.85,1.22,0.78,1.92a2.43,2.43,0,0,0,0,1C122,83.84,123,83.34,124,82.9c1.18-.56,2.41-1.15,3.34-0.71,3.61,1.66,3.86,6.16,4.11,10.51,0.17,3.05.33,5.93,1.63,7.54a3,3,0,0,0,1.88.72,3.35,3.35,0,0,1,2.56,1.24,2.25,2.25,0,0,1,0,2c-0.25.71-.33,0.92,0.29,1.19L141,105l0.18,0.2c0.53,0.6,1,3,1.93,7.72,0.19,1,.38,2,0.49,2.49,0.13-.06.31-0.17,0.43-0.24a1.32,1.32,0,0,1,1.66-.13,1.41,1.41,0,0,1,0,1.69,1.54,1.54,0,0,0-.2.69c0.62,1.14,2.44,1.78,4.21,2.4s3.56,1.26,4.48,2.46a4.41,4.41,0,0,1,.67,2.63,4,4,0,0,0,.4,2c1.16,1.77,3.37,2.88,5.16,3.64l0.46,0.2-0.26.61c2.16,4,1.27,6.06.49,7.88a5.24,5.24,0,0,0-.36,4.51c0.19,0.52,2.08,2,3.1,2.75a18,18,0,0,1,1.53,1.25c0.47,0.49.65,2.4,1,7.92,0.13,2.31.25,4.49,0.42,5.47,0.45,2.46-2.34,4.78-4,6.16-0.26.21-.54,0.45-0.7,0.6a21.26,21.26,0,0,0,2.44,3.28c1.41,1.67,2.86,3.4,3.35,5.31a3.24,3.24,0,0,1-.09,1.18c-0.15.88-.42,2.52,0.1,3a1.12,1.12,0,0,0,1,.07,4.57,4.57,0,0,0,1.69-1.42c0.85-.95,1.73-1.92,2.88-1.82,0.82,0.08,1.6.73,2.35,2a8.56,8.56,0,0,1,.78,4.33,8.31,8.31,0,0,0,.56,3.7,2,2,0,0,0,1.2.67,2.77,2.77,0,0,1,1.75,1.13c1.6,3,1,9.8-1.17,13-0.88,1.3.12,5.28,0.72,7.65s0.73,3,.3,3.31l-0.22.18L176,212.05a24.62,24.62,0,0,0-5.37.15,16.08,16.08,0,0,1-7.39-.52l-2.14,1.58h-0.15a4.56,4.56,0,0,1-2.27-.7,3.6,3.6,0,0,0-1.77-.58,9.14,9.14,0,0,0-3.52,1.76C151.92,214.72,150.42,215.72,149.07,215.72Zm-0.08-1c1.06,0.05,2.46-.89,3.82-1.8s2.75-1.84,4-1.93a4.29,4.29,0,0,1,2.3.69,4.13,4.13,0,0,0,1.62.59l2.3-1.69,0.24,0.08a15.08,15.08,0,0,0,7.22.56,25.78,25.78,0,0,1,5.64-.14l0.12,0,2.88,1c-0.09-.5-0.29-1.27-0.46-2-0.72-2.86-1.71-6.78-.58-8.45,1.92-2.83,2.52-9.31,1.11-11.95a2,2,0,0,0-1.18-.65,2.77,2.77,0,0,1-1.77-1.15,9.11,9.11,0,0,1-.68-4.16,7.77,7.77,0,0,0-.63-3.82,2.67,2.67,0,0,0-1.59-1.51c-0.64-.07-1.36.73-2,1.49a5.08,5.08,0,0,1-2.18,1.72,2,2,0,0,1-1.94-.31c-0.92-.85-0.61-2.68-0.41-3.9a6.13,6.13,0,0,0,.11-0.79c-0.43-1.67-1.81-3.31-3.15-4.89A20.28,20.28,0,0,1,161,168c-0.23-.47.13-0.77,1.09-1.57,1.4-1.16,4-3.33,3.67-5.21-0.18-1-.31-3.25-0.43-5.59-0.15-2.7-.37-6.77-0.7-7.3-0.18-.19-0.77-0.64-1.4-1.12-1.83-1.41-3.15-2.46-3.42-3.19a6.2,6.2,0,0,1,.38-5.25c0.77-1.8,1.5-3.5-.57-7.21l-0.12-.21,0.06-.14a11.64,11.64,0,0,1-5.15-3.81,4.72,4.72,0,0,1-.57-2.5,3.65,3.65,0,0,0-.46-2.06c-0.74-1-2.41-1.55-4-2.12-1.94-.69-3.94-1.4-4.75-2.86a1.76,1.76,0,0,1,.15-1.57,1.85,1.85,0,0,0,.19-0.59,3.68,3.68,0,0,1-.45.29,1.56,1.56,0,0,1-1.54.29c-0.28-.16-0.3-0.17-0.87-3.23a58,58,0,0,0-1.58-7l-2.94.4-0.12,0c-1.64-.63-1.23-1.8-1-2.5a1.38,1.38,0,0,0,.11-1.16,2.62,2.62,0,0,0-1.87-.77,3.8,3.8,0,0,1-2.5-1.08c-1.49-1.86-1.66-4.89-1.84-8.11-0.23-4.06-.46-8.25-3.53-9.66-0.5-.23-1.55.27-2.48,0.71-1.16.56-2.37,1.13-3.3,0.74s-0.69-1.31-.62-2a2.69,2.69,0,0,0,0-.87,2.82,2.82,0,0,0-1.72,1,3.3,3.3,0,0,1-2.58,1.15l-0.39-.07-0.18-2.95L113,79.59l-0.16-.07-0.08-.15a121.35,121.35,0,0,0-9-13.5l-0.44-.59c-0.55-.42-5-0.31-6.7-0.26-0.86,0-1.48,0-1.79,0-0.65,0-1.42,0-2.24,0a17.31,17.31,0,0,1-5.24-.4,4.08,4.08,0,0,1-1.71-1.37,2.41,2.41,0,0,0-1.41-1.06c-2.4-.12-2.59.56-2.86,1.5S80.77,66,78.2,66.19l-0.66.08a9.75,9.75,0,0,1-1.45.11,15.68,15.68,0,0,1-2.95-.5,10.42,10.42,0,0,0-3.95-.44,39.68,39.68,0,0,0-4,1.13c-3.69,1.18-7.88,2.52-12.34,1.47A12.88,12.88,0,0,1,50,66.83c-2.13-1.1-4-2.05-6.17,0-1.88,1.76-2.94,4.64-4,7.42s-2.14,5.8-4.14,7.68a0.77,0.77,0,0,1-.19.13,92.32,92.32,0,0,1-1.94,9.31C32,97.08,15.2,117.12,10.38,120.47a16,16,0,0,1-8.72,3.14,4.06,4.06,0,0,0-1.1.16s0,0.08,0,.23c0.21,0.83,1.48,1.15,3,1.51A11.53,11.53,0,0,1,7.44,127c1.73,1.22,2.19,3,2.63,4.77a8,8,0,0,0,1.55,3.58,3.16,3.16,0,0,0,1.38.78A2.65,2.65,0,0,1,15,138c0.32,1.19.82,2.57,1.34,4,1.06,2.94,2.26,6.27,2.28,9,0,0.07,0,.13,0,0.19a5.15,5.15,0,0,1,3.13.06c0.86,0.25,1.59-.47,2.55-1.8l0.48,0.2-0.4-.3,0.24-.33c1.51-2.08,3.39-4.67,7-3.07a0.59,0.59,0,0,1,.39.58c0,0.49-.49.63-1.86,1s-4,1.22-5,2.38l0,0.06-0.06.07h0a1.54,1.54,0,0,0-.27.65c-0.3,2.62-2,2.48-3.25,2.39a2.42,2.42,0,0,0-1.89.3c-0.5.48-.73,1.6-0.67,3.33s0.46,1.89.58,1.93c1.08,0.37,4-3.23,5.4-5a10,10,0,0,1,2-2.2,0.72,0.72,0,0,1,.92.06c0.42,0.44.05,1.1-.75,2.56a13.1,13.1,0,0,0-1,1.94,6.46,6.46,0,0,0,.64,2.23c0.21,0.51.37,0.88,0,1.11a0.6,0.6,0,0,1-.78-0.29c-0.48-.64-1.84-0.76-3-0.27A2.67,2.67,0,0,0,21.45,162a7.65,7.65,0,0,0,.64,2.28l0.12-.18a0.6,0.6,0,0,1,.7-0.36,0.65,0.65,0,0,1,.33.8,4.34,4.34,0,0,0,.07,1.2c1.23,0.07,3.52.25,6.37,0.49,8,0.66,24.67,2,26.32,1,0.38-.23.4-0.78,0.39-1.65a3.89,3.89,0,0,1,.4-2.17c1.18-1.85,11.28-4.18,13.16-4.28,4.62-.26,5.76,2.26,6.87,4.7a16.89,16.89,0,0,0,1.1,2.15c0.75,1.17,1.64.9,3.27,0.26s3.6-1.41,5.35.62a11.32,11.32,0,0,1,1.33,2.36c0.85,1.79,1.81,3.81,3.33,4s3.32-.87,5.26-1.94c2.84-1.58,5.78-3.21,8.23-1.45,1.75,1.25,3.44,3.86,3.26,6a3.44,3.44,0,0,1-2.08,2.87c-3.16,1.53-13.61,4-17.17,2.2a9.59,9.59,0,0,1-2.4-2.05c-0.91-1-1.85-1.94-2.72-2.12l-1-.21c-3.79-.8-7.06-1.5-10.63-3.76a9.93,9.93,0,0,1-2-2.22c-0.8-1.06-1.8-2.38-2.45-2.49-1.25-.21-2.13,1.88-2.92,3.72-0.65,1.52-1.26,2.95-2.16,3.46-2.09,1.19-5.05.64-8.19,0.05-3.29-.61-6.7-1.25-8.75.35-0.34.26-.21,1.73-0.13,2.71,0.13,1.57.26,3.05-.57,3.61-2.82,1.91-7.62,1-12.7-.06C25.49,180.55,18.67,179.18,16,184l-0.1.19a3,3,0,0,1,0,.78,44.28,44.28,0,0,1-1.49,5.82,39.13,39.13,0,0,0-1.23,4.69,6.53,6.53,0,0,0,1.59-.55c0.73-.32,1.17-0.52,1.5-0.16a0.63,0.63,0,0,1,0,.79,12.74,12.74,0,0,1-1.51,1.81c-0.8.87-2.46,2.68-2.37,3.18,0,0,.1,0,0.37,0a4.89,4.89,0,0,0,.86-0.09c1.54-.28,2.49-2.55,3.26-4.37,0.69-1.65,1.22-2.93,2.23-2.91a0.75,0.75,0,0,1,.68.4c0.28,0.54-.16,1.26-1,2.47a12.36,12.36,0,0,0-.75,1.23c2.62,0.84,3.08.62,3.13,0.59a2.39,2.39,0,0,1-.12-0.36,1.12,1.12,0,0,1,.06-1,0.85,0.85,0,0,1,.74-0.28c0.48,0,.68.51,1.09,1.48,0.47,1.14,1.18,2.85,2.2,3.29a0.73,0.73,0,0,0,.33-0.41,1.81,1.81,0,0,1,1.7-1.27l1.41,0.08a23.92,23.92,0,0,0,4.71,0l0.31-.07,0.12,0,0.66-.12a2,2,0,0,0,.32-0.1,1.69,1.69,0,0,0,.38-1.21c0.1-.9.23-2.28,1.72-2.21a0.67,0.67,0,0,1,.56.3,1.24,1.24,0,0,1-.1,1.15,3.19,3.19,0,0,0-.18.55L39.23,200,40,200.22l1,0.36a12.23,12.23,0,0,0,1.6-.15c1.61-.22,3.27-0.44,4.83,1.59a0.56,0.56,0,0,0,.35.26c0.65-.07,1.75-2.46,2.54-4.21l0.39-.84a2.84,2.84,0,0,1,.83-2.55,1.1,1.1,0,0,1,.61-0.25c1-1.62,1.85-2.41,2.79-2.47A2.56,2.56,0,0,1,57,193.22a0.73,0.73,0,0,1,.12.73c-0.26.65-1.36,0.9-3.65,1.26l-0.75.12h0c-0.37.64-.72,1.36-1,2.06,0,0.21.08,0.42,0.12,0.64,0.28,1.41.64,3.17-1.45,4.8l-0.26.21a2.93,2.93,0,0,1-2.31,1c-0.93-.2-3.41-1.1-6-2.06l-1-.37a6.2,6.2,0,0,1-1.49-.22l-0.13,0-0.48-.51a15.12,15.12,0,0,0-2.27-.71,6,6,0,0,0-1.79.06l-0.42.08-0.25,0-0.16,0h0l-0.18,0H33.54c-1.09.26-2.22,0.65-3.32,1a15.37,15.37,0,0,1-4.82,1.16c-4.38-.18-5.35-1.15-5.75-2.16h0a35.83,35.83,0,0,0-3.74,1.73,4.64,4.64,0,0,1-2,.52c-0.6,0-.85.05-1.62,1.43-0.17.3,0.18,1.63,2.63,4.54a46.74,46.74,0,0,0,6.65-1.9,36.76,36.76,0,0,1,8.09-2.09,26.58,26.58,0,0,1,8.19.91,24.91,24.91,0,0,0,8.09.87c3.21-.4,5.88-2.34,8.47-4.21a22.72,22.72,0,0,1,6.68-3.79,4.44,4.44,0,0,1,2,0c0.27,0,.55.08,0.82,0.09L67,198.58l4.84,0.2L81,199.12l17.26,0.65,2.41,0.07c7.6,0.22,23.42.67,27.12,2.77A2.17,2.17,0,0,1,129,204a2.79,2.79,0,0,1-.91,2.13,2.23,2.23,0,0,0-.72,1.36,1.6,1.6,0,0,0,.9.83,1.78,1.78,0,0,0,1.36.28,2.55,2.55,0,0,0,1-1.53,2.55,2.55,0,0,1,1.25-1.69,1.56,1.56,0,0,1,1.32.25c0.16,0.1,1.24.88,3.13,2.24,2.17,1.57,5.4,3.89,6,4.29,1.17,0,1.35-.33,1.51-0.65a1,1,0,0,1,.63-0.61c0.44-.12,1,0.1,2.19.91l0.11,0.1ZM51,199a13.77,13.77,0,0,1-2.22,3.84,6.94,6.94,0,0,0,.72-0.54l0.28-.22A2.86,2.86,0,0,0,51,199Zm-7.86,2.4c1.27,0.46,2.5.91,3.45,1.22A3.16,3.16,0,0,0,43.12,201.37Zm-16-1.05a0.93,0.93,0,0,0-.75.73,3.65,3.65,0,0,1-.28.48,20.94,20.94,0,0,0,3.73-1.05l-1.29-.08-1.38-.08h0Zm8.78-1.25a4.41,4.41,0,0,1,1.34.23l-1-1.06-0.1-.16a0.92,0.92,0,0,1-.05-0.19V198A5.65,5.65,0,0,1,35.91,199.07ZM55,193h0a2.45,2.45,0,0,0-1.52,1.24,15.25,15.25,0,0,0,2.63-.58A1.52,1.52,0,0,0,55,193Zm1.22,0.86h0Zm-30-40.06-0.51.62A46.15,46.15,0,0,1,22.57,158l0.1,0a4.37,4.37,0,0,1,2.89-.24,3.52,3.52,0,0,1-.29-1.91A12.49,12.49,0,0,1,26.26,153.76Zm3.28-7.29a3.45,3.45,0,0,0-2.45,1.13,29.1,29.1,0,0,1,2.82-1l0.31-.09A3.51,3.51,0,0,0,29.54,146.48Z" fill="#284a61"/>
    </g>
    <g>
      <path d="M73.88,240.09c1.56-.77,3.56.17,5.21-0.4,2.74-.94,4.93-4.88,7.74-5.47,2.53-.53,6,2,8.64,2,2.87,0,4.07-3.81,4.48-3.85,1.47-.13,2.71,4.53,4.55,1.3,2.67-4.67,1.42-12.75-3.82-15-0.79-.34-2.05.59-2.59-0.1-3-3.77,7.93-3.08,8.06-3.14,4.75-2.34,1.05-11.3,1.39-14.82v0c-4-.18-7.49-0.26-9.34-0.32l-26.42-1L63.88,199a7.9,7.9,0,0,0-2.63-.09c-5.25,1.52-9.24,7.28-15.23,8-5.28.66-11-2.33-16.29-1.78-5,.51-9.55,3.06-14.77,4l-0.15.12c2.51,2.95,5.81,5.91,6.71,5.94C25,215.3,26,211.28,26,211.3c0.46,0.61-.82,1.8-0.23,2.31,1,0.85,2.08-1.68,3.3-2.19,1.63-.68,4.84-2.1,4.84-2.1S21.5,217.07,24.56,221c6.28,8.19,10.12,1.56,14.47-.59,0.71-.36,3.23,1.84,3.43,1.85,0.65,0,1.24-1.61,1.64-1.09s-0.51,1.6-1.19,1.69c-3.76.54-4.62-1.93-7.11,4.34-0.44,1.1-2,3.06-.85,3.42,0.91,0.29,4.3-2.25,4.68-3a2.49,2.49,0,0,1,.77-0.83l0.13-.58a0.92,0.92,0,0,1,.75,0c0.7-.36,1.36-0.46,1.3.08s-0.7.11-1.3-.08a5.67,5.67,0,0,0-.88.59c-0.24,1.09-.77,3.42-0.77,3.42,4.68,2.52,9.51-10.32,16-5.17,3.65,2.92,4.69-2.13,7.42-2,1.07,0,3.94.78,3,1.25-1.69.84-2.68,1.09-2.94,3.92,0,0.28,3.87,3,3.87,3-1.68-.06-4.52-1.52-4.33-3.59,0.09-1,1.74-3.07.78-2.85-3.1.73-4.45,2.66-7.94,2-0.66-.12-4-1.68-4.63-0.16-1.62,4.08-5.09,7.79,1,6.36,1.55-.36.26,1.83,0.92,1.19,0.47-.46,3.31-3.33,3.91-3.31,0,0-.26,1.23,1,0.61,2.72-1.35,3,.6,3,1.26-0.38,4.15.36-.19,1.9,1.8a4.78,4.78,0,0,0,1.44,1.19c1.23,0.77-2,3.32-3.34,2.76-2.33-1-3-2-3-2.58a5.86,5.86,0,0,1-1,1.29c-0.63.6-2.82-1.48-2.53-.67,1.07,3,.16.07-2.21,1.64-0.48.32-.84,1.7-1.19,1.69a1.41,1.41,0,0,0-1,0s-1.17,5,.09,4.6c1.67-.48,2-3,3.47-3.89,0.74-.48-1.41,3.7.25,2.88,0,0-3.37,1.5-3.34,2.76,0,0.5.78,0.69,0.93,1.17,0.79,2.6-1,2,1.13,4.65,3.22,4.1,4.18-3.31,4.95-3.28,1.52,0.05-5.36,12.59-.7,8,1.87-1.85,4.17-7.12,6.38-7.83,0.57-.2.42,1.14,0.37,1.73,0,0.22-5.57,6.4-4.26,7.32,0.6,0.42.35,1.08,0.88,1.76a0.36,0.36,0,0,1,.06.31l0.16-.17c3.08-4.41,9.2-17.43,13.93-19.76" fill="#172936"/>
      <path d="M59,261.59L59.3,260a2.78,2.78,0,0,1-.44-1,0.85,0.85,0,0,0-.29-0.58,1,1,0,0,1-.4-0.68c-0.17-1.18,1.43-3.45,3.89-6.49l0.58-.73a7.1,7.1,0,0,0,0-1c-1.14.57-2.42,2.56-3.55,4.33a20.81,20.81,0,0,1-2.39,3.29c-0.92.9-1.6,1.39-2.14,1-0.71-.46-0.32-1.7,1-5.11l0.22-.57a2.46,2.46,0,0,1-1.61,1.27c-0.8.12-1.59-.34-2.43-1.41-1.32-1.68-1.28-2.25-1.11-3a3,3,0,0,0-.11-1.78,1.17,1.17,0,0,0-.3-0.29,1.36,1.36,0,0,1-.65-1,2.21,2.21,0,0,1,.89-1.55,2.48,2.48,0,0,1-.62.28,0.83,0.83,0,0,1-1-.39c-0.58-1,.13-4.76.4-5a1.13,1.13,0,0,1,1.15-.16l0.1,0c0.07-.12.17-0.31,0.24-0.45a2.62,2.62,0,0,1,3-1.67l0-.14-0.14-.38a0.62,0.62,0,0,1,.15-0.73c0.35-.29.74-0.06,1.32,0.28a3.62,3.62,0,0,0,1.23.56,6,6,0,0,0,.83-1.14l0.73-1.32,0.21,1.5c0,0.26.34,1.18,2.75,2.18a3,3,0,0,0,2.27-.93,1.54,1.54,0,0,0,.65-0.91,5.42,5.42,0,0,1-1.6-1.33,0.85,0.85,0,0,0-.45-0.37,1,1,0,0,0-.46.3,0.73,0.73,0,0,1-.83.27c-0.44-.21-0.42-0.66-0.26-2.37a1.26,1.26,0,0,0-.39-1.05,2.06,2.06,0,0,0-1.87.28,1.35,1.35,0,0,1-1.32.07,0.85,0.85,0,0,1-.3-0.37,35.46,35.46,0,0,0-3,2.75l-0.16.16a0.66,0.66,0,0,1-.77.2A0.7,0.7,0,0,1,52,233.9a2.15,2.15,0,0,0,0-.46l-0.19,0c-2.12.5-3.25,0.43-3.78-.24-0.69-.88.05-2.32,1-4.16,0.41-.81.88-1.73,1.24-2.63,0.66-1.66,3.22-.79,4.6-0.33a6,6,0,0,0,.58.18,6.63,6.63,0,0,0,1.57.11,4.57,4.57,0,0,1-1.81-1c-3.29-2.62-6-.18-8.94,2.41-2.25,2-4.59,4.09-7,2.81l-0.33-.18,0.08-.37,0.36-1.57c-1.18,1.15-3.68,2.9-4.7,2.56a1,1,0,0,1-.67-0.6c-0.28-.69.22-1.6,0.74-2.56a9.79,9.79,0,0,0,.47-0.92c1.87-4.71,3-4.83,5.12-4.64a11.94,11.94,0,0,0,1.35.07l-0.29-.21a7.72,7.72,0,0,0-2.31-1.36,19.81,19.81,0,0,0-2.8,1.86c-3.33,2.48-7.1,5.29-12.26-1.43a2.84,2.84,0,0,1-.53-2.33c0.29-1.61,1.73-3.41,3.43-5a1.18,1.18,0,0,1-1.58,0,1,1,0,0,1-.16-0.18,4.4,4.4,0,0,1-3.81,1.85c-1.26-.05-4.92-3.58-7.07-6.12l-0.35-.41,0.68-.51,0.12,0a46.32,46.32,0,0,0,6.72-1.92,36.73,36.73,0,0,1,8.09-2.09,26.57,26.57,0,0,1,8.19.91,24.91,24.91,0,0,0,8.09.87c3.21-.4,5.88-2.34,8.47-4.21a22.72,22.72,0,0,1,6.68-3.79,4.44,4.44,0,0,1,2,0c0.27,0,.55.08,0.82,0.09L67,198.58l4.84,0.2L81,199.12l17.26,0.65,1.68,0c2,0.06,4.69.13,7.67,0.27l0.63,0-0.17.6a19.59,19.59,0,0,0,.45,4.09c0.7,4.13,1.56,9.26-2.1,11.07a1.26,1.26,0,0,1-.64,0c-6.24-.12-7.4.83-7.61,1.25a0.83,0.83,0,0,0,1.21,1,2.5,2.5,0,0,1,1.53,0,9.05,9.05,0,0,1,4.82,5.67,12.92,12.92,0,0,1-.76,10.05,2.29,2.29,0,0,1-1.64,1.39c-0.87.09-1.56-.72-2.15-1.43a3.9,3.9,0,0,0-1-1c-0.08.11-.18,0.29-0.27,0.44-0.7,1.18-2,3.39-4.39,3.39h0a12.37,12.37,0,0,1-4.06-1.06c-1.58-.6-3.21-1.22-4.46-1s-2.63,1.5-3.87,2.67a11.59,11.59,0,0,1-3.82,2.78,6.56,6.56,0,0,1-2.66.16,4.79,4.79,0,0,0-2.48.21h0c-3.24,1.6-7.39,8.83-10.42,14.11-1.3,2.26-2.42,4.21-3.31,5.49Zm3.84-13.2a0.71,0.71,0,0,1,.44.15c0.45,0.35.41,1.14,0.33,2.06,0,0.28-.07.34-0.79,1.23-3.47,4.31-3.79,5.45-3.67,5.74a1.73,1.73,0,0,1,.66,1.12c0,0.12.06,0.22,0.1,0.33,0.78-1.2,1.77-2.92,2.89-4.87,3.27-5.69,7.34-12.77,10.85-14.51a5.6,5.6,0,0,1,3-.31,5.76,5.76,0,0,0,2.26-.11,10.94,10.94,0,0,0,3.45-2.56c1.34-1.27,2.73-2.59,4.35-2.93s3.31,0.35,5,1a11.73,11.73,0,0,0,3.71,1h0c1.81,0,2.89-1.82,3.53-2.9a1.47,1.47,0,0,1,.9-1c0.82-.08,1.43.65,2,1.36a2.59,2.59,0,0,0,1.3,1.08,1.44,1.44,0,0,0,.86-0.89,11.88,11.88,0,0,0,.68-9.24,8.07,8.07,0,0,0-4.27-5.07,1.84,1.84,0,0,0-.92.07,1.7,1.7,0,0,1-1.86-.33,2,2,0,0,1-.46-2.15c0.67-1.34,3.37-1.91,8.52-1.8H106c2.89-1.51,2.1-6.19,1.46-10a24.72,24.72,0,0,1-.47-3.91c-2.77-.12-5.3-0.19-7.14-0.24l-1.69-.05-17.26-.65-9.16-.34-4.84-.19-3.07-.13a9.23,9.23,0,0,1-.92-0.1,3.63,3.63,0,0,0-1.55,0A21.67,21.67,0,0,0,55,203c-2.69,2-5.47,4-8.93,4.4-2.76.35-5.64-.28-8.42-0.88a25.8,25.8,0,0,0-7.87-.9,35.45,35.45,0,0,0-7.87,2,51.31,51.31,0,0,1-6.23,1.83c2.59,2.93,5.28,5.14,5.85,5.19,2.71,0.1,3.73-2.63,4-3.47l0.09-.3,0.62-.12L26.43,211a1.6,1.6,0,0,1-.09,1.66,1.93,1.93,0,0,0-.2.6c0.17,0.13.53-.19,1.19-0.94A5,5,0,0,1,28.9,211c1.62-.68,4.83-2.1,4.83-2.1l0.47,0.88c-0.09.06-8.89,5.59-9.59,9.45a1.86,1.86,0,0,0,.34,1.55c4.56,5.95,7.48,3.77,10.87,1.24a20.22,20.22,0,0,1,3-2c0.72-.37,1.87.41,3.31,1.46l0.42,0.3A3.85,3.85,0,0,0,43,221.3a1.36,1.36,0,0,1,1-.7,0.72,0.72,0,0,1,.56.3,1.1,1.1,0,0,1,.1,1.13A2.34,2.34,0,0,1,43,223.39a10.5,10.5,0,0,1-2.61,0c-1.71-.15-2.42-0.22-4.1,4a10.78,10.78,0,0,1-.52,1,4.37,4.37,0,0,0-.69,1.72c0.69,0.12,3.78-2.06,4.12-2.72a2.52,2.52,0,0,1,.77-0.89l0.13-.59,0.15-.11a1.19,1.19,0,0,1,1-.14h0a1.56,1.56,0,0,1,1.51-.11,0.81,0.81,0,0,1,.33.78,0.72,0.72,0,0,1-.32.56,1.5,1.5,0,0,1-1.31-.1l-0.12,0a5.16,5.16,0,0,0-.48.32h0L40.22,230c1.65,0.57,3.43-1,5.47-2.83,2.8-2.49,6.28-5.6,10.23-2.44,1.88,1.5,2.8.65,4.07-.53a4.45,4.45,0,0,1,3.06-1.6s3.41,0.32,3.64,1.41a0.71,0.71,0,0,1-.47.79l-0.39.19c-1.37.67-2,1-2.25,3.14,0.43,0.42,2.11,1.66,3.64,2.73l1.39,1-1.69-.06a6.14,6.14,0,0,1-4-1.9,3,3,0,0,1-.81-2.24,5.5,5.5,0,0,1,.66-1.71l0.23-.47a15.16,15.16,0,0,0-2.26.91,7.86,7.86,0,0,1-5.38,1,6.84,6.84,0,0,1-.72-0.22c-0.83-.28-3-1-3.35-0.25-0.38,1-.86,1.89-1.28,2.72-0.62,1.21-1.39,2.71-1.1,3.08,0.08,0.11.53,0.41,2.76-.12a1.17,1.17,0,0,1,1.12.2,0.92,0.92,0,0,1,.25.44c2.64-2.57,3.2-2.78,3.59-2.78h0.21l0.29,0.32,0,0.28a1.46,1.46,0,0,0,0,.17,1.41,1.41,0,0,0,.28-0.11c1.22-.61,2.19-0.68,2.88-0.21a2.18,2.18,0,0,1,.82,2q0,0.52-.07.87a1.21,1.21,0,0,1,.7-0.17,1.67,1.67,0,0,1,1.17.74,4.28,4.28,0,0,0,1.31,1.07,1.1,1.1,0,0,1,.33,1.56c-0.61,1.18-2.84,2.63-4.13,2.08a6.68,6.68,0,0,1-2.94-2,5.83,5.83,0,0,1-.53.61c-0.54.52-1.36,0.15-2.08-.26,0.2,0.6.21,0.8,0,1a0.67,0.67,0,0,1-.78,0,1.79,1.79,0,0,0-1.93.24,3,3,0,0,0-.46.75,1.34,1.34,0,0,1-1,1,2.41,2.41,0,0,1-.46-0.08l-0.13,0a11.73,11.73,0,0,0-.35,3.66,3.67,3.67,0,0,0,1.54-1.75,5.48,5.48,0,0,1,1.7-2.05,0.58,0.58,0,0,1,.69,0c0.37,0.28.25,0.72,0,1.58a7.49,7.49,0,0,0-.32,1.38l0.37,0.79-0.12.06c-1.45.66-3,1.71-2.94,2.25a1.4,1.4,0,0,0,.27.25,1.67,1.67,0,0,1,.63.78,4,4,0,0,1,.13,2.29c-0.11.51-.18,0.81,0.92,2.2a2.15,2.15,0,0,0,1.49,1c0.78-.12,1.45-1.82,1.84-2.84s0.65-1.7,1.23-1.68a0.69,0.69,0,0,1,.56.31c0.39,0.59,0,1.8-1.16,4.85a29.29,29.29,0,0,0-1.24,3.69,7.5,7.5,0,0,0,.77-0.68,20.35,20.35,0,0,0,2.25-3.11c1.37-2.14,2.8-4.35,4.32-4.84A0.77,0.77,0,0,1,62.85,248.39Zm0.06,1h0ZM52.44,242c-0.13.2-.25,0.41-0.37,0.62A7.56,7.56,0,0,1,51,244.19a11.18,11.18,0,0,1,1.31-.8A3.07,3.07,0,0,1,52.44,242Zm1-1.09h0Zm9.52-17.39a3.71,3.71,0,0,0-2.27,1.33c-0.28.26-.57,0.53-0.89,0.78l0.53-.25a14.22,14.22,0,0,1,3-1.11,0.7,0.7,0,0,1,.77.22,0.65,0.65,0,0,1,.11.21,8.51,8.51,0,0,1,1.19-.66,9,9,0,0,0-2.33-.52H62.95ZM29.69,211.71l-0.4.17a4.39,4.39,0,0,0-1.21,1.1l-0.27.3C28.43,212.72,29.07,212.19,29.69,211.71Z" fill="#284a61"/>
    </g>
    <g>
      <path d="M372.32-6.92Q372,24.8,372,56.52q0,9.42,0,18.82s0,5.37,0,5.37c1.14,2.42,7,3.32,7.76,5.86,0.58,1.82-4.83,17.21-5.65,20.13-0.36,1.29-1.1,6.79-2.11,7.55s-25.5-.83-28.72-0.94Q310,112.19,276.55,111c-2.27-.08-23.55-0.7-23.73-0.89-0.58-.64,2.43-6.25.7-6.74-4.79-1.39-2.93,7.63-3.46,8.33s-1.47,0-2.21.06l-4.41.11c-5.11.13-9.66,3.74-15.34,1.81-3.36-1.15-14.66-4.81-18.3-3-3.37,1.67-4,9.1-6.86,11.06-0.17.1-13.79-20.56-17-19.4-1.46.53-3.08,4.24-4.61,4.34-0.75.05-1.21-1.49-1.92-1.22,0,0-1.69,4.64-1.69,4.64-0.89,2.46-4.74,9.14-4.21,11.6,0.25,1.18,2.4,3,.93,5.72-0.51,1-7.87,6.17-8.38,5.9-1.5-.75-3.7-1.43-5.82-2.32l-0.16.37c3.86,6.93-1.63,7.56.22,12.53,0.37,1,4.06,3.46,4.74,4.17s0.8,10.63,1.25,13.13c0.55,3-5,6.25-4.8,6.65,1.43,2.88,5.08,5.62,5.89,8.75,0.16,0.63-1.55,5.43,1.63,4.61,2.06-.53,3.67-5.94,6.37-1.48,1.31,2.15.13,5.78,1.33,8,0.54,1,2.4.8,2.95,1.8,1.52,2.84.88,9.49-1.14,12.46-1.56,2.32,1.67,10.4,1.12,10.85-6.14,3-4.68,11.68,2.47,13.72,5.3,1.52,5-10.22,11.49-6.45,2.63,1.53,3.83,10.37,8.16,8.62,1.52-.61,2.27-4.37,3.58-5.42a62.89,62.89,0,0,1,6-3.22c4.24-2.07,13,6.22,17.21,6.77,2.91,0.37,5.09-4.25,7.8-5.82,2-1.13,8.27-.62,7.69-4.47,0,0-2.84-3.47-2.85-3.48-0.34-3.26,9.89.28,10.91,0.89,3.92,2.34,2.09,9.35,3.66,13.11,0.47,1.08,2.62.69,3,1.78,0.89,2.52-3.45,9.18-1.92,11.26,0.42,0.55,1.41,0,2.09.05s1.53-.35,2.1.06c1.46,1.05,1.11,5.46,2.68,6.29,0.65,0.33,1.54-.93,2.14-0.51s-0.11,1.66.35,2.26c2.63,3.46,3.78,1.9,5,4.09,0.62,1.14-2.53.58-3.75,1-1.52.56-8.87,10.29-7.11,11.12,3.92,1.84,5.21-5.71,10.22-3.13,4.58,2.35.28,12.71,0.93,17,0.82,5.42,10.72,6.81,10.38,10.42a5.24,5.24,0,0,1-1.2,2.79c4.9-.95,4.9-5.77,8.9-7.69,1.64-.77,5.06-1.54,6.48-2.1,2.49-1,2.23,6.16,4.28,7.43,1.2,0.77,11.34,4.24,12.48,3.11s-4.6-8.13,5.74-7.21l3.06,1.77c4.52-1-1.78-9.48,1.76-11.22,0.91-.44,1.13,1.75,2,2.3,0.69,0.45,4.39,1.94,5.17,1.81,1.86-.32-1.47-8.43,5.67-6.06,4.14,1.37-.36,5.74-0.46,7.29-0.12,1.87,2.58,3.27,2.33,5.12-0.29,2.11-5.86,5.35,2.8,6.25,4.84,0.51,4.56-10.14,18-8-0.69-4.2,3.94-9.31,4-13.39,0-1.53-3-7.24-1.59-8.47,1.24-1.07,3.33-.33,4.83-1,2.52-1.14,3.8-8.34,4.88-10,1.82-2.78-1.55-5.42-2.2-6.78,0,0,.83-4.46.83-4.47-0.61-1.54-3.41-1.37-4-2.9-0.2-.5,1.07.17,1.58,0,3.1-.79,6.3-2.73,9.25-4,2.53-1.08,16.26-2.82,17.27-5.46s-0.87-2.31,1.77-5.19c1.19-1.3,3.41-.81,3.4-0.85l-1.32-4c0.19-1.34,2.45-2,2.34-3.3s-4.34-3.67-2.79-5.39c2.33-2.6,7,1.15,8.61-2.3,2.38-5.11-2.69-7.61-3.38-11.84-0.55-3.46,3.34-.67,3.85-2.13,0.21-.61-1.15-1.09-0.93-1.7,0.31-.87,4.15-2.53,5-3.6,0.51-.64,3.63-5.29,4.59-5.1,5.64,1.16-.18,2.36-0.25,3.34s2,0.76,3.1.92c4.43,0.71,11.61,9.06,13.2,7.31,2.64-2.88-2.17-2.39,2.38-3.84l4.22,0.11c0.52-.57,0-1.55,0-2.33s0-1.54,0-2.32c0-2.33,0-4.64,0-7a13,13,0,0,1,0-2.33,0.63,0.63,0,0,1,.57-0.54c3.1,0.75,8.64,5.84,11.43,2.53s-3.55-8.77,8.59-16.77c1.31-.88,4.57-3.88,6.1-4,3.27-.3,11.54,7.92,14.5,3.71,2-2.78-.32-9.09,1.9-11.64,4.28-4.92,22-6.17,28-8.73,4.52-1.9,8.08-7.09,12.74-8.56s8.57,2.45,12,2.15c1.24-.12,2-1.82,3.29-1.77l0.4,0V-6.92H372.32Z" fill="#172936"/>
      <path d="M311.79,293c-3.36,0-11.12-3-11.76-3.4-1.06-.66-1.54-2.46-2-4.19-0.36-1.36-.78-2.91-1.36-3.21a0.51,0.51,0,0,0-.45,0c-0.62.25-1.58,0.52-2.6,0.82a30.61,30.61,0,0,0-3.84,1.27,9.24,9.24,0,0,0-3.53,3.49c-1.26,1.8-2.55,3.67-5.49,4.23l-1.3.25,0.81-1a4.69,4.69,0,0,0,1.1-2.53c0.13-1.37-1.88-2.53-4-3.77-2.76-1.6-5.89-3.41-6.36-6.53a22.63,22.63,0,0,1,.52-6.13c0.7-4.26,1.5-9.1-1.19-10.48-2.36-1.22-3.76.09-5.24,1.48-1.33,1.24-2.83,2.65-5,1.65a1,1,0,0,1-.56-1.08c0.12-2.56,6.17-10.4,7.71-11a7.29,7.29,0,0,1,2-.25,8.08,8.08,0,0,0,1.44-.13,2.33,2.33,0,0,0-1.46-1.21,7.19,7.19,0,0,1-3.42-2.76,2,2,0,0,1-.22-1.47,1.19,1.19,0,0,0,0-.69,1.28,1.28,0,0,0-.54.26,1.59,1.59,0,0,1-1.54.29c-1-.54-1.34-2-1.67-3.53-0.25-1.13-.52-2.41-1.07-2.81a1.53,1.53,0,0,0-1,0,4.6,4.6,0,0,1-.82.07,2.85,2.85,0,0,0-.63.09,1.71,1.71,0,0,1-1.84-.34c-1-1.32-.12-3.76.79-6.34,0.7-2,1.42-4,1.06-5.05a1.68,1.68,0,0,0-1.15-.58,2.44,2.44,0,0,1-1.85-1.17,17,17,0,0,1-.86-5.34c-0.19-3.05-.38-6.21-2.6-7.54-0.95-.56-8.23-3-9.92-1.92a0.47,0.47,0,0,0-.24.42l0.85,1c2,2.44,2,2.44,2,2.64,0.47,3.08-2.93,3.74-5.42,4.22a9.87,9.87,0,0,0-2.53.69,13.72,13.72,0,0,0-2.85,2.62c-1.58,1.73-3.22,3.52-5.26,3.26-1.78-.23-4.21-1.7-6.79-3.24-3.67-2.21-7.82-4.71-10.14-3.57l-0.35.17a46.47,46.47,0,0,0-5.57,3,7.45,7.45,0,0,0-1.4,2.34c-0.63,1.35-1.28,2.74-2.3,3.15-3.13,1.27-4.82-2.2-6.19-5-0.76-1.56-1.55-3.17-2.41-3.66-2.95-1.71-4.15-.05-5.87,2.8-1.27,2.11-2.72,4.5-5.51,3.7a8.84,8.84,0,0,1-6.66-7.55,7,7,0,0,1,3.89-7,21.29,21.29,0,0,0-.52-2.34c-0.72-2.86-1.71-6.78-.58-8.45,1.92-2.83,2.52-9.31,1.11-11.95a2,2,0,0,0-1.18-.65,2.77,2.77,0,0,1-1.77-1.15,9.11,9.11,0,0,1-.68-4.16,7.77,7.77,0,0,0-.63-3.82,2.67,2.67,0,0,0-1.59-1.51c-0.64-.07-1.36.73-2,1.49a5.09,5.09,0,0,1-2.18,1.72,2,2,0,0,1-1.94-.31c-0.92-.85-0.61-2.69-0.41-3.9a6,6,0,0,0,.11-0.79c-0.43-1.67-1.81-3.31-3.15-4.89A20.29,20.29,0,0,1,161,168c-0.22-.47.13-0.77,1.09-1.57,1.4-1.16,4-3.33,3.67-5.21-0.18-1-.31-3.25-0.43-5.59-0.15-2.7-.37-6.77-0.7-7.3-0.18-.19-0.77-0.64-1.4-1.12-1.83-1.41-3.15-2.46-3.42-3.19a6.2,6.2,0,0,1,.38-5.25c0.77-1.8,1.5-3.5-.57-7.21l-0.12-.21,0.45-1.05,0.46,0.19c0.89,0.38,1.8.71,2.67,1,1.12,0.42,2.19.81,3.05,1.23,1.15-.39,7.41-4.87,7.84-5.63,0.95-1.76.23-3-.41-4.13a4.64,4.64,0,0,1-.57-1.24c-0.42-1.92,1.44-5.82,2.92-9,0.57-1.2,1.06-2.23,1.31-2.91,1.64-4.53,1.79-4.93,2.07-5a1.49,1.49,0,0,1,1.45.75,1.43,1.43,0,0,0,.52.48c0.6,0,1.47-1.16,2.16-2.06a6.58,6.58,0,0,1,2.31-2.25c2.09-.76,6.76,4.33,16.12,17.57L203,121c1-1,1.77-2.83,2.5-4.65,1-2.55,2.09-5.18,4.06-6.16,3.68-1.83,14.29,1.47,18.69,3,3.35,1.14,6.25.27,9.32-.64a22.55,22.55,0,0,1,5.85-1.2l3.48-.09,0.93,0a4,4,0,0,1,.92.12,1.29,1.29,0,0,0,.9,0c0-.12,0-0.89,0-1.51-0.06-2.17-.15-5.44,1.45-6.68a2.75,2.75,0,0,1,2.56-.32,1.15,1.15,0,0,1,.71.58c0.5,0.93-.06,2.68-0.6,4.37a15.15,15.15,0,0,0-.51,1.84c2.19,0.18,14.61.56,20.12,0.73l3.19,0.1c22.2,0.82,44.69,1.61,66.82,2.36,0.72,0,2.5.13,4.84,0.27,6.68,0.4,22.33,1.33,23.59.75,0.55-.42,1.21-3.83,1.52-5.47,0.15-.8.27-1.43,0.38-1.79,0.21-.74.7-2.23,1.31-4.12,1.54-4.71,4.73-14.51,4.35-15.72s-2-2-3.67-2.76-3.44-1.71-4.06-3l0,0a50.89,50.89,0,0,1-.12-5.57q0-9.41,0-18.83c0-20.56.09-41.9,0.29-63.44v-0.5H537.41V133.45l-0.57-.08-0.35,0a2.51,2.51,0,0,0-1.37.76,3.48,3.48,0,0,1-1.86,1,10.68,10.68,0,0,1-4.72-1.15c-2.24-.9-4.57-1.84-7.15-1-2.39.75-4.55,2.58-6.64,4.35a25,25,0,0,1-6.06,4.19A64,64,0,0,1,498.55,144c-7.08,1.43-15.11,3.06-17.72,6.05-1,1.17-1,3.42-.92,5.6s0.1,4.52-.94,6c-2.1,3-6.23.66-9.87-1.39-1.92-1.08-3.9-2.21-5-2.11s-3,1.71-4.34,2.78c-0.61.48-1.14,0.9-1.52,1.16-8,5.25-7.76,9.23-7.61,12.42,0.08,1.56.15,3-.87,4.25-2.21,2.61-5.8.68-8.69-.88a17.17,17.17,0,0,0-3.14-1.46,0.39,0.39,0,0,0-.07.13,5.84,5.84,0,0,0,0,1.4c0,0.28,0,.55,0,0.83l0,7c0,0.78,0,1.55,0,2.32a4,4,0,0,0,.11.71,2.09,2.09,0,0,1-.23,2l-0.15.17-4.36-.11a8.44,8.44,0,0,0-1.57.61l0,0c0.52,0.7.81,1.56-.55,3-1.12,1.23-3.33-.47-6.39-2.82-2.45-1.88-5.22-4-7.26-4.34a8.22,8.22,0,0,0-.92-0.06,3.34,3.34,0,0,1-2.33-.58,1.07,1.07,0,0,1-.27-0.81c0-.58.7-0.95,1.53-1.4a5.63,5.63,0,0,0,1.15-.75,5.17,5.17,0,0,0-2-.66c-0.26.06-1.16,0.85-3.63,4.28l-0.47.64a11.43,11.43,0,0,1-2.67,1.89,9.89,9.89,0,0,0-2.26,1.57l0.34,0.32a1.33,1.33,0,0,1,.59,1.37c-0.34,1-1.42.83-2.28,0.72a2.2,2.2,0,0,0-1.44.07,1.44,1.44,0,0,0-.1,1.1,10.84,10.84,0,0,0,1.93,4.07c1.48,2.27,3,4.62,1.41,8.06-1,2.15-3,1.92-4.84,1.72-1.5-.17-2.93-0.33-3.85.7-0.59.66,0.2,1.57,1.38,2.78a4.43,4.43,0,0,1,1.54,2.24,2.7,2.7,0,0,1-1.32,2.14,2.92,2.92,0,0,0-1,1.16l0.64,1.93a15.79,15.79,0,0,1,.66,2.06v0.2l-0.14.15a0.57,0.57,0,0,1-.54.14,3.21,3.21,0,0,0-2.86.7c-1.45,1.58-1.41,2-1.35,2.73a4.47,4.47,0,0,1-.32,2.31c-0.73,1.89-5.87,3.12-12.51,4.51a40.52,40.52,0,0,0-5,1.23c-1,.42-2,0.91-3.07,1.44a34,34,0,0,1-6.25,2.57,1.34,1.34,0,0,1-.5,0,9,9,0,0,0,1,.44,3.61,3.61,0,0,1,2.29,1.73c0,0.17,0,.17-0.37,2.44l-0.4,2.13a10.33,10.33,0,0,0,.72,1c1.17,1.49,2.94,3.74,1.37,6.14a17.08,17.08,0,0,0-1.12,2.94c-0.93,2.84-2.09,6.37-4,7.22a6.18,6.18,0,0,1-2.38.39,3.74,3.74,0,0,0-2.33.54c-0.65.57,0.35,3.4,0.94,5.1a11.45,11.45,0,0,1,.82,3c0,2-1.05,4.13-2,6.23-1.14,2.43-2.32,4.93-2,7.07l0.11,0.68-0.68-.11c-8.15-1.27-11,2.23-13.26,5-1.4,1.73-2.61,3.23-4.67,3-3.06-.32-4.64-0.93-5.13-2s0.3-2.2,1-3.21a4.83,4.83,0,0,0,.88-1.62,3.38,3.38,0,0,0-1.05-2.22,4.4,4.4,0,0,1-1.29-2.86,5.81,5.81,0,0,1,.93-2.11c0.69-1.2,1.56-2.7,1.19-3.67a1.91,1.91,0,0,0-1.32-1c-1.54-.51-2.65-0.54-3.31-0.09-0.88.61-.94,2.11-1,3.43s-0.1,2.56-1.13,2.74-4.92-1.49-5.53-1.88a3.37,3.37,0,0,1-1-1.46,2.83,2.83,0,0,0-.49-0.83c-1.22.62-.91,2.39-0.3,5,0.47,2,.91,3.93.11,5.19a2.49,2.49,0,0,1-1.67,1.07l-0.19,0-3.13-1.81c-2.74-.23-4.5.09-5.22,1s-0.36,2.32,0,3.59c0.29,1.07.54,2,0,2.54A2,2,0,0,1,311.79,293Zm-15.31-11.84a1.4,1.4,0,0,1,.64.15c1,0.5,1.42,2.12,1.88,3.84,0.39,1.48.84,3.15,1.57,3.61,1.39,0.89,10.86,3.91,11.87,3.18a4.27,4.27,0,0,0-.27-1.56c-0.37-1.35-.87-3.2.21-4.49s3-1.58,6.18-1.3l0.21,0.06,2.89,1.67a1.42,1.42,0,0,0,.85-0.59c0.57-.9.16-2.69-0.25-4.42-0.56-2.4-1.19-5.12.86-6.12a1,1,0,0,1,.76-0.06,2.3,2.3,0,0,1,1.06,1.35,2.9,2.9,0,0,0,.66,1,18.27,18.27,0,0,0,4.81,1.73c0.23,0,.27-1.18.3-1.79,0.06-1.48.13-3.32,1.43-4.21,0.94-.65,2.31-0.66,4.19,0a2.86,2.86,0,0,1,1.94,1.6c0.54,1.41-.46,3.13-1.26,4.52a6.09,6.09,0,0,0-.8,1.68,3.68,3.68,0,0,0,1.08,2.19,4.1,4.1,0,0,1,1.25,3,5.24,5.24,0,0,1-1.05,2.05c-0.57.82-1.16,1.67-.91,2.22s1.13,1.09,4.33,1.42c1.52,0.16,2.48-1,3.79-2.64,2.25-2.78,5.32-6.57,13.55-5.49-0.11-2.26,1-4.66,2.12-7,1-2.09,1.92-4.07,1.94-5.82a12.54,12.54,0,0,0-.77-2.65c-0.89-2.54-1.81-5.17-.66-6.18a4.49,4.49,0,0,1,3-.78,5.38,5.38,0,0,0,2-.3c1.48-.67,2.6-4.11,3.43-6.62a16.31,16.31,0,0,1,1.24-3.18c1.18-1.8-.21-3.56-1.32-5a8,8,0,0,1-.91-1.31l0-.1a12.85,12.85,0,0,1,.42-2.51l0.38-2a3.24,3.24,0,0,0-1.68-1,3.62,3.62,0,0,1-2.29-1.73,0.62,0.62,0,0,1,.09-0.66,1.08,1.08,0,0,1,1.17-.09,2.7,2.7,0,0,0,.67.12,33.3,33.3,0,0,0,6.06-2.5c1-.5,2.1-1,3.12-1.46a39.14,39.14,0,0,1,5.22-1.29c4.19-.88,11.19-2.36,11.78-3.9a3.51,3.51,0,0,0,.26-1.86c-0.09-1,0-1.71,1.6-3.49a3.8,3.8,0,0,1,3.06-1.06l-0.39-1.18a18.06,18.06,0,0,1-.71-2.21,3.25,3.25,0,0,1,1.37-2,1.91,1.91,0,0,0,1-1.3,4.74,4.74,0,0,0-1.25-1.62c-1.13-1.16-2.68-2.74-1.41-4.15s3.09-1.21,4.71-1c1.94,0.22,3.16.28,3.82-1.15,1.37-2.94.11-4.86-1.34-7.09a11.75,11.75,0,0,1-2.08-4.46,2.19,2.19,0,0,1,.37-2,2.61,2.61,0,0,1,2.29-.36,1.63,1.63,0,0,0,1.21-.05l-0.34-.32a1.33,1.33,0,0,1-.59-1.39c0.21-.6,1.16-1.18,2.69-2.09a11.88,11.88,0,0,0,2.4-1.65l0.44-.6c2.64-3.66,3.82-4.84,4.64-4.67,1.92,0.39,2.75.83,2.85,1.5s-0.76,1.26-1.69,1.77a4.56,4.56,0,0,0-1,.67,3.88,3.88,0,0,0,1.65.25,9.14,9.14,0,0,1,1,.07c2.29,0.37,5.17,2.58,7.71,4.54,1.8,1.39,4.53,3.49,5,2.94,1-1.08.73-1.43,0.48-1.77a1,1,0,0,1-.25-0.91c0.15-.47.71-0.77,2.38-1.31l0.08,0,4,0.1a2.46,2.46,0,0,0-.1-0.9,4.76,4.76,0,0,1-.13-0.92c0-.78,0-1.54,0-2.32l0-7c0-.26,0-0.51,0-0.77a6.71,6.71,0,0,1,0-1.65,1.34,1.34,0,0,1,.55-0.82,0.82,0.82,0,0,1,.63-0.12,16.55,16.55,0,0,1,3.49,1.58c2.7,1.46,5.77,3.1,7.45,1.11,0.77-.91.71-2.08,0.64-3.56-0.16-3.27-.38-7.75,8.06-13.31,0.35-.23.86-0.64,1.45-1.11,1.62-1.28,3.63-2.88,4.88-3s3.33,1,5.57,2.23c3.27,1.85,7,3.94,8.56,1.69,0.85-1.21.81-3.34,0.76-5.4,0-2.37-.1-4.82,1.17-6.27,2.83-3.26,11-4.91,18.27-6.38a63.61,63.61,0,0,0,10-2.49,24.26,24.26,0,0,0,5.8-4c2.17-1.83,4.41-3.73,7-4.54,2.93-.92,5.53.13,7.82,1a10,10,0,0,0,4.26,1.08,2.71,2.71,0,0,0,1.3-.77,3.23,3.23,0,0,1,1.93-1V-6.42H372.81c-0.19,21.37-.29,42.54-0.29,62.94q0,9.42,0,18.82c0,1.89,0,4.68,0,5.25,0.52,1,2.06,1.73,3.56,2.47,1.83,0.91,3.72,1.84,4.18,3.36,0.4,1.27-1.22,6.72-4.35,16.33-0.61,1.88-1.1,3.37-1.3,4.08-0.09.32-.21,1-0.36,1.71-0.59,3.08-1.1,5.48-1.93,6.1s-6.88.45-24.22-.58c-2.33-.14-4.1-0.24-4.82-0.27-22.14-.75-44.62-1.54-66.83-2.36l-3.19-.1c-20.6-.64-20.66-0.71-20.88-1-0.41-.45-0.18-1.22.36-2.93,0.39-1.21,1-3,.67-3.59a0.15,0.15,0,0,0-.1-0.09,1.8,1.8,0,0,0-1.67.15c-1.2.93-1.11,4-1.06,5.86,0,1.35,0,1.84-.19,2.14a1.74,1.74,0,0,1-1.9.36,3.87,3.87,0,0,0-.69-0.1l-0.94,0-3.48.09a21.47,21.47,0,0,0-5.59,1.15c-3.09.92-6.27,1.88-9.93,0.63-3.33-1.14-14.48-4.73-17.92-3-1.63.81-2.62,3.26-3.58,5.63s-1.77,4.39-3.22,5.39c-0.45.28-.45,0.28-2.16-2.13-10.52-14.89-13.94-17.57-15-17.21a6.55,6.55,0,0,0-1.86,1.92c-0.94,1.22-1.83,2.38-2.89,2.45a1.77,1.77,0,0,1-1.35-.82c-0.08-.09-0.19-0.22-0.29-0.32l-1.54,4.23c-0.26.73-.76,1.78-1.34,3-1.27,2.68-3.19,6.73-2.85,8.32a4.14,4.14,0,0,0,.46,1c0.65,1.14,1.63,2.86.42,5.1-0.31.57-7.93,6.69-9,6.11-0.84-.42-1.92-0.82-3.08-1.25l-1.88-.71c1.85,3.7,1,5.67.26,7.42a5.24,5.24,0,0,0-.36,4.51c0.19,0.52,2.08,2,3.1,2.75a18,18,0,0,1,1.53,1.25c0.47,0.49.65,2.4,1,7.92,0.13,2.31.25,4.49,0.42,5.47,0.45,2.46-2.34,4.78-4,6.16-0.26.21-.54,0.45-0.7,0.6a21.24,21.24,0,0,0,2.44,3.28c1.41,1.67,2.86,3.4,3.35,5.31a3.24,3.24,0,0,1-.09,1.18c-0.15.88-.42,2.52,0.1,3a1.11,1.11,0,0,0,1,.07,4.57,4.57,0,0,0,1.69-1.42c0.85-.95,1.73-1.93,2.88-1.82,0.82,0.08,1.6.73,2.35,2a8.56,8.56,0,0,1,.78,4.33,8.31,8.31,0,0,0,.56,3.7,2,2,0,0,0,1.2.67,2.77,2.77,0,0,1,1.75,1.13c1.6,3,1,9.8-1.17,13-0.88,1.3.12,5.28,0.72,7.65s0.72,3,.3,3.31l-0.1.06a6,6,0,0,0-3.55,6.11,7.85,7.85,0,0,0,5.94,6.68c1.92,0.55,2.93-.86,4.38-3.26s3.28-5.43,7.23-3.14c1.12,0.65,1.94,2.32,2.8,4.09,1.6,3.27,2.81,5.35,4.92,4.5,0.66-.26,1.25-1.53,1.77-2.65a7.72,7.72,0,0,1,1.69-2.7,50.39,50.39,0,0,1,5.75-3.1l0.35-.17c2.81-1.37,7,1.16,11.1,3.61,2.48,1.49,4.83,2.9,6.4,3.11s2.92-1.33,4.39-2.94a14.37,14.37,0,0,1,3.09-2.81,10.23,10.23,0,0,1,2.83-.8c2.83-.55,4.84-1.09,4.63-3-0.26-.33-1.17-1.44-1.8-2.2a5.22,5.22,0,0,1-1.06-1.38,1.52,1.52,0,0,1,.69-1.55c2.23-1.42,10.07,1.37,11,1.91,2.68,1.6,2.89,5,3.09,8.34a16.35,16.35,0,0,0,.78,5,1.8,1.8,0,0,0,1.19.59,2.31,2.31,0,0,1,1.84,1.21c0.48,1.35-.27,3.47-1.05,5.72s-1.59,4.52-.93,5.41a1.38,1.38,0,0,0,.84,0,4.44,4.44,0,0,1,.86-0.11,3.46,3.46,0,0,0,.64-0.06,2.23,2.23,0,0,1,1.74.22c0.86,0.62,1.15,2,1.46,3.41,0.26,1.19.55,2.53,1.15,2.85a1.7,1.7,0,0,0,.58-0.26,1.45,1.45,0,0,1,1.62-.21,1.59,1.59,0,0,1,.44,1.62,1.43,1.43,0,0,0,0,.75,6.17,6.17,0,0,0,3,2.44,3.31,3.31,0,0,1,2,1.72,0.88,0.88,0,0,1,0,.9c-0.33.57-1.22,0.61-2.36,0.65a6.94,6.94,0,0,0-1.7.19c-0.88.32-5.54,6-6.8,9.15a1.72,1.72,0,0,0-.24,1.08c1.42,0.65,2.37-.15,3.82-1.5s3.4-3.18,6.39-1.64c3.34,1.71,2.48,6.93,1.72,11.53a22.25,22.25,0,0,0-.52,5.81c0.4,2.65,3.31,4.33,5.88,5.82,2.42,1.4,4.7,2.72,4.51,4.72a5.08,5.08,0,0,1-.55,1.88,8.48,8.48,0,0,0,3.62-3.46,10.16,10.16,0,0,1,3.92-3.82,31.21,31.21,0,0,1,4-1.33c1-.29,1.94-0.56,2.51-0.79A1.73,1.73,0,0,1,296.48,281.18ZM166.27,132.83h0Z" fill="#284a61"/>
    </g>
    <g>
      <path d="M536.91,132.87l-0.4,0c-1.25,0-2,1.65-3.29,1.77-3.4.31-7.27-3.62-12-2.15S513,139.11,508.5,141c-6.09,2.56-23.76,3.81-28,8.73-2.21,2.55.05,8.86-1.9,11.64-3,4.21-11.22-4-14.5-3.71-1.53.14-4.79,3.14-6.1,4-12.14,8-5.84,13.5-8.59,16.77s-8.33-1.78-11.43-2.53a0.63,0.63,0,0,0-.57.54,13,13,0,0,0,0,2.33c0,2.33,0,4.64,0,7,0,0.79,0,1.55,0,2.32s0.53,1.76,0,2.33l-4.22-.11c-4.55,1.45.26,1-2.38,3.84-1.59,1.74-8.77-6.61-13.2-7.31-1.07-.16-3.18.15-3.1-0.92s5.89-2.19.25-3.34c-1-.19-4.08,4.45-4.59,5.1-0.86,1.07-4.7,2.73-5,3.6-0.22.61,1.14,1.09,0.93,1.7-0.51,1.46-4.4-1.33-3.85,2.13,0.69,4.23,5.76,6.73,3.38,11.84-1.61,3.45-6.28-.3-8.61,2.3-1.55,1.72,2.68,4,2.79,5.39s-2.15,2-2.34,3.3l1.32,4s-2.22-.46-3.4.85c-2.64,2.88-.78,2.63-1.77,5.19s-14.75,4.38-17.27,5.46c-3,1.25-6.15,3.19-9.25,4-0.52.13-1.78-.54-1.58,0,0.61,1.54,3.42,1.36,4,2.9,0,0-.83,4.45-0.83,4.47,0.65,1.36,4,4,2.2,6.78-1.07,1.65-2.36,8.84-4.88,10-1.49.67-3.59-.06-4.83,1-1.4,1.23,1.61,6.94,1.59,8.47-0.07,4.08-4.7,9.19-4,13.39,1.28,7.82,8.74,2.42,11.91,4.75,3.71,2.74,4.05,10,4.52,13.57,0.27,1.93,2.19.78,3.12,1.19,3.49,1.52,1.87,5.35,5.52,6.28,0.94,0.25,1.77-1.32,2.71-1.07,0.49,0.12.54,1.36,1,1.14,0.76-.36.43-1.84,1.18-2.22,0.46-.22,1,0.64,1,1.15,0.22,2.17.62,3.17,3.48,4.55,2,0.95,6.67-7.47,9-8.23,0.9-.3,1.65,1.3,2.6,1.17,8.74-1.24,5.52-4.62,18.63-3.38,1.65,0.15,3.66-.57,5,0.47,0.66,0.52-1.14,2.62,1,1.69l2.77-2.18c0.45,0.1-.05.93-0.08,1.4s-0.44,1.13-.07,1.39c3.63,2.54,1.39,2.19,3.53,4,0.7,0.59,1.92-1,2.69-.52,1.38,0.89,4.33,12.26,6.91,11.31,5.38-2-1.32-8.18-1.05-11.19l2.29-3.32c0.32-2.28-1.78-5-1.74-7.3,0-2,2.46-5.27,2-7.23l-3.08-2.28,2.81-2.74c0.08-1.57-2.82-1.79-3.37-3.23-1.1-3-1.08-14.17,2.33-16.35,0.77-.48,1.82,0,2.73.05,1.82,0.05,3.64.08,5.47,0.12L480,267.79l31.3,0.59c3.27,0.06,2.49,3.07,4.59,2.86,1.08-.1.72-2.37,1.74-2.74,0.84-.32,1.85.4,2.67,0s2.15-4.53,3.4-3.83c0.56,0.31.34,1.53,1,1.68,1.3,0.34,1-2.95,2.3-3.29,2.26-.58,6.08.34,9.9,1.55V132.87Z" fill="#172936"/>
      <path d="M444.8,321.31c-1.87,0-3.45-3.85-5-7.57-0.67-1.62-1.5-3.63-1.87-3.87a1.64,1.64,0,0,0-.84.3,1.65,1.65,0,0,1-1.9.18,3.31,3.31,0,0,1-1.3-1.76c-0.13-.42-0.26-0.85-2.2-2.2a1.21,1.21,0,0,1-.24-1.44,2.06,2.06,0,0,0,.09-0.39,1.78,1.78,0,0,1,.05-0.33l-2,1.59a1.46,1.46,0,0,1-1.52.1,1.19,1.19,0,0,1-.12-1.3A2,2,0,0,0,428,304a4.27,4.27,0,0,0-2.83-.35,10.94,10.94,0,0,1-1.81,0c-7.87-.74-9.75.21-11.93,1.31a18.36,18.36,0,0,1-6.59,2.07,2.22,2.22,0,0,1-1.67-.72,1.34,1.34,0,0,0-.84-0.47c-0.86.29-2.39,2.16-3.73,3.82-2.22,2.73-4.13,5.09-5.6,4.39-3.09-1.49-3.54-2.7-3.76-4.95a1.31,1.31,0,0,0-.34-0.71,1.82,1.82,0,0,0-.26.73,1.89,1.89,0,0,1-.87,1.45,0.72,0.72,0,0,1-.56,0,1.26,1.26,0,0,1-.63-0.78,0.55,0.55,0,1,0-1.09.09,2.12,2.12,0,0,1-1.77.61c-2.13-.55-2.7-2-3.2-3.34a4.42,4.42,0,0,0-2.39-3,2.36,2.36,0,0,0-.92,0c-0.84.08-2.25,0.2-2.49-1.56-0.06-.44-0.11-0.94-0.17-1.47-0.42-3.78-1.07-9.48-4.15-11.76-1-.74-2.63-0.56-4.36-0.38-3.06.33-6.87,0.73-7.76-4.69-0.4-2.44.85-5.1,2.05-7.66,1-2.09,1.92-4.07,1.94-5.82a12.54,12.54,0,0,0-.77-2.65c-0.89-2.54-1.81-5.17-.66-6.18a4.49,4.49,0,0,1,3-.78,5.38,5.38,0,0,0,2-.3c1.48-.67,2.6-4.11,3.43-6.62a16.31,16.31,0,0,1,1.24-3.18c1.18-1.8-.21-3.56-1.32-5a8,8,0,0,1-.91-1.31l0-.1a12.85,12.85,0,0,1,.42-2.51l0.38-2a3.24,3.24,0,0,0-1.68-1,3.62,3.62,0,0,1-2.29-1.73,0.62,0.62,0,0,1,.09-0.66,1.08,1.08,0,0,1,1.17-.09,2.7,2.7,0,0,0,.67.12,33.33,33.33,0,0,0,6.06-2.5c1-.5,2.1-1,3.12-1.46a39.14,39.14,0,0,1,5.22-1.29c4.19-.88,11.19-2.36,11.78-3.9a3.51,3.51,0,0,0,.26-1.86c-0.09-1,0-1.71,1.6-3.49a3.82,3.82,0,0,1,3.06-1.06l-0.39-1.18a18.06,18.06,0,0,1-.71-2.21,3.25,3.25,0,0,1,1.37-2,1.92,1.92,0,0,0,1-1.3,4.76,4.76,0,0,0-1.26-1.62c-1.13-1.16-2.68-2.74-1.41-4.15s3.09-1.21,4.71-1c1.94,0.22,3.16.28,3.82-1.15,1.37-2.94.11-4.86-1.34-7.09a11.75,11.75,0,0,1-2.08-4.46,2.19,2.19,0,0,1,.37-2,2.61,2.61,0,0,1,2.29-.36,1.63,1.63,0,0,0,1.21-.05l-0.34-.32a1.33,1.33,0,0,1-.59-1.39c0.21-.6,1.16-1.18,2.69-2.09a11.88,11.88,0,0,0,2.4-1.65l0.44-.6c2.64-3.66,3.82-4.84,4.64-4.67,1.92,0.39,2.75.83,2.85,1.5s-0.76,1.26-1.69,1.77a4.56,4.56,0,0,0-1,.67,3.88,3.88,0,0,0,1.65.25,9.14,9.14,0,0,1,1,.07c2.29,0.37,5.17,2.58,7.71,4.54,1.8,1.39,4.53,3.49,5,2.94,1-1.08.73-1.43,0.48-1.77a1,1,0,0,1-.25-0.91c0.15-.47.71-0.77,2.38-1.31l0.08,0,4,0.1a2.46,2.46,0,0,0-.1-0.9,4.76,4.76,0,0,1-.13-0.92c0-.78,0-1.54,0-2.32l0-7c0-.26,0-0.51,0-0.77a6.71,6.71,0,0,1,0-1.65,1.34,1.34,0,0,1,.55-0.82,0.82,0.82,0,0,1,.63-0.12,16.55,16.55,0,0,1,3.49,1.58c2.7,1.46,5.77,3.1,7.45,1.11,0.77-.91.71-2.08,0.64-3.56-0.16-3.27-.38-7.75,8.06-13.31,0.35-.23.86-0.64,1.45-1.11,1.62-1.28,3.63-2.88,4.88-3s3.33,1,5.57,2.23c3.27,1.85,7,3.94,8.56,1.69,0.85-1.21.81-3.34,0.76-5.4,0-2.37-.1-4.82,1.17-6.27,2.83-3.26,11-4.91,18.27-6.38a63.61,63.61,0,0,0,10-2.49,24.26,24.26,0,0,0,5.8-4c2.17-1.83,4.41-3.73,7-4.54,2.92-.92,5.53.13,7.82,1a9.94,9.94,0,0,0,4.26,1.08,2.71,2.71,0,0,0,1.3-.77,3,3,0,0,1,2.06-1l0.39,0,0.43,0.06,0.06,0.45V265.33l-0.65-.21c-3-1-7.28-2.15-9.62-1.54a2.35,2.35,0,0,0-.76,1.46c-0.27.9-.63,2.13-1.79,1.83a1.38,1.38,0,0,1-.88-1.19,1.37,1.37,0,0,0-.21-0.53c-0.36-.2-1.39,1.6-1.72,2.19a3.82,3.82,0,0,1-1.24,1.66,2.71,2.71,0,0,1-1.65,0,2,2,0,0,0-1-.05,1.73,1.73,0,0,0-.52,1.07c-0.2.72-.44,1.61-1.35,1.7a2.21,2.21,0,0,1-2.2-1.36,2.55,2.55,0,0,0-2.45-1.5l-3.25-.06L480,268.29l-7.67-.15-18.88-.37-2,0-3.5-.08a6.09,6.09,0,0,1-1-.14,2.1,2.1,0,0,0-1.42,0c-3.09,2-3.21,12.84-2.13,15.75a3.14,3.14,0,0,0,1.49,1.2c0.92,0.5,2,1.07,1.91,2.24v0.2l-0.14.14-2.39,2.33c2.32,1.71,2.72,2,2.8,2.22h0v0c0.28,1.25-.38,2.8-1,4.3a9.61,9.61,0,0,0-1,3,9.27,9.27,0,0,0,.85,3.24,8.64,8.64,0,0,1,.88,4.13,5.1,5.1,0,0,1-.94,1.45l-1.35,2a9.94,9.94,0,0,0,1.41,3.61c1.09,2.08,2.21,4.23,1.55,6a3.49,3.49,0,0,1-2.23,1.93A1.44,1.44,0,0,1,444.8,321.31Zm-6.92-12.46a1.1,1.1,0,0,1,.6.17c0.61,0.4,1.2,1.76,2.26,4.34s3,7.38,4.21,6.92a2.52,2.52,0,0,0,1.64-1.35c0.5-1.31-.56-3.34-1.5-5.13-0.83-1.59-1.62-3.08-1.51-4.28,0-.12,0-0.12,1.52-2.32l0.78-1.13a8.44,8.44,0,0,0-.84-3.51,10.1,10.1,0,0,1-.92-3.62,10,10,0,0,1,1-3.39,8.13,8.13,0,0,0,1-3.55l-2.92-2.16-0.2-.15v-0.25c0-.22,0-0.22,2.8-2.94a2.45,2.45,0,0,0-1.37-1.13,3.81,3.81,0,0,1-2-1.72c-1.06-2.86-1.23-14.55,2.53-16.95a2.85,2.85,0,0,1,2.14-.15,5.21,5.21,0,0,0,.87.12l3.5,0.08,2,0,18.88,0.37,7.67,0.15,28,0.53,3.25,0.06a3.52,3.52,0,0,1,3.28,2c0.42,0.67.63,1,1.26,0.9a1.4,1.4,0,0,0,.48-1,2.24,2.24,0,0,1,1.14-1.75,2.83,2.83,0,0,1,1.59,0,1.93,1.93,0,0,0,1.06,0,8.54,8.54,0,0,0,.76-1.23c0.82-1.46,1.84-3.27,3.08-2.58a1.67,1.67,0,0,1,.69,1.16,1.58,1.58,0,0,0,.17.48,1.65,1.65,0,0,0,.58-1.16c0.27-.89.58-1.9,1.47-2.13,1.92-.5,4.87-0.08,9.53,1.35V133.33a2.57,2.57,0,0,0-1.29.76,3.48,3.48,0,0,1-1.86,1,10.68,10.68,0,0,1-4.72-1.15c-2.24-.9-4.57-1.84-7.15-1-2.39.75-4.55,2.58-6.64,4.35a25,25,0,0,1-6.06,4.19A64,64,0,0,1,498.55,144c-7.08,1.43-15.11,3.06-17.72,6.05-1,1.17-1,3.42-.92,5.6s0.1,4.52-.94,6c-2.1,3-6.23.66-9.87-1.39-1.92-1.08-3.9-2.21-5-2.11s-3,1.71-4.34,2.78c-0.61.48-1.14,0.9-1.52,1.16-8,5.25-7.76,9.23-7.61,12.42,0.08,1.56.15,3-.87,4.25-2.21,2.61-5.8.68-8.69-.88a17.2,17.2,0,0,0-3.14-1.46,0.39,0.39,0,0,0-.07.13,5.84,5.84,0,0,0,0,1.4c0,0.28,0,.55,0,0.83l0,7c0,0.78,0,1.55,0,2.32a4,4,0,0,0,.11.71,2.09,2.09,0,0,1-.23,2l-0.15.17-4.36-.11a8.5,8.5,0,0,0-1.57.61l0,0c0.52,0.7.81,1.56-.55,3-1.12,1.23-3.33-.47-6.39-2.82-2.45-1.88-5.22-4-7.26-4.34a8.22,8.22,0,0,0-.92-0.06,3.34,3.34,0,0,1-2.33-.58,1.07,1.07,0,0,1-.27-0.81c0-.58.7-0.95,1.53-1.4a5.61,5.61,0,0,0,1.15-.75,5.18,5.18,0,0,0-2-.66c-0.26.06-1.16,0.85-3.63,4.28l-0.47.64a11.43,11.43,0,0,1-2.67,1.89,9.89,9.89,0,0,0-2.26,1.57l0.34,0.32a1.33,1.33,0,0,1,.59,1.37c-0.34,1-1.42.83-2.28,0.72a2.2,2.2,0,0,0-1.44.07,1.44,1.44,0,0,0-.1,1.1,10.84,10.84,0,0,0,1.93,4.07c1.48,2.27,3,4.62,1.41,8.06-1,2.15-3,1.92-4.84,1.72-1.5-.17-2.93-0.33-3.85.7-0.59.66,0.2,1.57,1.38,2.78a4.43,4.43,0,0,1,1.54,2.24,2.7,2.7,0,0,1-1.32,2.14,2.92,2.92,0,0,0-1,1.16l0.64,1.93a15.79,15.79,0,0,1,.66,2.06v0.2l-0.14.15a0.57,0.57,0,0,1-.54.14,3.2,3.2,0,0,0-2.86.69c-1.45,1.58-1.41,2-1.35,2.73a4.47,4.47,0,0,1-.32,2.31c-0.73,1.89-5.87,3.12-12.51,4.51a40.52,40.52,0,0,0-5,1.23c-1,.42-2,0.91-3.07,1.44a34,34,0,0,1-6.25,2.57,1.34,1.34,0,0,1-.5,0,9,9,0,0,0,1,.44,3.61,3.61,0,0,1,2.29,1.73c0,0.17,0,.17-0.37,2.44l-0.4,2.13a10.23,10.23,0,0,0,.72,1c1.17,1.49,2.94,3.74,1.37,6.14a17.08,17.08,0,0,0-1.12,2.94c-0.93,2.84-2.09,6.37-4,7.22a6.18,6.18,0,0,1-2.38.39,3.74,3.74,0,0,0-2.33.54c-0.65.57,0.35,3.4,0.94,5.1a11.45,11.45,0,0,1,.82,3c0,2-1.05,4.13-2,6.23-1.14,2.43-2.32,4.93-2,7.07,0.73,4.48,3.48,4.19,6.66,3.85,1.83-.19,3.73-0.4,5.05.57,3.44,2.54,4.11,8.5,4.55,12.45,0.06,0.53.11,1,.17,1.45,0.1,0.73.38,0.79,1.41,0.69a2.88,2.88,0,0,1,1.41.1,5.35,5.35,0,0,1,2.92,3.52c0.5,1.29.89,2.32,2.52,2.73a1.44,1.44,0,0,0,.93-0.45,2.15,2.15,0,0,1,1.79-.62,1.39,1.39,0,0,1,.82.93v0a3.74,3.74,0,0,0,.16-0.55,1.92,1.92,0,0,1,.85-1.44,0.87,0.87,0,0,1,.84,0,2.12,2.12,0,0,1,.88,1.52c0.21,2,.52,2.84,3.2,4.13,0.74,0.35,3-2.45,4.39-4.12,1.64-2,3.05-3.76,4.19-4.14a1.9,1.9,0,0,1,1.8.64,1.61,1.61,0,0,0,.89.5,17.27,17.27,0,0,0,6.28-2c2.31-1.17,4.31-2.18,12.47-1.41a10,10,0,0,0,1.64,0c1.26-.1,2.56-0.2,3.57.61a1.43,1.43,0,0,1,.2,1.6l0,0.15,0.26-.1,2.91-2.29,0.23,0.05a0.72,0.72,0,0,1,.47.34,1.43,1.43,0,0,1-.05,1.15,2.36,2.36,0,0,0-.11.43,2.7,2.7,0,0,1-.13.61,2.56,2.56,0,0,0-.09.38c2,1.41,2.31,2,2.52,2.69a2.34,2.34,0,0,0,1,1.28,1.6,1.6,0,0,0,.79-0.29A2.81,2.81,0,0,1,437.88,308.85Z" fill="#284a61"/>
    </g>
    <g>
      <path d="M439.13,447.74c-1.58-.77-4.44.94-5.88-0.62-0.6-.66-1-7.67-2.5-12.17-1.84-5.49-6.59-15.08-5.57-21,0,0,2.26-3.32,2.26-3.34,0.22-1.14-1.16-2.22-1-3.37,0.24-1.38,3.42-7.61,4.59-8.34,0.61-.38,1.6.5,2.15,0,2.39-2.07,3.49-11.88,4.43-15.06,0.59-2,3.58-13.56,4.75-14.49,1.71-1.36,4.88-.82,6-2.71,0,0-.95-3.35-0.93-3.37,0.86-1.39,3.61-.73,4.38-2.17,0.41-.77-3.35-26.42-4.14-27.47L444,332.48c0-.19,3.22-9,2.8-12.8l-0.07-.16a3.11,3.11,0,0,1-1.63,1.23c-2.59,1-5.54-10.42-6.91-11.31-0.77-.48-2,1.11-2.69.52-2.14-1.8.1-1.44-3.53-4-0.38-.27,0-0.93.07-1.39s0.53-1.3.08-1.4l-2.77,2.18c-2.12.93-.32-1.17-1-1.69-1.29-1-3.3-.31-5-0.47-13.11-1.24-9.89,2.14-18.63,3.38-0.95.14-1.7-1.47-2.6-1.17-2.28.76-7,9.18-9,8.23-2.86-1.38-3.26-2.38-3.48-4.55,0-.51-0.54-1.37-1-1.15-0.75.38-.42,1.86-1.18,2.22-0.46.22-.51-1-1-1.14-0.94-.25-1.77,1.31-2.71,1.07-3.65-.94-2-4.76-5.52-6.28-0.93-.41-2.85.75-3.12-1.19-0.47-3.59-.81-10.83-4.52-13.57-3.18-2.33-10.63,3.07-11.91-4.75-13.4-2.09-13.12,8.55-18,8-8.67-.9-3.09-4.14-2.8-6.25,0.25-1.85-2.45-3.25-2.33-5.12,0.1-1.55,4.6-5.93.46-7.29-7.14-2.38-3.81,5.74-5.67,6.06-0.79.13-4.48-1.36-5.17-1.81-0.85-.56-1.07-2.74-2-2.3-3.54,1.75,2.76,10.26-1.76,11.22l-3.06-1.77c-10.34-.92-4.53,6-5.74,7.21s-11.28-2.35-12.48-3.12c-2-1.28-1.78-8.41-4.28-7.43-1.42.56-4.83,1.33-6.48,2.1-4,1.91-4,6.74-8.9,7.69-1.55,2-4.2,3.33-5.63,5-3,3.42.5,2.27,0.74,5.11,0.3,3.79-2.67,8.49-1.81,12.39,1.27,5.82,5.61,2,8.27,3,0.68,0.27-1.94,6.09-2,6.73-0.16,2.67,4.46,2.16,5,4.07,1,3.16-8.7,0-6.91,10,0.3,1.7,14.18,5.2,8.77,14.3L284,352.1c-2.76-1.58,4-1.7-1.94-3.43-2-.6,1.08,4.15-2.21,1.65-1.64-1.25-9.87-5.5-11.6-.79-0.21.54,0.29,1.13,0.43,1.7,1,3.89-1.67,7.12,4.89,8l2.69-1.09c0.5,0.58.1,1.52,0.15,2.26,0.45,6.82-1.6.44-4.21,8.41-0.57,1.73-2.39,11-4.44,11.24-1.81.19-3.88-2.39-5.71-2.37a5.32,5.32,0,0,0-2.16,1.08l0,0.58c4.42,6.85,5.67,20.17,1.91,27.78-1,2-7.87,6.5-7.78,8.37,0.19,3.63,2.71,1,4.75.63,3.55-.57.53,3.33,2.47,4.58,4.06,2.6,10.36.51,14.75,2.48,2.69,1.21,2.37,8.71,3.83,11.36,1.65,3.06,9.89.17,11,3.56a6.34,6.34,0,0,1-.07,2.24s-0.17,4.53-.17,4.54c0.2,1,1.62,1.76,1.5,2.84,0,0-2.28,4.47-2.28,4.49,0,1.32,2.3,2.12,2,3.4-0.74,3.3-1.86.55-3.27,2.23s-4.08,13.1-4,14.74c0.14,3.92-1.17,14.38,1.51,16.34l0.07,0.16c3.65-1.12,6.55-4.11,10.22-5.72,1.3-.58,3.37.21,4.82-0.53,1.88-1,3.36-3.66,4.93-4.47,2.57-1.32,6.43.09,9.11-1.6,4.94-3.11,12.14-5.39,17.83-7.71a52.25,52.25,0,0,1,10.52-3c1.52-.25,3.16-0.16,4.56-0.78,0.72-.33.92-1.94,1.65-1.69,1.88,0.7,5.65,2,4.3-1.07-0.29-.68,1.42.75,2.13,0.58,2-.5.63-3.38,1.16-3.37,1.84,0,4.7,1.36,6.37,1.76,0.24,0.05,3.62-1.81,3.77-1.09,0.43,2-1.86,2.18.46,2.82,4.66,1.29,11.17-1.57,15.93-1.71,1.3,0-3.39-1.35-2.42-2.65,1.4-1.85,4.63,1.26,7,.08,0.6-.31.48-1.47,1.12-1.69,2.75-.92,7.75,2.45,10.67,1.81,0.5-.11,1.36-0.68,1.1-1.11-0.38-.63-1.06-0.57-0.52-0.57,3.05,0,2.73.34,5.31,1.74,0.65,0.35,2.42.15,2.16-.54-0.47-1.23-3.33-3.74-2.06-3.39,1,0.28,3.93,3,2,4-1,.51-1.58,3.18-0.62,2.81,0.55-.23,0-1.7.58-1.69s10.05,4.64,13.31,4.06c1.66-.3.82-10.08,5.6-8.36,2.92,1.06-2.9,4.05-1.76,5.58,4.29,5.86,8.81-.36,10.72.67,0.31,0.17,1.22,1.47,1,1.7A4.15,4.15,0,0,1,434.7,465c1.74,0,5.3,0,5.58-.48s-0.17-16.34-1.15-16.82" fill="#172936"/>
      <path d="M285.77,489.74l-0.19-.46c-2.11-1.77-1.87-7.9-1.68-12.85,0.06-1.53.11-2.85,0.08-3.79-0.05-1.78,2.68-13.32,4.15-15.08a2,2,0,0,1,2.11-.72c0.51,0.08.74,0.12,1.06-1.3a1.75,1.75,0,0,0-.83-1.27,2.89,2.89,0,0,1-1.2-2,16.66,16.66,0,0,1,1.38-2.82l0.91-1.78a2.12,2.12,0,0,0-.63-1.13,3.41,3.41,0,0,1-.86-1.5c0-.1,0-1.09.07-2.16s0.09-2.44.09-2.49a7.47,7.47,0,0,1,.09-0.81,2.79,2.79,0,0,0,0-1.26c-0.48-1.42-2.71-1.49-5.07-1.57s-5-.17-5.93-1.91a17.1,17.1,0,0,1-1.24-4.81c-0.45-2.68-1-5.71-2.36-6.34-1.95-.87-4.38-0.91-6.74-0.95-2.84,0-5.79-.09-8.08-1.56-1.1-.7-1-2-0.9-3a2.21,2.21,0,0,0-.11-1.42,1.36,1.36,0,0,0-1.11-.09,7.24,7.24,0,0,0-1.67.62c-1,.47-2,0.92-2.76.45a2.47,2.47,0,0,1-.89-2.17c-0.06-1.22,1.62-2.78,4.4-5.19a18.42,18.42,0,0,0,3.43-3.43c3.5-7.1,2.59-20.36-1.88-27.29l-0.09-.14,0.07-1,0.23-.13c0.19-.11.38-0.23,0.57-0.36a3.48,3.48,0,0,1,1.83-.78h0a6.14,6.14,0,0,1,3,1.27,4.94,4.94,0,0,0,2.62,1.1c1.28-.14,3-6.79,3.51-9,0.22-.86.39-1.55,0.51-1.92,1.29-3.92,2.48-4.6,3.59-5,0.53-.17.8-0.26,0.6-3.26a4.66,4.66,0,0,1,.05-0.87,3.37,3.37,0,0,0,0-.78l-2.37,1-0.13,0c-5.12-.71-5.09-3-5.06-5.39a11.1,11.1,0,0,0-.24-3,3,3,0,0,0-.2-0.5,1.9,1.9,0,0,1-.21-1.51,3.54,3.54,0,0,1,2.43-2.29c3.4-1,8.73,1.94,9.94,2.86a6.22,6.22,0,0,0,.79.53c0-.13,0-0.29-0.06-0.41a1.85,1.85,0,0,1,.24-1.71,1.08,1.08,0,0,1,1.07-.15c2,0.59,2.8,1,2.9,1.66a1.32,1.32,0,0,1-.83,1.19,2.57,2.57,0,0,0-.45.35s0.11,0.09.32,0.22l2.75,0a6.43,6.43,0,0,0,.86-4.86c-0.85-3.18-4.64-5.31-7.14-6.72-1.78-1-2.58-1.47-2.69-2.13-1.21-6.82,2.78-8,5.17-8.71a3.55,3.55,0,0,0,1.77-.8,0.54,0.54,0,0,0,0-.45c-0.19-.61-1.1-0.93-2.07-1.28-1.39-.49-3.11-1.11-3-3a11.52,11.52,0,0,1,.74-2.2,27.74,27.74,0,0,0,1.35-4.1,6.25,6.25,0,0,0-2.57.15c-2.16.4-4.85,0.91-5.8-3.45-0.5-2.24.19-4.69,0.86-7.05a16.35,16.35,0,0,0,.94-5.41,2.19,2.19,0,0,0-1-1.7,1.88,1.88,0,0,1-.88-1.26c-0.06-.64.33-1.39,1.31-2.52a17.35,17.35,0,0,1,2.56-2.21,16.74,16.74,0,0,0,3-2.73l0.12-.15,0.18,0c2.54-.49,3.67-2.11,4.86-3.82a10.17,10.17,0,0,1,3.92-3.82,31.12,31.12,0,0,1,4-1.33c1-.29,1.94-0.56,2.51-0.78a1.5,1.5,0,0,1,1.27,0c1,0.5,1.42,2.12,1.88,3.84,0.39,1.48.84,3.15,1.57,3.61,1.64,1,10.92,3.85,11.87,3.18a4.3,4.3,0,0,0-.27-1.56c-0.39-1.43-.87-3.2.21-4.49s3-1.58,6.18-1.3l0.21,0.06,2.89,1.67a1.42,1.42,0,0,0,.85-0.59c0.57-.9.16-2.69-0.25-4.42-0.56-2.4-1.19-5.12.86-6.12a1,1,0,0,1,.76-0.06,2.3,2.3,0,0,1,1.06,1.35,2.91,2.91,0,0,0,.66,1,18.58,18.58,0,0,0,4.81,1.73c0.23,0,.27-1.18.29-1.79,0.06-1.48.13-3.32,1.43-4.21,0.94-.65,2.31-0.66,4.19,0a2.86,2.86,0,0,1,1.94,1.6c0.54,1.41-.46,3.13-1.26,4.52a6.1,6.1,0,0,0-.8,1.68,3.67,3.67,0,0,0,1.08,2.19,4.1,4.1,0,0,1,1.25,3,5.22,5.22,0,0,1-1.05,2.05c-0.57.82-1.16,1.67-.91,2.22s1.13,1.09,4.33,1.42c1.52,0.16,2.48-1,3.79-2.64,2.31-2.85,5.47-6.76,14.19-5.4l0.36,0.06,0.06,0.36c0.73,4.48,3.48,4.19,6.66,3.85,1.83-.19,3.73-0.4,5.05.57,3.44,2.53,4.11,8.5,4.55,12.45,0.06,0.53.12,1,.17,1.46,0.1,0.73.38,0.79,1.41,0.69a2.88,2.88,0,0,1,1.41.1,5.35,5.35,0,0,1,2.92,3.52c0.5,1.29.89,2.32,2.52,2.73a1.45,1.45,0,0,0,.93-0.45,2.15,2.15,0,0,1,1.79-.62,1.39,1.39,0,0,1,.82.92v0a3.74,3.74,0,0,0,.15-0.55,1.93,1.93,0,0,1,.85-1.44,0.87,0.87,0,0,1,.84,0,2.12,2.12,0,0,1,.88,1.52c0.21,2,.52,2.84,3.2,4.13,0.74,0.34,3-2.45,4.39-4.12,1.64-2,3.05-3.76,4.19-4.14a1.9,1.9,0,0,1,1.8.64,1.62,1.62,0,0,0,.88.5,17.28,17.28,0,0,0,6.28-2c2.32-1.17,4.32-2.18,12.47-1.41a10,10,0,0,0,1.64,0c1.25-.1,2.56-0.2,3.57.61a1.43,1.43,0,0,1,.2,1.6l0,0.15,0.26-.1,2.91-2.29,0.23,0.05a0.72,0.72,0,0,1,.47.34,1.43,1.43,0,0,1-.05,1.15,2.39,2.39,0,0,0-.11.43,2.75,2.75,0,0,1-.13.61,2.45,2.45,0,0,0-.09.38c2,1.41,2.31,2,2.52,2.69a2.34,2.34,0,0,0,1,1.28,1.61,1.61,0,0,0,.79-0.29,1.81,1.81,0,0,1,1.85-.27c0.61,0.4,1.2,1.76,2.26,4.34s3,7.35,4.22,6.93a2.64,2.64,0,0,0,1.38-1l0.5-.76,0.49,1.14c0.35,3.21-1.75,9.66-2.54,12.08l-0.15.45,3.38,1.08,0.1,0.13c0.83,1.11,4.7,27,4.18,28a3.36,3.36,0,0,1-2.53,1.37,3.43,3.43,0,0,0-1.74.68c0.09,0.34.29,1,.47,1.67,0.47,1.67.47,1.67,0.34,1.86-0.73,1.23-2.15,1.56-3.53,1.87a6.43,6.43,0,0,0-2.57,1c-0.58.48-2,4.75-4.15,12.7-0.19.69-.34,1.22-0.43,1.54-0.27.9-.55,2.34-0.87,4-0.84,4.32-1.88,9.7-3.71,11.28a1.57,1.57,0,0,1-1.55.11,1.25,1.25,0,0,0-.66-0.09c-1,.6-4.12,6.61-4.36,8a2.4,2.4,0,0,0,.43,1.38,3.1,3.1,0,0,1,.52,2,18.75,18.75,0,0,1-1.7,2.58l-0.58.86c-0.71,4.4,1.86,11,3.92,16.26,0.62,1.6,1.21,3.1,1.64,4.38a53.46,53.46,0,0,1,1.74,8.5,20.67,20.67,0,0,0,.66,3.51c0.63,0.69,1.74.54,2.91,0.37a5,5,0,0,1,2.81.12,1.23,1.23,0,0,1,.54.89c0.61,2.28,1.27,16,.8,16.66-0.29.45-1.17,0.63-5.52,0.69h-0.46l-0.11-1a4.18,4.18,0,0,0,2-.76,4.06,4.06,0,0,0-.77-1.09c-0.39-.21-1.26.23-2.18,0.68-2.22,1.1-5.57,2.77-8.69-1.48-0.75-1,.32-2.2,1.27-3.25,0.52-.58,1.31-1.45,1.22-1.82a0.76,0.76,0,0,0-.49-0.34,1.91,1.91,0,0,0-1.65,0c-1.21.68-1.7,3.05-2.1,5s-0.67,3.23-1.59,3.4c-2.6.46-8.58-2-11.79-3.39l-1.41-.58c0,0.07,0,.14,0,0.19a1.32,1.32,0,0,1-.58,1.37,0.8,0.8,0,0,1-1.08-.41,3,3,0,0,1,.31-2.21,2.71,2.71,0,0,1-1.19-.23c-0.57-.31-1-0.56-1.35-0.77a4.52,4.52,0,0,0-2.68-.87,0.87,0.87,0,0,1,0,.57,2.3,2.3,0,0,1-1.46,1.07c-1.54.34-3.54-.32-5.48-1s-3.88-1.28-5.15-.86a1.19,1.19,0,0,0-.27.54,1.79,1.79,0,0,1-.78,1.12c-1.3.66-2.76,0.2-4-.21s-2.26-.67-2.75,0c0.06,0.48,1.25,1.1,1.76,1.37,0.7,0.37,1.09.57,1,1a0.63,0.63,0,0,1-.71.45,34.59,34.59,0,0,0-6,1c-3.5.76-7.12,1.55-10.1,0.73a1.79,1.79,0,0,1-1.37-.81,1,1,0,0,1,.24-1,1.71,1.71,0,0,0,.36-1.19,13.81,13.81,0,0,0-2.18.83,2.22,2.22,0,0,1-1.25.4c-0.62-.15-1.36-0.41-2.14-0.68a19.1,19.1,0,0,0-3.73-1l0,0.19c0.1,0.88.3,2.7-1.45,3.14a2.43,2.43,0,0,1-1.51-.37,1.42,1.42,0,0,1-.3,1.29c-0.68.73-2.16,0.59-4.93-.45l-0.31.55a2.4,2.4,0,0,1-1,1.12,10,10,0,0,1-3.22.65c-0.49,0-1,.09-1.47.17a51.38,51.38,0,0,0-10.41,3c-1.52.62-3.14,1.23-4.8,1.86-4.61,1.75-9.37,3.55-13,5.81a9.65,9.65,0,0,1-5.17,1,9.19,9.19,0,0,0-4,.6,8.79,8.79,0,0,0-2.08,1.93,10.66,10.66,0,0,1-2.84,2.53,5.67,5.67,0,0,1-2.86.37,4.78,4.78,0,0,0-2,.17A29.61,29.61,0,0,0,292,486.5a22.68,22.68,0,0,1-5.79,3.11Zm3.89-32a0.94,0.94,0,0,0-.76.42c-1.32,1.58-4,12.9-3.92,14.4,0,1,0,2.31-.08,3.86-0.17,4.26-.42,10.69,1.35,12.07a23.06,23.06,0,0,0,5.18-2.87,30.38,30.38,0,0,1,4.64-2.72,5.53,5.53,0,0,1,2.42-.25,5,5,0,0,0,2.37-.26,10,10,0,0,0,2.55-2.31,9.38,9.38,0,0,1,2.37-2.16,10,10,0,0,1,4.43-.71,8.93,8.93,0,0,0,4.65-.87c3.67-2.31,8.48-4.13,13.13-5.9,1.65-.63,3.27-1.24,4.78-1.85a52.44,52.44,0,0,1,10.62-3c0.51-.08,1-0.13,1.55-0.18a9.09,9.09,0,0,0,2.9-.57,1.94,1.94,0,0,0,.5-0.69c0.28-.51.72-1.29,1.52-1,3.11,1.16,3.74.83,3.86,0.7a1.25,1.25,0,0,0-.18-1.1,0.61,0.61,0,0,1,.1-0.74c0.33-.3.72-0.1,1.27,0.19a3.4,3.4,0,0,0,1.11.44c0.75-.19.83-0.84,0.69-2.05a1.38,1.38,0,0,1,.14-1.13l0.15-.17,0.31,0a16.24,16.24,0,0,1,4.44,1.12c0.71,0.25,1.39.48,1.93,0.63l0.73-.31c1.78-.79,2.66-1.1,3.17-0.83a0.67,0.67,0,0,1,.36.47,2.65,2.65,0,0,1-.47,2.18l0,0.06a5,5,0,0,0,.61.2c2.75,0.76,6.25,0,9.63-.74a48.17,48.17,0,0,1,4.86-.89,3.08,3.08,0,0,1-1.71-1.63,1.08,1.08,0,0,1,.2-0.91c0.94-1.25,2.49-.77,3.86-0.34,1.16,0.36,2.35.74,3.29,0.27a1.26,1.26,0,0,0,.29-0.56,1.61,1.61,0,0,1,.89-1.15c1.58-.52,3.72.18,5.78,0.86,1.8,0.6,3.67,1.21,4.95.93a1.59,1.59,0,0,0,.73-0.44,0.84,0.84,0,0,0-.38-0.27l-0.39-.15,0.12-.84h0.61c2.44,0,2.85.23,4.23,1,0.35,0.21.77,0.46,1.32,0.76a2.07,2.07,0,0,0,1.41,0,10.79,10.79,0,0,0-1.3-1.74c-0.88-1-1.28-1.52-1-2a0.7,0.7,0,0,1,.86-0.23c0.94,0.26,2.89,1.95,3,3.37a1.48,1.48,0,0,1-.89,1.52,0.81,0.81,0,0,0-.22.18,9.61,9.61,0,0,1,2,.74c2.9,1.21,8.93,3.74,11.23,3.33a7.58,7.58,0,0,0,.79-2.62c0.44-2.11,1-4.73,2.59-5.63a2.89,2.89,0,0,1,2.47-.09,1.58,1.58,0,0,1,1.12,1c0.22,0.88-.59,1.78-1.45,2.73-0.62.69-1.47,1.63-1.21,2,2.62,3.58,5.18,2.3,7.44,1.18,1.21-.6,2.26-1.12,3.12-0.66a4.1,4.1,0,0,1,1.3,1.88,0.68,0.68,0,0,1-.11.58l-0.19.2a14.15,14.15,0,0,0,2.55-.23c0.18-2-.3-14.75-1-16.09a4.74,4.74,0,0,0-2.15,0c-1.31.18-2.8,0.38-3.8-.71-0.34-.37-0.5-1.28-0.9-4a52.71,52.71,0,0,0-1.7-8.33c-0.42-1.25-1-2.75-1.62-4.33-2.13-5.44-4.77-12.22-4-16.89l0-.15,0.67-1,1.56-2.3a2.63,2.63,0,0,0-.44-1.26,3.16,3.16,0,0,1-.53-2c0.23-1.35,3.42-7.81,4.81-8.68a1.74,1.74,0,0,1,1.47,0,1.19,1.19,0,0,0,.62.09c1.57-1.36,2.62-6.77,3.39-10.72,0.33-1.7.62-3.17,0.89-4.11,0.09-.31.24-0.84,0.42-1.52,2-7.4,3.57-12.48,4.5-13.21a7.23,7.23,0,0,1,3-1.15,4.65,4.65,0,0,0,2.8-1.26l-0.34-1.22c-0.61-2.15-.61-2.15-0.45-2.35a3.56,3.56,0,0,1,2.48-1.25,2.64,2.64,0,0,0,1.86-.86c0.22-1.43-3.26-24.56-4.06-26.83l-3.78-1.21,0-.31a2.73,2.73,0,0,1,.3-1.16c0.7-2.15,2.45-7.52,2.53-10.74a4.14,4.14,0,0,1-1.06.56c-2.09.77-3.81-3.43-5.49-7.48-0.67-1.62-1.5-3.63-1.87-3.87a1.64,1.64,0,0,0-.84.3,1.66,1.66,0,0,1-1.9.18,3.3,3.3,0,0,1-1.3-1.76c-0.13-.42-0.26-0.85-2.2-2.2a1.21,1.21,0,0,1-.24-1.44,2.06,2.06,0,0,0,.09-0.39,1.77,1.77,0,0,1,.05-0.33l-2,1.59a1.46,1.46,0,0,1-1.52.1,1.19,1.19,0,0,1-.12-1.3A2,2,0,0,0,428,304a4.27,4.27,0,0,0-2.83-.35,10.94,10.94,0,0,1-1.81,0c-7.87-.74-9.75.21-11.92,1.31a18.36,18.36,0,0,1-6.59,2.07,2.18,2.18,0,0,1-1.67-.72,1.33,1.33,0,0,0-.84-0.47c-0.86.29-2.38,2.16-3.73,3.82-2.22,2.73-4.14,5.1-5.6,4.39-3.09-1.49-3.54-2.7-3.76-4.95a1.31,1.31,0,0,0-.34-0.71,1.82,1.82,0,0,0-.26.73,1.9,1.9,0,0,1-.86,1.45,0.72,0.72,0,0,1-.56,0,1.26,1.26,0,0,1-.63-0.78,1.65,1.65,0,0,0-.2-0.38,1.71,1.71,0,0,0-.89.47,2.13,2.13,0,0,1-1.77.61c-2.13-.55-2.7-2-3.2-3.34a4.42,4.42,0,0,0-2.39-3,2.36,2.36,0,0,0-.92,0c-0.84.08-2.25,0.2-2.49-1.56-0.06-.44-0.11-0.94-0.17-1.48-0.42-3.77-1.07-9.48-4.15-11.75-1-.74-2.63-0.56-4.36-0.38-3,.32-6.7.71-7.69-4.32-7.88-1.12-10.66,2.32-12.91,5.1-1.4,1.73-2.6,3.23-4.67,3-3.06-.32-4.64-0.93-5.13-2s0.3-2.2,1-3.21a4.83,4.83,0,0,0,.88-1.62,3.38,3.38,0,0,0-1.05-2.22,4.4,4.4,0,0,1-1.28-2.86,5.81,5.81,0,0,1,.93-2.11c0.69-1.2,1.56-2.7,1.19-3.67a1.91,1.91,0,0,0-1.32-1c-1.54-.51-2.66-0.54-3.31-0.09-0.88.61-.94,2.11-1,3.43s-0.1,2.56-1.12,2.74-4.93-1.49-5.53-1.88a3.37,3.37,0,0,1-1-1.46,2.82,2.82,0,0,0-.49-0.83c-1.22.62-.91,2.39-0.3,5,0.47,2,.91,3.93.11,5.19a2.49,2.49,0,0,1-1.67,1.07l-0.19,0-3.13-1.81c-2.74-.23-4.5.09-5.22,1s-0.36,2.32,0,3.59c0.29,1.08.54,2,0,2.54-1.51,1.48-12-2.37-13.1-3.05s-1.54-2.46-2-4.2c-0.36-1.36-.78-2.91-1.36-3.2a0.51,0.51,0,0,0-.45,0c-0.62.24-1.58,0.52-2.6,0.81a30.59,30.59,0,0,0-3.85,1.27,9.24,9.24,0,0,0-3.53,3.49c-1.23,1.77-2.5,3.59-5.31,4.2a18.31,18.31,0,0,1-3.11,2.76,16.61,16.61,0,0,0-2.41,2.08c-0.92,1.06-1.09,1.55-1.07,1.77a1.12,1.12,0,0,0,.51.57,3.15,3.15,0,0,1,1.42,2.4,17.25,17.25,0,0,1-1,5.76c-0.63,2.24-1.29,4.56-.85,6.57,0.74,3.4,2.46,3.08,4.64,2.68a6.24,6.24,0,0,1,3.32,0c0.8,0.31.51,1.41-1,5.32-0.31.8-.65,1.71-0.68,1.91-0.06,1,.84,1.43,2.34,2,1.16,0.41,2.36.84,2.69,1.92a1.53,1.53,0,0,1-.07,1.21c-0.37.7-1.29,1-2.36,1.29-2.46.73-5.52,1.64-4.47,7.58a9.83,9.83,0,0,0,2.2,1.43c2.65,1.49,6.66,3.75,7.62,7.34a7.52,7.52,0,0,1-1.11,5.87l-0.15.25-3.6-.06-0.11-.06a1.56,1.56,0,0,1-.94-1.14,1.52,1.52,0,0,1,.9-1.19c0.09-.06.23-0.16,0.33-0.23a7.65,7.65,0,0,0-2.12-.82l-0.11,0a4.18,4.18,0,0,0,.07.77,1.41,1.41,0,0,1-.3,1.56c-0.5.3-1.15-.06-2-0.73-1.39-1.06-6.29-3.49-9-2.69a2.56,2.56,0,0,0-1.78,1.68,1.21,1.21,0,0,0,.19.74,3.9,3.9,0,0,1,.25.67,12.05,12.05,0,0,1,.27,3.26c0,2.34,0,3.77,4.06,4.37l2.9-1.17,0.23,0.27a2.27,2.27,0,0,1,.32,1.87,3.93,3.93,0,0,0,0,.69c0.21,3.28-.1,3.89-1.29,4.28-0.68.22-1.71,0.55-2.95,4.32-0.11.34-.28,1-0.49,1.85-1.52,6-2.72,9.56-4.37,9.73a5.48,5.48,0,0,1-3.26-1.25,5.5,5.5,0,0,0-2.5-1.11,2.77,2.77,0,0,0-1.29.61l-0.4.26v0.15c4.64,7.34,5.52,20.69,1.85,28.13-0.47,1-2,2.31-3.67,3.74s-4.09,3.57-4.06,4.39a1.66,1.66,0,0,0,.41,1.36,2.92,2.92,0,0,0,1.83-.5,8,8,0,0,1,1.93-.7,2.22,2.22,0,0,1,2,.34,2.61,2.61,0,0,1,.43,2.23c-0.09,1-.11,1.72.44,2.08,2.06,1.32,4.73,1.36,7.56,1.41,2.46,0,5,.08,7.13,1,1.89,0.85,2.42,4,2.94,7.08a16.73,16.73,0,0,0,1.13,4.49c0.67,1.24,2.92,1.31,5.09,1.39,2.6,0.09,5.28.18,6,2.25a3.61,3.61,0,0,1,0,1.73,5.87,5.87,0,0,0-.08.69h0s0,1.29-.09,2.5l-0.07,2a2.85,2.85,0,0,0,.64,1,2.63,2.63,0,0,1,.86,1.95,12.81,12.81,0,0,1-1,2.06l-1.27,2.48a2.55,2.55,0,0,0,.89,1.2c0.62,0.6,1.32,1.27,1.12,2.21-0.44,2-1.11,2.25-2.2,2.07A2.63,2.63,0,0,0,289.67,457.78Zm150.28,6.42h0Z" fill="#284a61"/>
    </g>
  </g>
  <g id="country-labels">
    <g style="isolation: isolate">
      <path d="M201.79,417.29v-10h1.1v9h4v1h-5.06Z" fill="#172936"/>
      <path d="M208,407.23h1.12v1.29H208v-1.29Zm0,2.81h1.09v7.25H208V410Z" fill="#172936"/>
      <path d="M216.51,413.53c0,2.7-.86,3.91-3,3.91-0.87,0-2.48-.16-2.48-0.16V406.89h1.09v4a3.34,3.34,0,0,1,2.07-1C216,409.9,216.51,411.28,216.51,413.53Zm-1.1,0c0-1.57-.3-2.68-1.45-2.68a3,3,0,0,0-1.88,1v4.52s1.09,0.1,1.43.1C215,416.5,215.41,415.51,215.41,413.53Z" fill="#172936"/>
      <path d="M222.89,416.22l0.06,0.8a7.22,7.22,0,0,1-2.36.41c-1.91,0-2.74-1.09-2.74-3.64s0.87-3.87,2.94-3.87c1.48,0,2.42.56,2.42,1.94,0,1.75-1.12,2.2-3.51,2.2h-0.75v0.22c0,1.36.52,2.22,1.7,2.22A12.11,12.11,0,0,0,222.89,416.22Zm-3.2-3c1.75,0,2.45-.26,2.45-1.35,0-.8-0.51-1.06-1.35-1.06-1.3,0-1.81.88-1.83,2.41h0.72Z" fill="#172936"/>
      <path d="M224.72,410h1.09v1.1a6,6,0,0,1,2.26-1.25V411a9.26,9.26,0,0,0-2.26,1v5.22h-1.09V410Z" fill="#172936"/>
      <path d="M229.25,407.23h1.12v1.29h-1.12v-1.29Zm0,2.81h1.09v7.25h-1.09V410Z" fill="#172936"/>
      <path d="M232,413.82c0-2.31.55-3.91,2.9-3.91,0.83,0,2.61.25,2.61,0.25v5.36c0,0.68.09,1.77,0.09,1.77l-1.09,0s-0.07-.67-0.07-1.25a2.76,2.76,0,0,1-2.12,1.36C232.59,417.44,232,416.19,232,413.82Zm1.1,0c0,1.59.28,2.68,1.44,2.68s1.88-1.51,1.88-1.51v-4s-1-.13-1.39-0.13C233.46,410.84,233.1,411.87,233.1,413.82Z" fill="#172936"/>
    </g>
    <g style="isolation: isolate">
      <g style="isolation: isolate">
        <path d="M143.14,331s-1.59-.2-2.57-0.2c-1.32,0-2,.48-2,1.68s0.67,1.46,2.17,1.84c1.8,0.45,2.7,1,2.7,2.74,0,2-1,3.07-3,3.07a23.48,23.48,0,0,1-2.87-.28l0.07-.91s1.84,0.2,2.8.2a1.7,1.7,0,0,0,1.88-2c0-1.22-.67-1.55-2-1.86-1.86-.43-2.86-1-2.86-2.71,0-1.93,1.09-2.78,3.07-2.78a17,17,0,0,1,2.68.3Z" fill="#172936"/>
        <path d="M145,329.9h1.12v1.29H145V329.9Zm0,2.81h1.09V340H145v-7.25Z" fill="#172936"/>
        <path d="M152.76,338.89l0.06,0.8a7.21,7.21,0,0,1-2.36.41c-1.91,0-2.74-1.09-2.74-3.64s0.87-3.87,2.94-3.87c1.48,0,2.42.56,2.42,1.94,0,1.75-1.12,2.2-3.51,2.2h-0.75v0.22c0,1.36.52,2.22,1.7,2.22A12.11,12.11,0,0,0,152.76,338.89Zm-3.2-3c1.75,0,2.45-.26,2.45-1.35,0-.8-0.51-1.06-1.35-1.06-1.3,0-1.81.88-1.83,2.41h0.72Z" fill="#172936"/>
        <path d="M154.59,332.72h1.09v1.1a6,6,0,0,1,2.26-1.25v1.14a9.25,9.25,0,0,0-2.26,1V340h-1.09v-7.25Z" fill="#172936"/>
        <path d="M159.14,332.72h1.09v1.1a6,6,0,0,1,2.26-1.25v1.14a9.25,9.25,0,0,0-2.26,1V340h-1.09v-7.25Z" fill="#172936"/>
        <path d="M163.25,336.49c0-2.31.55-3.91,2.9-3.91,0.83,0,2.61.25,2.61,0.25v5.36c0,0.68.09,1.77,0.09,1.77l-1.09,0s-0.07-.67-0.07-1.25a2.77,2.77,0,0,1-2.12,1.36C163.84,340.11,163.25,338.86,163.25,336.49Zm1.1,0c0,1.59.28,2.68,1.44,2.68s1.88-1.51,1.88-1.51v-4s-1-.13-1.39-0.13C164.71,333.51,164.35,334.54,164.35,336.49Z" fill="#172936"/>
      </g>
      <g style="isolation: isolate">
        <path d="M137.28,357.36v-10h1.1v9h4v1h-5.06Z" fill="#172936"/>
        <path d="M148.14,356.29l0.06,0.8a7.21,7.21,0,0,1-2.36.41c-1.91,0-2.74-1.09-2.74-3.64S144,350,146,350c1.48,0,2.42.56,2.42,1.94,0,1.75-1.12,2.2-3.51,2.2H144.2v0.22c0,1.36.52,2.22,1.7,2.22A12.11,12.11,0,0,0,148.14,356.29Zm-3.2-3c1.75,0,2.45-.26,2.45-1.35,0-.8-0.51-1.06-1.35-1.06-1.3,0-1.81.88-1.83,2.41h0.72Z" fill="#172936"/>
        <path d="M155.38,353.67c0,2.29-.36,3.84-2.84,3.84s-2.84-1.55-2.84-3.84,0.59-3.7,2.84-3.7S155.38,351.36,155.38,353.67Zm-1,0c0-1.84-.36-2.75-1.8-2.75s-1.8.91-1.8,2.75,0.15,2.9,1.8,2.9S154.33,355.44,154.33,353.67Z" fill="#172936"/>
        <path d="M157,357.36v-7.25h1.07v1.09a3,3,0,0,1,2.1-1.23c1.58,0,2.22,1.12,2.22,2.88v4.51h-1.07v-4.2c0-1.55-.38-2.25-1.36-2.25s-1.88,1.35-1.88,1.35v5.1H157Z" fill="#172936"/>
        <path d="M169,356.29l0.06,0.8a7.22,7.22,0,0,1-2.36.41c-1.91,0-2.74-1.09-2.74-3.64s0.87-3.87,2.94-3.87c1.48,0,2.42.56,2.42,1.94,0,1.75-1.12,2.2-3.51,2.2h-0.75v0.22c0,1.36.52,2.22,1.7,2.22A12.11,12.11,0,0,0,169,356.29Zm-3.2-3c1.75,0,2.45-.26,2.45-1.35,0-.8-0.51-1.06-1.35-1.06-1.3,0-1.81.88-1.83,2.41h0.72Z" fill="#172936"/>
      </g>
    </g>
    <g style="isolation: isolate">
      <path d="M164.17,265.73h2.64v5.06a26.48,26.48,0,0,1-3.07.32c-2.83,0-3.62-2.3-3.62-5.17,0-3.15.74-5.15,3.68-5.15a13.91,13.91,0,0,1,3,.38l-0.06.88a22.16,22.16,0,0,0-2.88-.28c-2.31,0-2.61,1.78-2.61,4.16s0.49,4.19,2.59,4.19a14.16,14.16,0,0,0,1.84-.19v-3.25h-1.52v-1Z" fill="#172936"/>
      <path d="M174,263.72V271h-1.06v-1.09a3,3,0,0,1-2.1,1.23c-1.58,0-2.23-1-2.23-2.94v-4.45h1.09v4.2c0,1.55.36,2.25,1.36,2.25s1.88-1.35,1.88-1.35v-5.1H174Z" fill="#172936"/>
      <path d="M175.9,260.9H177v1.29H175.9V260.9Zm0,2.81H177V271h-1.09v-7.25Z" fill="#172936"/>
      <path d="M178.91,271v-7.25H180v1.09a3,3,0,0,1,2.1-1.23c1.58,0,2.22,1.12,2.22,2.88V271h-1.07v-4.2c0-1.55-.38-2.25-1.36-2.25s-1.88,1.35-1.88,1.35V271h-1.09Z" fill="#172936"/>
      <path d="M190.92,269.89l0.06,0.8a7.22,7.22,0,0,1-2.36.41c-1.91,0-2.74-1.09-2.74-3.64s0.87-3.87,2.94-3.87c1.48,0,2.42.56,2.42,1.94,0,1.75-1.12,2.2-3.51,2.2H187v0.22c0,1.36.52,2.22,1.7,2.22A12.11,12.11,0,0,0,190.92,269.89Zm-3.2-3c1.75,0,2.45-.26,2.45-1.35,0-.8-0.51-1.06-1.35-1.06-1.3,0-1.81.88-1.83,2.41h0.72Z" fill="#172936"/>
      <path d="M192.47,267.49c0-2.31.55-3.91,2.9-3.91,0.83,0,2.61.25,2.61,0.25v5.36c0,0.68.09,1.77,0.09,1.77L197,271s-0.07-.67-0.07-1.25a2.76,2.76,0,0,1-2.12,1.36C193.07,271.11,192.47,269.86,192.47,267.49Zm1.1,0c0,1.59.28,2.68,1.44,2.68s1.88-1.51,1.88-1.51v-4s-1-.13-1.39-0.13C193.94,264.51,193.57,265.54,193.57,267.49Z" fill="#172936"/>
    </g>
  </g>
</svg>
