<svg id="Layer_1" data-name="Layer 1" xmlns="http://www.w3.org/2000/svg" viewBox="0 0 567.39 282.46"><title>build assets</title><rect width="567.39" height="282.46" fill="#fff"/><path d="M24.9,145.14a4.13,4.13,0,0,0,1.26,1.47,5.42,5.42,0,0,0,1.84.84,8.68,8.68,0,0,0,2.18.27,11.38,11.38,0,0,0,1.64-.13,5.69,5.69,0,0,0,1.64-.49,3.57,3.57,0,0,0,1.27-1,2.51,2.51,0,0,0,.51-1.62,2.28,2.28,0,0,0-.67-1.71,5.35,5.35,0,0,0-1.77-1.09,17.7,17.7,0,0,0-2.48-.76q-1.38-.33-2.8-0.73a24.75,24.75,0,0,1-2.84-.89,9.74,9.74,0,0,1-2.48-1.37,6.43,6.43,0,0,1-1.77-2.09,6.34,6.34,0,0,1-.67-3,6.81,6.81,0,0,1,.86-3.48,7.74,7.74,0,0,1,2.24-2.46A9.78,9.78,0,0,1,26,125.4a13.35,13.35,0,0,1,3.5-.47,16.52,16.52,0,0,1,3.91.46,9.77,9.77,0,0,1,3.33,1.47,7.47,7.47,0,0,1,2.31,2.6,8,8,0,0,1,.86,3.84H34.36a4.61,4.61,0,0,0-.49-1.93,3.22,3.22,0,0,0-1.11-1.2,4.72,4.72,0,0,0-1.58-.62,9.79,9.79,0,0,0-1.95-.18,6.72,6.72,0,0,0-1.38.15,3.73,3.73,0,0,0-1.26.51,3.17,3.17,0,0,0-.93.91,2.44,2.44,0,0,0-.36,1.38,2.34,2.34,0,0,0,.29,1.24,2.59,2.59,0,0,0,1.15.87,14.53,14.53,0,0,0,2.37.8l4,1q0.73,0.15,2,.53A9.72,9.72,0,0,1,37.64,138a7.77,7.77,0,0,1,2.2,2.24,6.37,6.37,0,0,1,.93,3.59,8,8,0,0,1-.69,3.31A7.2,7.2,0,0,1,38,149.78a9.88,9.88,0,0,1-3.39,1.73,16,16,0,0,1-4.68.62,16.44,16.44,0,0,1-4.17-.53,10.47,10.47,0,0,1-3.57-1.66,8.18,8.18,0,0,1-2.46-2.88,8.58,8.58,0,0,1-.87-4.15h5.54A4.77,4.77,0,0,0,24.9,145.14Z" fill="#172936"/><path d="M71.32,151.55l-4.41-17.7H66.84l-4.33,17.7H56.72l-6.88-26h5.72l4.11,17.7h0.07l4.51-17.7h5.35l4.44,17.92h0.07l4.26-17.92H84l-7,26H71.32Z" fill="#172936"/><path d="M100.42,125.55v26H94.7v-26h5.72Z" fill="#172936"/><path d="M119.21,125.55L130.06,143h0.07V125.55h5.35v26h-5.72L119,134.14h-0.07v17.41h-5.35v-26h5.68Z" fill="#172936"/><path d="M168,125.55v4.81H154.31v5.57h12.6v4.44h-12.6v6.37h14v4.81H148.59v-26H168Z" fill="#172936"/><path d="M216.76,125.55v4.81H204.2v6h10.89v4.44H204.2v10.74h-5.72v-26h18.28Z" fill="#172936"/><path d="M233.88,125.55v21.19h12.67v4.81H228.16v-26h5.72Z" fill="#172936"/><path d="M277,149.56q-3,2.57-8.16,2.57t-8.17-2.55q-2.89-2.55-2.89-7.87V125.55h5.72v16.17a11.8,11.8,0,0,0,.18,2.08,4,4,0,0,0,2.38,3.08,6.59,6.59,0,0,0,2.79.49q3.06,0,4.22-1.37a6.5,6.5,0,0,0,1.17-4.28V125.55h5.72v16.17Q279.9,147,277,149.56Z" fill="#172936"/><path d="M315.48,145.14a4.13,4.13,0,0,0,1.26,1.47,5.43,5.43,0,0,0,1.84.84,8.69,8.69,0,0,0,2.19.27,11.39,11.39,0,0,0,1.64-.13,5.7,5.7,0,0,0,1.64-.49,3.56,3.56,0,0,0,1.27-1,2.51,2.51,0,0,0,.51-1.62,2.28,2.28,0,0,0-.67-1.71,5.37,5.37,0,0,0-1.77-1.09,17.73,17.73,0,0,0-2.48-.76q-1.38-.33-2.8-0.73a24.76,24.76,0,0,1-2.84-.89,9.71,9.71,0,0,1-2.48-1.37,6.42,6.42,0,0,1-1.77-2.09,6.36,6.36,0,0,1-.67-3,6.81,6.81,0,0,1,.86-3.48,7.75,7.75,0,0,1,2.24-2.46,9.77,9.77,0,0,1,3.13-1.46,13.34,13.34,0,0,1,3.5-.47,16.54,16.54,0,0,1,3.92.46,9.78,9.78,0,0,1,3.33,1.47,7.46,7.46,0,0,1,2.31,2.6,8,8,0,0,1,.86,3.84h-5.54a4.6,4.6,0,0,0-.49-1.93,3.22,3.22,0,0,0-1.11-1.2,4.72,4.72,0,0,0-1.58-.62,9.77,9.77,0,0,0-1.95-.18,6.73,6.73,0,0,0-1.38.15,3.71,3.71,0,0,0-1.26.51,3.16,3.16,0,0,0-.93.91,2.44,2.44,0,0,0-.36,1.38,2.34,2.34,0,0,0,.29,1.24,2.6,2.6,0,0,0,1.15.87,14.55,14.55,0,0,0,2.37.8l4,1q0.73,0.15,2,.53a9.73,9.73,0,0,1,2.57,1.22,7.78,7.78,0,0,1,2.2,2.24,6.37,6.37,0,0,1,.93,3.59,8,8,0,0,1-.69,3.31,7.18,7.18,0,0,1-2.06,2.64,9.88,9.88,0,0,1-3.39,1.73,16,16,0,0,1-4.68.62,16.45,16.45,0,0,1-4.17-.53,10.48,10.48,0,0,1-3.57-1.66,8.18,8.18,0,0,1-2.46-2.88,8.59,8.59,0,0,1-.87-4.15H315A4.77,4.77,0,0,0,315.48,145.14Z" fill="#172936"/><path d="M354.55,125.55a10.83,10.83,0,0,1,4.15.71,7.77,7.77,0,0,1,2.79,1.88,7.21,7.21,0,0,1,1.57,2.66,9.92,9.92,0,0,1,0,6.17,7.17,7.17,0,0,1-1.57,2.68,7.76,7.76,0,0,1-2.79,1.88,10.83,10.83,0,0,1-4.15.71h-6v9.32h-5.72v-26h11.72ZM353,137.78a11.91,11.91,0,0,0,1.89-.15,4.4,4.4,0,0,0,1.6-.56,3.08,3.08,0,0,0,1.11-1.18,5,5,0,0,0,0-4,3.08,3.08,0,0,0-1.11-1.18,4.42,4.42,0,0,0-1.6-.56A12,12,0,0,0,353,130h-4.44v7.79H353Z" fill="#172936"/><path d="M389.22,125.55a8.37,8.37,0,0,1,3.15.56,7.26,7.26,0,0,1,2.4,1.55,6.74,6.74,0,0,1,1.53,2.28,7.3,7.3,0,0,1,.53,2.79,7.82,7.82,0,0,1-1,4,6.06,6.06,0,0,1-3.15,2.55v0.07a4.41,4.41,0,0,1,1.75.89,4.94,4.94,0,0,1,1.13,1.42,6.63,6.63,0,0,1,.64,1.8,15.81,15.81,0,0,1,.27,2q0,0.62.07,1.46t0.13,1.71a11.3,11.3,0,0,0,.29,1.66,3.8,3.8,0,0,0,.6,1.33h-5.72a10.06,10.06,0,0,1-.58-2.95q-0.11-1.71-.33-3.28a5.17,5.17,0,0,0-1.24-3,4.26,4.26,0,0,0-3.1-.95h-5.72v10.16H375.2v-26h14Zm-2,11.76a4.33,4.33,0,0,0,3-.87,3.63,3.63,0,0,0,1-2.84,3.47,3.47,0,0,0-1-2.75,4.39,4.39,0,0,0-3-.86h-6.26v7.32h6.26Z" fill="#172936"/><path d="M429,125.55v4.81H415.29v5.57h12.6v4.44h-12.6v6.37h14v4.81H409.57v-26H429Z" fill="#172936"/><path d="M454.22,125.55l9.72,26H458l-2-5.79h-9.72l-2,5.79h-5.75l9.83-26h5.86Zm0.33,15.95L451.27,132h-0.07l-3.39,9.54h6.74Z" fill="#172936"/><path d="M485.5,125.55a13.4,13.4,0,0,1,4.68.8,10.16,10.16,0,0,1,3.75,2.4,11.1,11.1,0,0,1,2.48,4,16.2,16.2,0,0,1,.89,5.64,18,18,0,0,1-.73,5.24,11.55,11.55,0,0,1-2.2,4.15,10.32,10.32,0,0,1-3.68,2.75,12.44,12.44,0,0,1-5.19,1H474.28v-26H485.5Zm-0.4,21.19a7.33,7.33,0,0,0,2.4-.4,5.28,5.28,0,0,0,2.08-1.33,6.67,6.67,0,0,0,1.46-2.42,10.65,10.65,0,0,0,.55-3.64,15.16,15.16,0,0,0-.38-3.55,7.08,7.08,0,0,0-1.26-2.71,5.57,5.57,0,0,0-2.31-1.73,9.24,9.24,0,0,0-3.55-.6H480v16.39h5.1Z" fill="#172936"/><path d="M513.72,145.14a4.13,4.13,0,0,0,1.26,1.47,5.42,5.42,0,0,0,1.84.84,8.68,8.68,0,0,0,2.18.27,11.38,11.38,0,0,0,1.64-.13,5.69,5.69,0,0,0,1.64-.49,3.57,3.57,0,0,0,1.27-1,2.51,2.51,0,0,0,.51-1.62,2.28,2.28,0,0,0-.67-1.71,5.35,5.35,0,0,0-1.77-1.09,17.7,17.7,0,0,0-2.48-.76q-1.38-.33-2.8-0.73a24.75,24.75,0,0,1-2.84-.89,9.74,9.74,0,0,1-2.48-1.37,6.43,6.43,0,0,1-1.77-2.09,6.34,6.34,0,0,1-.67-3,6.81,6.81,0,0,1,.86-3.48,7.74,7.74,0,0,1,2.24-2.46,9.78,9.78,0,0,1,3.13-1.46,13.35,13.35,0,0,1,3.5-.47,16.52,16.52,0,0,1,3.91.46,9.77,9.77,0,0,1,3.33,1.47,7.47,7.47,0,0,1,2.31,2.6,8,8,0,0,1,.86,3.84h-5.53a4.61,4.61,0,0,0-.49-1.93,3.22,3.22,0,0,0-1.11-1.2,4.72,4.72,0,0,0-1.58-.62,9.79,9.79,0,0,0-1.95-.18,6.72,6.72,0,0,0-1.38.15,3.73,3.73,0,0,0-1.26.51,3.17,3.17,0,0,0-.93.91,2.44,2.44,0,0,0-.36,1.38,2.34,2.34,0,0,0,.29,1.24,2.59,2.59,0,0,0,1.15.87,14.53,14.53,0,0,0,2.37.8l4,1q0.73,0.15,2,.53a9.72,9.72,0,0,1,2.57,1.22,7.77,7.77,0,0,1,2.2,2.24,6.37,6.37,0,0,1,.93,3.59,8,8,0,0,1-.69,3.31,7.2,7.2,0,0,1-2.06,2.64,9.88,9.88,0,0,1-3.39,1.73,16,16,0,0,1-4.68.62,16.44,16.44,0,0,1-4.17-.53,10.47,10.47,0,0,1-3.57-1.66,8.18,8.18,0,0,1-2.46-2.88,8.58,8.58,0,0,1-.87-4.15h5.54A4.77,4.77,0,0,0,513.72,145.14Z" fill="#172936"/><path d="M546.49,145.94v5.61h-5.72v-5.61h5.72Zm-1.6-2.18H542.3l-1.38-11.22v-7h5.39v7Z" fill="#172936"/><rect x="18.53" y="104.83" width="530.09" height="1.51" fill="#172936"/><rect x="18.53" y="81.63" width="530.09" height="1.51" fill="#172936"/><rect x="18.53" y="85.36" width="530.09" height="0.76" fill="#172936"/><rect x="18.53" y="168.96" width="530.09" height="4.54" fill="#172936"/><path d="M22.58,92.47l2.12,5.41H24.15L23.49,96.2H21l-0.65,1.68H19.83L22,92.47h0.58Zm0.73,3.29-1-2.77-1.08,2.77h2.13Z" fill="#172936"/><path d="M25.54,94v0.74h0a1.28,1.28,0,0,1,.54-0.63,1.64,1.64,0,0,1,.85-0.22,1.7,1.7,0,0,1,.78.17,1.6,1.6,0,0,1,.55.45,1.9,1.9,0,0,1,.33.66,3,3,0,0,1,0,1.58,1.91,1.91,0,0,1-.33.66,1.56,1.56,0,0,1-.55.45,1.86,1.86,0,0,1-1.2.11,1.51,1.51,0,0,1-.39-0.16,1.31,1.31,0,0,1-.32-0.27,1.11,1.11,0,0,1-.22-0.37h0v2.18H25.1V94h0.44Zm2.62,1.35a1.69,1.69,0,0,0-.23-0.53,1.25,1.25,0,0,0-.4-0.38,1.1,1.1,0,0,0-.58-0.15,1.43,1.43,0,0,0-.66.14,1.14,1.14,0,0,0-.42.36,1.44,1.44,0,0,0-.22.53,3.05,3.05,0,0,0-.06.64,2.57,2.57,0,0,0,.07.6,1.57,1.57,0,0,0,.23.53,1.26,1.26,0,0,0,.42.38,1.28,1.28,0,0,0,.64.15,1.1,1.1,0,0,0,.58-0.15,1.25,1.25,0,0,0,.4-0.38,1.69,1.69,0,0,0,.23-0.53A2.58,2.58,0,0,0,28.16,95.32Z" fill="#172936"/><path d="M29.89,94v0.92h0a1.5,1.5,0,0,1,.56-0.73,1.47,1.47,0,0,1,.91-0.23V94.4a1.45,1.45,0,0,0-.59.09,1.33,1.33,0,0,0-.46.29,1.31,1.31,0,0,0-.3.45,1.5,1.5,0,0,0-.11.57v2.08H29.45V94h0.44Z" fill="#172936"/><path d="M32.32,92.47v0.76H31.84V92.47h0.48Zm0,1.5v3.91H31.84V94h0.48Z" fill="#172936"/><path d="M33.72,92.47v5.41H33.24V92.47h0.48Z" fill="#172936"/><path d="M36.56,97.88a1.86,1.86,0,0,1,.14-0.7A2,2,0,0,1,37,96.64a3.17,3.17,0,0,1,.48-0.44l0.54-.39,0.56-.38a3.63,3.63,0,0,0,.5-0.41,1.67,1.67,0,0,0,.33-0.45A1.28,1.28,0,0,0,39.55,94a1.06,1.06,0,0,0-.09-0.46,1,1,0,0,0-.26-0.34A1.12,1.12,0,0,0,38.82,93a1.45,1.45,0,0,0-.46-0.07,1.19,1.19,0,0,0-.56.12,1,1,0,0,0-.37.33,1.34,1.34,0,0,0-.21.47,2.14,2.14,0,0,0-.06.56H36.69a2.48,2.48,0,0,1,.09-0.75,1.62,1.62,0,0,1,.31-0.59,1.44,1.44,0,0,1,.53-0.39,1.87,1.87,0,0,1,.75-0.14,2.14,2.14,0,0,1,.65.09,1.55,1.55,0,0,1,.52.28,1.27,1.27,0,0,1,.35.47A1.58,1.58,0,0,1,40,94a1.61,1.61,0,0,1-.11.61,1.94,1.94,0,0,1-.29.5,2.91,2.91,0,0,1-.42.42,5.33,5.33,0,0,1-.5.36l-0.45.28a4.66,4.66,0,0,0-.5.34,2.73,2.73,0,0,0-.42.41,1,1,0,0,0-.23.49H40v0.44H36.56Z" fill="#172936"/><path d="M43.54,92.79a1.76,1.76,0,0,1,.56.65,2.84,2.84,0,0,1,.27.88,6.28,6.28,0,0,1,0,1.9,2.83,2.83,0,0,1-.27.88,1.72,1.72,0,0,1-.56.64,1.9,1.9,0,0,1-1.88,0,1.71,1.71,0,0,1-.56-0.64,2.86,2.86,0,0,1-.27-0.88,6.37,6.37,0,0,1,0-1.9,2.87,2.87,0,0,1,.27-0.88,1.74,1.74,0,0,1,.56-0.65A1.87,1.87,0,0,1,43.54,92.79Zm-1.67.38a1.49,1.49,0,0,0-.41.58,2.86,2.86,0,0,0-.19.76,6.31,6.31,0,0,0,0,1.5,2.91,2.91,0,0,0,.19.76,1.49,1.49,0,0,0,.41.59,1.24,1.24,0,0,0,1.45,0,1.48,1.48,0,0,0,.41-0.59A2.91,2.91,0,0,0,43.93,96a6.31,6.31,0,0,0,0-1.5,2.86,2.86,0,0,0-.19-0.76,1.48,1.48,0,0,0-.41-0.58A1.24,1.24,0,0,0,41.87,93.17Z" fill="#172936"/><path d="M47.76,92.79a1.78,1.78,0,0,1,.56.65,2.84,2.84,0,0,1,.27.88,6.28,6.28,0,0,1,0,1.9,2.83,2.83,0,0,1-.27.88,1.74,1.74,0,0,1-.56.64,1.9,1.9,0,0,1-1.88,0,1.71,1.71,0,0,1-.56-0.64A2.83,2.83,0,0,1,45,96.21a6.28,6.28,0,0,1,0-1.9,2.84,2.84,0,0,1,.27-0.88,1.74,1.74,0,0,1,.56-0.65A1.87,1.87,0,0,1,47.76,92.79Zm-1.67.38a1.49,1.49,0,0,0-.41.58,2.89,2.89,0,0,0-.19.76,6.31,6.31,0,0,0,0,1.5,3,3,0,0,0,.19.76,1.49,1.49,0,0,0,.41.59,1.24,1.24,0,0,0,1.45,0A1.47,1.47,0,0,0,48,96.77,2.91,2.91,0,0,0,48.14,96a6.18,6.18,0,0,0,0-1.5A2.86,2.86,0,0,0,48,93.75a1.47,1.47,0,0,0-.41-0.58A1.24,1.24,0,0,0,46.09,93.17Z" fill="#172936"/><path d="M50.13,97.32a1.06,1.06,0,0,0,.75.27,1.15,1.15,0,0,0,.75-0.23,1.59,1.59,0,0,0,.44-0.59A2.7,2.7,0,0,0,52.29,96a6.15,6.15,0,0,0,.05-0.78h0a1.57,1.57,0,0,1-1.41.88A1.89,1.89,0,0,1,50.2,96a1.59,1.59,0,0,1-.55-0.37A1.63,1.63,0,0,1,49.3,95a2,2,0,0,1-.12-0.71,1.91,1.91,0,0,1,.13-0.72A1.68,1.68,0,0,1,49.68,93a1.73,1.73,0,0,1,.57-0.37A1.87,1.87,0,0,1,51,92.53a2.12,2.12,0,0,1,.83.15,1.3,1.3,0,0,1,.58.48,2.43,2.43,0,0,1,.34.87,6.67,6.67,0,0,1,.11,1.31c0,0.11,0,.25,0,0.42a3.65,3.65,0,0,1-.09.55,3.82,3.82,0,0,1-.19.59,2,2,0,0,1-.33.54,1.62,1.62,0,0,1-.52.39,1.67,1.67,0,0,1-.74.15,1.75,1.75,0,0,1-1.13-.34,1.5,1.5,0,0,1-.5-1h0.48A1.16,1.16,0,0,0,50.13,97.32Zm1.36-1.73a1.22,1.22,0,0,0,.42-0.3,1.26,1.26,0,0,0,.26-0.44,1.69,1.69,0,0,0,.09-0.55,1.8,1.8,0,0,0-.08-0.53,1.17,1.17,0,0,0-.24-0.43A1.13,1.13,0,0,0,51.52,93a1.54,1.54,0,0,0-.6-0.11,1.2,1.2,0,0,0-.51.11,1.27,1.27,0,0,0-.67.73,1.52,1.52,0,0,0-.09.52,1.7,1.7,0,0,0,.09.55,1.34,1.34,0,0,0,.25.45,1.16,1.16,0,0,0,.4.3,1.28,1.28,0,0,0,.54.11A1.35,1.35,0,0,0,51.49,95.59Z" fill="#172936"/><path d="M436,96.8a1.16,1.16,0,0,0,.38.45,1.57,1.57,0,0,0,.56.24,3.23,3.23,0,0,0,.7.07,2,2,0,0,0,.46-0.06,1.62,1.62,0,0,0,.47-0.19A1.18,1.18,0,0,0,439,97a0.87,0.87,0,0,0,.14-0.5,0.74,0.74,0,0,0-.1-0.39,0.93,0.93,0,0,0-.26-0.28,1.55,1.55,0,0,0-.36-0.19L438,95.48l-1.2-.3a3.67,3.67,0,0,1-.46-0.15,1.29,1.29,0,0,1-.39-0.24,1.15,1.15,0,0,1-.27-0.37,1.28,1.28,0,0,1-.1-0.54,1.74,1.74,0,0,1,.08-0.46,1.29,1.29,0,0,1,.28-0.5,1.66,1.66,0,0,1,.57-0.4,2.29,2.29,0,0,1,.93-0.16,2.69,2.69,0,0,1,.76.11,1.88,1.88,0,0,1,.64.32,1.6,1.6,0,0,1,.44.53,1.57,1.57,0,0,1,.16.73h-0.51a1.25,1.25,0,0,0-.14-0.54,1.22,1.22,0,0,0-.33-0.39,1.42,1.42,0,0,0-.46-0.24,1.88,1.88,0,0,0-.55-0.08,2.25,2.25,0,0,0-.51.06,1.28,1.28,0,0,0-.43.18,1,1,0,0,0-.3.33,1,1,0,0,0-.11.51,0.78,0.78,0,0,0,.06.33,0.7,0.7,0,0,0,.18.24,0.94,0.94,0,0,0,.26.16l0.31,0.1L438.22,95a3.76,3.76,0,0,1,.54.19,1.81,1.81,0,0,1,.45.27,1.15,1.15,0,0,1,.3.4,1.33,1.33,0,0,1,.11.57,2,2,0,0,1,0,.24,1.22,1.22,0,0,1-.09.32,1.58,1.58,0,0,1-.21.34,1.28,1.28,0,0,1-.36.31,2.11,2.11,0,0,1-.57.23,3.34,3.34,0,0,1-.82.09,3.41,3.41,0,0,1-.89-0.11,1.91,1.91,0,0,1-.7-0.34,1.48,1.48,0,0,1-.44-0.58,1.9,1.9,0,0,1-.13-0.86h0.51A1.54,1.54,0,0,0,436,96.8Z" fill="#172936"/><path d="M442.79,94a1.73,1.73,0,0,1,.58.45,1.93,1.93,0,0,1,.36.65,2.7,2.7,0,0,1,0,1.6,1.93,1.93,0,0,1-.36.65,1.68,1.68,0,0,1-.58.44,2,2,0,0,1-1.58,0,1.67,1.67,0,0,1-.58-0.44,1.93,1.93,0,0,1-.36-0.65,2.7,2.7,0,0,1,0-1.6,1.93,1.93,0,0,1,.36-0.65A1.73,1.73,0,0,1,441.2,94,2,2,0,0,1,442.79,94Zm-1.39.38a1.3,1.3,0,0,0-.43.38,1.74,1.74,0,0,0-.26.53,2.21,2.21,0,0,0,0,1.22,1.73,1.73,0,0,0,.26.53,1.3,1.3,0,0,0,.43.38,1.32,1.32,0,0,0,1.2,0,1.32,1.32,0,0,0,.43-0.38,1.71,1.71,0,0,0,.26-0.53,2.18,2.18,0,0,0,0-1.22,1.72,1.72,0,0,0-.26-0.53,1.32,1.32,0,0,0-.43-0.38A1.32,1.32,0,0,0,441.4,94.4Z" fill="#172936"/><path d="M447.28,97.88v-0.7h0a1.35,1.35,0,0,1-.55.6,1.56,1.56,0,0,1-.8.21,1.74,1.74,0,0,1-.63-0.1,1.05,1.05,0,0,1-.42-0.29,1.18,1.18,0,0,1-.24-0.46,2.31,2.31,0,0,1-.08-0.62V94H445v2.54a1.27,1.27,0,0,0,.25.8,1,1,0,0,0,.8.27,1,1,0,0,0,.53-0.13,1.13,1.13,0,0,0,.36-0.35,1.6,1.6,0,0,0,.21-0.5,2.45,2.45,0,0,0,.07-0.58V94h0.48v3.91h-0.44Z" fill="#172936"/><path d="M449.06,94v0.92h0a1.5,1.5,0,0,1,.56-0.73,1.48,1.48,0,0,1,.91-0.23V94.4a1.45,1.45,0,0,0-.59.09,1.32,1.32,0,0,0-.76.74,1.52,1.52,0,0,0-.11.57v2.08h-0.48V94h0.44Z" fill="#172936"/><path d="M453.26,94.51a1,1,0,0,0-.74-0.25,1.21,1.21,0,0,0-.6.14,1.3,1.3,0,0,0-.43.38,1.7,1.7,0,0,0-.26.53,2.18,2.18,0,0,0,0,1.22,1.69,1.69,0,0,0,.26.53,1.3,1.3,0,0,0,.43.38,1.21,1.21,0,0,0,.6.14,1.05,1.05,0,0,0,.42-0.08,1.14,1.14,0,0,0,.35-0.23,1.23,1.23,0,0,0,.25-0.35,1.27,1.27,0,0,0,.12-0.45h0.48a1.8,1.8,0,0,1-.52,1.11,1.53,1.53,0,0,1-1.09.4,1.83,1.83,0,0,1-.79-0.16,1.68,1.68,0,0,1-.58-0.44,1.93,1.93,0,0,1-.36-0.65,2.7,2.7,0,0,1,0-1.6,1.93,1.93,0,0,1,.36-0.65,1.73,1.73,0,0,1,.58-0.45,1.8,1.8,0,0,1,.79-0.17,1.7,1.7,0,0,1,1.06.33,1.42,1.42,0,0,1,.52,1h-0.48A1.32,1.32,0,0,0,453.26,94.51Z" fill="#172936"/><path d="M455.15,96.59a1.47,1.47,0,0,0,.23.5,1.32,1.32,0,0,0,.4.36,1.12,1.12,0,0,0,.58.14,1.16,1.16,0,0,0,.82-0.27,1.43,1.43,0,0,0,.41-0.73h0.48a1.9,1.9,0,0,1-.56,1,1.66,1.66,0,0,1-1.15.36,1.82,1.82,0,0,1-.8-0.16,1.47,1.47,0,0,1-.55-0.45,2,2,0,0,1-.31-0.66,3,3,0,0,1-.1-0.79,2.87,2.87,0,0,1,.1-0.76A2.06,2.06,0,0,1,455,94.5a1.57,1.57,0,0,1,.55-0.47,1.68,1.68,0,0,1,.8-0.18,1.55,1.55,0,0,1,1.34.69,2.06,2.06,0,0,1,.3.7,3.11,3.11,0,0,1,.08.81h-3A2.13,2.13,0,0,0,455.15,96.59Zm2.36-1.46a1.46,1.46,0,0,0-.25-0.44,1.23,1.23,0,0,0-.39-0.31,1.1,1.1,0,0,0-.51-0.12,1.12,1.12,0,0,0-.52.12,1.22,1.22,0,0,0-.39.31,1.57,1.57,0,0,0-.25.45,2.23,2.23,0,0,0-.12.52h2.53A1.73,1.73,0,0,0,457.51,95.13Z" fill="#172936"/><path d="M459,94.09h0.64v0.8H459v-0.8Zm0,3h0.64v0.8H459v-0.8Z" fill="#172936"/><path d="M464.9,92.47a2.53,2.53,0,0,1,1.86.69,3.55,3.55,0,0,1,0,4,2.52,2.52,0,0,1-1.86.69H463V92.47h1.87Zm-0.26,5a3.55,3.55,0,0,0,1-.12,1.61,1.61,0,0,0,.69-0.4,1.63,1.63,0,0,0,.4-0.7,4.24,4.24,0,0,0,0-2.07,1.64,1.64,0,0,0-.4-0.7,1.61,1.61,0,0,0-.69-0.4,3.57,3.57,0,0,0-1-.12h-1.1v4.53h1.1Z" fill="#172936"/><path d="M468.23,94.58a1.11,1.11,0,0,1,.33-0.41,1.4,1.4,0,0,1,.49-0.23,2.38,2.38,0,0,1,.62-0.08,2.7,2.7,0,0,1,.51,0,1.25,1.25,0,0,1,.46.19,1,1,0,0,1,.33.38,1.38,1.38,0,0,1,.13.64v2.07a0.25,0.25,0,0,0,.28.29,0.36,0.36,0,0,0,.15,0v0.4l-0.15,0h-0.16a0.72,0.72,0,0,1-.29,0,0.39,0.39,0,0,1-.17-0.14,0.52,0.52,0,0,1-.08-0.22,1.84,1.84,0,0,1,0-.28h0a3.26,3.26,0,0,1-.26.34,1.31,1.31,0,0,1-.3.25,1.34,1.34,0,0,1-.37.15,2,2,0,0,1-.5.05,2,2,0,0,1-.51-0.06,1.14,1.14,0,0,1-.42-0.21,1,1,0,0,1-.28-0.36,1.2,1.2,0,0,1-.1-0.51,1,1,0,0,1,.18-0.64,1.14,1.14,0,0,1,.48-0.35,2.78,2.78,0,0,1,.67-0.17l0.76-.09,0.26,0a0.46,0.46,0,0,0,.19-0.08,0.36,0.36,0,0,0,.12-0.16,0.66,0.66,0,0,0,0-.26,0.86,0.86,0,0,0-.08-0.4,0.63,0.63,0,0,0-.22-0.25,0.89,0.89,0,0,0-.33-0.12,2.22,2.22,0,0,0-.4,0,1.2,1.2,0,0,0-.74.22,0.85,0.85,0,0,0-.3.69h-0.48A1.59,1.59,0,0,1,468.23,94.58Zm2.38,1.17a0.27,0.27,0,0,1-.17.12l-0.23.05-0.62.09a3.46,3.46,0,0,0-.59.13,1.15,1.15,0,0,0-.44.24,0.57,0.57,0,0,0-.17.44,0.7,0.7,0,0,0,.07.32,0.77,0.77,0,0,0,.19.24,0.83,0.83,0,0,0,.28.16,1,1,0,0,0,.33.05,1.64,1.64,0,0,0,.52-0.08,1.29,1.29,0,0,0,.44-0.24,1.15,1.15,0,0,0,.41-0.9V95.74h0Z" fill="#172936"/><path d="M472.54,92.47v0.76h-0.48V92.47h0.48Zm0,1.5v3.91h-0.48V94h0.48Z" fill="#172936"/><path d="M473.94,92.47v5.41h-0.48V92.47h0.48Z" fill="#172936"/><path d="M474.93,94l1.29,3.33L477.42,94h0.48l-1.7,4.5c-0.07.17-.14,0.3-0.2,0.41a1,1,0,0,1-.2.26,0.67,0.67,0,0,1-.26.14,1.42,1.42,0,0,1-.37,0h-0.22l-0.14,0v-0.4l0.16,0h0.16a0.64,0.64,0,0,0,.26,0,0.56,0.56,0,0,0,.18-0.12,0.72,0.72,0,0,0,.13-0.19l0.11-.25,0.17-.44L474.42,94h0.51Z" fill="#172936"/><path d="M481.13,92.47L484.28,97h0V92.47h0.52v5.41h-0.58l-3.15-4.57h0v4.57h-0.51V92.47h0.58Z" fill="#172936"/><path d="M486.15,96.59a1.47,1.47,0,0,0,.23.5,1.33,1.33,0,0,0,.4.36,1.13,1.13,0,0,0,.58.14,1.16,1.16,0,0,0,.82-0.27,1.43,1.43,0,0,0,.41-0.73h0.48a1.9,1.9,0,0,1-.56,1,1.66,1.66,0,0,1-1.15.36,1.82,1.82,0,0,1-.8-0.16,1.47,1.47,0,0,1-.55-0.45,1.94,1.94,0,0,1-.31-0.66,3,3,0,0,1-.1-0.79,2.83,2.83,0,0,1,.1-0.76A2,2,0,0,1,486,94.5a1.57,1.57,0,0,1,.55-0.47,1.68,1.68,0,0,1,.8-0.18,1.55,1.55,0,0,1,1.34.69,2.06,2.06,0,0,1,.3.7,3.06,3.06,0,0,1,.08.81h-3A2.13,2.13,0,0,0,486.15,96.59Zm2.36-1.46a1.42,1.42,0,0,0-.25-0.44,1.22,1.22,0,0,0-.39-0.31,1.1,1.1,0,0,0-.52-0.12,1.12,1.12,0,0,0-.52.12,1.21,1.21,0,0,0-.39.31,1.55,1.55,0,0,0-.25.45,2.23,2.23,0,0,0-.12.52h2.53A1.73,1.73,0,0,0,488.52,95.13Z" fill="#172936"/><path d="M489.84,94l1,3.35h0l1-3.35h0.54l1,3.35h0l1-3.35h0.51l-1.26,3.91H493l-1-3.29h0l-1,3.29h-0.52L489.34,94h0.51Z" fill="#172936"/><path d="M497.59,94.73a0.77,0.77,0,0,0-.22-0.27,0.93,0.93,0,0,0-.32-0.16,1.45,1.45,0,0,0-.39,0,1.57,1.57,0,0,0-.32,0,1,1,0,0,0-.3.11,0.64,0.64,0,0,0-.22.21,0.57,0.57,0,0,0-.08.32,0.45,0.45,0,0,0,.08.27,0.72,0.72,0,0,0,.2.19,1.29,1.29,0,0,0,.26.13l0.27,0.08,0.64,0.14a1.82,1.82,0,0,1,.41.11,1.29,1.29,0,0,1,.36.21,1,1,0,0,1,.25.32,1,1,0,0,1,.1.45,1,1,0,0,1-.14.54,1.17,1.17,0,0,1-.37.36,1.55,1.55,0,0,1-.5.2,2.6,2.6,0,0,1-.55.06,1.79,1.79,0,0,1-1.12-.33,1.38,1.38,0,0,1-.49-1h0.48a0.94,0.94,0,0,0,.35.73,1.28,1.28,0,0,0,.8.25,1.78,1.78,0,0,0,.36,0,1.14,1.14,0,0,0,.34-0.13,0.82,0.82,0,0,0,.26-0.23,0.57,0.57,0,0,0,.1-0.34,0.55,0.55,0,0,0-.07-0.29,0.64,0.64,0,0,0-.19-0.2,1.25,1.25,0,0,0-.28-0.13L497,96.14,496.35,96a3.5,3.5,0,0,1-.43-0.14,1.38,1.38,0,0,1-.34-0.2,0.82,0.82,0,0,1-.23-0.29,1.06,1.06,0,0,1,0-.93,1,1,0,0,1,.34-0.34,1.61,1.61,0,0,1,.47-0.19,2.28,2.28,0,0,1,.52-0.06,1.92,1.92,0,0,1,.55.08,1.26,1.26,0,0,1,.45.23,1.15,1.15,0,0,1,.31.39,1.4,1.4,0,0,1,.13.55h-0.48A0.91,0.91,0,0,0,497.59,94.73Z" fill="#172936"/><path d="M499.9,97.88a1.29,1.29,0,0,1,0,.33,1.12,1.12,0,0,1-.12.3,1,1,0,0,1-.21.25,0.75,0.75,0,0,1-.29.15V98.58a0.34,0.34,0,0,0,.16-0.11,0.76,0.76,0,0,0,.11-0.19,0.82,0.82,0,0,0,.06-0.21,0.76,0.76,0,0,0,0-.19h-0.32v-0.8h0.64v0.8Z" fill="#172936"/><path d="M505.44,92.47l2.12,5.41H507l-0.66-1.68h-2.46l-0.65,1.68H502.7l2.17-5.41h0.58Zm0.73,3.29-1-2.77-1.08,2.77h2.13Z" fill="#172936"/><path d="M508.41,94v0.74h0a1.28,1.28,0,0,1,.54-0.63,1.63,1.63,0,0,1,.85-0.22,1.7,1.7,0,0,1,.78.17,1.59,1.59,0,0,1,.55.45,1.9,1.9,0,0,1,.33.66,3,3,0,0,1,0,1.58,1.91,1.91,0,0,1-.33.66,1.55,1.55,0,0,1-.55.45,1.85,1.85,0,0,1-1.2.11,1.5,1.5,0,0,1-.39-0.16,1.31,1.31,0,0,1-.32-0.27,1.13,1.13,0,0,1-.22-0.37h0v2.18H508V94h0.44ZM511,95.32a1.67,1.67,0,0,0-.23-0.53,1.25,1.25,0,0,0-.4-0.38,1.1,1.1,0,0,0-.58-0.15,1.43,1.43,0,0,0-.66.14,1.14,1.14,0,0,0-.42.36,1.44,1.44,0,0,0-.22.53,3.05,3.05,0,0,0-.06.64,2.57,2.57,0,0,0,.07.6,1.57,1.57,0,0,0,.23.53,1.23,1.23,0,0,0,1.06.53,1.1,1.1,0,0,0,.58-0.15,1.25,1.25,0,0,0,.4-0.38,1.67,1.67,0,0,0,.23-0.53A2.58,2.58,0,0,0,511,95.32Z" fill="#172936"/><path d="M512.75,94v0.92h0a1.49,1.49,0,0,1,.56-0.73,1.47,1.47,0,0,1,.91-0.23V94.4a1.45,1.45,0,0,0-.59.09,1.33,1.33,0,0,0-.46.29,1.31,1.31,0,0,0-.3.45,1.52,1.52,0,0,0-.11.57v2.08h-0.48V94h0.44Z" fill="#172936"/><path d="M515.18,92.47v0.76h-0.48V92.47h0.48Zm0,1.5v3.91h-0.48V94h0.48Z" fill="#172936"/><path d="M516.58,92.47v5.41h-0.48V92.47h0.48Z" fill="#172936"/><path d="M519.42,97.88a1.86,1.86,0,0,1,.14-0.7,2,2,0,0,1,.34-0.55,3.22,3.22,0,0,1,.48-0.44l0.54-.39,0.56-.38A3.63,3.63,0,0,0,522,95a1.62,1.62,0,0,0,.33-0.45,1.27,1.27,0,0,0,.11-0.55,1.07,1.07,0,0,0-.09-0.46,1,1,0,0,0-.26-0.34,1.12,1.12,0,0,0-.38-0.21,1.44,1.44,0,0,0-.46-0.07,1.18,1.18,0,0,0-.56.12,1,1,0,0,0-.37.33,1.37,1.37,0,0,0-.21.47,2.14,2.14,0,0,0-.06.56h-0.48a2.45,2.45,0,0,1,.09-0.75,1.62,1.62,0,0,1,.31-0.59,1.45,1.45,0,0,1,.53-0.39,1.87,1.87,0,0,1,.75-0.14,2.14,2.14,0,0,1,.65.09,1.55,1.55,0,0,1,.52.28,1.28,1.28,0,0,1,.35.47,1.75,1.75,0,0,1,0,1.26,1.91,1.91,0,0,1-.3.5,2.85,2.85,0,0,1-.42.42,5,5,0,0,1-.5.36l-0.45.28a4.66,4.66,0,0,0-.5.34,2.73,2.73,0,0,0-.42.41,1,1,0,0,0-.23.49h2.95v0.44h-3.49Z" fill="#172936"/><path d="M527.15,92.65v0.44q-0.25.26-.6,0.69a7.35,7.35,0,0,0-.68,1,7.86,7.86,0,0,0-.58,1.37,6.6,6.6,0,0,0-.29,1.69H524.5a7.88,7.88,0,0,1,.18-1.27,6.29,6.29,0,0,1,.4-1.17,8,8,0,0,1,.65-1.15,12.36,12.36,0,0,1,.94-1.2h-2.93V92.65h3.41Z" fill="#172936"/><path d="M528.94,97.88a1.29,1.29,0,0,1,0,.33,1.12,1.12,0,0,1-.12.3,1,1,0,0,1-.21.25,0.75,0.75,0,0,1-.29.15V98.58a0.35,0.35,0,0,0,.16-0.11,0.83,0.83,0,0,0,.11-0.19,0.91,0.91,0,0,0,.06-0.21,0.8,0.8,0,0,0,0-.19h-0.32v-0.8h0.64v0.8Z" fill="#172936"/><path d="M532.05,97.88a1.86,1.86,0,0,1,.14-0.7,2,2,0,0,1,.34-0.55,3.17,3.17,0,0,1,.48-0.44l0.55-.39,0.56-.38a3.68,3.68,0,0,0,.5-0.41,1.65,1.65,0,0,0,.33-0.45A1.27,1.27,0,0,0,535,94a1.06,1.06,0,0,0-.09-0.46,1,1,0,0,0-.26-0.34,1.12,1.12,0,0,0-.38-0.21,1.44,1.44,0,0,0-.46-0.07,1.18,1.18,0,0,0-.56.12,1,1,0,0,0-.37.33,1.35,1.35,0,0,0-.21.47,2.14,2.14,0,0,0-.06.56h-0.48a2.48,2.48,0,0,1,.09-0.75,1.62,1.62,0,0,1,.31-0.59,1.45,1.45,0,0,1,.53-0.39,1.86,1.86,0,0,1,.75-0.14,2.14,2.14,0,0,1,.65.09,1.55,1.55,0,0,1,.52.28,1.27,1.27,0,0,1,.35.47,1.59,1.59,0,0,1,.13.65,1.61,1.61,0,0,1-.11.61,1.91,1.91,0,0,1-.29.5,2.91,2.91,0,0,1-.42.42,5.08,5.08,0,0,1-.5.36l-0.45.28a4.65,4.65,0,0,0-.5.34,2.7,2.7,0,0,0-.42.41,1.06,1.06,0,0,0-.23.49h2.95v0.44h-3.49Z" fill="#172936"/><path d="M539,92.79a1.76,1.76,0,0,1,.56.65,2.84,2.84,0,0,1,.27.88,6.28,6.28,0,0,1,0,1.9,2.83,2.83,0,0,1-.27.88,1.72,1.72,0,0,1-.56.64,1.9,1.9,0,0,1-1.88,0,1.72,1.72,0,0,1-.56-0.64,2.83,2.83,0,0,1-.27-0.88,6.28,6.28,0,0,1,0-1.9,2.84,2.84,0,0,1,.27-0.88,1.75,1.75,0,0,1,.56-0.65A1.87,1.87,0,0,1,539,92.79Zm-1.67.38a1.48,1.48,0,0,0-.41.58,2.86,2.86,0,0,0-.19.76,6.18,6.18,0,0,0,0,1.5,2.91,2.91,0,0,0,.19.76,1.48,1.48,0,0,0,.41.59,1.24,1.24,0,0,0,1.45,0,1.49,1.49,0,0,0,.41-0.59,3,3,0,0,0,.19-0.76,6.18,6.18,0,0,0,0-1.5,2.89,2.89,0,0,0-.19-0.76,1.49,1.49,0,0,0-.41-0.58A1.24,1.24,0,0,0,537.37,93.17Z" fill="#172936"/><path d="M543.25,92.79a1.77,1.77,0,0,1,.56.65,2.84,2.84,0,0,1,.27.88,6.28,6.28,0,0,1,0,1.9,2.83,2.83,0,0,1-.27.88,1.73,1.73,0,0,1-.56.64,1.9,1.9,0,0,1-1.88,0,1.72,1.72,0,0,1-.56-0.64,2.83,2.83,0,0,1-.27-0.88,6.37,6.37,0,0,1,0-1.9,2.84,2.84,0,0,1,.27-0.88,1.75,1.75,0,0,1,.56-0.65A1.87,1.87,0,0,1,543.25,92.79Zm-1.67.38a1.49,1.49,0,0,0-.41.58,2.93,2.93,0,0,0-.19.76,6.31,6.31,0,0,0,0,1.5,3,3,0,0,0,.19.76,1.49,1.49,0,0,0,.41.59,1.24,1.24,0,0,0,1.45,0,1.48,1.48,0,0,0,.41-0.59,2.87,2.87,0,0,0,.19-0.76,6.18,6.18,0,0,0,0-1.5,2.82,2.82,0,0,0-.19-0.76,1.48,1.48,0,0,0-.41-0.58A1.24,1.24,0,0,0,541.58,93.17Z" fill="#172936"/><path d="M545.63,97.32a1.06,1.06,0,0,0,.75.27,1.15,1.15,0,0,0,.75-0.23,1.6,1.6,0,0,0,.44-0.59,2.73,2.73,0,0,0,.21-0.77,6.14,6.14,0,0,0,.05-0.78h0a1.57,1.57,0,0,1-1.41.88A1.89,1.89,0,0,1,545.7,96a1.59,1.59,0,0,1-.55-0.37,1.65,1.65,0,0,1-.35-0.56,2,2,0,0,1-.12-0.71,1.91,1.91,0,0,1,.13-0.72,1.7,1.7,0,0,1,.37-0.57,1.73,1.73,0,0,1,.57-0.37,1.87,1.87,0,0,1,.72-0.14,2.13,2.13,0,0,1,.83.15,1.3,1.3,0,0,1,.58.48,2.43,2.43,0,0,1,.34.87,6.67,6.67,0,0,1,.11,1.31c0,0.11,0,.25,0,0.42a3.65,3.65,0,0,1-.09.55,3.82,3.82,0,0,1-.19.59,2,2,0,0,1-.33.54,1.63,1.63,0,0,1-.52.39,1.68,1.68,0,0,1-.74.15,1.74,1.74,0,0,1-1.13-.34,1.5,1.5,0,0,1-.5-1h0.48A1.15,1.15,0,0,0,545.63,97.32ZM547,95.59a1.21,1.21,0,0,0,.42-0.3,1.28,1.28,0,0,0,.26-0.44,1.69,1.69,0,0,0,.09-0.55,1.8,1.8,0,0,0-.08-0.53,1.16,1.16,0,0,0-.24-0.43A1.12,1.12,0,0,0,547,93a1.53,1.53,0,0,0-.6-0.11,1.2,1.2,0,0,0-.52.11,1.27,1.27,0,0,0-.67.73,1.52,1.52,0,0,0-.09.52,1.7,1.7,0,0,0,.09.55,1.34,1.34,0,0,0,.25.45,1.16,1.16,0,0,0,.4.3,1.28,1.28,0,0,0,.54.11A1.35,1.35,0,0,0,547,95.59Z" fill="#172936"/><path d="M33.79,56.48a15,15,0,1,1,15-15A15,15,0,0,1,33.79,56.48Zm0-28.4A13.44,13.44,0,1,0,47.24,41.53,13.46,13.46,0,0,0,33.79,28.08Z" fill="#172936"/><path d="M33.79,53.24A11.71,11.71,0,1,1,45.5,41.53,11.72,11.72,0,0,1,33.79,53.24Zm0-22.67a11,11,0,1,0,11,11A11,11,0,0,0,33.79,30.57Z" fill="#172936"/><path d="M135.08,42.29c0,15.92-13.12,17.44-18.67,17.44-3.64,0-10.27,0-12.73.15a6.39,6.39,0,0,1,.25-2.11c2.6-.15,3.44-1,3.44-4.81V32.76c0-3.29-.79-4.13-3.39-4.27a6.75,6.75,0,0,1-.25-2.11c1.52,0.1,4.72.15,6.88,0.15,1.92,0,3.88-.1,5.8-0.1C125.11,26.42,135.08,28.78,135.08,42.29ZM130,43c0-10.66-7-14.74-14.4-14.74a15.63,15.63,0,0,0-3.63.44V53c0,3.64.74,4.57,4.42,4.57C124.22,57.53,130,54.14,130,43Z" fill="#172936"/><path d="M169.23,59.88c-1,0-4-.15-5.6-0.15s-4.57.1-5.55,0.15a4.78,4.78,0,0,1,.34-2.11c2.7-.29,3-0.84,1.77-3.83l-2.16-5c-4.13,0-9.09,0-13,.2l-1.33,3.39c-1.47,3.88-.93,5.06,1.77,5.26a5.62,5.62,0,0,1,.34,2.11c-1.13-.1-3-0.15-4.67-0.15s-3.14.1-4.08,0.15a5.86,5.86,0,0,1,.34-2.06c1.77-.34,2.41-1.42,3.93-5.31l10.17-26.09a7.66,7.66,0,0,1,1.92-.2l11.69,26.83c1.62,3.69,2.26,4.47,3.78,4.72A6.44,6.44,0,0,1,169.23,59.88ZM153.36,38c-0.83-1.92-1.38-3.1-2.21-5.36-0.69,2.31-1.28,3.83-1.82,5.31l-3.39,8.79h11.15Z" fill="#172936"/><path d="M176.84,32.76c0-3.29-.79-4.13-3.39-4.27a6.38,6.38,0,0,1-.25-2.11c1.82,0.1,3.83.15,5.95,0.15s4,0,5.95-.15a6.36,6.36,0,0,1-.25,2.11c-2.6.15-3.39,1-3.39,4.27V53.5c0,3.29.79,4.13,3.39,4.27a6.36,6.36,0,0,1,.25,2.11c-2-.1-4-0.15-5.95-0.15s-4.27,0-5.95.15a6.39,6.39,0,0,1,.25-2.11c2.6-.15,3.39-1,3.39-4.27V32.76Z" fill="#172936"/><path d="M203.61,57.53c5.45,0,7-1.62,8.6-6.19a4.59,4.59,0,0,1,2.16,1.18,43.11,43.11,0,0,0-1.52,7.32c-1.92,0-5.9-.1-9.53-0.1s-10.27,0-12.73.15a6.39,6.39,0,0,1,.25-2.11c2.6-.15,3.44-1,3.44-4.81V32.76c0-3.29-.79-4.13-3.39-4.27a6.75,6.75,0,0,1-.25-2.11c1.92,0.1,4.52.15,5.94,0.15,2.11,0,4,0,5.95-.15a6.39,6.39,0,0,1-.25,2.11c-2.6.15-3.39,1-3.39,4.42V53c0,3.64.74,4.57,4.42,4.57h0.29Z" fill="#172936"/><path d="M243.11,26.42a8.4,8.4,0,0,1-.2,1.92c-1.77.49-3.29,2-5,5.31L231.32,47v4.77c0,5.21.44,5.6,3.78,6a6.86,6.86,0,0,1,.29,2.11c-2.16,0-4.42-.15-6.24-0.15-2.16,0-5.31,0-6.68.1a7,7,0,0,1,.29-2.06c3.49-.29,3.93-0.79,3.93-5.4V47l-8.16-15.67c-1-2-1.82-2.8-3.64-2.9a5.91,5.91,0,0,1-.29-2c1.38,0,3.24.1,5.11,0.1s5.06,0,6.58-.1a6.25,6.25,0,0,1-.25,1.92c-2.56.25-2.85,1.23-1.38,4,1.72,3.29,3.78,7.52,5.75,11.94,2-4.47,3.83-8.25,5.31-11.2,1.77-3.44,1.28-4.27-1.33-4.67a6.94,6.94,0,0,1-.34-2c1.18,0.1,3.34.1,4.82,0.1S242,26.47,243.11,26.42Z" fill="#172936"/><path d="M360,26.38a8,8,0,0,1-.25,2.11c-2.16,0-2.9,1.62-2.9,7V59.93a6.47,6.47,0,0,1-2,.25L334.4,33.55v17c0,5.55.74,7.22,3.39,7.22a6.39,6.39,0,0,1,.25,2.11c-1.47-.1-3.44-0.15-4.86-0.15s-3.69,0-4.91.15a6.75,6.75,0,0,1,.25-2.11c2.65,0,3.39-1.67,3.39-7.22V30.26L331.7,30c-0.93-1.18-1.57-1.38-3.19-1.52a8.48,8.48,0,0,1-.25-2.11c1,0.1,2.41.15,3.64,0.15a31.71,31.71,0,0,0,3.29-.15L354.3,51.73V35.46c0-5.36-.74-7-3.39-7a11,11,0,0,1-.25-2.11c1.42,0.1,3.24.15,4.62,0.15S358.62,26.47,360,26.38Z" fill="#172936"/><path d="M389.47,52.51A43.11,43.11,0,0,0,388,59.84c-1.92,0-5.9-.1-10.51-0.1-3.64,0-10.27,0-12.72.15a6.39,6.39,0,0,1,.25-2.11c2.65-.15,3.39-1,3.39-4.81V32.76c0-3.29-.79-4.13-3.39-4.27a6.75,6.75,0,0,1-.25-2.11c1.92,0.1,6.49.15,8.25,0.15,7.71,0,12.19-.1,13.81-0.15a67,67,0,0,0,1,7.76,3.46,3.46,0,0,1-2.21.59c-0.25-3-1.72-6.24-8.06-6.24H373V42h3.1c4,0,5.4-.79,5.45-4a7.62,7.62,0,0,1,2.36-.34c-0.1,1.67-.1,3.64-0.1,5.36s0,4,.1,5.7a8.17,8.17,0,0,1-2.26-.25c-0.25-3.39-1.52-4.37-5.55-4.37H373V53c0,3.64.79,4.57,4.47,4.57h0.29c7,0,8.16-2.16,9.58-6.19A4.59,4.59,0,0,1,389.47,52.51Z" fill="#172936"/><path d="M438.06,26.38a6.53,6.53,0,0,1-.34,2.11c-1.72.39-2.51,1.67-4.13,7.12l-7.17,24.27a5.91,5.91,0,0,1-2,.29c-2.95-8.16-6.63-17.79-9.88-26l-8.35,25.7a6.86,6.86,0,0,1-2.11.29c-2.8-8.7-5.75-17.44-8.75-26-1.82-5.26-2.11-5.45-3.88-5.65a7.55,7.55,0,0,1-.25-2.11c1.57,0.1,4,.15,5.55.15s4.13,0,5.95-.15a9,9,0,0,1-.25,2.11c-3.44.2-3.83,0.69-2.31,5.06,1.92,5.4,4.27,12.43,6.14,18.23l8.4-25.4a6,6,0,0,1,2.16-.25c3.14,7.91,6.73,17.49,9.68,25.65l4.77-16.31c1.47-5,.83-6.58-2.36-7a6.75,6.75,0,0,1-.34-2.11c1.38,0.1,3,.15,4.77.15C434.92,26.52,436.74,26.47,438.06,26.38Z" fill="#172936"/><path d="M460.37,28.24a55.88,55.88,0,0,0,.29,6.49,8.28,8.28,0,0,1-2.75.44c-1-5.65-2.85-6.93-5.8-6.93-3.49,0-5.55,1.77-5.55,4.86,0,8.7,16.31,6.83,16.31,17.64,0,4.91-3.39,9.43-11.2,9.43-4.08,0-6.83-1.23-10-3.14a46.07,46.07,0,0,0,.44-7,11.55,11.55,0,0,1,2.65-.29c0.25,5,2.31,8.06,7.57,8.06,4.52,0,6.29-2.26,6.29-5.11,0-8.7-16.36-6.39-16.36-17.79,0-5.5,3.78-8.84,9.88-8.84A15.88,15.88,0,0,1,460.37,28.24Z" fill="#172936"/><path d="M316.09,53.93c-0.75-.38-1.14.17-1.55,0.64-0.35-.51-0.69-0.52-1.11-0.06l-0.24.29a1.39,1.39,0,0,0-.48-0.25,0.79,0.79,0,0,0-.37.17c0-.25-0.06-0.53-0.09-0.81a0.25,0.25,0,0,1,0-.14,0.79,0.79,0,0,0,0-.78,0.91,0.91,0,0,1,0-.39,0.68,0.68,0,0,0-.62-0.8c-0.29-.06-0.6,0-0.89-0.09a0.37,0.37,0,0,1-.26-0.18,0.89,0.89,0,0,0-.93-0.63h-1.21a1.23,1.23,0,0,1-1.45-1.31,4.49,4.49,0,0,0-.46-1.7l-0.31-.57,0.43,0.13a3.35,3.35,0,0,0,3-.28,2.51,2.51,0,0,0,.34-0.33,3.06,3.06,0,0,1-2.28.62,13.53,13.53,0,0,1-1.5-.36,1.9,1.9,0,0,0-.4-0.11c0.05,0.09.1,0.18,0.16,0.27a4.7,4.7,0,0,1,.88,2.37,1.39,1.39,0,0,0,1.59,1.44h1.27a0.64,0.64,0,0,1,.75.6,0.26,0.26,0,0,0,.31.23,6,6,0,0,1,.9,0,0.56,0.56,0,0,1,.47.84,1.73,1.73,0,0,0-1.63,0,5.12,5.12,0,0,1,.64,0,6.88,6.88,0,0,1,.88.18,0.37,0.37,0,0,1,.23.19,2.42,2.42,0,0,1,.09.47,1.72,1.72,0,0,1-.41-0.06,1.21,1.21,0,0,0-1.26.11,1.46,1.46,0,0,0,.28,0,1.67,1.67,0,0,1,1.06.19,0.52,0.52,0,0,1,.23.88,1.23,1.23,0,0,0-1.15-.28,0.51,0.51,0,0,0-.43.47c-0.08.48-.25,0.94-0.37,1.41a0.37,0.37,0,0,0,0,.26c0.13,0.19.3,0.36,0.42,0.56a0.54,0.54,0,0,1-.38.84,0.54,0.54,0,0,1-.25-0.07,1.8,1.8,0,0,0-.47-0.19c-0.52,0-.65-0.23-0.44-0.71l0.12-.26a0.55,0.55,0,0,0-.38.67,1.41,1.41,0,0,1,.1.26,0.8,0.8,0,0,1-.06.48,0.47,0.47,0,0,1-.61.1c-0.25-.14-0.51-0.27-0.76-0.42a0.21,0.21,0,0,1-.08-0.18,4.6,4.6,0,0,1,.21-0.6,1.79,1.79,0,0,1,.21-0.29,0.81,0.81,0,0,0-.61.81c0,0.17.1,0.39-.2,0.45a0.66,0.66,0,0,1-.72-0.26c-0.1-.19-0.2-0.39-0.29-0.58a0.39,0.39,0,0,1,.25-0.6l0.27-.07,0.25-.06c-0.3-.25-0.73-0.1-1.07.39a0.81,0.81,0,0,1,0-1,0.57,0.57,0,0,1,.8-0.13c0.27,0.14.52,0.31,0.79,0.44a0.47,0.47,0,0,0,.73-0.28,3,3,0,0,0,.05-2.46c-0.19-.45-0.25-0.48-0.72-0.4a2.56,2.56,0,0,1-1.75-.25,5,5,0,0,1-.7-0.55,1.45,1.45,0,0,0-.22-0.21,0.67,0.67,0,0,0,.38.63l0.66,0.44a1.72,1.72,0,0,1-1.71-.35,2.84,2.84,0,0,1-.7-1.6,8,8,0,0,1,0-2.8,1.24,1.24,0,0,0-.41-1.15,6.16,6.16,0,0,0-2.14-1.28l-2.69-1-0.28-.14a5.92,5.92,0,0,1,1.81-.63c0.58-.1,1.17-0.14,1.76-0.2a0.6,0.6,0,0,1,.59.3,3.57,3.57,0,0,0,1.26,1.15,1.67,1.67,0,0,0,.58.16l-1.11-.64,0-.1,0.62,0.06c-0.43-.3-1.07-0.21-1.32-0.82l0.36-.11a2.24,2.24,0,0,0-1.16-.2,12.07,12.07,0,0,0-3.62.89,4.55,4.55,0,0,0-2.22,2,1.46,1.46,0,0,0-.16.7,1.87,1.87,0,0,1-1.52,1.87,0.32,0.32,0,0,1-.43-0.24,4.51,4.51,0,0,0-.31-0.6c0.45,0,.91.34,1.28-0.21l-0.5.15c-0.37.09-.53-0.06-0.47-0.42a0.55,0.55,0,0,0-.16-0.61A0.7,0.7,0,0,1,293,47c0.39,0.17.74,0.43,1.1,0-0.14,0-.29,0-0.43.05s-0.39-.11-0.3-0.38a0.51,0.51,0,0,0-.1-0.57c-0.17-.19-0.08-0.37.19-0.4a1,1,0,0,1,.3,0l0.31,0.09c0-.51.63-0.25,0.79-0.69-0.21.07-.38,0.11-0.54,0.17a0.37,0.37,0,0,1-.47-0.14,0.41,0.41,0,0,1,0-.52,1.68,1.68,0,0,0,.23-0.56,0.26,0.26,0,0,1,.35-0.25,5.82,5.82,0,0,1,.65.17,0.3,0.3,0,0,0,.36-0.11c0.74-.77,1.47-1.56,2.25-2.29a3.9,3.9,0,0,1,4.26-.65,3.31,3.31,0,0,1,1.42,1.41c0.36,0.66.72,1.32,1.08,2a2.82,2.82,0,0,0,.21.29l-0.18-.59a2.55,2.55,0,0,0,1.68.47,1.51,1.51,0,0,0,1.18-1.13,2.08,2.08,0,0,1-1.64-.58c0.43-.11.84-0.19,1.24-0.33a1.07,1.07,0,0,0,.67-1.18c-0.25,0-.52,0-0.78,0a7,7,0,0,1-.73-0.15c1.28-.75,1.59-1.1,1.43-1.67a2.8,2.8,0,0,1-1.62-.17l0.26-.12a1.4,1.4,0,0,0,.87-1c0.06-.23,0-0.34-0.24-0.37s-0.72-.14-1.08-0.21l0-.07A1.55,1.55,0,0,0,307,36.43c-1.24,0-1.36-.06-1.58-0.43l0.5-.1a1.15,1.15,0,0,0,.83-0.61c0.08-.16.07-0.25-0.12-0.32a6,6,0,0,1-.77-0.36,3.76,3.76,0,0,1-.47-0.38,1.57,1.57,0,0,0,1.41-1.07,1.16,1.16,0,0,1-1.07-.73,2.91,2.91,0,0,0-2.51-1.66,0.21,0.21,0,0,1-.24-0.21,0.28,0.28,0,0,0-.4-0.26l-0.91.21c0.13-.31.25-0.57,0.36-0.84a0.73,0.73,0,0,0-.6-1.12,6.2,6.2,0,0,1-.87-0.37,0.32,0.32,0,0,1-.06-0.1l0.19-.09c-0.19-.3-0.34-0.1-0.5,0a0.52,0.52,0,0,1,.09.19,0.63,0.63,0,0,1-.76.47,0.73,0.73,0,0,0-.81.14,0.55,0.55,0,0,0-.15.67l0.22,0.7a0.5,0.5,0,0,1-.5.73,0.53,0.53,0,0,0-.58.43c0,0.1-.1.2-0.15,0.3a1.55,1.55,0,0,0-.23.62,6.21,6.21,0,0,0,.26,1.17,5.52,5.52,0,0,0,.27.64,5.63,5.63,0,0,1-.6,0,1.17,1.17,0,0,1-1.16-1.53c0-.21.06-0.42,0.09-0.7-0.24.17-.43,0.29-0.6,0.43a1.16,1.16,0,0,0-.45,1,1.39,1.39,0,0,0,1.45,1.5l1.19,0.07c-0.16.18-.06,0.6-0.49,0.5,0,0.15,0,.29,0,0.43a0.45,0.45,0,0,1-.34.47,4.29,4.29,0,0,1-1.08.07,0.8,0.8,0,0,1-.71-0.61,8.52,8.52,0,0,1-.31-1.66,4.64,4.64,0,0,0-.46-1.81c-0.13-.29-0.31-0.55-0.49-0.88l0.39,0.12a0.51,0.51,0,0,0,.71-0.31,0.4,0.4,0,0,1,.48-0.29,2,2,0,0,1,1.28.58c0.09,0.08.19,0.16,0.36,0.29L297,30.47l0.55,0.21a1.62,1.62,0,0,0-.44-1l0.67-.06a1.27,1.27,0,0,0-.81-0.77,1,1,0,0,0,.34-0.94,0.85,0.85,0,0,0-1.09-.33,1.16,1.16,0,0,0-.24-1.09l-0.38.51-0.58-.91-0.08,0-0.12.58L293.94,26a0.83,0.83,0,0,0,0,.37,1.84,1.84,0,0,1-.13,1.34,0.42,0.42,0,0,1-.53.26c-0.47-.12-0.67.07-0.69,0.57a0.28,0.28,0,0,1-.06.2l-1.47.87c0.06-.48.08-0.88,0.16-1.28q0.43-2.19.89-4.37a0.92,0.92,0,0,0-1-1.15l-0.29,0a0.8,0.8,0,0,0-.95-0.82,0.34,0.34,0,0,1-.17-0.2,0.63,0.63,0,0,0-.86-0.45,0.26,0.26,0,0,1-.35-0.12,0.58,0.58,0,0,0-.7-0.27,0.21,0.21,0,0,1-.18,0,0.57,0.57,0,0,0-.86-0.11,0.59,0.59,0,0,0-.71-0.23,0.75,0.75,0,0,1-.42,0c-0.37-.09-0.5,0-0.53.39a1.53,1.53,0,0,1-.09.31l-0.07,0a0.74,0.74,0,0,1,0-.13,1.07,1.07,0,0,0-.42-1.17,0.65,0.65,0,0,1-.16-0.19c-0.13-.24,0-0.39.23-0.4l0.27,0c0-.15,0-0.28,0-0.41,0-.49,0-0.49-0.49-0.55l-0.05,0,0-.48h-0.92V18.5l-0.52,0v0.91l0.59,0.06a1.35,1.35,0,0,1-.18.44,1.7,1.7,0,0,0-.57,1.3,1,1,0,0,1-.12-0.28c-0.1-.38-0.27-0.44-0.62-0.25a0.55,0.55,0,0,1-.27,0,1.15,1.15,0,0,1-.22-0.07c0.08,0.22.41,0.37,0.11,0.58a0.45,0.45,0,0,1-.39.06c-0.28-.27.11-0.42,0.19-0.71l-0.42.27a1.18,1.18,0,0,0-.58-0.07,2.18,2.18,0,0,1-.86.29,1.57,1.57,0,0,0-.38.27,0.41,0.41,0,0,1-.25.09,0.63,0.63,0,0,0-.89.42,0.35,0.35,0,0,1-.33.24,0.83,0.83,0,0,0-.79.62,1.15,1.15,0,0,1-.09.17H276.7a0.89,0.89,0,0,0-1,1.3,0.43,0.43,0,0,1,0,.17,1.48,1.48,0,0,0,0,.42c0.19,0.85.43,1.69,0.61,2.55s0.26,1.52.41,2.36c-0.53-.31-1-0.56-1.42-0.83a0.42,0.42,0,0,1-.15-0.27C275,28,274.85,27.9,274.28,28a0.31,0.31,0,0,1-.39-0.17,1.65,1.65,0,0,1-.21-1.11c0-.22.07-0.45,0.11-0.67l-0.06,0-0.9.64-0.13-.61-0.08,0L272,27l-0.39-.54a1.24,1.24,0,0,0-.22,1.1,1,1,0,0,0-1,.23,0.85,0.85,0,0,0,.31,1.06,1.21,1.21,0,0,0-.85.81h0.73a1.53,1.53,0,0,0-.48,1l0.56-.19c0,0.24,0,.44,0,0.65s-0.16.41,0.14,0.52a1.68,1.68,0,0,1,1.41-.86,0.46,0.46,0,0,1,.52.3,0.5,0.5,0,0,0,.72.28l0.3-.09a4.07,4.07,0,0,0-.75,3.44l-0.73-.05c0,0.21,0,.39-0.07.57a1.12,1.12,0,0,1-1,1A1.41,1.41,0,0,1,270,36a1.37,1.37,0,0,1-.11-0.68,0.21,0.21,0,0,0,0-.06l-0.21.07-0.29-.62c0.46,0,.86,0,1.26,0a1.37,1.37,0,0,0,1.42-1.44,1.32,1.32,0,0,0-1-1.38c0,0.34,0,.68,0,1a0.84,0.84,0,0,1-.53.91,12.57,12.57,0,0,1-1.3.28c0.16-.38.28-0.67,0.42-1a1.33,1.33,0,0,0,0-1.37,2.58,2.58,0,0,1-.2-0.46,0.57,0.57,0,0,0-.6-0.45,0.49,0.49,0,0,1-.5-0.7c0.08-.26.18-0.52,0.25-0.78a0.55,0.55,0,0,0-.15-0.62,0.72,0.72,0,0,0-.73-0.17,0.46,0.46,0,0,1-.7-0.21,4.19,4.19,0,0,1-.26-0.46l0-.07-0.19.17,0.23,0.22c-0.39.14-.74,0.27-1.1,0.38a0.7,0.7,0,0,0-.53,1.05c0,0.11.1,0.2,0.14,0.31s0.12,0.34.2,0.56l-0.88-.19c-0.24-.06-0.38,0-0.41.26a0.27,0.27,0,0,1-.18.18,2.91,2.91,0,0,0-2.56,1.68,1.13,1.13,0,0,1-1.08.71,1.56,1.56,0,0,0,1.36,1.09,2.13,2.13,0,0,1-1.36.81c0.17,0.78.8,0.85,1.43,1a0.48,0.48,0,0,1-.26.21c-0.43.1-.87,0.17-1.31,0.26a1.64,1.64,0,0,0,1.23,1.13l-1.37.28a1.49,1.49,0,0,0,1.13,1.41,2.38,2.38,0,0,1-1.65.22,1.38,1.38,0,0,0,.47,1,8.16,8.16,0,0,0,1,.58,3.44,3.44,0,0,1-1.54.22c0.17,1.19,1,1.41,2,1.38-0.32.43-.4,0.46-1.75,0.69a1.78,1.78,0,0,0,.87,1,2.09,2.09,0,0,0,2.05-.28,7.58,7.58,0,0,1-.75,1.19,2.68,2.68,0,0,1-2.63,1.07,1.82,1.82,0,0,1-1.68-1.54,4.22,4.22,0,0,1,.22-2.33c0.35-.94.74-1.87,1.12-2.8a10,10,0,0,0,.9-4.82,2.61,2.61,0,0,0-2.64-2.55c-1.65-.06-2.47,1-2.36,2.15a1,1,0,0,1-.6,1,1.93,1.93,0,0,0-1,2.51,3,3,0,0,1,.16.65,0.82,0.82,0,0,0,.38.74,0.36,0.36,0,0,1,.19.3,0.89,0.89,0,0,0,.25.5,0.93,0.93,0,0,1,.43.58,0.87,0.87,0,0,0,1,.63,1.93,1.93,0,0,1,.73-1.7,4,4,0,0,0,1-2.21,1.79,1.79,0,0,0-.86-2,1.33,1.33,0,0,1-.69-1.23,0.74,0.74,0,0,1,.59-0.82,2,2,0,0,1,.83,0,1.64,1.64,0,0,1,1.27,1.54,5.85,5.85,0,0,1-.26,2.92c-0.39,1.11-.87,2.2-1.3,3.3-0.22.56-.42,1.14-0.63,1.71l-0.89-.13a0.86,0.86,0,0,0-1,.76c-0.05.26-.12,0.52-0.14,0.78a7.06,7.06,0,0,0,0,.72l0.64-.13a1,1,0,0,1,1.35.68,4.14,4.14,0,0,0,.4.71,3.14,3.14,0,0,0,3.4,1.19l0.84-.17a10.93,10.93,0,0,0-.5,1.17,10.11,10.11,0,0,0-.22,1.22,1.18,1.18,0,0,1-1.32,1.13c-0.45,0-.9,0-1.35,0a0.82,0.82,0,0,0-.88.57,0.3,0.3,0,0,1-.31.25,8.82,8.82,0,0,0-1,.13,0.6,0.6,0,0,0-.48.72,2.57,2.57,0,0,1,0,.42c0,0.26,0,.51-0.06.77a1.84,1.84,0,0,1,0,.33,0.75,0.75,0,0,0,.26.84,5.29,5.29,0,0,1,.53-0.31,0.64,0.64,0,0,1,1,.5c0.08,0.4.17,0.79,0.25,1.18a0.38,0.38,0,0,1,0,.26c-0.13.18-.29,0.33-0.48,0.54,0-.16-0.07-0.27-0.08-0.37-0.07-.4-0.12-0.8-0.2-1.19a0.43,0.43,0,0,0-.66-0.37l-0.29.1c-0.14-.2-0.26-0.41-0.41-0.58a0.35,0.35,0,0,0-.58,0l-0.16.18c-0.09-.12-0.17-0.24-0.26-0.34-0.39-.44-0.78-0.44-1.07,0l-0.06,0a1.2,1.2,0,0,0-1.42-.67,1.18,1.18,0,0,0-.76,1.09,0.91,0.91,0,0,0,1,1.12,1.63,1.63,0,0,0,0,.75,1.53,1.53,0,0,0,.65.3l0,0.09a0.5,0.5,0,0,0,.38.84c0.16,0,.34,0,0.5.07s0.27,0.12.15,0.31l-0.3.46c-0.78-.28-1.1-0.23-1.41.21a1.3,1.3,0,0,0,0,1.52,1.13,1.13,0,0,0,.53.3,1.36,1.36,0,0,0,1.18-.29,0.81,0.81,0,0,0,1,.77h0.08a0.46,0.46,0,0,1,.39.65,1.06,1.06,0,0,0,.27,1.24,1,1,0,0,0,1.18.22l0.18-.06,0.09,0.12a0.7,0.7,0,0,0,1.2,0,0.39,0.39,0,0,1,.54-0.09,0.82,0.82,0,0,0,1.12-.46l0.14-.31a1.24,1.24,0,0,1,.38.32,0.68,0.68,0,0,1-.12.93,0.38,0.38,0,0,0,0,.61l0.26,0.32L259.7,65a0.75,0.75,0,0,0,0,1.39,1.42,1.42,0,0,0,2.11-.92c0-.07,0-0.14.05-0.21,0.36,0.05.39,0,.5-0.3a0.33,0.33,0,0,1,.07-0.15,1.43,1.43,0,0,1,.91.07l1,0.91A9,9,0,0,0,267,67.51a0.48,0.48,0,0,0,.64-0.15c0.31-.38.64-0.73,1-1.11l1.65,1-1,1.59L269.61,69c1.17,0.49,2.33,1,3.51,1.47a5.83,5.83,0,0,1,2.79,2,0.47,0.47,0,0,0,.41.09,9.1,9.1,0,0,0,1-.39,7.92,7.92,0,0,0,.74-0.35c0.32-.18.34-0.35,0-0.57s-0.48-.32-0.73-0.48l-0.7-.4a5.26,5.26,0,0,1,2.6,0,3.93,3.93,0,0,1,2.39,2.15,5.85,5.85,0,0,0,.37-1.09A2,2,0,0,0,280.67,69a2.49,2.49,0,0,0-.49-0.13l-3.44-.45a4.54,4.54,0,0,1-2.22-.74c-0.33-.25-0.34-0.27,0-0.6A26.77,26.77,0,0,0,292.54,67l0.23,0.45-0.51.34a5.61,5.61,0,0,1-2.49.61c-1,.12-2.09.22-3.13,0.41a2,2,0,0,0-1.8,2,1.91,1.91,0,0,0,.48,1.48,3.9,3.9,0,0,1,2.07-2,4.52,4.52,0,0,1,2.85,0c-0.52.32-1,.61-1.45,0.91-0.24.16-.23,0.32,0,0.44,0.67,0.34,1.35.66,2,1l0.19-.23a4.55,4.55,0,0,1,1.83-1.51l1.38-.58,3.46-1.41-0.94-1.6,1.66-1c0.32,0.38.65,0.75,0.95,1.13a0.47,0.47,0,0,0,.64.16,8.19,8.19,0,0,0,2.12-1.26c0.65-.54,1.28-1.11,1.84-1.6h0.72c0.15,0.18.1,0.68,0.61,0.47,0,0.09,0,.16.06,0.24a1.27,1.27,0,0,0,1,1.06,1.23,1.23,0,0,0,1.33-.38A0.68,0.68,0,0,0,307.6,65l-0.25-.17c0.62-.45.63-0.52,0.12-1.08a0.33,0.33,0,0,1-.09-0.14,0.81,0.81,0,0,1,.56-0.87L308,62.86a0.83,0.83,0,0,0,1.3.57,0.3,0.3,0,0,1,.4.15,0.64,0.64,0,0,0,1,.19,1.55,1.55,0,0,0,.23-0.16,0.31,0.31,0,0,1,.38,0,0.78,0.78,0,0,0,.73,0,1.17,1.17,0,0,0,.62-1.51c0-.14-0.22-0.31,0-0.43a3.29,3.29,0,0,1,.45-0.2,0.91,0.91,0,0,1,.25,0,0.71,0.71,0,0,0,.72-0.53c0-.07.05-0.13,0.07-0.19a4.79,4.79,0,0,0,.56.24,1,1,0,0,0,1.29-.55,1.14,1.14,0,0,0-1.24-1.57,0.52,0.52,0,0,1-.65-0.34c-0.09-.21,0-0.3.16-0.33s0.34,0,.5-0.07a0.49,0.49,0,0,0,.39-0.76l-0.06-.15a2.4,2.4,0,0,0,.68-0.38c0.21-.24,0-0.48-0.2-0.66,1-.24,1.1-0.35,1.17-0.87A1.3,1.3,0,0,0,316.09,53.93Zm-10.33,3.29a0.8,0.8,0,0,1,.21.35,1.3,1.3,0,0,1-.4.52A0.85,0.85,0,0,1,305.76,57.22Zm-1.68-1.46a0.75,0.75,0,0,0,.88-0.64H305A0.85,0.85,0,0,0,306.17,54a5.92,5.92,0,0,0-.32-0.81c0.6,0,1.18,0,1.76,0a0.32,0.32,0,0,1,.22.17,2.84,2.84,0,0,1,.08,2.37c-0.17.41-.39,0.46-0.78,0.23l-0.55-.34a0.84,0.84,0,0,0-.93,0,1,1,0,0,1-.41.14,0.5,0.5,0,0,0-.57.53l-0.05.35-1.52-.07,0.05-.47a1.39,1.39,0,0,0,.38,0,1.76,1.76,0,0,0,.35-0.24A0.47,0.47,0,0,1,304.08,55.76Zm0.78,0.72c0-.44.08-0.54,0.51-0.46C305.45,56.4,305.38,56.49,304.86,56.48ZM304,53l-0.42.18a0.7,0.7,0,0,0-1.08-.25,2.15,2.15,0,0,0-.28.14,0.34,0.34,0,0,1-.51,0,0.53,0.53,0,0,0-.83.11,6.82,6.82,0,0,0-.58.86,4.19,4.19,0,0,1-2.46,2c-0.61.19-.77,0.05-0.71-0.65h0.64a1.65,1.65,0,0,0,1.41-.68,0.79,0.79,0,0,1,.34-0.28,1.28,1.28,0,0,0,.82-1.72,12.06,12.06,0,0,0-.47-1.2c0-.1-0.09-0.21-0.13-0.31-0.17-.46-0.11-0.59.36-0.71a1.6,1.6,0,0,0,.92-0.56,0.5,0.5,0,0,1,.36-0.16c0.54,0,1.08.08,1.64,0.13C303.08,51,303.07,52.11,304,53Zm-8.44,7.18a1.22,1.22,0,0,0-.93-1,1,1,0,0,1-.29-0.23l0-.09,1-.23a0.37,0.37,0,0,1,.21.06L296.11,59a1.12,1.12,0,0,0,1.13,0,0.86,0.86,0,0,1,.81.12c-0.29.25-.57,0.51-0.87,0.73a4.45,4.45,0,0,1-.57.3c-0.05,0-.09.09-0.14,0.13l-0.78.52a0.87,0.87,0,0,0-.21.16,0.43,0.43,0,0,1-.5.22l0.08-.07A0.91,0.91,0,0,0,295.53,60.17ZM285,60.9a1.67,1.67,0,0,1,1.92-.51,4.78,4.78,0,0,1,1,.65c0.32,0.23.58,0.53,0.9,0.76a1.52,1.52,0,0,0,1.24.2,0.53,0.53,0,0,1,.37.09,0.81,0.81,0,0,0,1.13,0A0.59,0.59,0,0,1,292,62c0.17,0,.34,0,0.5,0a0.51,0.51,0,0,0,.62-0.38c0.78,0.08.78,0.08,1-.36l0.9-.06a0.86,0.86,0,0,1-.75.47,0.55,0.55,0,0,0-.38.16,2.37,2.37,0,0,1-1.06.65,4.26,4.26,0,0,1-.6.14,2.3,2.3,0,0,0-.2.14c-0.15.06-.3,0.11-0.45,0.16a0.44,0.44,0,0,0-.17,0,1,1,0,0,1-.94.33,0.69,0.69,0,0,0-.6.23,1.32,1.32,0,0,1-.63.24,2.11,2.11,0,0,1-.47,0l0.88-1.12A10.41,10.41,0,0,1,285,60.9Zm3.4,3a0.77,0.77,0,0,1-.89.15Zm-6.4.31a5.87,5.87,0,0,0-.64-0.06,0.36,0.36,0,0,0-.15.1l0.23,0.25-1.3-.15v-0.1a3,3,0,0,0,.39,0,0.44,0.44,0,0,0,.17-0.1,0.39,0.39,0,0,0-.12-0.12c-0.14,0-.29-0.06-0.51-0.1a10.77,10.77,0,0,0,3.49-2,8.62,8.62,0,0,0,3.66,2l-0.39.29a1,1,0,0,1-.79,0,0.34,0.34,0,0,0-.2-0.06c-0.15,0-.3,0-0.45,0a0.29,0.29,0,0,0-.16,0,1.27,1.27,0,0,1-1.09.27,0.65,0.65,0,0,1-.68-0.18,0.46,0.46,0,0,0-.67,0,1,1,0,0,1-.93.11,0.47,0.47,0,0,0,.12,0l0.15-.11A0.36,0.36,0,0,0,282,64.2Zm-4.43-1.51,0.7,0.91-0.13.31-0.44-.12-0.13-.4-0.3.27L277,63.59l-0.14-.39-0.31.24-0.93-.34,0-.06a1.36,1.36,0,0,0,.26.07,1.71,1.71,0,0,0,.29,0,2.09,2.09,0,0,0-.22-0.2,1.31,1.31,0,0,0-.21-0.08,0.28,0.28,0,0,0-.44.17l-0.52-.22-0.09-.34-0.34.14-0.25-.12-0.09-.31-0.32.11-0.33-.17a0.2,0.2,0,0,1-.1-0.11c0-.3-0.12-0.26-0.32-0.21s-0.32,0-.33-0.22a0.23,0.23,0,0,0-.18-0.13,0.73,0.73,0,0,1-.7-0.41,1,1,0,0,0-.65-0.39,1.13,1.13,0,0,1-.72-0.43,1.38,1.38,0,0,0-.69-0.5,2.36,2.36,0,0,1-.62-0.46,1,1,0,0,1,1-.11,1.26,1.26,0,0,0,.65,0,0.69,0.69,0,0,0,.34-0.14,1.6,1.6,0,0,1,1.7-.07,0.27,0.27,0,0,1-.27.32,1.2,1.2,0,0,0-.9,1,1,1,0,0,0,1.44,1c0.17,0.49.27,0.54,0.8,0.48a0.29,0.29,0,0,1,.22,0,0.79,0.79,0,0,0,1,.29,0.66,0.66,0,0,1,.59.13,0.71,0.71,0,0,0,1,0,0.41,0.41,0,0,1,.42-0.1,1.43,1.43,0,0,0,1.16-.18c0.23-.14.44-0.32,0.66-0.48a12.45,12.45,0,0,1,1-.78,1.68,1.68,0,0,1,2.24.34A10.43,10.43,0,0,1,277.61,62.69ZM280,64l-0.13.28-0.49-.09a0.38,0.38,0,0,1-.12-0.11,0.44,0.44,0,0,1,.15-0.07H280ZM262,55.15l0.21-.06c0.17,0.66.27,0.73,1,.63,0.06,0.46.43,0.43,0.76,0.45,0.11,0.46.1,0.48-.35,0.49h-1.07c0-.11,0-0.26-0.06-0.4a0.49,0.49,0,0,0-.5-0.44,1,1,0,0,1-.44-0.13,0.9,0.9,0,0,0-1,0c-0.2.12-.39,0.26-0.6,0.37a0.39,0.39,0,0,1-.63-0.23,3,3,0,0,1,0-2.33,0.47,0.47,0,0,1,.3-0.27c0.52,0,1.05,0,1.58,0a1.66,1.66,0,0,1,.23,0,2.46,2.46,0,0,0-.27.45,2,2,0,0,0-.15.7A0.75,0.75,0,0,0,262,55.15ZM262,56c0.34-.08.34,0.25,0.46,0.51l-0.65-.08A1,1,0,0,1,262,56Zm0.74,2.11a0.33,0.33,0,0,1,.24.09,1.08,1.08,0,0,0,1.21.39,0.53,0.53,0,0,1,.13,0,1.18,1.18,0,0,1-.58.84,1.11,1.11,0,0,0-1.06-1,1.32,1.32,0,0,1-.58-0.26C262.3,58.17,262.51,58.13,262.72,58.11Zm1-4.93-0.44-.2c0.92-.87.91-2,1-3.15,0.58-.05,1.15-0.12,1.73-0.15a0.45,0.45,0,0,1,.31.2,1.25,1.25,0,0,0,.8.52c0.56,0.13.61,0.26,0.4,0.81A17.07,17.07,0,0,0,266.9,53a1,1,0,0,0,.56,1.21,5.73,5.73,0,0,1,.8.61,1.69,1.69,0,0,0,1.17.48h0.75a5.52,5.52,0,0,1-.12.61c-0.07.22-.26,0.17-0.42,0.13a4.4,4.4,0,0,1-2.6-1.86c-0.19-.28-0.35-0.58-0.54-0.86-0.38-.57-0.67-0.61-1.19-0.16-0.27-.12-0.54-0.25-0.82-0.36C264,52.65,263.9,52.71,263.68,53.19Zm1.69-5.86a9.1,9.1,0,0,1,3.84.13,2.9,2.9,0,0,1,1.83,4,2.09,2.09,0,0,0,.4,2.2,3.3,3.3,0,0,0,1.5,1.16,1.11,1.11,0,0,0,1.28-.22,1.14,1.14,0,0,1,.9-0.38c0.35,0,.45.2,0.3,0.54-0.23,0-.5-0.17-0.69.16l0.27,0a0.34,0.34,0,0,1,.38.51c-0.09.27-.18,0.53-0.28,0.8l0,0c-0.27-.3-0.15-1-0.85-0.87a0.86,0.86,0,0,1,.55.65,0.27,0.27,0,0,1-.14.29,1,1,0,0,0-.35.44,0.51,0.51,0,0,1-.73.3,1,1,0,0,1-.71-0.76,0.45,0.45,0,0,0-.27-0.22c-0.24-.1-0.49-0.18-0.76-0.28a2.38,2.38,0,0,0-.14.23,0.57,0.57,0,0,1-.83.33,0.58,0.58,0,0,1-.17-0.21c-0.07-.11-0.13-0.23-0.21-0.33s-0.19-.34.06-0.53l0.27-.19-0.89-.8a1.14,1.14,0,0,0,.49.8,0.56,0.56,0,0,1-.79-0.17c-0.21-.2-0.4-0.42-0.6-0.63l-0.07,0,0.53,0.79a1,1,0,0,1-1.19-.45,2.24,2.24,0,0,1-.33-2,8.21,8.21,0,0,1,.48-1.08,1,1,0,0,0-.52-1.58,3.33,3.33,0,0,0-1.57-.39h-1.41A2.59,2.59,0,0,0,265.37,47.32ZM266.6,46l2.25-.76a1.33,1.33,0,0,0,.31-0.14,0.91,0.91,0,0,1,1.25.14,17.57,17.57,0,0,1,1.27,1.42,1.56,1.56,0,0,1,.21.66c0.06,0.29.08,0.59,0.13,0.93L271.76,48a2.07,2.07,0,0,0-1.62-.72,17.17,17.17,0,0,1-2-.17c-0.72-.06-1.46,0-2.19,0l-0.27,0,0-.09,1.09-.55Zm5.86,3.42a1.85,1.85,0,0,0,1.42,1.27,1.13,1.13,0,0,1-1.21.45,0.58,0.58,0,0,1,.06.29,0.52,0.52,0,0,1-.31.26,1.69,1.69,0,0,0-1,.24A2,2,0,0,1,271,52a3.56,3.56,0,0,0,.4-2.61,3.62,3.62,0,0,0-1.75-2,1.82,1.82,0,0,1,1.64.33,3.43,3.43,0,0,1,.69.76A5.14,5.14,0,0,1,272.45,49.42Zm0-.48,1.11,0.48a0.29,0.29,0,0,1,.15.18c0.05,0.29.09,0.59,0.13,0.92A2.16,2.16,0,0,1,272.42,48.94Zm1.2-4.36a0.46,0.46,0,0,1-.29-0.21,0.31,0.31,0,0,1,.06-0.3,0.45,0.45,0,0,1,.38,0,2.42,2.42,0,0,1,.4.47A2.28,2.28,0,0,1,273.62,44.57Zm0.25,0.16v0.81l-0.22,0h-0.17l0.32-.85h0.08Zm-9.5-4.56,0.92-.47a0.32,0.32,0,0,1,.22,0,4.08,4.08,0,0,0,1.68,0,4.66,4.66,0,0,1,3.26,1,6.08,6.08,0,0,0,.71.56c0.38,0.21.78,0.37,1.21,0.56a0.53,0.53,0,0,1-.49.4,8,8,0,0,1-1.15.08,0.76,0.76,0,0,1-.43-0.23,6.68,6.68,0,0,0-2-1.35,4,4,0,0,0-2-.22A4.71,4.71,0,0,1,264.37,40.18Zm1,0.59c-0.34.24-.63,0.45-0.94,0.64a0.36,0.36,0,0,1-.3,0,0.88,0.88,0,0,1-.25-1.21Zm1-2.08c0.82,0,1.64,0,2.45,0a1.83,1.83,0,0,1,1.52.9l0.21,0.34,0.21-.17a1.21,1.21,0,0,1,.13,1.1l-0.28-.2a5.24,5.24,0,0,0-3.24-1.12l-1.6.05-0.17,0c0.17-.27.31-0.52,0.48-0.75A0.41,0.41,0,0,1,266.39,38.68Zm-1-.54a0.49,0.49,0,0,1-.09-0.25,0.16,0.16,0,0,1,0-.08c0.18-.46.18-0.46,0.65-0.33a7.54,7.54,0,0,0,2.32.08,4,4,0,0,1,1.63.21,1.25,1.25,0,0,1,.73,1.54,1.73,1.73,0,0,1-.11.2,2.25,2.25,0,0,0-1.65-1,12.73,12.73,0,0,0-1.43,0c-0.32,0-.64,0-1,0A1.78,1.78,0,0,1,265.37,38.15Zm6.9,4.2a0.25,0.25,0,0,1,.18.09,0.73,0.73,0,0,1,.11.2c0.38,0.79.3,1-.54,1.34l-1.21-1.34Zm0.28,0a0.87,0.87,0,0,1,.07-0.72,1.66,1.66,0,0,1-.29,0,6,6,0,0,1-1-.27,0.54,0.54,0,0,1-.16-0.84,0.23,0.23,0,0,1,.21,0c0.27,0.12.54,0.25,0.8,0.39a2.52,2.52,0,0,1,.31.24L272.6,41a6.36,6.36,0,0,0-.63-0.52,3.68,3.68,0,0,0-.6-0.24,0.74,0.74,0,0,1-.44-0.94,0.26,0.26,0,0,1,.21-0.13A2.26,2.26,0,0,1,273,40.16a1.45,1.45,0,0,0,1.14.71,0.79,0.79,0,0,1-1.34.51,2.08,2.08,0,0,0,.25.42,1.51,1.51,0,0,0,.44.29,3.64,3.64,0,0,0,.5.16,0.78,0.78,0,0,1-1,.63A1.92,1.92,0,0,1,272.56,42.3Zm-1.38-4.67a2.09,2.09,0,0,1,1.52.84,1.26,1.26,0,0,0,1,.69,4,4,0,0,0,.43,0,1.3,1.3,0,0,1-.88.87,0.39,0.39,0,0,1-.28-0.08,1.11,1.11,0,0,1-.24-0.24,2.12,2.12,0,0,0-1.29-.73,0.25,0.25,0,0,1-.24-0.3C271.19,38.32,271.18,38,271.18,37.63Zm1.62-.51,0.43-.51a1.37,1.37,0,0,1,.68,1.29,1.12,1.12,0,0,1-.74.95C273.24,38.2,273.46,37.56,272.79,37.12Zm0.48-.84,0.27-.13c0.05,0.14.11,0.25,0.14,0.37a0.25,0.25,0,0,1-.08.1Zm2-2.41a0.37,0.37,0,0,1-.29.2,6.85,6.85,0,0,1-.85-0.16,4.19,4.19,0,0,1,.46-0.59,1.39,1.39,0,0,1,.47-0.19,0.18,0.18,0,0,1,.14,0C275.49,33.35,275.24,33.63,275.26,33.87Zm-0.44.4a2.36,2.36,0,0,1,.34.37,0.47,0.47,0,0,1-.6-0.07,0.7,0.7,0,0,1,0-.3A0.62,0.62,0,0,1,274.81,34.27ZM274.2,44l-0.07.09C274,44,273.87,43.92,274,43.71a7.87,7.87,0,0,0,.16-6.11c-0.13-.39-0.24-0.78-0.36-1.17l0.11-.06a1.35,1.35,0,0,1,.26.31A8.44,8.44,0,0,1,274.2,44Zm0.14-5.08-0.93.09,0.73-.88Zm-1.42,4.4a0.37,0.37,0,0,1,.16-0.21,2.56,2.56,0,0,1,.44-0.17,1,1,0,0,0,.7-0.79l-1-.28a1.48,1.48,0,0,0,1.13-1.12,3.85,3.85,0,0,1-.67-0.14,3.9,3.9,0,0,1-.6-0.38,2,2,0,0,0,1.21-1l0.09,0c0,0.51.06,1,.07,1.53a6.33,6.33,0,0,1-.48,2.5c-0.27.66-.43,0.73-1.13,0.46A1.93,1.93,0,0,1,272.91,43.32Zm1.24,3a2.73,2.73,0,0,1,.58,0v0.09a2.59,2.59,0,0,1-.47.27,0.6,0.6,0,0,1-.29-0.11A0.65,0.65,0,0,1,274.16,46.32Zm0.64,1.26a0.56,0.56,0,0,1-.6.52,1.47,1.47,0,0,1,0-.49A2,2,0,0,1,274.8,47.58ZM274.73,49v0.11l-0.59.24-0.08-.09a0.93,0.93,0,0,1,.25-0.38A0.82,0.82,0,0,1,274.73,49Zm-0.18,1a20,20,0,0,0,.82,2.41,1.41,1.41,0,0,1-.19,1.39c-0.28-.61-0.55-1.16-0.79-1.72a2.79,2.79,0,0,1-.27-0.94,2.3,2.3,0,0,0-.19-0.84,2.58,2.58,0,0,1-.09-0.73l0,0C274.44,49.37,274.4,49.39,274.55,49.92Zm2-13.54c0.22-.17.31-0.15,0.74,0.13a0.09,0.09,0,0,0,0,0C277,36,277,36,277.51,35.78l0.15-.08a0.45,0.45,0,0,1,.71.36,3.64,3.64,0,0,0,.1.54l0.18-.46c0.4,0.1.59,0.26,0.53,0.51a4.14,4.14,0,0,1-.37.77c0.2,0.14.42,0.31,0.66,0.45a0.82,0.82,0,0,1,.42.88,2.16,2.16,0,0,1-1.33-.28,1.81,1.81,0,0,1,.77.94c-0.38-.25-0.74-0.47-1.08-0.72a0.58,0.58,0,0,1-.13-0.29,1.1,1.1,0,0,0-.11-0.32l-0.07.23a0.76,0.76,0,0,1-.82.54,0.3,0.3,0,0,1-.21-0.14,3.22,3.22,0,0,1-.2-0.75,1.14,1.14,0,0,1,.39-0.27c-0.36,0-.74.15-0.89-0.28A1.08,1.08,0,0,1,276.54,36.38Zm-0.22-3.28a1.19,1.19,0,0,1,.19-0.1c0.08,0.1.15,0.22,0.23,0.33l-0.09.07ZM278,30.43a0.32,0.32,0,0,0-.41-0.24l-0.52.07c-0.09-.25.05-0.31,0.23-0.33l2.29-.29a47.57,47.57,0,0,1,7.51-.06c1.09,0,2.18.22,3.27,0.34a0.36,0.36,0,0,1,.19.05,0.72,0.72,0,0,1,.12.19,0.56,0.56,0,0,1-.19.06c-0.14,0-.28,0-0.42-0.05a0.31,0.31,0,0,0-.38.28,0.32,0.32,0,0,0,.27.37L290.57,31v0.12a1.8,1.8,0,0,1-.48.07c-1.18-.14-2.36-0.31-3.55-0.45a10.06,10.06,0,0,0-1.27,0c-1.52,0-3,0-4.56.08-1,.06-2,0.26-3.07.41a0.53,0.53,0,0,1-.58-0.17l0.63-.17A0.33,0.33,0,0,0,278,30.43Zm16,8.07c0,0.1,0,.2,0,0.34a1.08,1.08,0,0,1-.74-0.9,1.4,1.4,0,0,1,.67-1.34c0.38,0.39.38,0.4,0.15,0.84A1.48,1.48,0,0,0,294,38.51Zm-0.82,5.05c0.09,0.19.18,0.38-.08,0.52-1.25-1.78-1.08-6.5.33-7.64a7.22,7.22,0,0,1-.19.77,10.39,10.39,0,0,0-.68,3.21A6.82,6.82,0,0,0,293.19,43.56Zm-0.5-9a3.11,3.11,0,0,1-.54.16l0-.12a2.12,2.12,0,0,1,.33-0.33,0.61,0.61,0,0,1,.29,0A0.61,0.61,0,0,1,292.69,34.56Zm0.4,3.57L293.81,39l-0.92-.07Zm1.5,0.25a2.11,2.11,0,0,1,1.46-.77c0,0.39,0,.78,0,1.16a0.24,0.24,0,0,1-.16.17,2.18,2.18,0,0,0-1.59,1A0.3,0.3,0,0,1,294,40a1.32,1.32,0,0,1-.91-0.86A1.37,1.37,0,0,0,294.58,38.38Zm-1-1.76,0.08-.46,0.28,0.09-0.26.4Zm0-.59c-0.18,0-.35.05-0.43-0.15a0.5,0.5,0,0,1,.14-0.61,0.73,0.73,0,0,1,.88.11,0.51,0.51,0,0,1,.06.72A3.36,3.36,0,0,0,293.54,36Zm-0.48-.83c-0.16.06-.28,0-0.26-0.12a3.89,3.89,0,0,1,.21-0.91,0.48,0.48,0,0,1,.65,0,4.38,4.38,0,0,1,.4.63C293.67,35,293.36,35.08,293.06,35.2Zm0-1.26-0.82.14a0.19,0.19,0,0,1-.11,0,2.21,2.21,0,0,1-.17-0.8c0-.23.34-0.19,0.49-0.07a6.79,6.79,0,0,1,.66.66Zm-1.12-1.32a2.83,2.83,0,0,0-.47-0.42,1.09,1.09,0,0,1,.55-0.14,1.35,1.35,0,0,1,.55.91A0.78,0.78,0,0,1,291.93,32.61Zm0,0.21a0.33,0.33,0,0,1-.11.28,6.07,6.07,0,0,1-.62.35l-0.2-.5a0.3,0.3,0,0,1,.26-0.47A0.79,0.79,0,0,1,291.9,32.83Zm-1,22.85a0.4,0.4,0,0,1,.46-0.51l-0.23.93,0.39,0v0l-0.83.34-0.05-.07a0.69,0.69,0,0,0,.15-0.19A1.16,1.16,0,0,0,290.86,55.67Zm5.3-4.22a2.91,2.91,0,0,1,.47-3.11,3,3,0,0,1,1.89-1,10.32,10.32,0,0,1,3,0,0.24,0.24,0,0,1,.26.34,2.38,2.38,0,0,0,.48,1.91c-0.84.07-1.68,0.08-2.5,0.21a1.18,1.18,0,0,0-1,1.79c0.12,0.22.24,0.45,0.34,0.68a2.39,2.39,0,0,1-.16,2.41,1.17,1.17,0,0,1-1.23.52l0.55-.85-0.08-.09c-0.35.52-.67,1.1-1.45,0.92a1.42,1.42,0,0,0,.57-1,1.59,1.59,0,0,1-1,.89l0.39,0.3c0.23,0.18.23,0.26,0,.48a1.14,1.14,0,0,0-.22.35,0.45,0.45,0,0,1-.51.26,0.4,0.4,0,0,1-.45-0.25c-0.14-.37-0.15-0.36-0.51-0.24l-0.4.13a0.45,0.45,0,0,0-.36.41,0.68,0.68,0,0,1-.25.36,2,2,0,0,1-.43.26,0.4,0.4,0,0,1-.61-0.2,1.06,1.06,0,0,0-.5-0.61,0.25,0.25,0,0,1,0-.23c0.15-.24.33-0.47,0.49-0.69a0.38,0.38,0,0,0-.49.24c-0.11.2-.2,0.42-0.33,0.71a10.84,10.84,0,0,1-.35-1.07,0.5,0.5,0,0,1,.28-0.28c0.1,0,.24,0,0.39-0.07a1.9,1.9,0,0,0-.31-0.13,3.26,3.26,0,0,0-.41,0,0.51,0.51,0,0,1,.74-0.43,1.27,1.27,0,0,1,.39.27,1.21,1.21,0,0,0,1.52.26,3.3,3.3,0,0,0,1.9-2.17A1.75,1.75,0,0,0,296.16,51.45Zm3.45-.11c0.12,0.29.26,0.56,0.39,0.84a2.11,2.11,0,0,1,.16,1.29,0.91,0.91,0,0,1-.62.69,11.26,11.26,0,0,0-.07-1.49,3.61,3.61,0,0,0-.42-1c-0.49-.94-0.29-1.46.72-1.76,0.29-.09.59-0.13,0.88-0.19a0.85,0.85,0,0,1,.18,0,2.53,2.53,0,0,1-.33.35,1.09,1.09,0,0,1-.38.16C299.54,50.38,299.26,50.51,299.61,51.34Zm-5.13,5.54c-0.05-.27.06-0.34,0.3-0.32s0.56-.06.83,0a1.87,1.87,0,0,1,.7.23c0.16,0.09.09,0.27,0,.38L295,58.29c-0.36-.35-0.39-0.51-0.22-1.41h-0.35Zm0-.62,0.83-.28c0.18,0.33.11,0.46-.23,0.46a4.4,4.4,0,0,1-.6-0.09V56.26Zm1,1.83a9,9,0,0,1,.9-0.81,0.42,0.42,0,0,1,.37,0,1.37,1.37,0,0,1,.7.94,0.76,0.76,0,0,1-.82.83,1.88,1.88,0,0,1-1.16-.59A0.36,0.36,0,0,1,295.52,58.1Zm1.61-1.73-0.52-.13,0.31-.34,0.25,0.41Zm-4.33.28-0.37.49-0.08,0,0.05-.75Zm-0.94-.85-0.49.11c-0.1-.35-0.07-0.43.29-0.64Zm-0.9-.8a0.63,0.63,0,0,1,.55-0.57L291.65,55Zm-0.77-6c-0.56.1-.58,0.12-0.51,0.67a0.42,0.42,0,0,1-.32.54,0.68,0.68,0,0,0-.57.85,4.36,4.36,0,0,1,.43-0.08,0.31,0.31,0,0,1,.4.34c0,0.24,0,.49,0,0.73a0.36,0.36,0,0,1-.35.39,1.12,1.12,0,0,1-1.1-.43c-0.06-.08-0.12-0.17-0.21-0.3,0,0.31-.05.56-0.09,0.82a0.84,0.84,0,0,1-.42.63,0.6,0.6,0,0,1-.93-0.23,1.08,1.08,0,0,0-.24-0.27c-0.36-.28-0.37-0.46,0-0.76l0.14-.11c-0.23,0-.23,0-0.64.65a1.54,1.54,0,0,1-.22-1,0.88,0.88,0,0,1,.38-0.2,1,1,0,0,1,.3,0V51.17L285.56,51a5.61,5.61,0,0,1,.11-0.62,0.42,0.42,0,0,1,.63-0.2,3.88,3.88,0,0,1,.58.49,0.6,0.6,0,0,0,.61.25,0.55,0.55,0,0,0,.33-0.54,3.93,3.93,0,0,0-.17-1.48,2.77,2.77,0,0,1-1.73.15,2,2,0,0,1-1.2-1.23,0.68,0.68,0,0,0,.2.74c0.28,0.28.29,0.4,0,.67a5,5,0,0,1-.67.42,4.1,4.1,0,0,0-.6-1.84,3.69,3.69,0,0,1-.29-2.37,1.28,1.28,0,0,0-.76-1.57l-0.1-.06-0.06-.06,0.73-.67-0.75-.23a1.49,1.49,0,0,1,1.93.19,3.56,3.56,0,0,0,.4.5,1.06,1.06,0,0,0,.34.15l0-.07-0.44-.34,0.23-.17c-0.76-.67-1.41-0.79-2.76-0.5,0,0.4.3,0.44,0.64,0.57a1.83,1.83,0,0,1-.46.37,1.08,1.08,0,0,1-.55,0,4.2,4.2,0,0,1-.6-0.24l0.36,0.45a1.22,1.22,0,0,1-1.32-.14,0.7,0.7,0,0,0-.77-0.14,0.46,0.46,0,0,1-.61-0.3l-0.06,0L279,43.72a0.45,0.45,0,0,1-.17.68,0.83,0.83,0,0,0-.2.19,0.47,0.47,0,0,1-.54.22,0.51,0.51,0,0,1-.42-0.41l-0.08-.32h-0.1c0,0.14,0,.29,0,0.43,0.07,0.38,0,.5-0.42.5a0.65,0.65,0,0,1-.81-0.5c0-.18-0.33-0.29-0.18-0.51a2.18,2.18,0,0,1,.42-0.36,0.35,0.35,0,0,0,.14-0.19l-0.27.12c-0.24.11-.36,0-0.38-0.22a2.92,2.92,0,0,1,0-.53,0.28,0.28,0,0,1,.36-0.26c0.24,0,.47.1,0.73,0.13l-0.63-.44a7.34,7.34,0,0,1,.7-0.41,0.35,0.35,0,0,1,.47.21c0.12,0.23.21,0.48,0.34,0.78a12.37,12.37,0,0,1,4.49-1.72l0.2,0.4c0.23-.12.44-0.24,0.66-0.33a1.55,1.55,0,0,1,1.78.26,0.84,0.84,0,0,1,.31.77,2.06,2.06,0,0,0,1.37,2.13,2.22,2.22,0,0,0,1,.06,1.14,1.14,0,0,0,.93-1.23,5.9,5.9,0,0,0-.33-2.11,14.86,14.86,0,0,1-.78-4,2.13,2.13,0,0,1,.68-1.94,1.85,1.85,0,0,1,2.18,0,0.73,0.73,0,0,1,.21.74,0.49,0.49,0,0,1-.68-0.25,0.66,0.66,0,0,0-.82-0.32,1.22,1.22,0,0,0-.94,1,5.92,5.92,0,0,0,.2,2.43c0.29,1.17.59,2.33,0.89,3.49,0,0.14,0,.28.06,0.42a1.66,1.66,0,0,1-.55,1.75,2.38,2.38,0,0,1-2.19.51c-0.25-.07-0.49-0.18-0.74-0.27a0.07,0.07,0,0,0,0,0,3.82,3.82,0,0,1,.38,1.83,0.77,0.77,0,0,0,.45.73,0.87,0.87,0,0,0,1,0c0.18-.13.35-0.29,0.53-0.43a0.58,0.58,0,0,1,1,.2l0.19,0.34L291.1,47a0.67,0.67,0,0,1-.43.94c-0.2,0-.41.06-0.61,0.1a2,2,0,0,0-.3.11l0,0.07,1-.09A0.67,0.67,0,0,1,290.18,49Zm0.26,2.82h-0.72l0.05-.44C290.22,51.43,290.37,51.53,290.44,51.86Zm-10.07.33a0.22,0.22,0,0,1-.15.35c-0.15.06-.28,0.15-0.42,0.22a1.61,1.61,0,0,1-.41.17,0.39,0.39,0,0,1-.5-0.46c0-.14,0-0.27.07-0.44a0.51,0.51,0,0,0-.29.58,0.3,0.3,0,0,1-.33.38c-0.41,0-.54,0-0.55-0.44a0.56,0.56,0,0,0-.56-0.49c0-.45.32-0.51,0.63-0.64a0.43,0.43,0,0,0-.55.12c-0.08.1-.13,0.22-0.21,0.33s-0.13.15-.19,0.23a1,1,0,0,1-.12-0.31,6.82,6.82,0,0,1,0-.7,0.3,0.3,0,0,1,.43-0.32c0.21,0.05.41,0.12,0.61,0.18l0-.07c-0.13-.06-0.27-0.12-0.39-0.19a3,3,0,0,1-.28-0.21l0.21-.19,0.34-.3a0.43,0.43,0,0,1,.75.16,1.52,1.52,0,0,0,.21.46,0.67,0.67,0,0,0,.46.23,2,2,0,0,0,1.4-1.23,0.49,0.49,0,0,0-.21-0.37,1.65,1.65,0,0,0-.5-0.17,1.94,1.94,0,0,1-1.19-.93c-0.22-.38-0.25-0.39-0.67-0.25a1.2,1.2,0,0,1-1.68-.77c0.14,0,.26,0,0.39,0a5.88,5.88,0,0,0,1-.2,1.16,1.16,0,0,0,.55-0.45A3,3,0,0,1,281,45c0.55,0,1.1,0,1.73,0a1,1,0,0,0,0,1.58c-0.33,0-.62.06-0.9,0.1A0.88,0.88,0,0,0,281,48a1,1,0,0,0,.82.52l0.62,0.07a0.4,0.4,0,0,1,.39.56,5.53,5.53,0,0,1-.22.59,2.13,2.13,0,0,1,.37.15,2.19,2.19,0,0,1,.43.35,0.33,0.33,0,0,1,0,.5,0.57,0.57,0,0,1-.42,0,5.47,5.47,0,0,1-.53-0.26,1.41,1.41,0,0,0-.21-0.06l0,0.08,0.56,0.32a0.47,0.47,0,0,1,.28.48,0.54,0.54,0,0,1-.37.49,0.35,0.35,0,0,1-.28-0.06c-0.17-.14-0.31-0.33-0.48-0.47a0.37,0.37,0,0,0-.62.08,0.42,0.42,0,0,1-.53.18,0.77,0.77,0,0,0-.85.11C280.09,51.78,280.24,52,280.36,52.19Zm-0.12.51,0,0.63C279.85,53,279.85,52.78,280.24,52.7Zm-2.52,0c-0.26.09-.42,0.16-0.59,0.21s-0.23,0-.15-0.17a1.2,1.2,0,0,1,.2-0.33,0.25,0.25,0,0,1,.24,0A1.9,1.9,0,0,1,277.72,52.66Zm-0.32-3a1.05,1.05,0,0,1,.21.33,0.82,0.82,0,0,1-.79-0.24A0.46,0.46,0,0,1,277.4,49.68Zm0-1.46c0.92-.22,1-0.35,1.35.36A1.09,1.09,0,0,1,277.4,48.22Zm-1.52,7.7-0.49-.11,0.18-.51A0.42,0.42,0,0,1,275.87,55.92Zm-0.28-1,0.11-.47a0.48,0.48,0,0,1,.55.5Zm0.1,1.09,0.32,0a1,1,0,0,0-.13-0.92c0.39,0,.49.09,0.47,0.44a6.42,6.42,0,0,0,.06.81l-0.73-.31v0Zm0-1.82a1.15,1.15,0,0,0-1.46.15,1.19,1.19,0,0,1-1.57.13,3.42,3.42,0,0,1-1.63-2,0.23,0.23,0,0,1,.16-0.34,2,2,0,0,1,1.17-.32,0.47,0.47,0,0,0,.39-0.17,3,3,0,0,1,1.11-.7l0.85,2.07s0,0.07.05,0.1A1,1,0,0,0,276,54a0.23,0.23,0,0,1,.3.21c0,0.17.1,0.33,0.17,0.55C276.2,54.53,275.95,54.37,275.69,54.23Zm-0.28-.52c0.26-.83.39-0.91,1.11-0.77C276.43,53.69,276,54,275.41,53.71Zm0.71-17.2a0.41,0.41,0,0,1,.05.21l-0.56,0C275.79,36.35,276,36.43,276.12,36.52Zm-0.56-3.13c0.34,0.07.38,0.14,0.31,0.52C275.45,33.82,275.39,33.73,275.56,33.39Zm0.55,5.22c0.43-.2.54-0.16,0.55,0.19ZM277,41.68l0,0.08a0.59,0.59,0,0,1-.27.16,1.19,1.19,0,0,1-.34-0.23l0-.09Zm-1.25,3.17,0.27-.43,0.36,0.31-0.59.19Zm0.41,6.67-0.06-.08a0.81,0.81,0,0,1,.33-0.27,0.83,0.83,0,0,1,.34.26l-0.07.08h-0.55Zm2.67-6.84,0.32-.21L279.17,45l-0.07,0Zm3.95-.19a1.24,1.24,0,0,1-.09-0.26,0.64,0.64,0,0,1,.59.63,10.58,10.58,0,0,1-.06,1.15c0,0.18,0,.35-0.06.55a0.77,0.77,0,0,1-.58-1,1.31,1.31,0,0,1,.18-0.28C283,44.89,283,44.89,282.73,44.49Zm0.78,13.26-2.11-.91a0.25,0.25,0,0,1-.13-0.17c0-.29-0.05-0.57-0.08-0.9,0.74,0.27,1.44.52,2.14,0.79a0.32,0.32,0,0,1,.16.23C283.53,57.08,283.51,57.39,283.51,57.75Zm-2.37-.39a2.13,2.13,0,0,1,.07-0.34l1.93,0.76a1.22,1.22,0,0,0,1,0L286,57a3.48,3.48,0,0,1,0,.63,1.71,1.71,0,0,1-.72,1.07c-0.49.35-1,.7-1.48,1a0.48,0.48,0,0,1-.43,0c-0.54-.35-1.08-0.72-1.59-1.11A1.5,1.5,0,0,1,281.15,57.36Zm3.92-5.59a0.84,0.84,0,0,1,.32.17,0.73,0.73,0,0,1-.19.24,2.65,2.65,0,0,1-.48.14C284.73,52,284.84,51.76,285.07,51.77Zm-0.33-1.11a1.25,1.25,0,0,1,.39-0.28,0.83,0.83,0,0,1,.36.14l0,0.13h-0.72Zm1.18,5.15c0,0.32,0,.61,0,0.89a0.24,0.24,0,0,1-.13.17l-2,.88c0-.35,0-0.66,0-1a0.32,0.32,0,0,1,.16-0.23C284.58,56.29,285.24,56.06,285.92,55.8Zm0-2.31-0.1,0a3.11,3.11,0,0,1,.08-0.5,0.28,0.28,0,0,1,.22-0.1,0.25,0.25,0,0,1,.19.11,0.26,0.26,0,0,1,0,.23A3.29,3.29,0,0,1,285.88,53.49Zm-4.33-16.34a7.9,7.9,0,0,1,1,.06,1.12,1.12,0,0,1,.48.21,0.76,0.76,0,0,1,.14.32l-0.09,0a1.36,1.36,0,0,0-.37-0.31,6.31,6.31,0,0,0-1-.23c-0.4-.07-0.8-0.08-1.19-0.17a0.52,0.52,0,0,1-.37-0.59,0.49,0.49,0,0,1,.5-0.46c0,0.06,0,.1,0,0.15A0.81,0.81,0,0,0,281.55,37.15Zm0.66-1.6L282,35.49l-0.22-.08a1.14,1.14,0,0,1,.35-0.22c0.63-.08,1.27-0.14,1.9-0.21h0.16a0.84,0.84,0,0,0,.07.87,1.78,1.78,0,0,0,.48.23,8,8,0,0,1,.2-0.83,0.68,0.68,0,0,1,.28-0.18,0.62,0.62,0,0,1,0,.68,1,1,0,0,0,.31,1.44,4.92,4.92,0,0,0-.48.21,0.45,0.45,0,0,0-.23.22,0.8,0.8,0,0,0,.22.35,0.85,0.85,0,0,0,.28.12l-0.1.36h-0.7l0.45,1,0,0-1-1.09a1,1,0,0,0,.19-0.8c-0.11.19-.2,0.33-0.27,0.49a0.56,0.56,0,0,1-.67.37c-0.54-.07-1.08-0.11-1.63-0.17a0.29,0.29,0,0,1,.39-0.33L282.78,38a0.39,0.39,0,0,0,.48-0.36,3.35,3.35,0,0,0,.07-0.73,0.57,0.57,0,0,0-.75-0.52,1.51,1.51,0,0,1-.73,0,0.62,0.62,0,0,1-.16-0.45,0.4,0.4,0,0,1,.2-0.25,1,1,0,0,1,.32-0.08V35.55Zm2.72-2.9c-0.06.24-.11,0.45-0.17,0.65a0.2,0.2,0,0,1-.12.12,1.07,1.07,0,0,1-1-.09,1,1,0,0,1-1.1.06,1.54,1.54,0,0,1-.28-0.73A5.64,5.64,0,0,0,284.93,32.64Zm-2.86-.46a1.09,1.09,0,0,1-.54.17l-0.05-.07c0.16-.42.31-0.85,0.48-1.26a0.66,0.66,0,0,1,.74-0.15A13.17,13.17,0,0,1,282.08,32.19Zm2.52,2.58h-1.9A2.94,2.94,0,0,1,284.59,34.77Zm-2-.46a0.52,0.52,0,0,1,.07-0.6l0.21,0.67-0.1.07A0.5,0.5,0,0,1,282.61,34.31ZM283,34c0.38-.07.46,0,0.48,0.24a0.22,0.22,0,0,1-.13.17A0.34,0.34,0,0,1,283,34Zm0.68,0.28c0.08-.16,0-0.43.29-0.45a0.47,0.47,0,0,1,.23.15,0.37,0.37,0,0,1-.39.41A0.22,0.22,0,0,1,283.72,34.28Zm0.65,0.15,0.06-.71a0.29,0.29,0,0,1,.26.4C284.67,34.29,284.63,34.46,284.37,34.43Zm-0.06.91A0.51,0.51,0,0,1,284.9,35l-0.3.88A0.39,0.39,0,0,1,284.31,35.34ZM280.07,41l2.9-1a2.21,2.21,0,0,1-2.51,1.22l0.2-.16C280.44,41,280.18,41.3,280.07,41Zm5.33-3.13a1.79,1.79,0,0,1-.38-0.19,0.91,0.91,0,0,1,1.25.43,1.46,1.46,0,0,0,1.08,1,0.7,0.7,0,0,1-.48.52,0.42,0.42,0,0,1-.53-0.19,1.86,1.86,0,0,0-.24-0.21c-0.16-.2-0.3-0.42-0.47-0.61a0.26,0.26,0,0,1,0-.37C285.74,38.09,285.66,38,285.4,37.9Zm0.71,1.39a2.72,2.72,0,0,0,.42.71,3.53,3.53,0,0,0,.82.42,0.56,0.56,0,0,1-.49.37,5.25,5.25,0,0,1-.84-0.05,0.14,0.14,0,0,1-.09-0.05,3.88,3.88,0,0,1-.95-2A2.55,2.55,0,0,1,286.11,39.29Zm-4.25.2c-0.42.08-.85,0.11-1.32,0.16l0,0.22c-0.33,0-.39-0.13-0.34-0.52l0.88-.09a4.12,4.12,0,0,0,1.51-.49,1.46,1.46,0,0,1,1.54.13,1.17,1.17,0,0,1,.17.15,0.8,0.8,0,0,1,.08.12A7.31,7.31,0,0,0,281.86,39.49Zm3.49,0.72a4.72,4.72,0,0,0-3.59.08,0.72,0.72,0,0,1-1-.43l1.59-.33a11.93,11.93,0,0,1,1.38-.23A1.7,1.7,0,0,1,285.35,40.21Zm-4.79-.09a1.41,1.41,0,0,1,.61.34l0,0.09c-0.41.07-.82,0.16-1.24,0.2a1.76,1.76,0,0,1-.56-0.15V40.47A6.67,6.67,0,0,1,280.56,40.12ZM280,41.2l-0.54.29a1.68,1.68,0,0,1,.83-0.05c-0.87.5-1.44,0.7-1.8,0.09,0.41-.16.8-0.32,1.2-0.45A0.36,0.36,0,0,1,280,41.2Zm3.45-1a2.26,2.26,0,0,1,2.15.51c0.13,0.09.25,0.2,0.37,0.3a1.86,1.86,0,0,0,1.43.47,0.76,0.76,0,0,1-.88.65,1.84,1.84,0,0,1-1.1-.62,1.65,1.65,0,0,0-1.48-.6,4,4,0,0,0-.67.2c-0.13,0-.25.11-0.39,0.16A0.81,0.81,0,0,1,283.44,40.15Zm3.74-3.26c-0.31.35-.48,0.33-0.67-0.09a1.43,1.43,0,0,0-1.13-.76l0.1-.3c0.14-.41.24-0.44,0.57-0.15a1.75,1.75,0,0,1,.27.28,1.81,1.81,0,0,0,1,.8Zm-0.81,0a3.46,3.46,0,0,1,.12.37,0.67,0.67,0,0,0,.73.58,0.5,0.5,0,0,1-.41.47,0.32,0.32,0,0,1-.28-0.1,1.45,1.45,0,0,0-.71-0.73l-0.15-.12,0.21-.29c-0.53-.25-0.63-0.38-0.58-0.79A1,1,0,0,1,286.37,36.88Zm-5.22,1.7v0.07l-0.58.08c-0.42,0-.42,0-0.58-0.4Zm-1,.38a3.75,3.75,0,0,0,1.44-.33,4.54,4.54,0,0,1,1-.17l0,0.11a3.81,3.81,0,0,1-2.57.54l0,0.38c-0.32,0-.42-0.06-0.5-0.51h0.69Zm-0.17.75,0,0.09a0.4,0.4,0,0,1-.1.11c-0.47.21-.94,0.43-1.42,0.62a0.32,0.32,0,0,1-.5-0.28c0.43-.17.82-0.36,1.22-0.48A3.47,3.47,0,0,1,279.95,39.71Zm-0.86.83a1.35,1.35,0,0,1,.51.42c-0.46.13-.84,0.26-1.23,0.35a0.51,0.51,0,0,1-.68-0.4A11.43,11.43,0,0,1,279.09,40.54Zm11.72-4.3a0.33,0.33,0,0,1,.19.23,0.32,0.32,0,0,1-.23.21,3.25,3.25,0,0,1-.59-0.06,0.25,0.25,0,0,0-.07,0c-0.15.15-.26,0-0.26-0.09a0.41,0.41,0,0,1,.21-0.28,1.13,1.13,0,0,1,.4,0A1.16,1.16,0,0,1,290.8,36.24ZM290.7,53c0.69-.21,1,0,1.08.77C291.13,53.93,290.87,53.75,290.7,53Zm0.7-14.68h-0.05a2.92,2.92,0,0,1,.09.32,1.45,1.45,0,0,1,0,.39,2.08,2.08,0,0,1-.13.4l-0.68-1.27,0,0,0.12,0.31c0.12,0.31.25,0.63,0.36,0.94a0.57,0.57,0,0,1-.19.7l-0.26-.44a5.63,5.63,0,0,1-.16.85,0.72,0.72,0,0,1-.4.25,1.63,1.63,0,0,0-.57-1.4,2.18,2.18,0,0,1-.45-1.9,0.8,0.8,0,0,1,1-.61,1,1,0,0,1,.28.28l0-.25a2,2,0,0,1,1.12.09,1.33,1.33,0,0,1,.13,1.55Zm0-4.37c-0.19-.29-0.13-0.42.25-0.53C291.84,33.67,291.8,33.76,291.41,33.92ZM291,33.13l-0.42.24-0.06-.06L290.7,33ZM289.64,33l1.07-.48A0.72,0.72,0,0,1,289.64,33Zm0.47,0.24a0.24,0.24,0,0,1,.27.34,23.33,23.33,0,0,1-4.58-.76l0,0.11L286,33.09a0.51,0.51,0,0,1,.35.49,0.52,0.52,0,0,1-.43.46,0.7,0.7,0,0,1-.78-0.15A0.79,0.79,0,0,1,285,33a0.77,0.77,0,0,1,.69-0.54,2.53,2.53,0,0,1,.83.1A11.89,11.89,0,0,0,290.11,33.24ZM285,30.89c0.52-.13.68,0,0.83,0.39s0.22,0.62.33,0.93a0.45,0.45,0,0,1-.72-0.24C285.32,31.63,285.19,31.27,285,30.89Zm3,1.59c-0.18-.48-0.34-1-0.51-1.46,0.5,0,.54,0,0.71.4s0.44,1,.66,1.52A0.65,0.65,0,0,1,288,32.48Zm-8.39-1.25a1.2,1.2,0,0,1,.52-0.27,0.38,0.38,0,0,1,.07.18c-0.17.49-.34,1-0.53,1.45a0.35,0.35,0,0,1-.2.18c-0.21.07-.43,0.1-0.62,0.14C279.09,32.34,279.31,31.77,279.6,31.23Zm1.2,1.31a1.88,1.88,0,0,1,.58-0.07,0.84,0.84,0,0,1,.89,1,0.61,0.61,0,0,1-.47.6,0.84,0.84,0,0,1-.84-0.24,0.44,0.44,0,0,1,.14-0.66c0.12-.08.25-0.15,0.38-0.22l0-.09-0.77.12c-0.88.17-1.76,0.36-2.65,0.52a8.14,8.14,0,0,1-1,.07,0.84,0.84,0,0,1-.21,0l0-.1a0.77,0.77,0,0,1,.3-0.18A12.12,12.12,0,0,0,280.8,32.54ZM279,36c-0.32-.05-0.35-0.13-0.21-0.48Zm-1.34-.48a0.7,0.7,0,0,1-.35.12,0.9,0.9,0,0,1-.23-0.35l0.05-.06,0.51,0.2Zm-1.33-2.73c-0.07.22-.16,0.43-0.26,0.68a3.81,3.81,0,0,1-.59-0.36,0.41,0.41,0,0,1-.09-0.36,0.57,0.57,0,0,1,.88-0.15A0.24,0.24,0,0,1,276.31,32.78ZM275.81,43a0.24,0.24,0,0,1,.12.18c-0.13.26-.37,0.12-0.59,0.14A0.38,0.38,0,0,1,275.81,43Zm-0.93,14.11-0.09,0a1.73,1.73,0,0,1-.29-0.45,0.73,0.73,0,0,1,.22-0.32l0.09,0Zm-2.7,1.22-1.31-1.16c-0.12-.11-0.16-0.24,0-0.33a1.1,1.1,0,0,1,.54-0.3,12.4,12.4,0,0,1,1.35.08l0.06,0.27h-0.43A1.49,1.49,0,0,1,272.19,58.31Zm-1-.71c0.23,0.2.45,0.42,0.69,0.66a2.77,2.77,0,0,1-1.22.75,0.78,0.78,0,0,1-.83-0.27,0.69,0.69,0,0,1-.09-0.76l0-.1C270.18,57.12,270.57,57,271.2,57.6Zm-1.12-1.31,0.21-.38,0.35,0.32-0.51.13Zm1.64,0,0.13-.31,0.83,0.25v0.07A1,1,0,0,1,271.72,56.3Zm-4.06-2.18a0.71,0.71,0,0,1-.61-0.8,14.75,14.75,0,0,1,.42-1.71c0.06-.23.19-0.45,0.26-0.68a0.43,0.43,0,0,0-.33-0.6,3.77,3.77,0,0,1-.61-0.2,1.13,1.13,0,0,1-.39-0.4,4,4,0,0,1,1.64.47,0.82,0.82,0,0,1,.3,1.07c-0.12.33-.29,0.65-0.41,1a4.64,4.64,0,0,0-.27.91A6.81,6.81,0,0,0,267.66,54.13ZM301,46.22a4.82,4.82,0,0,1,1.58,1,1.57,1.57,0,0,1,.49,1.45c-0.06.35-.09,0.7-0.13,1.09a1.83,1.83,0,0,1-1-1.58,1.57,1.57,0,0,1,0-.47,0.48,0.48,0,0,0-.39-0.7h0l-0.69-.54a0.65,0.65,0,0,1-.11-0.18A0.5,0.5,0,0,1,301,46.22Zm-5.44.42a5.2,5.2,0,0,1,1.57-1.59,0.79,0.79,0,0,1,.72-0.06L300.65,46l-0.18.44,1.1,0.48c0.08,0.19-.06.13-0.16,0.13L299.64,47a2.32,2.32,0,0,0-.48,0,8.82,8.82,0,0,1-2.12.18,1.8,1.8,0,0,0-1.28.5c-0.18.15-.34,0.32-0.55,0.47A3.6,3.6,0,0,1,295.54,46.64Zm-2.09,3.5a0.73,0.73,0,0,1,.62-0.87,2.44,2.44,0,0,0,.8-0.5,2,2,0,0,1-1.45,1.67C293.44,50.33,293.45,50.23,293.45,50.14Zm-0.05.55a1.88,1.88,0,0,0,1.32-1.16,11,11,0,0,1,.66-1.21,2.06,2.06,0,0,1,2.19-.88c-1.82,1.11-2.34,2.6-1.35,4.55l-0.08,0a2.83,2.83,0,0,1-.54-0.18,0.83,0.83,0,0,0-.64-0.14,0.24,0.24,0,0,1-.17,0,0.86,0.86,0,0,1-.29-0.24,0.37,0.37,0,0,1,.11-0.25,6.69,6.69,0,0,0,.44-0.56,1.31,1.31,0,0,1-1,.48,3,3,0,0,1-.64-0.34A0.4,0.4,0,0,1,293.4,50.69Zm-0.09-1.24a1.42,1.42,0,0,1-.13,1,0.51,0.51,0,0,0-.09.17c0,0.39-.08.77-0.12,1.18l0.34-.8a2,2,0,0,1,1.11.65,0.54,0.54,0,0,0,.6.21,2,2,0,0,1,1.14.4,0.26,0.26,0,0,1,0,.2,3.3,3.3,0,0,1-2,2.19,1.06,1.06,0,0,1-1-.16,3.58,3.58,0,0,0-.38-0.25,1.38,1.38,0,0,0-1.73.25,1.19,1.19,0,0,0-.16.26,0.52,0.52,0,0,1,.35-0.83c1-.05,1-0.11,1.27-1.15l-0.48.85a1,1,0,0,1-.14-1.27,9.69,9.69,0,0,0,.82-2.68c0-.1.05-0.2,0.08-0.3Zm-0.14-.25-0.07.1-0.6-.21,0-.1a0.91,0.91,0,0,1,.43-0.15A0.84,0.84,0,0,1,293.17,49.2Zm-0.09-1.54a0.33,0.33,0,0,1-.21.43c-0.29,0-.34-0.2-0.41-0.48C292.69,47.66,292.9,47.29,293.08,47.66Zm0.1-1.28a0.33,0.33,0,0,1,0,.32,0.38,0.38,0,0,1-.33,0,1.84,1.84,0,0,1-.35-0.28,1.68,1.68,0,0,1,.4-0.14A0.39,0.39,0,0,1,293.19,46.38Zm0.56-.84h-0.38v-0.8h0.08Zm-0.08-1a4.75,4.75,0,0,1-.55,0,0.57,0.57,0,0,1,.5-0.54c0.12,0,.27,0,0.28.18S293.93,44.56,293.67,44.57Zm0.61-.83c-0.72.23-.78,0.2-1.06-0.49a6.81,6.81,0,0,1-.33-4.12A1.91,1.91,0,0,0,294,40.19v0.09a4,4,0,0,1-.54.32,4.41,4.41,0,0,1-.64.16,1.47,1.47,0,0,0,1.09,1.11l-0.89.26c0.06,0.6.3,0.78,1.24,1l0.05,0.6Zm0.07-.93a0.34,0.34,0,0,1-.25.1,0.87,0.87,0,0,1-.86-0.71,1.21,1.21,0,0,0,1.26-1,0.55,0.55,0,0,0-.14.14c-0.15.33-.35,0.31-0.66,0.2a1,1,0,0,1-.64-0.68,1.47,1.47,0,0,0,1.2-.72,2.35,2.35,0,0,1,2-1.07,0.78,0.78,0,0,1-.48,1.15,6.11,6.11,0,0,0-.78.38,0.68,0.68,0,0,0-.22.29,2.91,2.91,0,0,1,1.26-.54l0,0.16c0.14,0.55.06,0.72-.48,0.89-0.3.1-.62,0.14-1,0.21l0.14,0.27h0C294.62,42.2,294.5,42.51,294.35,42.81Zm2.31-2.91,0.06-.08a2.14,2.14,0,0,1,2-1.19c0.69,0,1.37,0,2.06.05a0.47,0.47,0,0,1,.31.14c0.17,0.22.32,0.46,0.52,0.76a8.6,8.6,0,0,1-1.14,0,5,5,0,0,0-3.91,1.07l-0.26.19a0.91,0.91,0,0,1,.12-1.08Zm0.55-2.09a3.55,3.55,0,0,1,1.71-.25,6.36,6.36,0,0,0,2.76-.21L302,38a1.49,1.49,0,0,1-1.21.5c-0.59,0-1.18-.06-1.77-0.07a2.59,2.59,0,0,0-2.34,1A1.16,1.16,0,0,1,297.21,37.81Zm-1.94,6.08a0.19,0.19,0,0,1-.12.07,0.75,0.75,0,0,1-.68-0.75,4.05,4.05,0,0,1,.3-0.78,0.18,0.18,0,0,1,.15-0.08l1.47,0.28Zm5.6-3.34a3.66,3.66,0,0,0-3.09.87L297,42a1.79,1.79,0,0,1-2,0c-0.08-.06-0.18-0.11-0.27-0.17a0.62,0.62,0,0,1,.23-0.16,2.35,2.35,0,0,0,1.43-.71A4.71,4.71,0,0,1,299,39.78a8,8,0,0,1,.9-0.05c0.52,0,1,0,1.55,0a1.32,1.32,0,0,1,.83.18c0.17,0.1.34,0.19,0.6,0.32A5,5,0,0,1,300.87,40.55Zm1.72,0.73-0.74-.52,1.5-.6a1,1,0,0,1,0,.91A0.46,0.46,0,0,1,302.59,41.29Zm4.5,2.35a1.43,1.43,0,0,1-1.61.81,2.46,2.46,0,0,1-1.62-1.37c-0.23-.49-0.52-0.95-0.77-1.38l0.66-.9a3.82,3.82,0,0,1,1,1.07c0.17,0.24.32,0.49,0.49,0.72A2.13,2.13,0,0,0,307.09,43.64Zm-0.2-2.09h0.59a1.13,1.13,0,0,1-.79,1,3.3,3.3,0,0,1-1,.1,0.66,0.66,0,0,1-.41-0.25c-0.19-.23-0.32-0.51-0.52-0.74s-0.61-.61-0.9-0.92a1.47,1.47,0,0,1-.28-0.4,4,4,0,0,1-.16-0.57c-0.34.34-.4,0.35-0.79,0.16a3,3,0,0,1-1.2-.82c-0.23-.31-0.22-0.35.11-0.53l0.29-.17,0.27-.16a29.68,29.68,0,0,1,3.64,2.88A1.47,1.47,0,0,0,306.89,41.54Zm0.22-1.79a1.41,1.41,0,0,1,.25,0A1.5,1.5,0,0,1,306.06,41a0.51,0.51,0,0,1-.31-0.16,11.81,11.81,0,0,0-2.14-1.74A14.54,14.54,0,0,1,302.25,38a1.87,1.87,0,0,1-.28-0.43,2.72,2.72,0,0,0,1.35.27,1.1,1.1,0,0,1,.83.29c0.46,0.36.92,0.71,1.36,1.1A1.83,1.83,0,0,0,307.12,39.75Zm-0.68-3.11h0.22a1.7,1.7,0,0,1-.12.32,1,1,0,0,1-1.57.16c-0.18-.19-0.33-0.4-0.5-0.61a1.76,1.76,0,0,0-.15-0.14c0.25,0.9,1.11,1.45,2.57,1.65a1.22,1.22,0,0,1-.49.94,0.62,0.62,0,0,1-.92,0l-1.55-1.26a0.55,0.55,0,0,1-.05-0.11l0.54-.43a2.21,2.21,0,0,1-1.32-.7c1-.27,1.22-0.42,1.47-1A1.85,1.85,0,0,1,303,34.9a8.28,8.28,0,0,1,.8-0.28,0.85,0.85,0,0,1,.91.47,4.69,4.69,0,0,1,.22.52A1.49,1.49,0,0,0,306.43,36.64Zm-0.08-1.55,0.16,0.06,0.08,0.06a1.31,1.31,0,0,1-1.16.63,0.49,0.49,0,0,1-.28-0.2,2.57,2.57,0,0,1-.2-0.43,1.28,1.28,0,0,0-.89-0.78l0.23-.37a2,2,0,0,1-.81-1.88,1.58,1.58,0,0,1,1.13.75,3.65,3.65,0,0,1,.34.77A2.09,2.09,0,0,0,306.36,35.09ZM302,29.2a0.73,0.73,0,0,1-.72.81c0-.45.38-0.89,0-1.3A0.59,0.59,0,0,1,302,29.2Zm-0.41,1.1a0.37,0.37,0,0,1-.15.12h-2.28a0.37,0.37,0,0,1-.09-0.07,0.86,0.86,0,0,1,.27-0.13l2.08,0A0.43,0.43,0,0,1,301.55,30.31Zm-2.73-.53a2,2,0,0,1-.12-0.55,0.52,0.52,0,0,1,.71-0.51c0.5,0.17.5,0.17,0.81-.24a0.26,0.26,0,0,1,.48.06,0.37,0.37,0,0,0,.37.33l0,0a1,1,0,0,1,0,.88,0.51,0.51,0,0,1-.59.12,0.27,0.27,0,0,1-.09-0.19c0-.25,0-0.5-0.05-0.75h-0.07c0,0.19,0,.39,0,0.58s0.09,0.34-.15.39a0.55,0.55,0,0,1-.69-0.18l0.73-.1,0-.07L299.29,29l-0.18.66,0.29,0.28C299,30.15,298.93,30.12,298.82,29.78Zm-1,3.59h0.54l-0.17.63H298Zm-1.48,1.12a0.93,0.93,0,0,1-.92-0.8,2.88,2.88,0,0,1-.05-0.84,0.82,0.82,0,0,1,.59-0.71c0,0.27,0,.51,0,0.74a1.21,1.21,0,0,0,1.17,1.22c0.46,0,.92.05,1.37,0.12a5.09,5.09,0,0,1,.92.25,0.3,0.3,0,0,1,.17.48c-0.11.2-.24,0.4-0.37,0.62a0.69,0.69,0,0,1-.11-0.14,1.25,1.25,0,0,0-1.22-.83C297.33,34.56,296.81,34.54,296.3,34.49Zm2.07-.52a0.75,0.75,0,0,1,.81-0.77,0.85,0.85,0,0,1,.41,1.12Zm0.56,1.67-0.56.11-0.07-.89A0.76,0.76,0,0,1,298.93,35.64ZM298,34.7l0.11,0,0.08,0.92-0.07.05a1.13,1.13,0,0,1-.4-0.28A3.27,3.27,0,0,1,298,34.7Zm-0.31,1.94c0.76,0,1.52,0,2.28-.13a3,3,0,0,0,1.07-.38,0.92,0.92,0,0,0,.38-1.22c-0.24,1.16-.42,1.35-1.61,1.45-0.79.06-1.59,0-2.42,0l0.08-.77,0.3,0.11a1.37,1.37,0,0,0,2-1.38,4,4,0,0,0,0-.67,0.65,0.65,0,0,0-.82-0.59l-0.92.11a0.4,0.4,0,0,1-.52-0.34,1.85,1.85,0,0,1-.06-0.53c0-.55.15-0.75,0.66-0.73a0.75,0.75,0,0,0,.17-0.05l-0.23-.11a0.43,0.43,0,0,1-.16-0.14,0.37,0.37,0,0,1,.15-0.23,1.08,1.08,0,0,0,.91-0.36,0.47,0.47,0,0,1,.3-0.06H301c0.17,0,.33,0,0.23.31l1.14-.42,0,0.06a1.33,1.33,0,0,0-.64,1l-0.28.09v0l0.5,0.07c-0.16-.65.34-0.82,0.74-1.11a1.58,1.58,0,0,1-.38,1.54,1.36,1.36,0,0,0,.68-1.23,2.58,2.58,0,0,1,2.2,1.06,5,5,0,0,1,.27.43,1.57,1.57,0,0,0,1,.89,1.19,1.19,0,0,1-.72.7,0.41,0.41,0,0,1-.62-0.24c-0.15-.29-0.27-0.6-0.43-0.89a1.83,1.83,0,0,0-1.57-.94c0.23,0.78.14,1.63,0.88,2.17a1.83,1.83,0,0,1-1.24.64c0.05,0.5.44,0.74,1.4,0.88-0.12.35-.28,0.42-1.37,0.62a1.39,1.39,0,0,0,1.14.95,1.21,1.21,0,0,1-1.6.31,4.62,4.62,0,0,0-.42-0.29,0.62,0.62,0,0,0-.43,0,3.25,3.25,0,0,1-1.54.26c-0.58,0-1.17,0-1.75,0a1.76,1.76,0,0,0-2,1.35,1.43,1.43,0,0,1,.37-1.73A1.66,1.66,0,0,1,297.7,36.64Zm-2.16-.35a1.87,1.87,0,0,0,1.65-.07,0.28,0.28,0,0,1-.14.41,7.56,7.56,0,0,0-.79.65,0.81,0.81,0,0,1-.19.15,8.24,8.24,0,0,0-1,.39,6.87,6.87,0,0,0-.84.65c-0.27-.45-0.19-0.72.44-1.4l-0.28-.21a0.34,0.34,0,0,1-.1-0.53,0.8,0.8,0,0,0,0-1c-0.16-.28-0.1-0.36.21-0.46l0.27-.08A1.65,1.65,0,0,0,295.54,36.29Zm-0.84-1.91c0,0.34-.06.37-0.43,0.31A11.52,11.52,0,0,0,294,33a11.23,11.23,0,0,0-.66-1.52,0.27,0.27,0,0,1,.47,0A4.42,4.42,0,0,1,294.7,34.38ZM291.81,32l-2.29.94c-0.17.07-.33,0.12-0.42-0.15l4.65-2.1L294,31.09Zm3.18-1.4a1.9,1.9,0,0,1,1.59-.16,0.85,0.85,0,0,1,.36.85A3.36,3.36,0,0,0,295,30.56Zm2.35-.16a4.83,4.83,0,0,0-2.29-.16,0.28,0.28,0,0,1-.37-0.26l1.66-.31A0.84,0.84,0,0,1,297.34,30.4Zm0.14-1-2.87.38v0c0.12-.06.23-0.12,0.36-0.16,0.49-.18,1-0.37,1.48-0.53A0.84,0.84,0,0,1,297.49,29.41ZM297,27.81a0.59,0.59,0,0,1,.16.19,0.79,0.79,0,0,1-.5.79l-2,.74a0.28,0.28,0,0,1-.13,0,0.45,0.45,0,0,1-.23-0.11,0.24,0.24,0,0,1,.07-0.2l1.82-1.43A0.66,0.66,0,0,1,297,27.81Zm-1-1a0.78,0.78,0,0,1-.08.9,8,8,0,0,1-1.76,1.37Zm-0.95-.33a0.82,0.82,0,0,1,.1,1.23c-0.3.37-.64,0.71-1,1.06a1.16,1.16,0,0,1-.21.14l-0.07,0a0.89,0.89,0,0,1,.09-0.32A4.83,4.83,0,0,0,295.1,26.5Zm-1.31,1.64a2.12,2.12,0,0,0,.31-1.73c0.65,0.23.79,0.59,0.47,1.11-0.19.3-.41,0.58-0.62,0.87a1,1,0,0,1-.15.14l-0.07,0A1.2,1.2,0,0,1,293.8,28.14Zm-0.56,0a0.93,0.93,0,0,1,.25.22c0.45,0.78.89,1.57,1.32,2.36a0.33,0.33,0,0,1-.1.49,0.34,0.34,0,0,1-.49-0.09L294.14,31c-0.43-.75-0.86-1.5-1.27-2.25A0.38,0.38,0,0,1,293.24,28.12Zm-1.95,1.59c0.47-.28.95-0.54,1.45-0.82L293,29.38l-1.91.94a0.25,0.25,0,0,1-.21,0,0.31,0.31,0,0,1,0-.25A1.56,1.56,0,0,1,291.29,29.71Zm0-6.73a0.77,0.77,0,0,1,.77.77,0.77,0.77,0,0,1-1.54,0A0.77,0.77,0,0,1,291.26,23Zm-1.19-.78a0.61,0.61,0,0,1,.6.59,0.59,0.59,0,0,1-.59.6,0.57,0.57,0,0,1-.59-0.58A0.59,0.59,0,0,1,290.07,22.2Zm-1-.68a0.53,0.53,0,1,1,0,1.06,0.56,0.56,0,0,1-.54-0.52A0.55,0.55,0,0,1,289.06,21.52ZM288,21.17a0.47,0.47,0,0,1,.49.44,0.49,0.49,0,0,1-.47.47,0.47,0.47,0,0,1-.46-0.45A0.44,0.44,0,0,1,288,21.17Zm-1-.13,0.23-.29L287.39,21a0.24,0.24,0,0,1,0,.4,0.48,0.48,0,0,1-.39,0C286.79,21.36,286.84,21.18,286.95,21Zm-0.38-.12c0.13,0.11.11,0.19,0,.29s-0.3.17-.55-0.16C286.26,20.74,286.33,20.73,286.57,20.93Zm-0.81.58c0-.25,0-0.24.27-0.09a0.55,0.55,0,0,0,.34.09,1.21,1.21,0,0,1,1.13.44,1.24,1.24,0,0,0,.53.25,0.89,0.89,0,0,0,.33,0,0.84,0.84,0,0,0,1,.56,0.83,0.83,0,0,0,.88.83,0.26,0.26,0,0,1,.14.19,1.05,1.05,0,0,0,.36.71c0.15,0.12.11,0.24,0,.37l-0.75-.57a0.49,0.49,0,0,1-.75-0.07c-0.09-.22-0.16-0.45-0.26-0.72l1,0.77c-0.08-.1-0.16-0.2-0.25-0.29l-1.24-1.22a0.42,0.42,0,0,0-.25-0.13l0.32,0.53a1.87,1.87,0,0,1,.54,1.23,0.8,0.8,0,0,1-.16.41,0.6,0.6,0,0,0-.7-0.35,1,1,0,0,0,.32-1.28l-0.81-.44-0.05.07,0-.25a0.48,0.48,0,0,0-.44-0.47,0.58,0.58,0,0,1-.46-0.25,0.68,0.68,0,0,0-.32-0.15l-0.48-.17a0.75,0.75,0,0,1,.1.29,0.71,0.71,0,0,1-.15.24c-0.23-.11-0.3-0.24-0.13-0.43A0.22,0.22,0,0,0,285.76,21.5Zm1,5.77-0.51.1V25.94l0.6,0.14c0.33,0.06.47-.06,0.44-0.39s-0.09-.69-0.14-1h1.47c-0.08.41-.17,0.81-0.24,1.22s0,0.39.34,0.38l0.67,0c0,0.42-.07.83-0.12,1.23a0.33,0.33,0,0,1-.26.1,6.07,6.07,0,0,1-.65-0.15l-0.07.91-1.2-.11c0-.16.06-0.29,0.1-0.42C287.25,27.32,287.15,27.21,286.72,27.27Zm-1-3.36c-0.18-.48-0.36-1-0.57-1.51a2.79,2.79,0,0,1,1.27,1.79A0.45,0.45,0,0,1,285.67,23.91ZM287,22.18a0.41,0.41,0,1,1-.4.42A0.4,0.4,0,0,1,287,22.18Zm-0.85-.08c0.18-.33.22-0.34,0.56-0.06C286.42,22.37,286.41,22.37,286.16,22.1ZM287.75,23a0.67,0.67,0,0,1,.69.66,0.69,0.69,0,0,1-.67.69,0.7,0.7,0,0,1-.68-0.69A0.67,0.67,0,0,1,287.75,23Zm-2.39-2.14a0.29,0.29,0,0,1,.28,0c0.17,0.2-.05.3-0.15,0.46C285.36,21.15,285.14,21,285.35,20.83Zm-0.3,1.2,0.11-.08c-0.05-.16-0.27-0.33,0-0.48a0.2,0.2,0,0,1,.25.29,2.83,2.83,0,0,1-.18.24l0.32,0.07a1.33,1.33,0,0,1,1,.74,2.44,2.44,0,0,0,.49.48,0.94,0.94,0,0,0,.35,1.08l-0.35.07-0.08.35h-0.07c-0.16-.34-0.34-0.68-0.48-1a3,3,0,0,0-1.22-1.51c-0.11-.07-0.24-0.12-0.36-0.17l0,0.05c0.11,0.21.23,0.42,0.32,0.64a10.84,10.84,0,0,1,.47,1.35c0.13,0.54-.1.75-0.69,0.68V24.18l-0.5,0,0.14-.18a0.83,0.83,0,0,0,.17-0.89,5.6,5.6,0,0,0-.26-0.65,0.38,0.38,0,0,1,.14-0.59,1.67,1.67,0,0,0,.21-0.17Zm-1.66-.22-0.31-.25a1.38,1.38,0,0,1,1.53,0l-0.28.25C283.82,21.48,283.81,21.48,283.4,21.81Zm0.73,0.25H283.6a0.25,0.25,0,0,1,.24-0.35C284,21.7,284.13,21.84,284.13,22.06Zm-0.32.13a0.42,0.42,0,0,1,.47.33h-0.82A0.34,0.34,0,0,1,283.81,22.2Zm0.05,0.46a0.7,0.7,0,0,1,.68.72,0.71,0.71,0,0,1-.69.71,0.73,0.73,0,0,1-.7-0.74A0.7,0.7,0,0,1,283.86,22.66Zm0.53-2.58,0.4,0.52C284.32,20.65,284.24,20.54,284.39,20.08Zm-0.85.21c0-.31,0-0.62,0-1l-0.52,0V18.7l0.49,0,0.07-.58h0.56v0.55l0.55,0v0.65h-0.5c0,0.42,0,.83,0,1.22a0.57,0.57,0,0,0,.32.26c0.32,0.15.33,0.16,0.17,0.52a2.16,2.16,0,0,0-1.65,0c-0.21-.34-0.2-0.4.17-0.53A0.45,0.45,0,0,0,283.54,20.29Zm-0.23-.22c0.14,0.46.1,0.52-.41,0.56ZM282.9,21.6l0.35,0.28a0.37,0.37,0,0,1,.13.47c-0.08.2-.15,0.41-0.24,0.6a0.84,0.84,0,0,0,.12,1,0.54,0.54,0,0,1,.06.09,0.17,0.17,0,0,1,0,.05l-0.42,0v0.6c-0.55.16-.87-0.11-0.71-0.63s0.46-1.19.69-1.78a0.82,0.82,0,0,0,.08-0.26,2.26,2.26,0,0,0-1.36,1.08c-0.28.52-.5,1.07-0.77,1.68-0.09-.27,0-0.57-0.45-0.47a1,1,0,0,0,.29-1.18,0.91,0.91,0,0,0,.64-0.62,1.61,1.61,0,0,1,.55-0.47c-0.1-.18-0.31-0.38,0-0.53,0.22,0.11.25,0.26,0,.5C282.34,22,282.75,22.12,282.9,21.6Zm-1,2.48a0.39,0.39,0,0,1-.26.13,1.92,1.92,0,0,1-.36,0,2.85,2.85,0,0,1,1.19-1.78l0.06,0C282.37,23,282.17,23.56,281.94,24.08Zm-1.35-.42a0.67,0.67,0,1,1-1.35,0A0.67,0.67,0,1,1,280.59,23.66Zm-0.35-1.08a0.41,0.41,0,0,1,.42-0.4,0.4,0.4,0,0,1,.42.4,0.4,0.4,0,0,1-.4.42A0.43,0.43,0,0,1,280.25,22.58Zm2.21-.62c-0.25-.3-0.25-0.32,0-0.52C282.74,21.63,282.74,21.65,282.46,22Zm-0.24-1.31c0.12,0.17.33,0.29,0.14,0.49a0.28,0.28,0,0,1-.27,0C281.88,20.9,282.13,20.81,282.23,20.64Zm-1.63.3a0.74,0.74,0,0,1,.3.26,0.73,0.73,0,0,1-.27.28,1.2,1.2,0,0,1-.44-0.17V21.16A1.19,1.19,0,0,1,280.6,20.94Zm-0.92.23a0.43,0.43,0,0,1,.47.44,0.45,0.45,0,0,1-.44.46,0.47,0.47,0,0,1-.48-0.45A0.45,0.45,0,0,1,279.68,21.17Zm0.16,1a0.7,0.7,0,0,0,.3-0.19c0.28-.19.55-0.38,0.84-0.56a0.25,0.25,0,0,1,.18,0,0.52,0.52,0,0,0,.62-0.12,0.52,0.52,0,0,1,.24-0.05l0,0.11-0.7.31c0,0.17.35,0.29,0.11,0.52a0.25,0.25,0,0,1-.24,0c-0.28-.19,0-0.35.06-0.53a0.2,0.2,0,0,0-.09,0,3,3,0,0,1-.83.45,1.58,1.58,0,0,0-.37.64,0.86,0.86,0,0,0-.85.58,0.9,0.9,0,0,0,.41,1c-0.25.09-.59-0.06-0.66,0.31a0.28,0.28,0,0,1-.19-0.43c0.15-.39.32-0.78,0.49-1.16a4.79,4.79,0,0,1,.32-0.51l-0.07-.06-0.67.72a5,5,0,0,1-.32,1,1.18,1.18,0,0,1-.6.12l0-.07,0.81-.94-0.93.85L277,24.9l-0.18-.32a1,1,0,0,0,.5-1c0.81-.13.87-0.18,1-0.78a1.58,1.58,0,0,0,.68-0.23A0.88,0.88,0,0,1,279.84,22.18Zm-1.37,6.21-0.13.46-0.06,0a1,1,0,0,1-.09-0.32A0.76,0.76,0,0,1,278.47,28.39Zm0.17-6.87a0.53,0.53,0,0,1,.51.53,0.53,0.53,0,0,1-.54.53A0.53,0.53,0,1,1,278.64,21.52Zm-1,.72a0.58,0.58,0,1,1-.58.56A0.58,0.58,0,0,1,277.61,22.24Zm-1.17.76a0.74,0.74,0,0,1,.75.74,0.74,0.74,0,1,1-1.47,0A0.72,0.72,0,0,1,276.44,23Zm-0.68,1.61c0.34,0.08.62,0.13,0.91,0.21a0.31,0.31,0,0,1,.09.23c0,0.35,0,.7,0,1s0.13,0.38.45,0.29l0.16-.05a0.22,0.22,0,0,1,.34.2c0.06,0.35.12,0.7,0.18,1.08h-0.55c-0.27,0-.35.11-0.26,0.36,0.14,0.43.29,0.85,0.46,1.27s0.35,0.33.55,0.08a0.85,0.85,0,0,0,.09-0.14c0.1-.19.21-0.2,0.38-0.06a3.48,3.48,0,0,0,.48.28,2.79,2.79,0,0,0,.25-0.57,8.82,8.82,0,0,0,.14-1.12c0-.32-0.16-0.45-0.44-0.3-0.58.31-.58,0.15-0.63-0.4,0-.25,0-0.5-0.07-0.8l0.68,0c0.31,0,.38-0.08.33-0.4s-0.14-.76-0.23-1.19l0.72,0h0.75c0,0.3-.09.62-0.14,0.94s0.07,0.6.52,0.5l0.51-.11v1.41L281,27.27c-0.44-.07-0.54,0-0.43.47,0,0.13.07,0.27,0.1,0.43l-0.55.06a0.66,0.66,0,0,0-.33.06,0.78,0.78,0,0,0-.3.42c0,0.2.21,0.24,0.38,0.24,0.33,0,.65,0,1-0.07a1.1,1.1,0,0,0,.24.28,0.37,0.37,0,0,0,.48-0.18c0.31-.34.35-0.34,0.63,0a0.48,0.48,0,0,0,.36.19,0.5,0.5,0,0,0,.3-0.31c0.12-.45.2-0.92,0.29-1.38,0-.26,0-0.36-0.31-0.31l-0.82.16V25.9l0.74,0c0.36,0,.46-0.09.43-0.45s-0.1-.71-0.15-1.09h1.63l-0.1.77s0,0.09,0,.14c-0.08.56,0,.65,0.57,0.62l0.59,0v1.44l-0.79-.14c-0.31,0-.4.05-0.35,0.36l0.1,0.55c-0.42,0-.82,0-1.22,0a0.4,0.4,0,0,0-.42.4,0.36,0.36,0,0,0,.44.29,8.13,8.13,0,0,0,.82,0,2.86,2.86,0,0,0,.5-0.13,2.51,2.51,0,0,0,.1.27c0.15,0.3.33,0.33,0.57,0.1s0.41-.29.76,0,0.34,0.17.54-.05a0.39,0.39,0,0,1,.27-0.11c0.31,0,.62.06,0.93,0.07a1.74,1.74,0,0,0,.39-0.08l0,0,0.24,0.48a3.11,3.11,0,0,0,.45-0.24c0.23-.18.28-0.17,0.46,0.07a0.53,0.53,0,0,0,.33.24,0.54,0.54,0,0,0,.31-0.31c0.16-.39.29-0.79,0.42-1.19s0-.34-0.26-0.35h-0.52c0-.36.08-0.68,0.12-1a0.27,0.27,0,0,1,.37-0.26c0.63,0.09.63,0.09,0.63-.54q0-.44,0-0.87a0.58,0.58,0,0,1,0-.09l1-.22a21.79,21.79,0,0,0-1,5.17,48.4,48.4,0,0,0-14.14,0A21.86,21.86,0,0,0,275.76,24.61Zm1,5.38a0.61,0.61,0,0,1,.1.28,0.59,0.59,0,0,1-.27,0c-0.62-.3-1.23-0.61-1.87-0.93l0.28-.51C275.56,29.25,276.14,29.61,276.71,30Zm-3.14-3.61c-0.25.8,0.26,1.41,0.42,2.2a1.06,1.06,0,0,1-.26-0.17c-0.21-.3-0.42-0.6-0.61-0.91C272.8,27,272.92,26.65,273.57,26.38Zm-1,0a3.63,3.63,0,0,0,1,2.1c0.17,0.19.17,0.19,0,.46-0.41-.49-0.83-0.95-1.21-1.44A0.86,0.86,0,0,1,272.61,26.41Zm-1,.42,1.79,2.27,0,0-0.69-.55-0.81-.66A0.89,0.89,0,0,1,271.64,26.83Zm-1.16,1.37a0.53,0.53,0,0,1,.69-0.51,1.13,1.13,0,0,1,.37.19q0.86,0.67,1.69,1.35a0.66,0.66,0,0,1,.11.24,0.62,0.62,0,0,1-.29.07c-0.71-.26-1.42-0.53-2.13-0.8A0.63,0.63,0,0,1,270.49,28.2Zm-0.27,1.22A0.7,0.7,0,0,1,271,29a17.58,17.58,0,0,1,2,.77Zm2.43,1.18a0.55,0.55,0,0,1-.24,0,1.9,1.9,0,0,0-1.44.5,0.87,0.87,0,0,1-.14.08,0.63,0.63,0,0,1,.61-0.89c0.39,0,.78,0,1.18.05a0.42,0.42,0,0,1,.15.08A0.4,0.4,0,0,1,272.64,30.6Zm0-.35a3.58,3.58,0,0,0-2.33.18,0.81,0.81,0,0,1,1-.74c0.56,0.08,1.11.19,1.68,0.29A0.24,0.24,0,0,1,272.67,30.25Zm0.39,1a1.54,1.54,0,0,1-.29-0.28,3.36,3.36,0,0,1,.14-0.34l1.23-2.18,0.09-.14a0.34,0.34,0,0,1,.5-0.09,0.31,0.31,0,0,1,.13.46c-0.45.8-.9,1.61-1.36,2.4A0.32,0.32,0,0,1,273.06,31.22Zm0.62-.13,0.26-.44,4.65,2.1c-0.07.25-.22,0.24-0.4,0.17l-1.8-.73a2.15,2.15,0,0,0-.32-0.07L278,33l0,0.08c-0.37,0-.73,0-1.1,0a0.44,0.44,0,0,1-.2-0.18c-0.1-.11-0.17-0.25-0.28-0.35a0.68,0.68,0,0,0-1,0l-0.21.19c0.29-.59.39-0.66,0.85-0.56a1.78,1.78,0,0,0-.25-0.16L274,31.22Zm0,0.61c0.28-.33.36-0.35,0.76-0.08a2.31,2.31,0,0,0-.92,2.57,1.19,1.19,0,0,1,.61-0.07,2.18,2.18,0,0,1,.33.81,0.38,0.38,0,0,1-.17.26,0.41,0.41,0,0,1-.23-0.06,3.56,3.56,0,0,0-.44-0.16,3.44,3.44,0,0,0-.49,0A3.71,3.71,0,0,1,273.71,31.7ZM273,35.42a0.77,0.77,0,0,1,.85-0.19,0.5,0.5,0,0,1,.22.61,0.27,0.27,0,0,1-.37.2,0.49,0.49,0,0,0-.64.17A0.53,0.53,0,0,1,273,35.42Zm-3,.83a6.74,6.74,0,0,0,.68.17,1.3,1.3,0,0,0,1.63-1.26,0.39,0.39,0,0,1,.12-0.26,1,1,0,0,1,.47.1,0.45,0.45,0,0,1,0,.34,0.73,0.73,0,0,0,0,1c0.2,0.27.16,0.37-.12,0.58l-0.26.2a1,1,0,0,1,.41,1.5,1.28,1.28,0,0,0-.11-0.22,2.5,2.5,0,0,0-1.43-.88,1.67,1.67,0,0,1-.5-0.31c-0.24-.17-0.46-0.38-0.71-0.53S269.92,36.44,270,36.25Zm-0.54-.91a1.13,1.13,0,0,1-.37.39l-0.1-.05,0.06-.94A0.59,0.59,0,0,1,269.5,35.34Zm0.42-1.21a1.37,1.37,0,0,0,1.37-1.79c0-.06,0-0.13,0-0.19l0.05,0a3.07,3.07,0,0,1,.44.44,1.3,1.3,0,0,1-.79,1.94,10.56,10.56,0,0,1-1.4.11,1.41,1.41,0,0,0-1.49.92,0.56,0.56,0,0,1-.17-0.13,1.56,1.56,0,0,1-.28-0.64,0.52,0.52,0,0,1,.54-0.41C268.77,34.25,269.35,34.19,269.92,34.12Zm-1,.74c0,0.23,0,.45-0.07.67s-0.16.19-.32,0.17a0.21,0.21,0,0,1-.22-0.27A0.69,0.69,0,0,1,268.95,34.87Zm-1.33-.53a1,1,0,0,1,.12-0.94,1.13,1.13,0,0,1,.79-0.08,0.61,0.61,0,0,1,.36.65Zm1.55-.34h-0.08l-0.18-.62h0.56Zm-3-5.1a4.36,4.36,0,0,0,.35-0.36c0.15-.19.35-0.23,0.49,0a0.56,0.56,0,0,0,.81.22,0.53,0.53,0,0,1,.67.27,1.08,1.08,0,0,1-.2,1,0.69,0.69,0,0,1-.36,0,0.37,0.37,0,0,1,0-.19,1.59,1.59,0,0,1,.33-0.1A0.71,0.71,0,0,0,267.9,29l-0.8.61,0.6,0.07c-0.08.28-.14,0.29-0.75,0.21v-1h-0.1L266.77,30a1.16,1.16,0,0,1-.57-0.18,2.8,2.8,0,0,1-.14-0.84A0.28,0.28,0,0,1,266.16,28.89Zm2,1.45,0,0.07-0.15,0h-2.14a0.61,0.61,0,0,1-.22-0.1,0.55,0.55,0,0,1,.22-0.15q1,0,2,0A1.07,1.07,0,0,1,268.19,30.33Zm-2.92-1c-0.06-.35.1-0.53,0.57-0.68l0.1,1.31A0.59,0.59,0,0,1,265.27,29.37ZM261.49,34a1.17,1.17,0,0,1-.8-0.71,2,2,0,0,0,1.18-1.16A2.49,2.49,0,0,1,263.73,31c0.35,0,.41,0,0.49.33a1.19,1.19,0,0,0,.56.9l0.1,0a1.63,1.63,0,0,1-.43-1.56c0.62,0.23.85,0.56,0.68,1l0.51,0.06-0.79-1.21,1.1,0.4,0-.27c0.18,0,.35,0,0.52,0l1.52,0a0.61,0.61,0,0,1,.57.29,0.61,0.61,0,0,0,.39.1c0.22,0,.43,0,0.42.34l-0.36.12v0.06l0.29,0.05a0.39,0.39,0,0,1,.43.37,4.47,4.47,0,0,1,0,.88,0.41,0.41,0,0,1-.5.35l-1.1-.05a0.54,0.54,0,0,0-.67.6,6.27,6.27,0,0,0,0,1,1.27,1.27,0,0,0,1.7,1.14c0.2-.06.39-0.14,0.6-0.22l0.12,0.8h-1.67c-0.35,0-.7,0-1-0.05a1.37,1.37,0,0,1-1.36-1.22,0.68,0.68,0,0,0,.15.82,1.92,1.92,0,0,0,1.31.58c0.76,0.06,1.52.08,2.28,0.12A1.56,1.56,0,0,1,271,38.58a0.88,0.88,0,0,1-.09.23,0.21,0.21,0,0,1-.06-0.05,1.76,1.76,0,0,0-2-1.34c-0.73,0-1.47,0-2.2,0a7.89,7.89,0,0,1-1-.23,1.56,1.56,0,0,0-.45,0,0.26,0.26,0,0,0-.09.06,1.4,1.4,0,0,1-2-.06,1.58,1.58,0,0,0,1.24-1,1.54,1.54,0,0,1-1.43-.6,1.55,1.55,0,0,0,1.47-.81c-0.37-.17-0.73-0.34-1.09-0.52a1,1,0,0,1-.22-0.24c0.87-.48.59-1.41,0.94-2.14a1.78,1.78,0,0,0-1.47.75,7.93,7.93,0,0,0-.52,1A0.41,0.41,0,0,1,261.49,34Zm0.05,1.81a1.38,1.38,0,0,1-.9-0.65l0.3-.13a2.12,2.12,0,0,0,1.31-1.37,3.8,3.8,0,0,1,.48-0.94,1.56,1.56,0,0,1,1-.59c-0.16.72,0,1.5-.87,1.87l0.25,0.39a1.5,1.5,0,0,0-1,1.11A0.4,0.4,0,0,1,261.55,35.84Zm-0.36,3.31a1.11,1.11,0,0,1-.8-1.14,2.42,2.42,0,0,0,2.38-1.48c-0.16.19-.31,0.38-0.47,0.56a0.82,0.82,0,0,1-.88.3,1,1,0,0,1-.83-0.73l0.28,0a1.49,1.49,0,0,0,1.37-1c0.09-.21.17-0.42,0.27-0.62a0.8,0.8,0,0,1,1-.41c0.21,0.06.42,0.15,0.64,0.22a0.64,0.64,0,0,1-.64.43c-0.26.06-.52,0.09-0.77,0.14,0,0.49.29,0.67,1.39,1a2.16,2.16,0,0,1-1.36.71l0.66,0.51c-0.67.51-1.27,1-1.88,1.43A0.51,0.51,0,0,1,261.19,39.15ZM260.9,40.9a1.34,1.34,0,0,1-1-1.14,1.22,1.22,0,0,1,.22,0,1.85,1.85,0,0,0,1.55-.49c0.58-.46,1.17-0.9,1.77-1.34a0.48,0.48,0,0,1,.33-0.11,1.76,1.76,0,0,0,1.48-.36l0.09,0.08a7.56,7.56,0,0,1-.73.86,7.4,7.4,0,0,1-1,.72,8.44,8.44,0,0,0-2,1.61A0.54,0.54,0,0,1,260.9,40.9Zm0.42,1.73c-0.22,0-.45,0-0.67-0.08a1,1,0,0,1-.81-1,5,5,0,0,0,.83-0.09,1.56,1.56,0,0,0,.71-0.35A11.34,11.34,0,0,1,264.1,39a5.93,5.93,0,0,0,.83-0.63,0.25,0.25,0,0,1,.35,0,2.57,2.57,0,0,0,.44.25,0.22,0.22,0,0,1,.1.39,3.93,3.93,0,0,1-.53.53,2.59,2.59,0,0,1-.52.29,0.79,0.79,0,0,1-1,0,2,2,0,0,1-.81,1.3c-0.35.4-.66,0.84-1,1.27A0.56,0.56,0,0,1,261.31,42.63Zm-1.07,1.29c-0.06-.07-0.11-0.15-0.2-0.28a2.26,2.26,0,0,0,2-1.15c0.39-.55.84-1.05,1.26-1.58a1,1,0,0,1,.13-0.11c0.21,0.27.42,0.53,0.61,0.81a0.27,0.27,0,0,1,0,.23c-0.34.63-.66,1.26-1,1.87A1.8,1.8,0,0,1,260.25,43.92Zm-3.6-8.19a1.85,1.85,0,0,1,.77,2,3.51,3.51,0,0,1-.84,1.75l-0.33.38a1.93,1.93,0,0,0-.61,1.43,0.81,0.81,0,0,1-.67-1.15c0.28-.71.59-1.42,0.88-2.13,0-.11.07-0.22,0.11-0.33l-0.07,0c0,0.09-.09.17-0.13,0.26-0.32.68-.63,1.36-0.95,2a0.36,0.36,0,0,1-.21.2,0.47,0.47,0,0,1-.3-0.21,0.58,0.58,0,0,1,0-.4c0.23-.63.49-1.26,0.73-1.89l0.12-.29-0.09,0-1,2c-0.61-.59-0.15-1.15-0.05-1.73l-0.15.26-0.17.3a1.68,1.68,0,0,1,.47-2.26A2.41,2.41,0,0,1,256.65,35.73Zm-0.58-.45c-0.31,0-.62,0-0.92,0a0.6,0.6,0,0,1-.22-0.13,0.57,0.57,0,0,1,.17-0.18,2.53,2.53,0,0,1,.57-0.12C256,34.81,256.07,34.93,256.07,35.28ZM255.32,60.8a0.88,0.88,0,0,1-1-.25,0.67,0.67,0,0,1,0-.88c0.17-.22.36-0.43,0.56-0.67l1.25,1,0.15,0.14C256,60.38,255.66,60.61,255.32,60.8Zm1.81-2.13a0.53,0.53,0,0,0-.22.61,0.65,0.65,0,0,1-.38.83L255,58.81a0.9,0.9,0,0,1,1.11-.39,0.57,0.57,0,0,0,.67-0.08,0.45,0.45,0,0,1,.18-0.07c0.15,0,.3-0.09.39,0.09S257.24,58.59,257.13,58.67Zm0.52,0.11c-0.06-.17-0.13-0.32-0.18-0.48s0-.4.29-0.39a3.33,3.33,0,0,1,.36.06A0.78,0.78,0,0,1,257.65,58.78Zm2.14,0h-0.11l-0.32-.6,0.56-.22Zm0.31-1.13a0.86,0.86,0,0,0-.56-0.86,2.82,2.82,0,0,1,.22.37,2,2,0,0,1,.13.48,0.21,0.21,0,0,1-.22.25,1.16,1.16,0,0,0-.49.24,0.61,0.61,0,0,1-.78,0,0.68,0.68,0,0,1,0-.49,0.72,0.72,0,0,0-.33-1c0.07,0.17.13,0.29,0.18,0.41a0.42,0.42,0,0,1-.36.65,2.22,2.22,0,0,0-.46.13,0.61,0.61,0,0,1-.72-0.06,0.66,0.66,0,0,1,0-.79,4.43,4.43,0,0,1,.56-0.5,3.55,3.55,0,0,1-.52-1.67,0.46,0.46,0,0,0-.24-0.31,1,1,0,0,0-1.17.09l-0.14.08a0.49,0.49,0,0,1,.12-0.79,1.85,1.85,0,0,1,1.08-.26,1.78,1.78,0,0,0,.34,0,1.49,1.49,0,0,0-1.58.06c-0.17-.49,0-0.79.44-0.82s0.9,0,1.38,0c-0.24-.35-0.46-0.35-1.67-0.11a0.45,0.45,0,0,1,.3-0.76c0.41-.07.84-0.08,1.28-0.12a0.07,0.07,0,0,0,0,0,0.85,0.85,0,0,1,1.1-.78c0.39,0,.79,0,1.18,0a1.25,1.25,0,0,0,1.34-1.22,5.78,5.78,0,0,1,1-2.83c-0.21.06-.41,0.14-0.62,0.18a9.55,9.55,0,0,1-1.66.28,2.64,2.64,0,0,1-2.61-1.74,1.19,1.19,0,0,0-1.62-.89,0.52,0.52,0,0,1-.38-0.06,0.49,0.49,0,0,1,.13-0.61,0.76,0.76,0,0,1,.39-0.13c0.37,0,.74,0,1.1,0-0.24-.2-0.27-0.21-1.45-0.13a0.62,0.62,0,0,1,.66-0.83c0.4,0,.8.07,1.2,0.1,0.19-.6.34-1.22,0.58-1.81,0.35-.87.77-1.71,1.12-2.58a7,7,0,0,0,.48-3.86,1.72,1.72,0,0,0-1.68-1.58,1.05,1.05,0,0,0-1.27.94c-0.08.41-.22,0.5-0.63,0.39a0.3,0.3,0,0,1-.15-0.22,1.63,1.63,0,0,1,1.18-1.74,2.59,2.59,0,0,1,3.5,2.37,11.2,11.2,0,0,1-1,5c-0.33.79-.67,1.57-1,2.37a4.35,4.35,0,0,0-.27,2.57,2,2,0,0,0,2,1.63,2.78,2.78,0,0,0,2.8-1.46c0.48-.82.91-1.66,1.37-2.49a3.66,3.66,0,0,1,2.13-1.86,3.9,3.9,0,0,1,3.45.65,11.1,11.1,0,0,1,2.22,2.2,0.75,0.75,0,0,0,1,.32,1,1,0,0,1,.22-0.05,0.28,0.28,0,0,1,.4.26,1.49,1.49,0,0,0,.17.47c0.08,0.14.27,0.28,0.12,0.44a1.25,1.25,0,0,1-.54.29,3.44,3.44,0,0,1-.43,0c0.24,0.17.49,0.34,0.74,0.5a0.46,0.46,0,0,0,.19,0,1.58,1.58,0,0,1,.41,0c0.25,0,.28.18,0.15,0.4a0.88,0.88,0,0,0-.13.46c0,0.43-.06.53-0.49,0.46l-0.21,0c0.24,0.3.28,0.29,1,0a0.63,0.63,0,0,1-.08.29,0.55,0.55,0,0,0-.16.54c0,0.49-.18.63-0.63,0.45l-0.3-.12c0.34,0.58.8,0.23,1.22,0.24a7.58,7.58,0,0,1-.36.74,0.37,0.37,0,0,1-.3.09,1.72,1.72,0,0,1-1.53-1.57A3,3,0,0,0,271,45.54,5.8,5.8,0,0,0,268,44.09a19.27,19.27,0,0,0-2.05-.33,1.61,1.61,0,0,0-1.07.19l0.3,0.11c-0.25.6-.87,0.53-1.31,0.81l0.65-.05,0,0.1-1.33.69a1.81,1.81,0,0,0,.27,0,3,3,0,0,0,1.7-1.27A0.79,0.79,0,0,1,266,44a8.37,8.37,0,0,1,3.2.69l0.18,0.08,0.09,0.08-0.65.28-2,.79a2.12,2.12,0,0,0-.23.12h0l-0.25.06,0.17,0.28-0.87.53a0.63,0.63,0,0,0-.38.86,1.85,1.85,0,0,1-.84,1.91l-0.16,0c0-.56-0.1-1.1-0.1-1.63a1.24,1.24,0,0,1,.62-1c0.36-.25.74-0.48,1.12-0.71a0.88,0.88,0,0,0,.21-0.17,3.83,3.83,0,0,0-1.92,1.25,1.51,1.51,0,0,0-.2,1.22,7.69,7.69,0,0,1-.14,3,1.88,1.88,0,0,1-2,1.6l-0.37-.07A1.92,1.92,0,0,0,262.61,52a2.1,2.1,0,0,1-1.4,1,7.33,7.33,0,0,1-1.43.06,0.53,0.53,0,0,0-.6.38,3.09,3.09,0,0,0,.05,2.54,0.45,0.45,0,0,0,.69.26c0.24-.11.46-0.25,0.69-0.38a0.63,0.63,0,0,1,.85,0,0.89,0.89,0,0,1,.12,1.06,1,1,0,0,0-1.18-.45l0.45,0.12c0.46,0.12.54,0.29,0.32,0.7a2.55,2.55,0,0,0-.15.36,0.65,0.65,0,0,1-.51.44A0.32,0.32,0,0,1,260.09,57.68Zm1.64,0.38-0.07,0a2.86,2.86,0,0,1-.41-0.38,0.37,0.37,0,0,1,0-.3,0.28,0.28,0,0,1,.21-0.13,0.38,0.38,0,0,1,.16.23A4.85,4.85,0,0,1,261.74,58.06Zm-0.47,1.71c-0.55-.3-0.7-0.83-0.3-1.18a2.45,2.45,0,0,1,.65-0.29l0,0.06h0c0.68,0,.88.35,0.55,1,0,0.09-.11.17-0.17,0.26A0.47,0.47,0,0,1,261.27,59.77Zm1.05,0.68a0.32,0.32,0,0,1-.26-0.52q0.24-.55.51-1.09a0.3,0.3,0,0,1,.52-0.13,1,1,0,0,1,.44.74A1,1,0,0,1,262.32,60.44Zm1.38-.73,0.7,0.48,0,0.09-0.89-.09Zm2.7,6.1c-0.41-.3-0.84-0.58-1.23-0.91s-0.77-.71-1.15-1.08a0.28,0.28,0,0,1-.08-0.23c0.2-.57.41-1.13,0.63-1.73l1.68,1.55a1.07,1.07,0,0,1-.09.12,0.84,0.84,0,0,0-.2,1.09c0.16,0.37.34,0.74,0.51,1.12Zm1,1.61-1.36-3,0,0,2.42,1.81Zm2.16,1.28,0.85-1.36,2.45,1.17,0,0.07Zm7.24,0.89c1.08,0.13,2.17.23,3.24,0.41A1.78,1.78,0,0,1,281.52,72a3.74,3.74,0,0,0-2.17-1.78,4.92,4.92,0,0,0-3,.14l2,1.2-1.08.53c-1.16-1.81-3.11-2.4-5-3.24,0.48-.17,1.09.2,1.36-0.47L274,68.59A5.87,5.87,0,0,0,276.79,69.6Zm-2.95-1.82a27.6,27.6,0,0,1-7.32-4.48l0.69-.65A25.64,25.64,0,0,0,274.33,67Zm13.68-.38a26.86,26.86,0,0,1-4.86.31A23.12,23.12,0,0,1,267.76,62c-1.06-.91-2.09-1.86-3.14-2.79a1.36,1.36,0,0,0-.27-0.15l0.09-.13a1.45,1.45,0,0,0,1.15,0,0.18,0.18,0,0,1,.15,0,2.49,2.49,0,0,1,1.85.24,1,1,0,0,1,.48.28,1,1,0,0,0,0,.39,1.82,1.82,0,0,0,.69.32,0.39,0.39,0,0,1,.42.39,0.61,0.61,0,0,0,.51.49A0.73,0.73,0,0,0,270,61l0.45,0.32a1.41,1.41,0,0,0-.11.18,1.58,1.58,0,0,0-.06.2,1,1,0,0,0,.2,0,0.79,0.79,0,0,1,.65.31l0.12,0.22,0.26-.27c0.15,0.15.33,0.32,0.51,0.48a0.58,0.58,0,0,0,.22.09,0.61,0.61,0,0,1,.26.06,1.79,1.79,0,0,0,.85.43,20.56,20.56,0,0,0,6.25,2.08c1,0.17,2.08.26,3.13,0.33,0.69,0,1.4,0,2.1,0,0.16,0,.32,0,0.48.06a0.54,0.54,0,0,0,.2,0,0.49,0.49,0,0,1,.19-0.08,3.37,3.37,0,0,0,1.07-.13,3.12,3.12,0,0,1,.34,0,0.23,0.23,0,0,0,.16,0,1.24,1.24,0,0,1,1-.27,0.77,0.77,0,0,0,.55-0.14,0.94,0.94,0,0,1,.41,0,0.35,0.35,0,0,0,.24-0.07,0.82,0.82,0,0,1,.63-0.22,0.76,0.76,0,0,0,.81-0.19,0.85,0.85,0,0,1,.9-0.28,0.28,0.28,0,0,0,.24-0.12c0.11-.21.17-0.34,0.45-0.16s0.21-.09.2-0.24l1.18-.55a0.48,0.48,0,0,1,.27,0,0.59,0.59,0,0,0,.72-0.38,0.53,0.53,0,0,1,.63-0.28,0.31,0.31,0,0,0,.26-0.17c0.07-.22.1-0.42,0.4-0.22a0.2,0.2,0,0,0,.18-0.08,0.65,0.65,0,0,1,.34-0.45c0.25,0.18.29,0.16,0.34-.15a0.35,0.35,0,0,1,.4-0.24,0.93,0.93,0,0,0,.25,0l0-.26,0.38-.28,0.22,0.12a0.75,0.75,0,0,0,.1-0.21,0.32,0.32,0,0,1,.4-0.31,0.28,0.28,0,0,0,.22-0.07,0.52,0.52,0,0,0,0-.25l0.35-.29a0.61,0.61,0,0,0,.29.05,0.65,0.65,0,0,0,.09-0.3l0.71-.34a0.9,0.9,0,0,0,1.38-.16l0.63,0.65-0.13-.23a1.21,1.21,0,0,0,.53-0.25,0.62,0.62,0,0,1,.68-0.25,0.86,0.86,0,0,0,.77-0.32,0.62,0.62,0,0,1,.42-0.16,1.43,1.43,0,0,1,.63.14,3,3,0,0,1-.67.17,1,1,0,0,0-.92.63,1.1,1.1,0,0,1-.78.87l-0.5-.59a1.12,1.12,0,0,1-.14.17c-1.09.95-2.16,1.93-3.29,2.84A23.73,23.73,0,0,1,287.52,67.4Zm6.9,1.51c-0.62.26-1.25,0.51-1.87,0.78a6.75,6.75,0,0,0-2.67,2,0.34,0.34,0,0,1-.52.09c-0.2-.12-0.42-0.21-0.65-0.32a8.92,8.92,0,0,1,1.91-1.21,4.76,4.76,0,0,0-2.94-.22,3.61,3.61,0,0,0-2.29,1.81,1.66,1.66,0,0,1,.42-1.29,2.66,2.66,0,0,1,1.87-.87c0.81-.06,1.62-0.07,2.42-0.14a5.81,5.81,0,0,0,3.25-1.25c0.27,0.64.86,0.34,1.34,0.51Zm3-.16-3.29-.19,0-.06,2.48-1.15Zm-4.28-1-0.49-.81a26.1,26.1,0,0,0,7.23-4.21l0.62,0.69A27.37,27.37,0,0,1,293.16,67.73Zm6.45-.21-1.09-1.29L301,64.44l0.06,0Zm3.6-3.73a9.57,9.57,0,0,1-2.49,2h-0.11c0.17-.38.31-0.74,0.49-1.09a0.65,0.65,0,0,0-.1-0.89,1.44,1.44,0,0,1-.18-0.27l1.79-1.61c0.22,0.58.44,1.14,0.64,1.69A0.23,0.23,0,0,1,303.21,63.79Zm-0.41-3.49,0-.09,0.7-.5,0.24,0.47Zm1.85,0.17a1.05,1.05,0,0,1-1-1,0.94,0.94,0,0,1,.46-0.76,0.3,0.3,0,0,1,.47.12c0.2,0.4.4,0.81,0.57,1.22C305.26,60.26,305,60.47,304.66,60.48Zm1.73-1.23a1.17,1.17,0,0,1-.76.66,0.43,0.43,0,0,1-.38-0.15,5.06,5.06,0,0,1-.43-0.9,0.31,0.31,0,0,1,.24-0.41c0.16,0,.33-0.07.52-0.11a3,3,0,0,1,.49.14A0.59,0.59,0,0,1,306.38,59.25Zm1.18-.42h-0.12L307.28,58l0.57,0.15Zm2.8-2.4a0.39,0.39,0,0,1,0-.27c0.07-.34.14-0.68,0.22-1a0.72,0.72,0,0,1,1.22-.4L312.16,55l-0.1.31-0.35-.15a0.43,0.43,0,0,0-.64.36c0,0.26,0,.52-0.07.78s-0.08.41-.13,0.69C310.65,56.76,310.49,56.61,310.36,56.43Zm-0.81,2.34a0.64,0.64,0,0,1-.39-0.8c0.41-.11.51-0.07,0.66,0.32h0Zm1.1,1.34a0.64,0.64,0,0,1-.39-0.73A0.73,0.73,0,0,0,310,58.6a0.88,0.88,0,0,1-.16-0.31,0.57,0.57,0,0,1,.63.07,0.58,0.58,0,0,0,.61.07,0.86,0.86,0,0,1,1.12.4Zm2.21,0.45a0.91,0.91,0,0,1-1,.24c-0.33-.18-0.65-0.4-1-0.62L312.25,59c0.19,0.22.38,0.43,0.55,0.65A0.67,0.67,0,0,1,312.86,60.55Z" fill="#172936"/><path d="M273.52,34.2h0Z" fill="#172936"/><path d="M273.52,34.2h0Z" fill="#172936"/><path d="M309,41.87a6,6,0,0,1,.56,2.62,1.93,1.93,0,0,1-2,2,3.24,3.24,0,0,1-2.45-1,2.15,2.15,0,0,0-.24-0.17,2.72,2.72,0,0,0,2.37,1.39,2.16,2.16,0,0,0,2.44-2.21,4.75,4.75,0,0,0-.3-1.91c-0.29-.77-0.62-1.53-1-2.29a11.83,11.83,0,0,1-1.1-5,2.57,2.57,0,0,1,2.84-2.62,1.83,1.83,0,0,1,1.86,1.49c0.09,0.53,0,.71-0.51.63H311.4c0-.18-0.07-0.35-0.11-0.52a1,1,0,0,0-1.13-.85,2.3,2.3,0,0,0-.66.13,1.88,1.88,0,0,0-1.21,1.83,7.83,7.83,0,0,0,.64,3.71c0.48,1.16.94,2.33,1.39,3.5a5.22,5.22,0,0,1,.17.69l0.26,0A7,7,0,0,1,311.7,43a0.67,0.67,0,0,1,.67.87,1.64,1.64,0,0,0-1.47.16l0.54,0H312a0.55,0.55,0,0,1,.52.85c-0.33,0-.65-0.06-1-0.07a0.73,0.73,0,0,0-.7.35c-0.21.37-.37,0.77-0.54,1.16,0.17-.27.34-0.53,0.5-0.81a0.91,0.91,0,0,1,1.09-.54l0.88,0.12-0.08-.68-0.08-.64a0.92,0.92,0,0,0-1.15-.89l-0.82.12c-0.18-.56-0.33-1.12-0.54-1.64-0.37-.91-0.81-1.8-1.16-2.72a6.92,6.92,0,0,1-.49-3.56,1.7,1.7,0,0,1,1.38-1.58,1.06,1.06,0,0,1,1.31.65,1.3,1.3,0,0,1-.56,1.4,1.85,1.85,0,0,0-1,2A4.29,4.29,0,0,0,310.82,40a1.71,1.71,0,0,1,.58,1.51,0.87,0.87,0,0,0,1-.61,0.78,0.78,0,0,1,.12-0.34,2.84,2.84,0,0,0,.72-1,4.61,4.61,0,0,0,.74-2.4,0.64,0.64,0,0,0,0-.19,2.05,2.05,0,0,0-1.33-1.49,0.36,0.36,0,0,1-.21-0.19c-0.07-.39-0.12-0.79-0.18-1.19a1.67,1.67,0,0,0-.76-1.23,2.74,2.74,0,0,0-2.22-.34,2.64,2.64,0,0,0-2,2.61,8.78,8.78,0,0,0,.49,3.57C308.14,39.76,308.6,40.81,309,41.87ZM313.19,36a1.64,1.64,0,0,1,.38,2.2L313,36.92l-0.07,0L313,37.2c0.14,0.35.29,0.69,0.43,1a1,1,0,0,1-.21,1.09l-1-1.87-0.08,0c0.14,0.31.31,0.61,0.43,0.93a10.93,10.93,0,0,1,.4,1.22c0.08,0.33,0,.47-0.41.59l-1.16-2.51-0.07,0a3.37,3.37,0,0,0,.11.37c0.28,0.68.59,1.36,0.86,2.05a0.85,0.85,0,0,1-.66,1.15,2.48,2.48,0,0,0-.88-1.72,3.58,3.58,0,0,1-1-2.34,1.74,1.74,0,0,1,1.5-1.8A2.37,2.37,0,0,1,313.19,36Zm-0.9-.86a0.58,0.58,0,0,1-.22.18c-0.29,0-.58,0-0.88,0,0-.34,0-0.44.34-0.44a2.69,2.69,0,0,1,.58.07A0.56,0.56,0,0,1,312.28,35.09Z" fill="#172936"/><path d="M267,31.4a2.14,2.14,0,0,0,0,2A4.25,4.25,0,0,1,267,31.4Z" fill="#172936"/><path d="M300.46,33.39a2.23,2.23,0,0,0,0-1.86v1.86Z" fill="#172936"/><rect x="18.53" y="66.88" width="234.17" height="0.76" fill="#172936"/><rect x="314.79" y="66.89" width="233.81" height="0.76" fill="#172936"/><rect x="18.53" y="17.94" width="257.72" height="0.76" fill="#172936"/><rect x="290.87" y="17.94" width="257.73" height="0.76" fill="#172936"/><rect x="18.53" y="190.54" width="191.82" height="2.69" fill="#cacaca"/><rect x="18.53" y="202.27" width="191.82" height="2.69" fill="#cacaca"/><rect x="18.53" y="214" width="191.82" height="2.69" fill="#cacaca"/><rect x="18.53" y="225.73" width="191.82" height="2.69" fill="#cacaca"/><rect x="18.53" y="237.46" width="191.82" height="2.69" fill="#cacaca"/><rect x="18.53" y="249.19" width="191.82" height="2.69" fill="#cacaca"/><rect x="18.53" y="260.92" width="191.82" height="2.69" fill="#cacaca"/><rect x="18.53" y="272.65" width="191.82" height="2.69" fill="#cacaca"/><rect x="229.25" y="190.54" width="191.82" height="2.69" fill="#cacaca"/><rect x="229.25" y="202.27" width="191.82" height="2.69" fill="#cacaca"/><rect x="229.25" y="214" width="191.82" height="2.69" fill="#cacaca"/><rect x="229.25" y="225.73" width="191.82" height="2.69" fill="#cacaca"/><rect x="229.25" y="237.46" width="191.82" height="2.69" fill="#cacaca"/><rect x="229.25" y="249.19" width="191.82" height="2.69" fill="#cacaca"/><rect x="229.25" y="260.92" width="191.82" height="2.69" fill="#cacaca"/><rect x="229.25" y="272.65" width="191.82" height="2.69" fill="#cacaca"/><rect x="438.98" y="190.54" width="109.62" height="2.69" fill="#cacaca"/><rect x="438.98" y="202.27" width="109.62" height="2.69" fill="#cacaca"/><rect x="438.98" y="214" width="109.62" height="2.69" fill="#cacaca"/><rect x="438.98" y="225.73" width="109.62" height="2.69" fill="#cacaca"/><rect x="438.98" y="237.46" width="109.62" height="2.69" fill="#cacaca"/><rect x="438.98" y="249.19" width="109.62" height="2.69" fill="#cacaca"/><rect x="438.98" y="260.92" width="109.62" height="2.69" fill="#cacaca"/><rect x="438.98" y="272.65" width="109.62" height="2.69" fill="#cacaca"/><path d="M30.59,39.33c0-.71,0-1.4,0-2.09a0.69,0.69,0,0,1,.79-0.8h7.31a0.59,0.59,0,0,1,.69.64s0,0.08,0,.12q0,3.63,0,7.25a2.88,2.88,0,0,1-.22,1.24,1.65,1.65,0,0,1-1.58,1H30.17A2,2,0,0,1,28.24,45a4.14,4.14,0,0,1,0-.54q0-2.21,0-4.43a0.68,0.68,0,0,1,.73-0.73h1.66Zm1.2,6.15h5.7A0.5,0.5,0,0,0,38.08,45a2.64,2.64,0,0,0,0-.52q0-3.3,0-6.59c0-.06,0-0.12,0-0.19H31.85v0.23q0,3.26,0,6.52C31.84,44.79,31.81,45.12,31.8,45.48Zm-2.33-4.89s0,0.07,0,.1c0,1.32,0,2.64,0,4a1.26,1.26,0,0,0,.09.42,0.49,0.49,0,0,0,.47.35,0.48,0.48,0,0,0,.47-0.35,1.9,1.9,0,0,0,.1-0.58c0-1.24,0-2.47,0-3.71,0-.06,0-0.12,0-0.19H29.47Z"/><path d="M35.16,42.22H33.73a0.63,0.63,0,1,1,0-1.26h2.87a0.63,0.63,0,1,1,0,1.26H35.16Z"/><path d="M35.17,40c-0.51,0-1,0-1.52,0a0.62,0.62,0,0,1-.56-0.86,0.59,0.59,0,0,1,.57-0.38h3a0.63,0.63,0,1,1,0,1.25h-1.5Z"/><path d="M35.17,44.48H33.69A0.63,0.63,0,0,1,33.06,44a0.61,0.61,0,0,1,.31-0.69,0.77,0.77,0,0,1,.33-0.08h2.94a0.63,0.63,0,0,1,.67.63,0.64,0.64,0,0,1-.68.62H35.17Z"/><rect x="493.79" y="27.17" width="54.81" height="1.53" fill="#cacaca"/><rect x="506.52" y="33.08" width="42.08" height="1.53" fill="#cacaca"/></svg>