<svg id="Layer_1" data-name="Layer 1" xmlns="http://www.w3.org/2000/svg" viewBox="0 0 567.39 332.46">
  <title>paper2</title>
  <rect width="567.39" height="332.46" fill="#fff"/>
  <path d="M25,125.05v10H35.58v-10h5.74v26.1H35.58V139.89H25v11.26H19.28V125H25Z" fill="#172936"/>
  <path d="M51.66,132.79a13,13,0,0,1,2.52-4.37,11.55,11.55,0,0,1,4-2.92,14.29,14.29,0,0,1,10.8,0,11.59,11.59,0,0,1,4,2.92,13,13,0,0,1,2.52,4.37,16.3,16.3,0,0,1,.88,5.43,15.76,15.76,0,0,1-.88,5.32,12.69,12.69,0,0,1-2.5,4.29,11.59,11.59,0,0,1-4,2.87,14.52,14.52,0,0,1-10.8,0,11.55,11.55,0,0,1-4-2.87,12.69,12.69,0,0,1-2.52-4.29,15.76,15.76,0,0,1-.88-5.32A16.3,16.3,0,0,1,51.66,132.79Zm5.24,8.63a8.64,8.64,0,0,0,1.22,2.8,6.27,6.27,0,0,0,2.19,2,7.59,7.59,0,0,0,6.58,0,6.27,6.27,0,0,0,2.19-2,8.64,8.64,0,0,0,1.22-2.8,13.29,13.29,0,0,0,.38-3.2,14.28,14.28,0,0,0-.38-3.33A8.81,8.81,0,0,0,69.09,132a6.22,6.22,0,0,0-2.19-2,7.6,7.6,0,0,0-6.58,0,6.21,6.21,0,0,0-2.19,2,8.81,8.81,0,0,0-1.22,2.87,14.28,14.28,0,0,0-.38,3.33,13.29,13.29,0,0,0,.37,3.21h0Z" fill="#172936"/>
  <path d="M105.06,151.15l-4.42-17.76h-0.07l-4.35,17.76H90.4L83.49,125h5.74l4.13,17.76h0.07L98,125.05h5.37l4.46,18h0.07l4.28-18h5.63l-7,26.1h-5.75Z" fill="#172936"/>
  <path d="M154,125.05a16.23,16.23,0,0,1,3.4.33,7.34,7.34,0,0,1,2.63,1.08,5,5,0,0,1,1.7,2,7,7,0,0,1,.6,3.07,5.71,5.71,0,0,1-.9,3.29,6.5,6.5,0,0,1-2.65,2.16,6.28,6.28,0,0,1,3.6,2.43,8,8,0,0,1,.42,7.6,6.65,6.65,0,0,1-2.07,2.36,9.13,9.13,0,0,1-3,1.35,13.37,13.37,0,0,1-3.42.44H141.68v-26.1H154Zm-0.73,10.56a4.12,4.12,0,0,0,2.52-.73,2.76,2.76,0,0,0,1-2.38,3,3,0,0,0-.33-1.5,2.44,2.44,0,0,0-.88-0.91,3.71,3.71,0,0,0-1.26-.46,8.39,8.39,0,0,0-1.48-.13h-5.37v6.1h5.8Zm0.33,11.07a7.64,7.64,0,0,0,1.61-.16,4,4,0,0,0,1.35-.55,2.76,2.76,0,0,0,.93-1,3.58,3.58,0,0,0,.35-1.68,3.38,3.38,0,0,0-1.13-2.87,4.84,4.84,0,0,0-3-.86h-6.25v7.16h6.14v0Z" fill="#172936"/>
  <path d="M186,125.05l9.76,26.1h-6l-2-5.81H178l-2,5.81h-5.77l9.87-26.1H186Zm0.33,16L183,131.49h-0.07l-3.4,9.58h6.76Z" fill="#172936"/>
  <path d="M214.82,125.05a13.46,13.46,0,0,1,4.7.8,10.2,10.2,0,0,1,3.76,2.41,11.15,11.15,0,0,1,2.49,4,16.27,16.27,0,0,1,.89,5.67,18.08,18.08,0,0,1-.73,5.26,11.61,11.61,0,0,1-2.21,4.17,10.37,10.37,0,0,1-3.69,2.76,12.5,12.5,0,0,1-5.21,1H203.56V125h11.26v0Zm-0.4,21.27a7.35,7.35,0,0,0,2.41-.4,5.31,5.31,0,0,0,2.08-1.33,6.71,6.71,0,0,0,1.46-2.43,10.7,10.7,0,0,0,.55-3.66,15.22,15.22,0,0,0-.38-3.56,7.1,7.1,0,0,0-1.26-2.72,5.59,5.59,0,0,0-2.32-1.74,9.27,9.27,0,0,0-3.56-.6h-4.1v16.45h5.12Z" fill="#172936"/>
  <path d="M271.07,151.15l-4.42-17.76h-0.07l-4.35,17.76h-5.81L249.51,125h5.74l4.13,17.76h0.07L264,125.05h5.37l4.46,18h0.07l4.28-18h5.63l-7,26.1h-5.74Z" fill="#172936"/>
  <path d="M297.71,125.05v26.1H292v-26.1h5.71Z" fill="#172936"/>
  <path d="M314,125.05v21.27h12.72v4.82H308.31V125H314Z" fill="#172936"/>
  <path d="M341.28,125.05v21.27H354v4.82H335.54V125h5.74Z" fill="#172936"/>
  <path d="M384.23,125.05v26.1h-5.74v-26.1h5.74Z" fill="#172936"/>
  <path d="M392.78,129.88v-4.82h21.38v4.82h-7.82v21.27H400.6V129.88h-7.82Z" fill="#172936"/>
  <path d="M453.89,151a9.62,9.62,0,0,1-3.76.79,13.38,13.38,0,0,1-5.39-1,11.55,11.55,0,0,1-4-2.87,12.71,12.71,0,0,1-2.52-4.29,15.76,15.76,0,0,1-.88-5.32,16.3,16.3,0,0,1,.88-5.43,13.06,13.06,0,0,1,2.52-4.37,11.55,11.55,0,0,1,4-2.92,13.19,13.19,0,0,1,5.39-1.06,12.69,12.69,0,0,1,3.89.6,11,11,0,0,1,3.4,1.77,9.58,9.58,0,0,1,3.71,6.83h-5.48a5.49,5.49,0,0,0-2-3.29,5.74,5.74,0,0,0-3.54-1.1,6.7,6.7,0,0,0-3.29.75,6.22,6.22,0,0,0-2.19,2,8.81,8.81,0,0,0-1.22,2.87,14.28,14.28,0,0,0-.38,3.33,13.29,13.29,0,0,0,.38,3.2,8.63,8.63,0,0,0,1.22,2.8,6.28,6.28,0,0,0,2.19,2,6.7,6.7,0,0,0,3.29.75,5.6,5.6,0,0,0,6.21-5.63h-5.77V137h11v14.11h-3.66l-0.58-3A8.6,8.6,0,0,1,453.89,151Z" fill="#172936"/>
  <path d="M491.24,125.05v4.82H477.46v5.59h12.65v4.46H477.46v6.4h14.07v4.82h-19.8V125h19.51Z" fill="#172936"/>
  <path d="M498.92,129.88v-4.82H520.3v4.82h-7.82v21.27h-5.74V129.88h-7.82Z" fill="#172936"/>
  <path d="M528.18,129.84A8.57,8.57,0,0,1,530,127a8.07,8.07,0,0,1,2.78-1.88,9.4,9.4,0,0,1,3.64-.68,11.47,11.47,0,0,1,4.33.71,8.42,8.42,0,0,1,2.79,1.77A6.4,6.4,0,0,1,545,129.2a6.56,6.56,0,0,1,.46,2.28,7.79,7.79,0,0,1-.46,2.89,7.13,7.13,0,0,1-1.13,1.94,7.56,7.56,0,0,1-1.5,1.37q-0.82.57-1.55,1.13a7.27,7.27,0,0,0-1.3,1.3,3.71,3.71,0,0,0-.71,1.83v1.39H533.9v-1.65a7.13,7.13,0,0,1,1.75-4.44,9.19,9.19,0,0,1,1.39-1.3q0.73-.55,1.35-1.1a4.91,4.91,0,0,0,1-1.21,3,3,0,0,0,.35-1.64,3.34,3.34,0,0,0-.82-2.49,3.13,3.13,0,0,0-2.29-.8,3.53,3.53,0,0,0-1.7.38,3.39,3.39,0,0,0-1.17,1,4.45,4.45,0,0,0-.68,1.5,7.43,7.43,0,0,0-.22,1.85H527.5A10.42,10.42,0,0,1,528.18,129.84Zm11,15.68v5.63h-5.74v-5.63h5.74Z" fill="#172936"/>
  <rect x="18.53" y="105.21" width="530.09" height="0.76" fill="#172936"/>
  <rect x="18.53" y="70.04" width="530.09" height="1.51" fill="#172936"/>
  <rect x="18.53" y="84.6" width="530.09" height="0.76" fill="#172936"/>
  <rect x="18.53" y="75.34" width="1.51" height="0.76" fill="#172936"/>
  <path d="M544.1,76.1h-3V75.34h3V76.1Zm-6,0h-3V75.34h3V76.1Zm-6,0h-3V75.34h3V76.1Zm-6,0h-3V75.34h3V76.1Zm-6,0h-3V75.34h3V76.1Zm-6,0h-3V75.34h3V76.1Zm-6,0h-3V75.34h3V76.1Zm-6,0h-3V75.34h3V76.1Zm-6,0h-3V75.34h3V76.1Zm-6,0h-3V75.34h3V76.1Zm-6,0h-3V75.34h3V76.1Zm-6,0h-3V75.34h3V76.1Zm-6,0h-3V75.34h3V76.1Zm-6,0h-3V75.34h3V76.1Zm-6,0h-3V75.34h3V76.1Zm-6,0h-3V75.34h3V76.1Zm-6,0h-3V75.34h3V76.1Zm-6,0h-3V75.34h3V76.1Zm-6,0h-3V75.34h3V76.1Zm-6,0h-3V75.34h3V76.1Zm-6,0h-3V75.34h3V76.1Zm-6,0h-3V75.34h3V76.1Zm-6,0h-3V75.34h3V76.1Zm-6,0h-3V75.34h3V76.1Zm-6,0h-3V75.34h3V76.1Zm-6,0h-3V75.34h3V76.1Zm-6,0h-3V75.34h3V76.1Zm-6,0h-3V75.34h3V76.1Zm-6,0h-3V75.34h3V76.1Zm-6,0h-3V75.34h3V76.1Zm-6,0h-3V75.34h3V76.1Zm-6,0h-3V75.34h3V76.1Zm-6,0h-3V75.34h3V76.1Zm-6,0h-3V75.34h3V76.1Zm-6,0h-3V75.34h3V76.1Zm-6,0h-3V75.34h3V76.1Zm-6,0h-3V75.34h3V76.1Zm-6,0h-3V75.34h3V76.1Zm-6,0h-3V75.34h3V76.1Zm-6,0h-3V75.34h3V76.1Zm-6,0h-3V75.34h3V76.1Zm-6,0h-3V75.34h3V76.1Zm-6,0h-3V75.34h3V76.1Zm-6,0h-3V75.34h3V76.1Zm-6,0h-3V75.34h3V76.1Zm-6,0h-3V75.34h3V76.1Zm-6,0h-3V75.34h3V76.1Zm-6,0h-3V75.34h3V76.1Zm-6,0h-3V75.34h3V76.1Zm-6,0h-3V75.34h3V76.1Zm-6,0h-3V75.34h3V76.1Zm-6,0h-3V75.34h3V76.1Zm-6,0h-3V75.34h3V76.1Zm-6,0h-3V75.34h3V76.1Zm-6,0h-3V75.34h3V76.1Zm-6,0h-3V75.34h3V76.1Zm-6,0h-3V75.34h3V76.1Zm-6,0h-3V75.34h3V76.1Zm-6,0h-3V75.34h3V76.1Zm-6,0h-3V75.34h3V76.1Zm-6,0h-3V75.34h3V76.1Zm-6,0h-3V75.34h3V76.1Zm-6,0h-3V75.34h3V76.1Zm-6,0h-3V75.34h3V76.1Zm-6,0h-3V75.34h3V76.1Zm-6,0h-3V75.34h3V76.1Zm-6,0h-3V75.34h3V76.1Zm-6,0h-3V75.34h3V76.1Zm-6,0h-3V75.34h3V76.1Zm-6,0h-3V75.34h3V76.1Zm-6,0h-3V75.34h3V76.1Zm-6,0h-3V75.34h3V76.1Zm-6,0h-3V75.34h3V76.1Zm-6,0h-3V75.34h3V76.1Zm-6,0h-3V75.34h3V76.1Zm-6,0h-3V75.34h3V76.1Zm-6,0h-3V75.34h3V76.1Zm-6,0h-3V75.34h3V76.1Zm-6,0h-3V75.34h3V76.1Zm-6,0h-3V75.34h3V76.1Zm-6,0h-3V75.34h3V76.1Zm-6,0h-3V75.34h3V76.1Zm-6,0h-3V75.34h3V76.1Zm-6,0h-3V75.34h3V76.1Zm-6,0h-3V75.34h3V76.1Zm-6,0h-3V75.34h3V76.1Zm-6,0h-3V75.34h3V76.1Z" fill="#172936"/>
  <rect x="547.11" y="75.34" width="1.51" height="0.76" fill="#172936"/>
  <rect x="18.53" y="169.72" width="530.09" height="3.03" fill="#172936"/>
  <path d="M22.58,92.47l2.12,5.41H24.15L23.49,96.2H21l-0.65,1.68H19.83L22,92.47h0.58Zm0.73,3.29-1-2.77-1.08,2.77h2.08Z" fill="#172936"/>
  <path d="M27.83,97.88v-0.7h0a1.35,1.35,0,0,1-.55.6,1.56,1.56,0,0,1-.8.21,1.74,1.74,0,0,1-.63-0.1,1.06,1.06,0,0,1-.42-0.29,1.19,1.19,0,0,1-.24-0.46,2.35,2.35,0,0,1-.08-0.62V94h0.48v2.54a1.27,1.27,0,0,0,.25.8,1.23,1.23,0,0,0,1.33.14,1.12,1.12,0,0,0,.36-0.35,1.57,1.57,0,0,0,.21-0.5,2.5,2.5,0,0,0,0-.63V94h0.48v3.91H27.83v0Z" fill="#172936"/>
  <path d="M32.38,98.34a1.52,1.52,0,0,1-.3.59,1.3,1.3,0,0,1-.53.37,2.22,2.22,0,0,1-.81.13,2.41,2.41,0,0,1-.58-0.07,1.62,1.62,0,0,1-.5-0.21,1.25,1.25,0,0,1-.37-0.37,1.1,1.1,0,0,1-.17-0.53H29.6a0.85,0.85,0,0,0,.15.37,0.89,0.89,0,0,0,.27.24,1.18,1.18,0,0,0,.34.13,1.8,1.8,0,0,0,.39,0,1.15,1.15,0,0,0,1-.38,1.75,1.75,0,0,0,.25-1V97h0a1.4,1.4,0,0,1-.49.58,1.31,1.31,0,0,1-.75.22,1.89,1.89,0,0,1-.8-0.16,1.48,1.48,0,0,1-.55-0.43,1.73,1.73,0,0,1-.31-0.64,3,3,0,0,1-.1-0.78A2.44,2.44,0,0,1,29.12,95a1.92,1.92,0,0,1,.34-0.63A1.61,1.61,0,0,1,30,94a1.75,1.75,0,0,1,.75-0.16,1.37,1.37,0,0,1,.41.06,1.31,1.31,0,0,1,.35.17,1.53,1.53,0,0,1,.28.25,1.19,1.19,0,0,1,.19.3h0V94h0.48v3.59A3,3,0,0,1,32.38,98.34Zm-1.09-1A1.24,1.24,0,0,0,31.67,97a1.54,1.54,0,0,0,.24-0.5A2.11,2.11,0,0,0,32,95.88a2.47,2.47,0,0,0-.07-0.58,1.64,1.64,0,0,0-.22-0.52,1.19,1.19,0,0,0-.39-0.38,1.11,1.11,0,0,0-.58-0.14,1.15,1.15,0,0,0-.58.14,1.23,1.23,0,0,0-.4.37,1.53,1.53,0,0,0-.23.52,2.48,2.48,0,0,0-.07.59,2.23,2.23,0,0,0,.08.58,1.48,1.48,0,0,0,.24.5,1.2,1.2,0,0,0,.4.35,1.18,1.18,0,0,0,.58.13,1.08,1.08,0,0,0,.52-0.14v0Z" fill="#172936"/>
  <path d="M36.1,97.88v-0.7h0a1.35,1.35,0,0,1-.55.6,1.57,1.57,0,0,1-.8.21,1.75,1.75,0,0,1-.63-0.1,1.06,1.06,0,0,1-.42-0.29,1.19,1.19,0,0,1-.24-0.46,2.31,2.31,0,0,1-.08-0.62V94h0.48v2.54a1.27,1.27,0,0,0,.25.8,1.23,1.23,0,0,0,1.33.14,1.12,1.12,0,0,0,.36-0.35A1.57,1.57,0,0,0,36,96.6a2.45,2.45,0,0,0,.07-0.6V94h0.48v3.91H36.1v0Z" fill="#172936"/>
  <path d="M39.69,94.73a0.78,0.78,0,0,0-.22-0.27,0.94,0.94,0,0,0-.32-0.16,1.5,1.5,0,0,0-.39,0,1.55,1.55,0,0,0-.32,0,1,1,0,0,0-.3.11,0.64,0.64,0,0,0-.22.21,0.57,0.57,0,0,0-.08.32,0.44,0.44,0,0,0,.08.27,0.7,0.7,0,0,0,.2.19,1.25,1.25,0,0,0,.27.13l0.26,0.08,0.64,0.14a1.85,1.85,0,0,1,.41.11,1.32,1.32,0,0,1,.36.21,1.05,1.05,0,0,1,.21,1.31,1.16,1.16,0,0,1-.37.36,1.57,1.57,0,0,1-.5.2,2.62,2.62,0,0,1-.55.06,1.8,1.8,0,0,1-1.12-.33,1.38,1.38,0,0,1-.49-1H37.7a0.94,0.94,0,0,0,.35.73,1.28,1.28,0,0,0,.8.25,1.79,1.79,0,0,0,.36,0,1.16,1.16,0,0,0,.34-0.13,0.82,0.82,0,0,0,.26-0.23,0.57,0.57,0,0,0,.1-0.34,0.55,0.55,0,0,0-.07-0.29,0.61,0.61,0,0,0-.19-0.2,1.2,1.2,0,0,0-.28-0.13l-0.31-.09L38.45,96A3.47,3.47,0,0,1,38,95.86a1.36,1.36,0,0,1-.34-0.2,0.83,0.83,0,0,1-.23-0.29A1,1,0,0,1,37.36,95a0.93,0.93,0,0,1,.13-0.51,1,1,0,0,1,.34-0.34A1.6,1.6,0,0,1,38.3,94a2.31,2.31,0,0,1,.52-0.06,1.93,1.93,0,0,1,.55.08,1.26,1.26,0,0,1,.45.23,1.15,1.15,0,0,1,.31.39,1.44,1.44,0,0,1,.13.55H39.78A0.89,0.89,0,0,0,39.69,94.73Z" fill="#172936"/>
  <path d="M42.64,94v0.4h-0.8V97a0.86,0.86,0,0,0,.06.37,0.35,0.35,0,0,0,.32.15h0.41v0.4H42.22A0.7,0.7,0,0,1,41.37,97V94.37H40.69V94h0.68V92.8h0.48V94h0.79Z" fill="#172936"/>
  <path d="M45.25,97.88a1.86,1.86,0,0,1,.14-0.7,2,2,0,0,1,.34-0.54,3.2,3.2,0,0,1,.48-0.44l0.54-.39,0.56-.38A3.77,3.77,0,0,0,47.8,95a1.64,1.64,0,0,0,.33-0.45A1.27,1.27,0,0,0,48.24,94a1.07,1.07,0,0,0-.09-0.46,1,1,0,0,0-.26-0.34,1.11,1.11,0,0,0-.38-0.2A1.44,1.44,0,0,0,47,92.93a1.19,1.19,0,0,0-.56.12,1,1,0,0,0-.37.33,1.37,1.37,0,0,0-.21.47,2.14,2.14,0,0,0-.06.56H45.38a2.48,2.48,0,0,1,.1-0.75,1.59,1.59,0,0,1,.31-0.59,1.44,1.44,0,0,1,.53-0.39,1.88,1.88,0,0,1,.75-0.14,2.12,2.12,0,0,1,.65.09,1.53,1.53,0,0,1,.52.28,1.26,1.26,0,0,1,.35.47,1.57,1.57,0,0,1,.13.65,1.63,1.63,0,0,1-.11.61,1.92,1.92,0,0,1-.3.5,2.92,2.92,0,0,1-.42.42,5.13,5.13,0,0,1-.5.36l-0.45.28a4.74,4.74,0,0,0-.5.34A2.69,2.69,0,0,0,46,97a1,1,0,0,0-.23.49h3v0.44H45.25V97.88Z" fill="#172936"/>
  <path d="M52.24,92.79a1.75,1.75,0,0,1,.56.65,2.83,2.83,0,0,1,.27.88,6.29,6.29,0,0,1,0,1.9,2.84,2.84,0,0,1-.27.88,1.72,1.72,0,0,1-.56.64,1.9,1.9,0,0,1-1.88,0,1.7,1.7,0,0,1-.56-0.64,2.84,2.84,0,0,1-.27-0.88,6.37,6.37,0,0,1,0-1.9,2.83,2.83,0,0,1,.27-0.88,1.73,1.73,0,0,1,.56-0.65A1.87,1.87,0,0,1,52.24,92.79Zm-1.67.38a1.49,1.49,0,0,0-.41.58,2.85,2.85,0,0,0-.19.76A6.17,6.17,0,0,0,50,96a2.9,2.9,0,0,0,.19.76,1.48,1.48,0,0,0,.41.59,1.24,1.24,0,0,0,1.45,0,1.49,1.49,0,0,0,.41-0.59A2.94,2.94,0,0,0,52.62,96a6.31,6.31,0,0,0,0-1.5,2.89,2.89,0,0,0-.19-0.76A1.5,1.5,0,0,0,52,93.17,1.24,1.24,0,0,0,50.57,93.17Z" fill="#172936"/>
  <path d="M56.45,92.79a1.75,1.75,0,0,1,.56.65,2.83,2.83,0,0,1,.27.88,6.29,6.29,0,0,1,0,1.9,2.84,2.84,0,0,1-.27.88,1.72,1.72,0,0,1-.56.64,1.9,1.9,0,0,1-1.88,0A1.71,1.71,0,0,1,54,97.09a2.84,2.84,0,0,1-.27-0.88,6.29,6.29,0,0,1,0-1.9A2.83,2.83,0,0,1,54,93.43a1.74,1.74,0,0,1,.56-0.65A1.87,1.87,0,0,1,56.45,92.79Zm-1.67.38a1.49,1.49,0,0,0-.41.58,2.85,2.85,0,0,0-.19.76,6.17,6.17,0,0,0,0,1.5,2.9,2.9,0,0,0,.19.76,1.48,1.48,0,0,0,.41.59,1.24,1.24,0,0,0,1.45,0,1.49,1.49,0,0,0,.41-0.59A2.94,2.94,0,0,0,56.83,96a6.17,6.17,0,0,0,0-1.5,2.89,2.89,0,0,0-.19-0.76,1.5,1.5,0,0,0-.41-0.58A1.24,1.24,0,0,0,54.78,93.17Z" fill="#172936"/>
  <path d="M58.83,97.32a1.06,1.06,0,0,0,.75.27,1.15,1.15,0,0,0,.75-0.23,1.61,1.61,0,0,0,.44-0.59A2.7,2.7,0,0,0,61,96a6.13,6.13,0,0,0,0-.78h0a1.57,1.57,0,0,1-1.41.88A1.89,1.89,0,0,1,58.9,96a1.59,1.59,0,0,1-.55-0.37A1.66,1.66,0,0,1,58,95a2,2,0,0,1-.12-0.71A1.89,1.89,0,0,1,58,93.61,1.68,1.68,0,0,1,58.37,93a1.73,1.73,0,0,1,.57-0.37,1.87,1.87,0,0,1,.72-0.14,2.12,2.12,0,0,1,.83.15,1.3,1.3,0,0,1,.58.48,2.43,2.43,0,0,1,.34.87,6.58,6.58,0,0,1,.11,1.31v0.42a3.64,3.64,0,0,1-.09.55,3.71,3.71,0,0,1-.19.59,2,2,0,0,1-.33.54,1.64,1.64,0,0,1-.52.39,1.68,1.68,0,0,1-.74.15,1.74,1.74,0,0,1-1.13-.34,1.5,1.5,0,0,1-.5-1H58.5A1.16,1.16,0,0,0,58.83,97.32Zm1.36-1.73a1.23,1.23,0,0,0,.42-0.3,1.27,1.27,0,0,0,.26-0.44A1.67,1.67,0,0,0,61,94.3a1.8,1.8,0,0,0-.08-0.53,1.17,1.17,0,0,0-.24-0.43A1.13,1.13,0,0,0,60.22,93a1.52,1.52,0,0,0-.6-0.11,1.2,1.2,0,0,0-.52.11,1.27,1.27,0,0,0-.67.73,1.51,1.51,0,0,0-.09.52,1.7,1.7,0,0,0,.09.54,1.33,1.33,0,0,0,.25.45,1.16,1.16,0,0,0,.4.3,1.28,1.28,0,0,0,.54.11,1.35,1.35,0,0,0,.56-0.06h0Z" fill="#172936"/>
  <path d="M457.31,96.8a1.14,1.14,0,0,0,.38.45,1.57,1.57,0,0,0,.56.24,3.23,3.23,0,0,0,.7.07,2,2,0,0,0,.46-0.06,1.58,1.58,0,0,0,.47-0.19,1.19,1.19,0,0,0,.36-0.34,0.86,0.86,0,0,0,.14-0.5,0.74,0.74,0,0,0-.1-0.39A0.94,0.94,0,0,0,460,95.8a1.57,1.57,0,0,0-.36-0.19l-0.39-.12-1.2-.3a3.54,3.54,0,0,1-.46-0.15,1.29,1.29,0,0,1-.39-0.24,1.15,1.15,0,0,1-.27-0.37,1.27,1.27,0,0,1-.1-0.54,1.7,1.7,0,0,1,.08-0.46,1.29,1.29,0,0,1,.28-0.5,1.65,1.65,0,0,1,.57-0.4,2.3,2.3,0,0,1,.93-0.16,2.73,2.73,0,0,1,.76.11,1.89,1.89,0,0,1,.64.32,1.53,1.53,0,0,1,.6,1.26H460.2a1.26,1.26,0,0,0-.14-0.54,1.22,1.22,0,0,0-.33-0.39,1.42,1.42,0,0,0-.46-0.23,1.87,1.87,0,0,0-.55-0.08,2.27,2.27,0,0,0-.51.06,1.25,1.25,0,0,0-.43.18,0.94,0.94,0,0,0-.3.33,1,1,0,0,0-.11.51,0.78,0.78,0,0,0,.06.33,0.69,0.69,0,0,0,.18.24,1,1,0,0,0,.26.16l0.31,0.1L459.5,95a3.83,3.83,0,0,1,.54.19,1.81,1.81,0,0,1,.45.27,1.18,1.18,0,0,1,.3.4,1.35,1.35,0,0,1,.11.57,2,2,0,0,1,0,.24,1.24,1.24,0,0,1-.09.32,1.63,1.63,0,0,1-.21.34,1.26,1.26,0,0,1-.36.31,2.1,2.1,0,0,1-.57.23,3.35,3.35,0,0,1-.82.09,3.41,3.41,0,0,1-.89-0.11,1.9,1.9,0,0,1-.7-0.34A1.49,1.49,0,0,1,456.8,97a1.92,1.92,0,0,1-.13-0.86h0.51A1.53,1.53,0,0,0,457.31,96.8Z" fill="#172936"/>
  <path d="M464.06,94a1.72,1.72,0,0,1,.58.45,2,2,0,0,1,.36.66,2.7,2.7,0,0,1,0,1.6,2,2,0,0,1-.36.66,1.68,1.68,0,0,1-.58.44,2,2,0,0,1-1.58,0,1.68,1.68,0,0,1-.58-0.44,1.93,1.93,0,0,1-.36-0.66,2.7,2.7,0,0,1,0-1.6,1.93,1.93,0,0,1,.36-0.66,1.72,1.72,0,0,1,.58-0.45A2,2,0,0,1,464.06,94Zm-1.39.38a1.31,1.31,0,0,0-.43.38,1.73,1.73,0,0,0-.26.53,2.18,2.18,0,0,0,0,1.22,1.74,1.74,0,0,0,.26.53,1.26,1.26,0,0,0,1.63.38A1.33,1.33,0,0,0,464.3,97a1.71,1.71,0,0,0,.26-0.53,2.18,2.18,0,0,0,0-1.22,1.71,1.71,0,0,0-.26-0.53,1.24,1.24,0,0,0-1.63-.36v0Z" fill="#172936"/>
  <path d="M468.56,97.88v-0.7h0a1.36,1.36,0,0,1-.55.6,1.57,1.57,0,0,1-.8.21,1.74,1.74,0,0,1-.63-0.1,1.06,1.06,0,0,1-.42-0.29,1.16,1.16,0,0,1-.24-0.46,2.31,2.31,0,0,1-.08-0.62V94h0.48v2.54a1.28,1.28,0,0,0,.25.8,1.23,1.23,0,0,0,1.33.14,1.14,1.14,0,0,0,.36-0.35,1.59,1.59,0,0,0,.21-0.5,2.5,2.5,0,0,0,.07-0.58V94H469v3.91h-0.44v0Z" fill="#172936"/>
  <path d="M470.34,94v0.92h0a1.5,1.5,0,0,1,.56-0.73,1.48,1.48,0,0,1,.91-0.23V94.4a1.44,1.44,0,0,0-.59.09,1.33,1.33,0,0,0-.46.29,1.31,1.31,0,0,0-.3.45,1.5,1.5,0,0,0-.11.57v2.08H469.9V94h0.44Z" fill="#172936"/>
  <path d="M474.54,94.51a1,1,0,0,0-.74-0.25,1.21,1.21,0,0,0-.6.14,1.33,1.33,0,0,0-.43.38,1.71,1.71,0,0,0-.26.53,2.18,2.18,0,0,0,0,1.22,1.71,1.71,0,0,0,.26.53,1.33,1.33,0,0,0,.43.38,1.2,1.2,0,0,0,.6.14,1.06,1.06,0,0,0,.42-0.08,1.11,1.11,0,0,0,.35-0.23,1.22,1.22,0,0,0,.25-0.35,1.27,1.27,0,0,0,.12-0.45h0.48a1.8,1.8,0,0,1-.52,1.11,1.53,1.53,0,0,1-1.09.4,1.82,1.82,0,0,1-.79-0.16,1.68,1.68,0,0,1-.58-0.44,1.93,1.93,0,0,1-.36-0.66,2.7,2.7,0,0,1,0-1.6,1.93,1.93,0,0,1,.36-0.66A1.72,1.72,0,0,1,473,94a1.8,1.8,0,0,1,.79-0.17,1.7,1.7,0,0,1,1.06.33,1.42,1.42,0,0,1,.52,1H474.9A1.31,1.31,0,0,0,474.54,94.51Z" fill="#172936"/>
  <path d="M476.43,96.59a1.47,1.47,0,0,0,.23.5,1.34,1.34,0,0,0,.4.36,1.12,1.12,0,0,0,.58.14,1.16,1.16,0,0,0,.82-0.27,1.43,1.43,0,0,0,.41-0.73h0.48a1.9,1.9,0,0,1-.56,1,1.66,1.66,0,0,1-1.15.36,1.82,1.82,0,0,1-.8-0.16,1.47,1.47,0,0,1-.55-0.45,2,2,0,0,1-.31-0.66,3,3,0,0,1-.1-0.79,2.83,2.83,0,0,1,.1-0.76,2,2,0,0,1,.31-0.66,1.59,1.59,0,0,1,.55-0.47,1.69,1.69,0,0,1,.8-0.18,1.55,1.55,0,0,1,1.34.69,2,2,0,0,1,.3.7,3.06,3.06,0,0,1,.08.81h-3A2.12,2.12,0,0,0,476.43,96.59Zm2.36-1.46a1.41,1.41,0,0,0-.25-0.44,1.22,1.22,0,0,0-.39-0.31,1.11,1.11,0,0,0-.52-0.12,1.13,1.13,0,0,0-.52.12,1.21,1.21,0,0,0-.39.31,1.55,1.55,0,0,0-.25.45,2.24,2.24,0,0,0-.12.52h2.53a1.73,1.73,0,0,0-.09-0.53h0Z" fill="#172936"/>
  <path d="M480.29,94.09h0.64v0.8h-0.64v-0.8Zm0,3h0.64v0.8h-0.64v-0.8Z" fill="#172936"/>
  <path d="M488,92.47v0.44h-1.89v5H485.6v-5h-1.88V92.47H488Z" fill="#172936"/>
  <path d="M489.07,92.47v5.41h-0.52V92.47h0.52Z" fill="#172936"/>
  <path d="M490.94,92.47l1.79,4.74,1.86-4.74h0.76v5.41h-0.52V93.21h0L493,97.88h-0.5l-1.78-4.67h0v4.67h-0.51V92.47h0.73Z" fill="#172936"/>
  <path d="M500.15,92.47v0.44h-3.22v2h3V95.3h-3v2.14h3.26v0.44h-3.77V92.47h3.73Z" fill="#172936"/>
  <path d="M501.73,97.88a1.35,1.35,0,0,1,0,.33,1.13,1.13,0,0,1-.12.3,1,1,0,0,1-.21.25,0.75,0.75,0,0,1-.29.15V98.58a0.35,0.35,0,0,0,.16-0.11,0.78,0.78,0,0,0,.11-0.19,0.89,0.89,0,0,0,.06-0.21,0.76,0.76,0,0,0,0-.19H501.1v-0.8h0.64v0.8h0Z" fill="#172936"/>
  <path d="M507.28,92.47l2.12,5.41h-0.55l-0.66-1.68h-2.46l-0.65,1.68h-0.54l2.17-5.41h0.57ZM508,95.76L507,93l-1.08,2.77H508Z" fill="#172936"/>
  <path d="M512.52,97.88v-0.7h0a1.35,1.35,0,0,1-.55.6,1.56,1.56,0,0,1-.8.21,1.74,1.74,0,0,1-.63-0.1,1.06,1.06,0,0,1-.42-0.29,1.19,1.19,0,0,1-.24-0.46,2.35,2.35,0,0,1-.08-0.62V94h0.48v2.54a1.27,1.27,0,0,0,.25.8,1.23,1.23,0,0,0,1.33.14,1.12,1.12,0,0,0,.36-0.35,1.57,1.57,0,0,0,.21-0.5,2.5,2.5,0,0,0,.07-0.58V94H513v3.91h-0.44Z" fill="#172936"/>
  <path d="M517.07,98.34a1.52,1.52,0,0,1-.3.59,1.3,1.3,0,0,1-.53.37,2.22,2.22,0,0,1-.81.13,2.41,2.41,0,0,1-.58-0.07,1.62,1.62,0,0,1-.5-0.21,1.25,1.25,0,0,1-.37-0.37,1.1,1.1,0,0,1-.17-0.53h0.48a0.85,0.85,0,0,0,.15.37,0.89,0.89,0,0,0,.27.24A1.18,1.18,0,0,0,515,99a1.8,1.8,0,0,0,.39,0,1.15,1.15,0,0,0,1-.38,1.75,1.75,0,0,0,.29-1.09V97h0a1.4,1.4,0,0,1-.49.58,1.31,1.31,0,0,1-.75.22,1.89,1.89,0,0,1-.8-0.16,1.48,1.48,0,0,1-.55-0.43,1.73,1.73,0,0,1-.31-0.64,3,3,0,0,1-.1-0.78A2.44,2.44,0,0,1,513.8,95a1.92,1.92,0,0,1,.34-0.63,1.61,1.61,0,0,1,.55-0.42,1.75,1.75,0,0,1,.75-0.16,1.37,1.37,0,0,1,.41.06,1.31,1.31,0,0,1,.35.17,1.53,1.53,0,0,1,.28.25,1.19,1.19,0,0,1,.19.3h0V94h0.48v3.59A3,3,0,0,1,517.07,98.34Zm-1.09-1a1.24,1.24,0,0,0,.39-0.35,1.54,1.54,0,0,0,.24-0.5,2.11,2.11,0,0,0,.08-0.58,2.47,2.47,0,0,0-.07-0.58,1.64,1.64,0,0,0-.22-0.52,1.19,1.19,0,0,0-.4-0.41,1.11,1.11,0,0,0-.58-0.14,1.15,1.15,0,0,0-.58.14,1.23,1.23,0,0,0-.4.37,1.53,1.53,0,0,0-.23.52,2.48,2.48,0,0,0-.07.59,2.23,2.23,0,0,0,.08.58,1.48,1.48,0,0,0,.24.5,1.2,1.2,0,0,0,.4.35,1.18,1.18,0,0,0,.58.13A1.08,1.08,0,0,0,516,97.3Z" fill="#172936"/>
  <path d="M520.8,97.88v-0.7h0a1.35,1.35,0,0,1-.55.6,1.57,1.57,0,0,1-.8.21,1.75,1.75,0,0,1-.63-0.1,1.06,1.06,0,0,1-.42-0.29,1.19,1.19,0,0,1-.24-0.46,2.31,2.31,0,0,1-.08-0.62V94h0.48v2.54a1.27,1.27,0,0,0,.25.8,1.23,1.23,0,0,0,1.33.14,1.12,1.12,0,0,0,.36-0.35,1.59,1.59,0,0,0,.21-0.5,2.45,2.45,0,0,0,.07-0.58V94h0.48v3.91H520.8v0Z" fill="#172936"/>
  <path d="M524.39,94.73a0.78,0.78,0,0,0-.22-0.27,0.94,0.94,0,0,0-.32-0.16,1.5,1.5,0,0,0-.39,0,1.55,1.55,0,0,0-.32,0,1,1,0,0,0-.3.11,0.64,0.64,0,0,0-.22.21,0.58,0.58,0,0,0-.08.32,0.44,0.44,0,0,0,.08.27,0.7,0.7,0,0,0,.2.19,1.23,1.23,0,0,0,.27.13l0.26,0.08L524,95.74a1.82,1.82,0,0,1,.41.11,1.31,1.31,0,0,1,.36.21,1,1,0,0,1,.25.32,1.08,1.08,0,0,1,0,1,1.18,1.18,0,0,1-.37.36,1.57,1.57,0,0,1-.5.2,2.63,2.63,0,0,1-.55.06,1.8,1.8,0,0,1-1.12-.33,1.38,1.38,0,0,1-.49-1h0.48a0.94,0.94,0,0,0,.35.73,1.28,1.28,0,0,0,.8.25,1.8,1.8,0,0,0,.36,0,1.17,1.17,0,0,0,.34-0.13,0.83,0.83,0,0,0,.26-0.23,0.57,0.57,0,0,0,.1-0.34,0.55,0.55,0,0,0-.07-0.29,0.61,0.61,0,0,0-.19-0.2,1.19,1.19,0,0,0-.28-0.13l-0.31-.09L523.15,96a3.58,3.58,0,0,1-.43-0.14,1.37,1.37,0,0,1-.34-0.2,0.84,0.84,0,0,1-.23-0.29,1,1,0,0,1-.08-0.42,0.94,0.94,0,0,1,.13-0.51,1,1,0,0,1,.34-0.34,1.61,1.61,0,0,1,.47-0.19,2.3,2.3,0,0,1,.52-0.06,1.91,1.91,0,0,1,.55.08,1.26,1.26,0,0,1,.45.23,1.17,1.17,0,0,1,.31.39,1.42,1.42,0,0,1,.13.55h-0.48A0.89,0.89,0,0,0,524.39,94.73Z" fill="#172936"/>
  <path d="M527.34,94v0.4h-0.8V97a0.86,0.86,0,0,0,.06.37,0.35,0.35,0,0,0,.32.15h0.41v0.4h-0.42a0.7,0.7,0,0,1-.85-0.87V94.37h-0.68V94h0.68V92.8h0.48V94h0.8Z" fill="#172936"/>
  <path d="M528.94,97.88a1.35,1.35,0,0,1,0,.33,1.16,1.16,0,0,1-.12.3,1,1,0,0,1-.21.25,0.77,0.77,0,0,1-.29.15V98.58a0.35,0.35,0,0,0,.16-0.11,0.82,0.82,0,0,0,.11-0.19,0.89,0.89,0,0,0,.06-0.21,0.76,0.76,0,0,0,0-.19h-0.32v-0.8H529v0.8h0Z" fill="#172936"/>
  <path d="M532,97.88a1.86,1.86,0,0,1,.14-0.7,2,2,0,0,1,.34-0.54A3.15,3.15,0,0,1,533,96.2l0.55-.39,0.56-.38a3.76,3.76,0,0,0,.5-0.41,1.64,1.64,0,0,0,.33-0.45,1.27,1.27,0,0,0,0-.57,1.06,1.06,0,0,0-.09-0.46,1,1,0,0,0-.26-0.34,1.11,1.11,0,0,0-.38-0.21,1.44,1.44,0,0,0-.46-0.07,1.18,1.18,0,0,0-.56.12,1,1,0,0,0-.37.33,1.35,1.35,0,0,0-.21.47,2.14,2.14,0,0,0-.06.56h-0.48a2.48,2.48,0,0,1,.09-0.75,1.61,1.61,0,0,1,.31-0.59,1.44,1.44,0,0,1,.53-0.39,1.87,1.87,0,0,1,.75-0.14,2.12,2.12,0,0,1,.65.09,1.53,1.53,0,0,1,.52.28,1.26,1.26,0,0,1,.35.47,1.59,1.59,0,0,1,.13.65,1.61,1.61,0,0,1-.11.61,1.92,1.92,0,0,1-.29.5,2.93,2.93,0,0,1-.42.42,5,5,0,0,1-.5.36l-0.45.28a4.73,4.73,0,0,0-.5.34,2.66,2.66,0,0,0-.42.41,1.06,1.06,0,0,0-.23.49h3v0.44H532Z" fill="#172936"/>
  <path d="M539,92.79a1.77,1.77,0,0,1,.56.65,2.83,2.83,0,0,1,.27.88,6.29,6.29,0,0,1,0,1.9,2.83,2.83,0,0,1-.27.88,1.74,1.74,0,0,1-.56.64,1.9,1.9,0,0,1-1.88,0,1.7,1.7,0,0,1-.56-0.64,2.84,2.84,0,0,1-.27-0.88,6.29,6.29,0,0,1,0-1.9,2.83,2.83,0,0,1,.27-0.88,1.73,1.73,0,0,1,.56-0.65A1.87,1.87,0,0,1,539,92.79Zm-1.67.38a1.5,1.5,0,0,0-.41.58,2.89,2.89,0,0,0-.19.76,6.31,6.31,0,0,0,0,1.5,2.94,2.94,0,0,0,.19.76,1.49,1.49,0,0,0,.41.59,1.24,1.24,0,0,0,1.45,0,1.47,1.47,0,0,0,.41-0.59,2.9,2.9,0,0,0,.19-0.76,6.17,6.17,0,0,0,0-1.5,2.85,2.85,0,0,0-.19-0.76,1.48,1.48,0,0,0-.41-0.58,1.24,1.24,0,0,0-1.41,0h0Z" fill="#172936"/>
  <path d="M543.25,92.79a1.76,1.76,0,0,1,.56.65,2.83,2.83,0,0,1,.27.88,6.29,6.29,0,0,1,0,1.9,2.84,2.84,0,0,1-.27.88,1.73,1.73,0,0,1-.56.64,1.9,1.9,0,0,1-1.88,0,1.71,1.71,0,0,1-.56-0.64,2.84,2.84,0,0,1-.27-0.88,6.37,6.37,0,0,1,0-1.9,2.83,2.83,0,0,1,.27-0.88,1.74,1.74,0,0,1,.56-0.65A1.87,1.87,0,0,1,543.25,92.79Zm-1.67.38a1.5,1.5,0,0,0-.41.58,2.93,2.93,0,0,0-.19.76,6.31,6.31,0,0,0,0,1.5,3,3,0,0,0,.19.76,1.49,1.49,0,0,0,.41.59,1.24,1.24,0,0,0,1.45,0,1.48,1.48,0,0,0,.41-0.59,2.86,2.86,0,0,0,.19-0.76,6.17,6.17,0,0,0,0-1.5,2.82,2.82,0,0,0-.19-0.76,1.49,1.49,0,0,0-.41-0.58A1.24,1.24,0,0,0,541.58,93.17Z" fill="#172936"/>
  <path d="M545.63,97.32a1.06,1.06,0,0,0,.75.27,1.14,1.14,0,0,0,.75-0.23,1.59,1.59,0,0,0,.44-0.59,2.7,2.7,0,0,0,.21-0.77,6.13,6.13,0,0,0,0-.78h0a1.57,1.57,0,0,1-1.41.88,1.89,1.89,0,0,1-.72-0.1,1.57,1.57,0,0,1-.55-0.37A1.63,1.63,0,0,1,544.8,95a2,2,0,0,1-.12-0.71,1.91,1.91,0,0,1,.13-0.72,1.69,1.69,0,0,1,.37-0.57,1.74,1.74,0,0,1,.57-0.37,1.88,1.88,0,0,1,.72-0.14,2.12,2.12,0,0,1,.83.15,1.3,1.3,0,0,1,.58.48,2.43,2.43,0,0,1,.34.87,6.66,6.66,0,0,1,.11,1.31v0.42a3.7,3.7,0,0,1-.28,1.14,2,2,0,0,1-.33.54,1.63,1.63,0,0,1-.52.39,1.69,1.69,0,0,1-.74.15,1.75,1.75,0,0,1-1.13-.34,1.5,1.5,0,0,1-.5-1h0.48A1.16,1.16,0,0,0,545.63,97.32ZM547,95.59a1.22,1.22,0,0,0,.42-0.3,1.27,1.27,0,0,0,.26-0.44,1.69,1.69,0,0,0,.09-0.55,1.83,1.83,0,0,0-.08-0.53,1.18,1.18,0,0,0-.24-0.43A1.13,1.13,0,0,0,547,93a1.53,1.53,0,0,0-.6-0.11,1.2,1.2,0,0,0-.51.11,1.27,1.27,0,0,0-.41.3,1.29,1.29,0,0,0-.26.44,1.51,1.51,0,0,0-.09.52,1.7,1.7,0,0,0,.09.54,1.34,1.34,0,0,0,.25.45,1.16,1.16,0,0,0,.4.3,1.27,1.27,0,0,0,.54.11A1.35,1.35,0,0,0,547,95.59Z" fill="#172936"/>
  <path d="M117.74,37a35,35,0,0,0,.14,3.53h-1.13c-2.3-9.23-6.14-12.14-9.67-12.14h0V56.47c0,4,.94,4.56,5.44,4.56v1c-2.3,0-6.48-.14-10.77-0.14-4.08,0-7.89.1-10.1,0.14V61c4.51,0,5.45-.53,5.45-4.56V28.35h0c-3.6,0-7.36,2.85-9.69,12.14H86.19q0.16-1.74.15-3.49c0-1.92-.1-5.85-0.33-9.74,4.68,0.14,11.44.14,16.07,0.14s11.35,0,16-.14C117.83,31.11,117.74,35,117.74,37Z" fill="#172936"/>
  <path d="M158.56,28.21c-3,.14-3.48.65-3.48,4.22V56.8c0,3.57.55,4.08,3.48,4.22v1c-1.75-.1-4.89-0.14-8.25-0.14s-6.67,0-8.68.14V61c3-.14,3.48-0.65,3.48-4.22V45H134V56.8c0,3.57.55,4.08,3.5,4.22v1c-1.92-.1-5.16-0.14-8.2-0.14-3.55,0-6.88,0-8.76.14V61c3-.14,3.5-0.65,3.5-4.22V32.43c0-3.57-.55-4.08-3.5-4.22v-1c1.87,0.1,5.21.14,8.76,0.14,3,0,6.28,0,8.2-.14v1c-3,.14-3.5.65-3.5,4.22V44h11.06V32.43c0-3.57-.53-4.08-3.48-4.22v-1c2,0.1,5.44.14,8.68,0.14s6.5,0,8.25-.14v1h0Z" fill="#172936"/>
  <path d="M189.77,62c-3.33-.14-8-0.14-11.25-0.14-3.53,0-11.49,0-17.2.14V61c3-.14,3.5-0.65,3.5-4.22V32.43c0-3.57-.55-4.08-3.5-4.22v-1c5.71,0.14,13.67.14,17.2,0.14,3,0,7.22,0,10.27-.14-0.24,3.29-.34,6.62-0.34,8.25A35.22,35.22,0,0,0,188.6,39h-1.13c-1.22-8.16-5-10.67-9-10.67h-0.65c-2.54,0-3,.41-3,3.09V44h0.5c3.69,0,6.09-3.62,6.69-6.48h1.13C183,39.68,183,41.14,183,42.29V44.5c0,1.61.07,3.24,0.31,7h-1.13c-0.6-3.65-3.14-6.5-6.84-6.5h-0.5V57.79c0,2.71.46,3.09,3,3.09h1.63c3.24,0,7.46-2.76,9-11.63h1.13c-0.1,1.18-.14,2.73-0.14,4.51A82.35,82.35,0,0,0,189.77,62Z" fill="#172936"/>
  <path d="M261.94,43.78c10.12,0.5,13.91,4.73,13.91,8.71,0,6.57-5.61,9.52-14.75,9.52-1.56,0-4.65-.14-8.92-0.14-3.31,0-6.69,0-8.56.14V61c3-.14,3.5-0.65,3.5-4.22V32.43c0-3.57-.55-4.08-3.5-4.22v-1c1.87,0.1,5.33.14,8.47,0.14s6.62-.1,7.89-0.1c9,0,13.31,3.19,13.31,7.72,0,3.48-3.57,7.7-11.35,8.68v0.13Zm-4.87-11.35V43.54h1.34c3.84,0,4.75-3.74,4.75-8,0-4.82-.91-7.32-3.43-7.32C257.53,28.21,257.07,29,257.07,32.43Zm8.47,19.84c0-5-2.21-7.89-7.77-7.89h-0.7V56.8c0,3.43.55,4.08,3.21,4.08C264,60.88,265.54,57.79,265.54,52.27Z" fill="#172936"/>
  <path d="M310.3,28.21c-3,.65-3.5,2.11-3.5,7.65V47.71c0,4.08-.43,7.82-2,10.41-1.7,2.85-4.89,4.58-10.55,4.58-3,0-6.62-.5-9.24-2.37-3.38-2.45-4-6.43-4-12.47V32.43c0-3.57-.48-4.08-3.48-4.22v-1c1.85,0.1,5.25.14,8.64,0.14s6.79,0,8.8-.14v1c-3.36.14-4,.65-4,4.22v20c0,6.52,2,8.52,6.12,8.52,6.57,0,8.59-5.16,8.59-12.71V36.85c0-6.57-.29-8-5-8.64v-1c1.34,0.1,3.69.14,5.52,0.14a35.37,35.37,0,0,0,4.08-.14v1h0Z" fill="#172936"/>
  <path d="M329.68,28.21c-3.33.14-4,.65-4,4.22V57.79c0,2.71.41,3.09,2.52,3.09h1.63c3.43,0,8.4-5.8,9.52-12.14h1.13c-0.1,1.18-.14,2.76-0.14,4.51s0,5.33.34,8.76c-3.33-.14-8-0.14-11.25-0.14-3.53,0-11.49,0-17.2.14V61c3-.14,3.5-0.65,3.5-4.22V32.43c0-3.57-.55-4.08-3.5-4.22v-1c1.87,0.1,5.21.14,8.75,0.14,3.24,0,6.67,0,8.68-.14v1h0Z" fill="#172936"/>
  <path d="M360.44,28.21c-3.33.14-4,.65-4,4.22V57.79c0,2.71.41,3.09,2.52,3.09h1.63c3.43,0,8.4-5.8,9.52-12.14h1.13c-0.1,1.18-.14,2.76-0.14,4.51s0,5.33.34,8.76c-3.33-.14-8-0.14-11.25-0.14-3.53,0-11.49,0-17.2.14V61c3-.14,3.5-0.65,3.5-4.22V32.43c0-3.57-.55-4.08-3.5-4.22v-1c1.87,0.1,5.21.14,8.76,0.14,3.24,0,6.67,0,8.68-.14v1h0Z" fill="#172936"/>
  <path d="M402.2,62c-3.33-.14-8-0.14-11.25-0.14-3.53,0-11.49,0-17.2.14V61c3-.14,3.5-0.65,3.5-4.22V32.43c0-3.57-.55-4.08-3.5-4.22v-1c5.71,0.14,13.67.14,17.2,0.14,3,0,7.22,0,10.27-.14-0.24,3.29-.34,6.62-0.34,8.25A25.88,25.88,0,0,0,401,39H399.9c-1.22-8.16-5-10.67-9-10.67h-0.65c-2.54,0-3,.41-3,3.09V44h0.5c3.69,0,6.09-3.62,6.69-6.48h1.13c-0.14,2.16-.19,3.62-0.19,4.77V44.5c0,1.61.07,3.24,0.31,7h-1.13c-0.6-3.65-3.14-6.5-6.84-6.5h-0.5V57.79c0,2.71.46,3.09,3,3.09h1.63c3.24,0,7.46-2.76,9-11.63H402c-0.1,1.18-.14,2.73-0.14,4.51A82.35,82.35,0,0,0,402.2,62Z" fill="#172936"/>
  <path d="M437.17,37a35,35,0,0,0,.14,3.53h-1.13c-2.3-9.23-6.14-12.14-9.67-12.14h0V56.47c0,4,.94,4.56,5.45,4.56v1c-2.3,0-6.48-.14-10.77-0.14-4.08,0-7.89.1-10.1,0.14V61c4.51,0,5.45-.53,5.45-4.56V28.35h0c-3.6,0-7.36,2.85-9.69,12.14h-1.13a35,35,0,0,0,.14-3.53c0-1.92-.1-5.85-0.34-9.74,4.68,0.14,11.44.14,16.07,0.14s11.35,0,16-.14C437.27,31.11,437.17,35,437.17,37Z" fill="#172936"/>
  <path d="M457,28.21c-3,.14-3.5.65-3.5,4.22V56.8c0,3.57.55,4.08,3.5,4.22v1c-1.92-.1-5.16-0.14-8.2-0.14-3.55,0-6.88,0-8.75.14V61c3-.14,3.5-0.65,3.5-4.22V32.43c0-3.57-.55-4.08-3.5-4.22v-1c1.87,0.1,5.21.14,8.75,0.14,3,0,6.29,0,8.2-.14v1Z" fill="#172936"/>
  <path d="M493.14,28.21c-3,.65-3.48,2.11-3.48,7.65V62c-0.48,0-1-.07-1.61-0.07a16.7,16.7,0,0,0-1.85.07L464.45,38.24V52.39c0,6.57.29,8,5,8.64v1c-1.32-.1-3.69-0.14-5.52-0.14a35.37,35.37,0,0,0-4.08.14V61c3-.65,3.5-2.11,3.5-7.65V32.43c0-3.57-.55-4.08-3.5-4.22v-1c1,0.1,2.61.14,4.08,0.14a44.7,44.7,0,0,0,4.53-.14l20.08,21.23V36.85c0-6.57-.29-8-4.94-8.64v-1c1.32,0.1,3.67.14,5.49,0.14a35.37,35.37,0,0,0,4.08-.14v1h0Z" fill="#172936"/>
  <rect x="146.06" y="190.54" width="191.82" height="2.69" fill="#cacaca"/>
  <rect x="146.06" y="202.27" width="191.82" height="2.69" fill="#cacaca"/>
  <rect x="146.06" y="214" width="191.82" height="2.69" fill="#cacaca"/>
  <rect x="146.06" y="225.73" width="191.82" height="2.69" fill="#cacaca"/>
  <rect x="146.06" y="237.46" width="191.82" height="2.69" fill="#cacaca"/>
  <rect x="146.06" y="249.19" width="191.82" height="2.69" fill="#cacaca"/>
  <rect x="146.06" y="260.92" width="191.82" height="2.69" fill="#cacaca"/>
  <rect x="146.06" y="272.65" width="191.82" height="2.69" fill="#cacaca"/>
  <rect x="356.78" y="190.54" width="191.82" height="2.69" fill="#cacaca"/>
  <rect x="356.78" y="202.27" width="191.82" height="2.69" fill="#cacaca"/>
  <rect x="356.78" y="214" width="191.82" height="2.69" fill="#cacaca"/>
  <rect x="356.78" y="225.73" width="191.82" height="2.69" fill="#cacaca"/>
  <rect x="356.78" y="237.46" width="191.82" height="2.69" fill="#cacaca"/>
  <rect x="356.78" y="249.19" width="191.82" height="2.69" fill="#cacaca"/>
  <rect x="356.78" y="260.92" width="191.82" height="2.69" fill="#cacaca"/>
  <rect x="356.78" y="272.65" width="191.82" height="2.69" fill="#cacaca"/>
  <rect x="514.15" y="28.74" width="34.45" height="1.53" fill="#cacaca"/>
  <rect x="514.15" y="35.4" width="34.45" height="1.53" fill="#cacaca"/>
  <rect x="514.15" y="42.06" width="34.45" height="1.53" fill="#cacaca"/>
  <rect x="514.15" y="59.65" width="34.45" height="1.53" fill="#cacaca"/>
  <rect x="17.91" y="190.54" width="109.62" height="2.69" fill="#cacaca"/>
  <rect x="17.91" y="202.27" width="109.62" height="2.69" fill="#cacaca"/>
  <rect x="17.91" y="214" width="109.62" height="2.69" fill="#cacaca"/>
  <rect x="17.91" y="225.73" width="109.62" height="2.69" fill="#cacaca"/>
  <rect x="17.91" y="237.46" width="109.62" height="2.69" fill="#cacaca"/>
  <rect x="17.91" y="249.19" width="109.62" height="2.69" fill="#cacaca"/>
  <rect x="17.91" y="260.92" width="109.62" height="2.69" fill="#cacaca"/>
  <rect x="17.91" y="272.65" width="109.62" height="2.69" fill="#cacaca"/>
  <path d="M232,41.3a1.74,1.74,0,0,1-.83-1.37,7,7,0,0,0-.23-1.19,3.24,3.24,0,0,0-2.14-2.32,4.27,4.27,0,0,0-1.84-.13,3.13,3.13,0,0,0-3,3.61,5.78,5.78,0,0,0,1.37,3,1.77,1.77,0,0,1,.2,2.07,3.91,3.91,0,0,1-1.4,1.39,0.46,0.46,0,0,1-.53,0A6.39,6.39,0,0,1,221,43.85a7.63,7.63,0,0,1-1.21-3.52,16,16,0,0,1,0-1.63c0-.61.09-1.22,0.14-1.83H220A6.26,6.26,0,0,0,222.39,42l-0.05-.15a5.72,5.72,0,0,1,0-4c0.23-.63.56-1.22,0.83-1.84a6.57,6.57,0,0,0,.29-4.91,7.32,7.32,0,0,0-1.73-2.64,6.57,6.57,0,0,0-4.58-2.18,8.75,8.75,0,0,0-5.07,1.5h0l0.61-.08a5.87,5.87,0,0,1,2.94.36,2.72,2.72,0,0,1,1.21,1h-0.21a10,10,0,0,0-2.64-.6,3.68,3.68,0,0,0-2.07.34l-3.52,1.9-0.22.14c0.2,0.41.4,0.79,0.57,1.18a1.72,1.72,0,0,0,1.68,1,1.7,1.7,0,0,0,.36,0,2.3,2.3,0,0,0,.57-0.14,2.87,2.87,0,0,1,1.23-.37,0.83,0.83,0,0,1,.85.51,0.92,0.92,0,0,1-1.18,1.29c-0.13,0-.24-0.14-0.36-0.2a0.28,0.28,0,0,0-.19,0l-1.58.73L211,37l0.1,0.06a1.42,1.42,0,0,1,.18-0.28,4.39,4.39,0,0,1,2.21-1.25,3.84,3.84,0,0,0,2-1.09c0.19-.18.36-0.37,0.55-0.55a0.12,0.12,0,0,1,0,.12c-0.62.86-1.23,1.73-1.88,2.57a12.11,12.11,0,0,1-2.59,2.64,0.67,0.67,0,0,0-.19.26,5.35,5.35,0,0,0-.44,2.54c0,0.38.06,0.77,0.09,1.17h-0.25l-2.82.13-4.32.18a0.4,0.4,0,0,0-.4.26c-0.22.49-.46,1-0.7,1.44l-0.49,1,4.33,1.24,0.09-1.3h0.25l2.2,0.56,3.86,1a1.13,1.13,0,0,0,1.3-.4c0.51-.65,1-1.29,1.57-1.93l0.17-.21a4,4,0,0,1-1.58,3.12,10.25,10.25,0,0,1,2.57,1.18,6.05,6.05,0,0,1,2.62,3.5,7.85,7.85,0,0,0,5.08,5.45,1.35,1.35,0,0,1,.8,1.73l-0.05.13-2.51-.15a0.32,0.32,0,0,0-.39.23h0c-0.34.85-.71,1.68-1.06,2.52a1,1,0,0,1-.08.24h6.61L229,55.75a16.38,16.38,0,0,1-1.85-1,3.43,3.43,0,0,1-1.7-2.32,8.24,8.24,0,0,1,0-3.06,3.24,3.24,0,0,1,.84-1.77,6,6,0,0,0,1.45-2.24,2.82,2.82,0,0,0-.52-3.16,4.49,4.49,0,0,1-.49-0.6,9.06,9.06,0,0,1-.8-1.29,1.58,1.58,0,0,1,.73-2.11l0.06,0a1.73,1.73,0,0,1,2.69,1.3,10.51,10.51,0,0,1,.15,1.62,1.29,1.29,0,0,0,.94,1.26,3.64,3.64,0,0,0,1.22.15,4.38,4.38,0,0,0,1.8-.53A16,16,0,0,1,232,41.3ZM213.22,30.54c-0.39.23-.61,0.1-0.72-0.34l-0.13-.56h2v0A8.76,8.76,0,0,1,213.22,30.54Z"/>
  <path d="M218.19,52.54A6.25,6.25,0,0,0,214,49.31a0.61,0.61,0,0,0-.22,0A2.84,2.84,0,0,0,211.29,51a5.27,5.27,0,0,0-.39,2,5.23,5.23,0,0,0,2.37,5,0.93,0.93,0,0,1,.47.86,4.69,4.69,0,0,1-.21,1c-0.15.48-.25,0.52-0.73,0.4l-0.27-.07-2.13-.52-1.38,3h6.44a0.3,0.3,0,0,0,.3-0.22l2-4.15,0.72-1.48h-1.23a0.49,0.49,0,0,1-.26,0,1,1,0,0,1-.21-1.12,2.16,2.16,0,0,1,1.81-1.09,0.19,0.19,0,0,0,.23-0.2,0.83,0.83,0,0,0,0-.33A12.35,12.35,0,0,0,218.19,52.54Z"/>
  <path d="M203.53,36.35a0.31,0.31,0,0,0,.23.15h1a0.25,0.25,0,0,1,.29.19c0.13,0.34.28,0.68,0.42,1l1.82,4.39a0.35,0.35,0,0,0,.2.21H210a6.06,6.06,0,0,1,1.23-4.18,8.5,8.5,0,0,0-1.35.19,0.34,0.34,0,0,1-.43-0.15q-1.9-2.66-3.83-5.3a0.52,0.52,0,0,0-.34-0.21h-2.91a0.31,0.31,0,0,0,0,.08C202.75,34,203.14,35.16,203.53,36.35Z"/>
  <rect x="18.53" y="17.94" width="530.07" height="0.76" fill="#172936"/>
  <path d="M50.52,50H17.78V27H50.52V50ZM19.29,48.52H49v-20H19.29v20Z" fill="#172936"/>
  <rect x="25.7" y="33.61" width="16.91" height="0.76" fill="#172936"/>
  <rect x="25.7" y="36.72" width="16.91" height="0.76" fill="#172936"/>
  <rect x="25.7" y="39.83" width="16.91" height="0.76" fill="#172936"/>
  <rect x="25.7" y="42.94" width="16.91" height="0.76" fill="#172936"/>
</svg>
