<svg id="Layer_1" data-name="Layer 1" xmlns="http://www.w3.org/2000/svg" viewBox="0 0 567.39 332.46">
  <title>paper3</title>
  <rect width="567.39" height="332.46" fill="#fff"/>
  <path d="M25.37,135.72a3.05,3.05,0,0,0,.93,1.09,4,4,0,0,0,1.36.62,6.45,6.45,0,0,0,1.62.2,8.38,8.38,0,0,0,1.21-.09,4.22,4.22,0,0,0,1.21-.36,2.66,2.66,0,0,0,1-.74,1.87,1.87,0,0,0,.38-1.2,1.69,1.69,0,0,0-.5-1.27,4,4,0,0,0-1.31-.81,13.11,13.11,0,0,0-1.83-.57q-1-.24-2.08-0.54a18.43,18.43,0,0,1-2.11-.66,7.2,7.2,0,0,1-1.83-1,4.78,4.78,0,0,1-1.31-1.55,4.71,4.71,0,0,1-.5-2.25A5,5,0,0,1,22.2,124a5.73,5.73,0,0,1,1.66-1.82,7.23,7.23,0,0,1,2.32-1.08,9.86,9.86,0,0,1,2.59-.35,12.27,12.27,0,0,1,2.9.34,7.24,7.24,0,0,1,2.47,1.09,5.53,5.53,0,0,1,1.71,1.93,5.91,5.91,0,0,1,.63,2.85h-4.1a3.4,3.4,0,0,0-.36-1.43,2.38,2.38,0,0,0-.82-0.89,3.48,3.48,0,0,0-1.17-.46,7.23,7.23,0,0,0-1.44-.13,5,5,0,0,0-1,.11,2.76,2.76,0,0,0-.93.38,2.36,2.36,0,0,0-.69.67,1.81,1.81,0,0,0-.27,1,1.74,1.74,0,0,0,.22.92,1.93,1.93,0,0,0,.85.65,10.81,10.81,0,0,0,1.75.59l2.93,0.75q0.54,0.11,1.5.39a7.22,7.22,0,0,1,1.9.9,5.77,5.77,0,0,1,1.63,1.66,4.72,4.72,0,0,1,.69,2.66,5.9,5.9,0,0,1-.51,2.46,5.32,5.32,0,0,1-1.53,2,7.3,7.3,0,0,1-2.51,1.28,11.86,11.86,0,0,1-3.47.46,12.18,12.18,0,0,1-3.09-.39,7.77,7.77,0,0,1-2.64-1.23,6.06,6.06,0,0,1-1.82-2.13A6.35,6.35,0,0,1,21,134.1h4A3.54,3.54,0,0,0,25.37,135.72Z" fill="#172936"/>
  <path d="M52,121.21l7.21,19.27h-4.4l-1.46-4.29H46.09l-1.51,4.29H40.32l7.29-19.27H52ZM52.19,133l-2.43-7h0l-2.51,7h5Z" fill="#172936"/>
  <path d="M73.92,121.21a6.21,6.21,0,0,1,2.33.42A5.39,5.39,0,0,1,78,122.77a5,5,0,0,1,1.13,1.69,5.43,5.43,0,0,1,.39,2.06,5.79,5.79,0,0,1-.71,2.94,4.49,4.49,0,0,1-2.33,1.89v0.05a3.28,3.28,0,0,1,1.29.66,3.67,3.67,0,0,1,.84,1.05,4.9,4.9,0,0,1,.47,1.34,11.68,11.68,0,0,1,.2,1.46q0,0.46.05,1.08t0.09,1.27a8.41,8.41,0,0,0,.22,1.23,2.83,2.83,0,0,0,.45,1h-4.2a7.45,7.45,0,0,1-.43-2.19q-0.08-1.27-.24-2.43a3.83,3.83,0,0,0-.92-2.21A3.15,3.15,0,0,0,72,133H67.76v7.53H63.53V121.21H73.92Zm-1.51,8.72a3.21,3.21,0,0,0,2.19-.65,2.69,2.69,0,0,0,.73-2.11,2.57,2.57,0,0,0-.73-2,3.25,3.25,0,0,0-2.19-.63H67.76V130H72.4v0Z" fill="#172936"/>
  <path d="M88.95,135.72a3.06,3.06,0,0,0,.93,1.09,4,4,0,0,0,1.36.62,6.44,6.44,0,0,0,1.62.2,8.37,8.37,0,0,0,1.21-.09,4.21,4.21,0,0,0,1.21-.36,2.65,2.65,0,0,0,.95-0.74,1.86,1.86,0,0,0,.38-1.2,1.69,1.69,0,0,0-.5-1.27,4,4,0,0,0-1.31-.81,13.11,13.11,0,0,0-1.83-.57q-1-.24-2.08-0.54a18.42,18.42,0,0,1-2.1-.66,7.19,7.19,0,0,1-1.83-1,4.76,4.76,0,0,1-1.31-1.55,4.7,4.7,0,0,1-.5-2.25,5,5,0,0,1,.63-2.58,5.73,5.73,0,0,1,1.66-1.82,7.23,7.23,0,0,1,2.32-1.08,9.85,9.85,0,0,1,2.59-.35,12.27,12.27,0,0,1,2.9.34,7.26,7.26,0,0,1,2.47,1.09,5.54,5.54,0,0,1,1.71,1.93,5.91,5.91,0,0,1,.63,2.85H96a3.4,3.4,0,0,0-.36-1.43,2.39,2.39,0,0,0-.82-0.89,3.49,3.49,0,0,0-1.17-.46,7.23,7.23,0,0,0-1.44-.13,5,5,0,0,0-1,.11,2.75,2.75,0,0,0-.93.38,2.35,2.35,0,0,0-.69.67,1.8,1.8,0,0,0-.27,1,1.73,1.73,0,0,0,.22.92,1.93,1.93,0,0,0,.85.65,10.88,10.88,0,0,0,1.75.59L95,129.14q0.54,0.11,1.5.39a7.22,7.22,0,0,1,1.9.9,5.77,5.77,0,0,1,1.63,1.66,4.72,4.72,0,0,1,.69,2.66,5.89,5.89,0,0,1-.51,2.46,5.32,5.32,0,0,1-1.53,2,7.3,7.3,0,0,1-2.51,1.28,11.86,11.86,0,0,1-3.47.46,12.17,12.17,0,0,1-3.09-.39A7.76,7.76,0,0,1,87,139.29a6.05,6.05,0,0,1-1.82-2.13,6.36,6.36,0,0,1-.65-3.08h4.1A3.54,3.54,0,0,0,88.95,135.72Z" fill="#172936"/>
  <path d="M105.71,130.92v-4.16h4.24v4.16h-4.24Zm4.24,5.4v4.16h-4.24v-4.16h4.24Z" fill="#172936"/>
  <path d="M140.46,140.47l-3.26-13.12h-0.05l-3.21,13.12h-4.29l-5.1-19.27h4.24l3,13.12h0.05l3.35-13.12h4l3.29,13.28h0.05l3.16-13.28h4.16l-5.18,19.27h-4.21Z" fill="#172936"/>
  <path d="M158.73,121.21v7.39h7.8v-7.39h4.24v19.27h-4.24v-8.31h-7.8v8.31H154.5V121.21h4.23Z" fill="#172936"/>
  <path d="M186.8,121.21l7.2,19.26h-4.4l-1.46-4.29h-7.21l-1.51,4.29h-4.26l7.29-19.27h4.35ZM187,133l-2.39-7h-0.05L182,133h5Z" fill="#172936"/>
  <path d="M194.38,124.77v-3.56h15.79v3.56h-5.78v15.71h-4.24V124.77h-5.77Z" fill="#172936"/>
  <path d="M223.2,121.21H228l4.51,7.61,4.48-7.61h4.72l-7.15,11.87v7.39h-4.24V133Z" fill="#172936"/>
  <path d="M245.79,126.91a9.62,9.62,0,0,1,1.86-3.23,8.5,8.5,0,0,1,3-2.16,10.54,10.54,0,0,1,8,0,8.54,8.54,0,0,1,3,2.16,9.62,9.62,0,0,1,1.86,3.23,12,12,0,0,1,.65,4,11.62,11.62,0,0,1-.65,3.93,9.35,9.35,0,0,1-1.86,3.17,8.54,8.54,0,0,1-3,2.12,10.71,10.71,0,0,1-8,0,8.5,8.5,0,0,1-3-2.12,9.35,9.35,0,0,1-1.86-3.17,11.64,11.64,0,0,1-.65-3.93A12,12,0,0,1,245.79,126.91Zm3.87,6.37a6.37,6.37,0,0,0,.9,2.06,4.62,4.62,0,0,0,1.62,1.47,5.6,5.6,0,0,0,4.86,0,4.62,4.62,0,0,0,1.62-1.47,6.37,6.37,0,0,0,.9-2.06,9.82,9.82,0,0,0,.28-2.36,10.56,10.56,0,0,0-.28-2.46,6.51,6.51,0,0,0-.9-2.12,4.59,4.59,0,0,0-1.62-1.48,5.61,5.61,0,0,0-4.86,0,4.59,4.59,0,0,0-1.62,1.48,6.51,6.51,0,0,0-.9,2.12,10.56,10.56,0,0,0-.28,2.46,9.82,9.82,0,0,0,.28,2.36h0Z" fill="#172936"/>
  <path d="M283.84,139a10.6,10.6,0,0,1-12.1,0q-2.15-1.89-2.15-5.83v-12h4.24v12a8.75,8.75,0,0,0,.13,1.54,3,3,0,0,0,1.77,2.28,4.9,4.9,0,0,0,2.06.36,4,4,0,0,0,3.13-1,4.81,4.81,0,0,0,.86-3.17v-12H286v12Q286,137.1,283.84,139Z" fill="#172936"/>
  <path d="M306.78,121.21l8,12.93h0V121.21h4v19.27H314.6l-8-12.9h0v12.9h-4V121.21h4.23Z" fill="#172936"/>
  <path d="M339.67,121.21v3.56H329.5v4.13h9.34v3.29H329.5v4.72h10.39v3.56H325.26V121.21h14.41Z" fill="#172936"/>
  <path d="M359.86,121.21v3.56H349.68v4.13H359v3.29h-9.34v4.72h10.39v3.56h-14.6V121.21h14.41Z" fill="#172936"/>
  <path d="M374,121.21a9.93,9.93,0,0,1,3.47.59,7.54,7.54,0,0,1,2.78,1.78,8.21,8.21,0,0,1,1.83,3,12,12,0,0,1,.66,4.18,13.36,13.36,0,0,1-.54,3.89,8.56,8.56,0,0,1-1.63,3.08,7.65,7.65,0,0,1-2.73,2,9.22,9.22,0,0,1-3.85.74h-8.31V121.21H374Zm-0.3,15.71a5.44,5.44,0,0,0,1.78-.3,3.93,3.93,0,0,0,1.54-1,5,5,0,0,0,1.08-1.79,7.87,7.87,0,0,0,.41-2.7,11.26,11.26,0,0,0-.28-2.63,5.27,5.27,0,0,0-.93-2,4.14,4.14,0,0,0-1.71-1.28,6.84,6.84,0,0,0-2.63-.45h-3v12.14h3.74Z" fill="#172936"/>
  <path d="M397,124.77v-3.56h15.79v3.56H407v15.71h-4.24V124.77H397Z" fill="#172936"/>
  <path d="M417.53,126.91a9.65,9.65,0,0,1,1.86-3.23,8.51,8.51,0,0,1,3-2.16,10.54,10.54,0,0,1,8,0,8.54,8.54,0,0,1,3,2.16,9.63,9.63,0,0,1,1.86,3.23,12,12,0,0,1,.65,4,11.64,11.64,0,0,1-.65,3.93,9.37,9.37,0,0,1-1.86,3.17,8.54,8.54,0,0,1-3,2.12,10.71,10.71,0,0,1-8,0,8.52,8.52,0,0,1-3-2.12,9.39,9.39,0,0,1-1.86-3.17,11.64,11.64,0,0,1-.65-3.93A12,12,0,0,1,417.53,126.91Zm3.87,6.37a6.35,6.35,0,0,0,.9,2.06,4.63,4.63,0,0,0,1.62,1.47,5.6,5.6,0,0,0,4.86,0,4.62,4.62,0,0,0,1.62-1.47,6.35,6.35,0,0,0,.9-2.06,9.77,9.77,0,0,0,.28-2.36,10.51,10.51,0,0,0-.28-2.46,6.49,6.49,0,0,0-.9-2.12,4.59,4.59,0,0,0-1.62-1.48,5.61,5.61,0,0,0-4.86,0,4.6,4.6,0,0,0-1.62,1.48,6.49,6.49,0,0,0-.9,2.12,10.51,10.51,0,0,0-.28,2.46A9.77,9.77,0,0,0,421.4,133.28Z" fill="#172936"/>
  <path d="M455.85,121.21v8l7.53-8h5.29l-7.53,7.61,8.26,11.66h-5.32l-5.8-8.66-2.43,2.46v6.21h-4.24V121.21h4.24Z" fill="#172936"/>
  <path d="M478,121.21l8,12.93h0V121.21h4v19.27h-4.24l-8-12.9h0v12.9h-4V121.21H478Z" fill="#172936"/>
  <path d="M496.3,126.91a9.65,9.65,0,0,1,1.86-3.23,8.52,8.52,0,0,1,3-2.16,10.54,10.54,0,0,1,8,0,8.56,8.56,0,0,1,3,2.16,9.65,9.65,0,0,1,1.86,3.23,12,12,0,0,1,.65,4,11.64,11.64,0,0,1-.65,3.93,9.38,9.38,0,0,1-1.86,3.17,8.56,8.56,0,0,1-3,2.12,10.71,10.71,0,0,1-8,0,8.52,8.52,0,0,1-3-2.12,9.38,9.38,0,0,1-1.86-3.17,11.64,11.64,0,0,1-.65-3.93A12,12,0,0,1,496.3,126.91Zm3.87,6.37a6.37,6.37,0,0,0,.9,2.06,4.61,4.61,0,0,0,1.62,1.47,5.6,5.6,0,0,0,4.86,0,4.63,4.63,0,0,0,1.62-1.47,6.35,6.35,0,0,0,.9-2.06,9.82,9.82,0,0,0,.28-2.36,10.56,10.56,0,0,0-.28-2.46,6.49,6.49,0,0,0-.9-2.12,4.6,4.6,0,0,0-1.62-1.48,5.61,5.61,0,0,0-4.86,0,4.59,4.59,0,0,0-1.62,1.48,6.51,6.51,0,0,0-.9,2.12,10.56,10.56,0,0,0-.28,2.46,9.82,9.82,0,0,0,.28,2.36h0Z" fill="#172936"/>
  <path d="M534.32,140.47L531,127.35h0l-3.21,13.12H523.5l-5.1-19.27h4.24l3,13.12h0L529,121.2h4l3.29,13.28h0l3.16-13.28h4.16l-5.18,19.27h-4.2Z" fill="#172936"/>
  <rect x="18.53" y="104.83" width="530.09" height="1.51" fill="#172936"/>
  <rect x="18.53" y="81.63" width="530.09" height="1.51" fill="#172936"/>
  <rect x="18.53" y="85.36" width="530.09" height="0.76" fill="#172936"/>
  <rect x="18.53" y="155.3" width="530.09" height="4.54" fill="#172936"/>
  <path d="M22.58,92.47l2.12,5.41H24.15L23.49,96.2H21l-0.65,1.68H19.83L22,92.47h0.58Zm0.73,3.29-1-2.77-1.08,2.77h2.08Z" fill="#172936"/>
  <path d="M25.54,94v0.74h0a1.27,1.27,0,0,1,.54-0.63,1.63,1.63,0,0,1,.85-0.22,1.7,1.7,0,0,1,.78.17,1.59,1.59,0,0,1,.55.45,1.91,1.91,0,0,1,.33.66,3,3,0,0,1,0,1.58,1.91,1.91,0,0,1-.33.66,1.56,1.56,0,0,1-.55.45,1.72,1.72,0,0,1-.78.16A1.76,1.76,0,0,1,26.51,98a1.56,1.56,0,0,1-.39-0.16,1.29,1.29,0,0,1-.32-0.27,1.1,1.1,0,0,1-.22-0.37h0v2.18H25.1V94h0.44Zm2.62,1.35a1.68,1.68,0,0,0-.23-0.53,1.25,1.25,0,0,0-.4-0.38A1.1,1.1,0,0,0,27,94.29a1.42,1.42,0,0,0-.66.14,1.13,1.13,0,0,0-.42.36,1.44,1.44,0,0,0-.22.53,3,3,0,0,0-.06.64,2.57,2.57,0,0,0,.07.6,1.56,1.56,0,0,0,.23.53,1.22,1.22,0,0,0,1.06.53,1.1,1.1,0,0,0,.58-0.15,1.26,1.26,0,0,0,.4-0.38,1.68,1.68,0,0,0,.23-0.53,2.57,2.57,0,0,0,0-1.24v0Z" fill="#172936"/>
  <path d="M29.89,94v0.92h0a1.5,1.5,0,0,1,.56-0.73,1.48,1.48,0,0,1,.91-0.24V94.4a1.43,1.43,0,0,0-.59.09,1.3,1.3,0,0,0-.76.74,1.5,1.5,0,0,0-.11.57v2.08H29.45V94h0.44Z" fill="#172936"/>
  <path d="M32.32,92.47v0.76H31.84V92.47h0.48Zm0,1.5v3.91H31.84V94h0.48v0Z" fill="#172936"/>
  <path d="M33.72,92.47v5.41H33.24V92.47h0.48Z" fill="#172936"/>
  <path d="M36.56,97.88a1.86,1.86,0,0,1,.14-0.7,2,2,0,0,1,.3-0.54,3.17,3.17,0,0,1,.48-0.44L38,95.81l0.56-.38a3.74,3.74,0,0,0,.5-0.41,1.66,1.66,0,0,0,.33-0.45A1.28,1.28,0,0,0,39.55,94a1.06,1.06,0,0,0-.09-0.46,1,1,0,0,0-.26-0.34,1.12,1.12,0,0,0-.38-0.2,1.48,1.48,0,0,0-.46-0.07,1.18,1.18,0,0,0-.56.12,1.05,1.05,0,0,0-.37.33,1.34,1.34,0,0,0-.21.47,2.14,2.14,0,0,0-.06.56H36.69a2.47,2.47,0,0,1,.09-0.75,1.61,1.61,0,0,1,.31-0.59,1.42,1.42,0,0,1,.53-0.39,1.87,1.87,0,0,1,.75-0.14,2.13,2.13,0,0,1,.65.09,1.54,1.54,0,0,1,.52.28,1.26,1.26,0,0,1,.35.47A1.57,1.57,0,0,1,40,94a1.61,1.61,0,0,1-.11.61,2,2,0,0,1-.29.5,2.93,2.93,0,0,1-.42.42,5.15,5.15,0,0,1-.5.36l-0.45.28a4.74,4.74,0,0,0-.5.34,2.71,2.71,0,0,0-.42.41,1.05,1.05,0,0,0-.23.49H40v0.44H36.56v0Z" fill="#172936"/>
  <path d="M43.54,92.79a1.75,1.75,0,0,1,.56.65,2.84,2.84,0,0,1,.27.88,6.28,6.28,0,0,1,0,1.9,2.83,2.83,0,0,1-.27.88,1.72,1.72,0,0,1-.56.64,1.89,1.89,0,0,1-1.88,0,1.71,1.71,0,0,1-.56-0.64,2.86,2.86,0,0,1-.27-0.88,6.44,6.44,0,0,1-.07-0.95,6.51,6.51,0,0,1,.07-1,2.87,2.87,0,0,1,.27-0.88,1.73,1.73,0,0,1,.56-0.65A1.87,1.87,0,0,1,43.54,92.79Zm-1.67.38a1.5,1.5,0,0,0-.41.58,2.86,2.86,0,0,0-.19.76,6.31,6.31,0,0,0,0,1.5,2.89,2.89,0,0,0,.19.76,1.49,1.49,0,0,0,.41.59,1.24,1.24,0,0,0,1.45,0,1.48,1.48,0,0,0,.41-0.59,2.89,2.89,0,0,0,.2-0.77,6.31,6.31,0,0,0,0-1.5,2.86,2.86,0,0,0-.19-0.76,1.5,1.5,0,0,0-.41-0.58A1.24,1.24,0,0,0,41.87,93.17Z" fill="#172936"/>
  <path d="M47.76,92.79a1.77,1.77,0,0,1,.56.65,2.84,2.84,0,0,1,.27.88,6.28,6.28,0,0,1,0,1.9,2.83,2.83,0,0,1-.27.88,1.74,1.74,0,0,1-.56.64,1.9,1.9,0,0,1-1.88,0,1.71,1.71,0,0,1-.56-0.64A2.83,2.83,0,0,1,45,96.21a6.31,6.31,0,0,1,0-.94,6.38,6.38,0,0,1,.07-1,2.84,2.84,0,0,1,.27-0.88,1.73,1.73,0,0,1,.56-0.65A1.87,1.87,0,0,1,47.76,92.79Zm-1.67.38a1.51,1.51,0,0,0-.41.58,2.9,2.9,0,0,0-.19.76,6.31,6.31,0,0,0,0,1.5,2.93,2.93,0,0,0,.19.76,1.49,1.49,0,0,0,.41.59,1.24,1.24,0,0,0,1.45,0A1.48,1.48,0,0,0,48,96.77,2.89,2.89,0,0,0,48.14,96a6.17,6.17,0,0,0,0-1.5A2.86,2.86,0,0,0,48,93.75a1.49,1.49,0,0,0-.41-0.58A1.24,1.24,0,0,0,46.09,93.17Z" fill="#172936"/>
  <path d="M49.72,96.76a1.2,1.2,0,0,0,.26.44,1.17,1.17,0,0,0,.42.28,1.51,1.51,0,0,0,.57.1,1.68,1.68,0,0,0,.51-0.08,1.3,1.3,0,0,0,.43-0.23,1.14,1.14,0,0,0,.3-0.37,1.07,1.07,0,0,0,.11-0.5,1.16,1.16,0,0,0-.1-0.5A1,1,0,0,0,52,95.57a1.18,1.18,0,0,0-.41-0.21,1.75,1.75,0,0,0-.5-0.07h-0.4v-0.4h0.4a1.31,1.31,0,0,0,.37-0.06,1.08,1.08,0,0,0,.35-0.17,0.92,0.92,0,0,0,.25-0.3,0.89,0.89,0,0,0,.1-0.43A1,1,0,0,0,52,93.48a0.87,0.87,0,0,0-.25-0.31A1,1,0,0,0,51.42,93,1.7,1.7,0,0,0,51,92.93a1.31,1.31,0,0,0-.52.1,1.06,1.06,0,0,0-.38.28,1.15,1.15,0,0,0-.23.42,1.68,1.68,0,0,0-.07.54H49.29a2,2,0,0,1,.12-0.7A1.62,1.62,0,0,1,49.74,93a1.53,1.53,0,0,1,.53-0.36,1.75,1.75,0,0,1,.7-0.13,2.29,2.29,0,0,1,.61.08,1.62,1.62,0,0,1,.53.24,1.3,1.3,0,0,1,.28,1.78,1.11,1.11,0,0,1-.66.42h0a1.24,1.24,0,0,1,.81.44,1.34,1.34,0,0,1,.28.87,1.55,1.55,0,0,1-.15.69,1.5,1.5,0,0,1-.4.5,1.69,1.69,0,0,1-.58.31,2.35,2.35,0,0,1-.7.1,2.25,2.25,0,0,1-.75-0.12,1.67,1.67,0,0,1-.59-0.35A1.43,1.43,0,0,1,49.26,97a1.8,1.8,0,0,1-.09-0.76h0.48A1.55,1.55,0,0,0,49.72,96.76Z" fill="#172936"/>
  <path d="M436.31,96.8a1.14,1.14,0,0,0,.38.45,1.57,1.57,0,0,0,.56.24,3.3,3.3,0,0,0,.7.07,2,2,0,0,0,.46-0.06,1.58,1.58,0,0,0,.46-0.19,1.18,1.18,0,0,0,.36-0.34,0.86,0.86,0,0,0,.14-0.5,0.74,0.74,0,0,0-.1-0.39A1,1,0,0,0,439,95.8a1.62,1.62,0,0,0-.36-0.19l-0.39-.12L437,95.2a3.56,3.56,0,0,1-.45-0.2,1.31,1.31,0,0,1-.39-0.24,1.14,1.14,0,0,1-.27-0.37,1.27,1.27,0,0,1-.1-0.54,1.74,1.74,0,0,1,.08-0.46,1.29,1.29,0,0,1,.28-0.5,1.67,1.67,0,0,1,.57-0.4,2.29,2.29,0,0,1,.93-0.16,2.74,2.74,0,0,1,.77.11,1.89,1.89,0,0,1,.64.32,1.53,1.53,0,0,1,.6,1.26h-0.52A1.25,1.25,0,0,0,439,93.5a1.22,1.22,0,0,0-.33-0.39,1.43,1.43,0,0,0-.46-0.23,1.85,1.85,0,0,0-.55-0.08,2.25,2.25,0,0,0-.51.06,1.25,1.25,0,0,0-.43.18,0.94,0.94,0,0,0-.3.33,1,1,0,0,0-.11.51,0.78,0.78,0,0,0,.06.33,0.7,0.7,0,0,0,.18.24,0.94,0.94,0,0,0,.26.16l0.31,0.1L438.49,95a3.84,3.84,0,0,1,.54.19,1.82,1.82,0,0,1,.45.27,1.16,1.16,0,0,1,.3.4,1.34,1.34,0,0,1,.11.57,2,2,0,0,1,0,.24,1.24,1.24,0,0,1-.09.32,1.65,1.65,0,0,1-.2.34,1.31,1.31,0,0,1-.36.31,2.12,2.12,0,0,1-.57.23,3.74,3.74,0,0,1-1.7,0,1.89,1.89,0,0,1-.7-0.34A1.49,1.49,0,0,1,435.8,97a1.9,1.9,0,0,1-.13-0.86h0.51A1.53,1.53,0,0,0,436.31,96.8Z" fill="#172936"/>
  <path d="M443.06,94a1.71,1.71,0,0,1,.58.45,1.92,1.92,0,0,1,.36.66,2.7,2.7,0,0,1,0,1.6,1.92,1.92,0,0,1-.36.66,1.68,1.68,0,0,1-.58.44,2,2,0,0,1-1.58,0,1.67,1.67,0,0,1-.58-0.44,1.92,1.92,0,0,1-.36-0.66,2.7,2.7,0,0,1,0-1.6,1.92,1.92,0,0,1,.36-0.66,1.71,1.71,0,0,1,.58-0.45A2,2,0,0,1,443.06,94Zm-1.39.38a1.32,1.32,0,0,0-.43.38,1.7,1.7,0,0,0-.26.53,2.18,2.18,0,0,0,0,1.22,1.71,1.71,0,0,0,.26.53,1.26,1.26,0,0,0,1.63.38A1.33,1.33,0,0,0,443.3,97a1.73,1.73,0,0,0,.26-0.53,2.16,2.16,0,0,0,0-1.22,1.71,1.71,0,0,0-.26-0.53,1.34,1.34,0,0,0-.43-0.38,1.32,1.32,0,0,0-1.2,0v0Z" fill="#172936"/>
  <path d="M447.55,97.88v-0.7h0a1.35,1.35,0,0,1-.55.6,1.56,1.56,0,0,1-.8.21,1.73,1.73,0,0,1-.63-0.1,1.05,1.05,0,0,1-.42-0.29,1.19,1.19,0,0,1-.24-0.46,2.31,2.31,0,0,1-.08-0.62V94h0.48v2.54a1.27,1.27,0,0,0,.25.8,1.23,1.23,0,0,0,1.33.14,1.11,1.11,0,0,0,.36-0.35,1.58,1.58,0,0,0,.21-0.5,2.45,2.45,0,0,0,.07-0.58V94H448v3.91h-0.44v0Z" fill="#172936"/>
  <path d="M449.33,94v0.92h0a1.5,1.5,0,0,1,.56-0.73,1.48,1.48,0,0,1,.91-0.24V94.4a1.42,1.42,0,0,0-.59.09,1.31,1.31,0,0,0-.76.74,1.52,1.52,0,0,0-.11.57v2.08h-0.48V94h0.47Z" fill="#172936"/>
  <path d="M453.53,94.51a1,1,0,0,0-.74-0.25,1.21,1.21,0,0,0-.6.14,1.32,1.32,0,0,0-.43.38,1.74,1.74,0,0,0-.26.53,2.18,2.18,0,0,0,0,1.22,1.75,1.75,0,0,0,.26.53,1.31,1.31,0,0,0,.43.38,1.2,1.2,0,0,0,.6.14,1,1,0,0,0,.42-0.08,1.1,1.1,0,0,0,.35-0.23,1.27,1.27,0,0,0,.25-0.35,1.32,1.32,0,0,0,.12-0.45h0.48a1.8,1.8,0,0,1-.52,1.11,1.53,1.53,0,0,1-1.09.4,1.83,1.83,0,0,1-.79-0.16,1.68,1.68,0,0,1-.58-0.44,1.92,1.92,0,0,1-.36-0.66,2.7,2.7,0,0,1,0-1.6,1.92,1.92,0,0,1,.36-0.66A1.72,1.72,0,0,1,452,94a1.8,1.8,0,0,1,.79-0.17,1.7,1.7,0,0,1,1.06.33,1.42,1.42,0,0,1,.52,1H453.9A1.3,1.3,0,0,0,453.53,94.51Z" fill="#172936"/>
  <path d="M455.42,96.59a1.46,1.46,0,0,0,.23.5,1.31,1.31,0,0,0,.4.36,1.11,1.11,0,0,0,.58.14,1.16,1.16,0,0,0,.82-0.27,1.44,1.44,0,0,0,.41-0.73h0.48a1.91,1.91,0,0,1-.56,1,1.66,1.66,0,0,1-1.15.36,1.81,1.81,0,0,1-.8-0.16,1.46,1.46,0,0,1-.55-0.45,2,2,0,0,1-.31-0.66,3,3,0,0,1-.1-0.79,2.84,2.84,0,0,1,.1-0.76,2,2,0,0,1,.31-0.66,1.58,1.58,0,0,1,.55-0.47,1.69,1.69,0,0,1,.8-0.18,1.54,1.54,0,0,1,1.34.69,2,2,0,0,1,.3.7,3.1,3.1,0,0,1,.08.81h-3A2.11,2.11,0,0,0,455.42,96.59Zm2.36-1.46a1.45,1.45,0,0,0-.25-0.44,1.22,1.22,0,0,0-.39-0.31,1.16,1.16,0,0,0-1,0,1.21,1.21,0,0,0-.39.31,1.52,1.52,0,0,0-.25.45,2.14,2.14,0,0,0-.12.52h2.53a1.76,1.76,0,0,0-.09-0.53h0Z" fill="#172936"/>
  <path d="M459.28,94.09h0.64v0.8h-0.64v-0.8Zm0,3h0.64v0.8h-0.64v-0.8Z" fill="#172936"/>
  <path d="M463.87,92.47L467,97h0V92.47h0.52v5.41H467l-3.15-4.57h0v4.57H463.3V92.47h0.57Z" fill="#172936"/>
  <path d="M468.9,96.59a1.47,1.47,0,0,0,.23.5,1.32,1.32,0,0,0,.4.36,1.11,1.11,0,0,0,.58.14,1.16,1.16,0,0,0,.82-0.27,1.44,1.44,0,0,0,.41-0.73h0.48a1.91,1.91,0,0,1-.56,1,1.66,1.66,0,0,1-1.15.36,1.81,1.81,0,0,1-.8-0.16,1.47,1.47,0,0,1-.55-0.45,2,2,0,0,1-.31-0.66,3,3,0,0,1-.1-0.79,2.87,2.87,0,0,1,.1-0.76,2,2,0,0,1,.31-0.66,1.59,1.59,0,0,1,.55-0.47,1.7,1.7,0,0,1,.8-0.18,1.55,1.55,0,0,1,1.34.69,2,2,0,0,1,.3.7,3.1,3.1,0,0,1,.08.81h-3A2.11,2.11,0,0,0,468.9,96.59Zm2.36-1.46a1.45,1.45,0,0,0-.25-0.44,1.22,1.22,0,0,0-.39-0.31,1.16,1.16,0,0,0-1,0,1.21,1.21,0,0,0-.39.31,1.56,1.56,0,0,0-.25.45,2.23,2.23,0,0,0-.12.52h2.53a1.73,1.73,0,0,0-.1-0.53h0Z" fill="#172936"/>
  <path d="M472.59,94l1,3.35h0l1-3.35h0.54l1,3.35h0l1-3.35h0.51l-1.26,3.91h-0.52l-1-3.29h0l-1,3.29h-0.52L472.08,94h0.51Z" fill="#172936"/>
  <path d="M480.33,94.73a0.79,0.79,0,0,0-.22-0.27,1,1,0,0,0-.32-0.16,1.5,1.5,0,0,0-.39,0,1.57,1.57,0,0,0-.32,0,1,1,0,0,0-.3.11,0.65,0.65,0,0,0-.22.21,0.57,0.57,0,0,0-.08.32,0.45,0.45,0,0,0,.08.27,0.7,0.7,0,0,0,.2.19,1.22,1.22,0,0,0,.26.13l0.27,0.08,0.64,0.14a1.85,1.85,0,0,1,.41.11,1.32,1.32,0,0,1,.36.21,1.05,1.05,0,0,1,.21,1.31,1.17,1.17,0,0,1-.37.36,1.56,1.56,0,0,1-.5.2,2.63,2.63,0,0,1-.55.06,1.8,1.8,0,0,1-1.12-.33,1.38,1.38,0,0,1-.49-1h0.48a0.94,0.94,0,0,0,.35.73,1.28,1.28,0,0,0,.8.25,1.78,1.78,0,0,0,.36,0,1.15,1.15,0,0,0,.34-0.13,0.83,0.83,0,0,0,.26-0.23,0.57,0.57,0,0,0,.1-0.34,0.55,0.55,0,0,0-.07-0.29,0.62,0.62,0,0,0-.19-0.2,1.23,1.23,0,0,0-.28-0.13l-0.31-.09L479.09,96l-0.43-.14a1.37,1.37,0,0,1-.34-0.2,0.82,0.82,0,0,1-.23-0.29A1,1,0,0,1,478,95a0.94,0.94,0,0,1,.13-0.51,1,1,0,0,1,.34-0.34,1.59,1.59,0,0,1,.47-0.19,2.3,2.3,0,0,1,.52-0.06A1.94,1.94,0,0,1,480,94a1.25,1.25,0,0,1,.45.24,1.15,1.15,0,0,1,.31.39,1.4,1.4,0,0,1,.13.55h-0.48A0.91,0.91,0,0,0,480.33,94.73Z" fill="#172936"/>
  <path d="M481.84,94l1,3.35h0l1-3.35h0.54l1,3.35h0l1-3.35h0.51l-1.26,3.91H485l-1-3.29h0l-1,3.29h-0.52L481.33,94h0.51Z" fill="#172936"/>
  <path d="M487.69,96.59a1.47,1.47,0,0,0,.23.5,1.32,1.32,0,0,0,.4.36,1.11,1.11,0,0,0,.58.14,1.16,1.16,0,0,0,.82-0.27,1.44,1.44,0,0,0,.41-0.73h0.48a1.91,1.91,0,0,1-.56,1,1.66,1.66,0,0,1-1.15.36,1.81,1.81,0,0,1-.8-0.16,1.47,1.47,0,0,1-.55-0.45,2,2,0,0,1-.31-0.66,3,3,0,0,1-.1-0.79,2.87,2.87,0,0,1,.1-0.76,2,2,0,0,1,.31-0.66A1.59,1.59,0,0,1,488.1,94a1.7,1.7,0,0,1,.8-0.18,1.55,1.55,0,0,1,1.34.69,2,2,0,0,1,.3.7,3.1,3.1,0,0,1,.08.81h-3A2.11,2.11,0,0,0,487.69,96.59ZM490,95.13a1.45,1.45,0,0,0-.25-0.44,1.22,1.22,0,0,0-.39-0.31,1.16,1.16,0,0,0-1,0,1.21,1.21,0,0,0-.39.31,1.56,1.56,0,0,0-.25.45,2.23,2.23,0,0,0-.12.52h2.53A1.73,1.73,0,0,0,490,95.13Z" fill="#172936"/>
  <path d="M491.62,96.59a1.47,1.47,0,0,0,.23.5,1.32,1.32,0,0,0,.4.36,1.12,1.12,0,0,0,.58.14,1.16,1.16,0,0,0,.82-0.27,1.43,1.43,0,0,0,.41-0.73h0.48a1.91,1.91,0,0,1-.56,1,1.66,1.66,0,0,1-1.15.36,1.81,1.81,0,0,1-.8-0.16,1.47,1.47,0,0,1-.55-0.45,2,2,0,0,1-.31-0.66,3,3,0,0,1-.1-0.79,2.84,2.84,0,0,1,.1-0.76,2,2,0,0,1,.31-0.66A1.59,1.59,0,0,1,492,94a1.69,1.69,0,0,1,.8-0.18,1.55,1.55,0,0,1,1.34.69,2,2,0,0,1,.3.7,3.06,3.06,0,0,1,.08.81h-3A2.16,2.16,0,0,0,491.62,96.59ZM494,95.13a1.45,1.45,0,0,0-.25-0.44,1.21,1.21,0,0,0-.39-0.31,1.1,1.1,0,0,0-.51-0.12,1.13,1.13,0,0,0-.52.12,1.21,1.21,0,0,0-.39.31,1.54,1.54,0,0,0-.25.45,2.18,2.18,0,0,0-.12.52h2.53A1.73,1.73,0,0,0,494,95.13Z" fill="#172936"/>
  <path d="M495.68,92.47v3.39L497.84,94h0.64l-1.67,1.45,1.78,2.46H498l-1.54-2.13-0.77.64V97.9H495.2V92.47h0.48Z" fill="#172936"/>
  <path d="M499.9,97.88a1.31,1.31,0,0,1,0,.33,1.13,1.13,0,0,1-.12.3,1,1,0,0,1-.21.25,0.75,0.75,0,0,1-.29.15V98.58a0.34,0.34,0,0,0,.16-0.11,0.76,0.76,0,0,0,.11-0.19,0.81,0.81,0,0,0,.06-0.21,0.76,0.76,0,0,0,0-.19h-0.32v-0.8h0.64v0.8h0Z" fill="#172936"/>
  <path d="M505.44,92.47l2.12,5.41H507l-0.66-1.68h-2.46l-0.65,1.68H502.7l2.17-5.41h0.57Zm0.73,3.29-1-2.77-1.08,2.77h2.08Z" fill="#172936"/>
  <path d="M508.41,94v0.74h0a1.28,1.28,0,0,1,.54-0.63,1.63,1.63,0,0,1,.85-0.22,1.7,1.7,0,0,1,.78.17,1.58,1.58,0,0,1,.55.45,1.91,1.91,0,0,1,.33.66,3,3,0,0,1,0,1.58,1.91,1.91,0,0,1-.33.66,1.55,1.55,0,0,1-.55.45,1.72,1.72,0,0,1-.78.16,1.74,1.74,0,0,1-.42-0.05,1.55,1.55,0,0,1-.39-0.16,1.29,1.29,0,0,1-.32-0.27,1.12,1.12,0,0,1-.22-0.37h0v2.18H508V94h0.41ZM511,95.32a1.65,1.65,0,0,0-.23-0.53,1.25,1.25,0,0,0-.4-0.38,1.1,1.1,0,0,0-.58-0.15,1.41,1.41,0,0,0-.66.14,1.14,1.14,0,0,0-.42.36,1.44,1.44,0,0,0-.22.53,3.05,3.05,0,0,0-.06.64,2.57,2.57,0,0,0,.07.6,1.56,1.56,0,0,0,.23.53,1.22,1.22,0,0,0,1.06.53,1.1,1.1,0,0,0,.58-0.15,1.26,1.26,0,0,0,.4-0.38,1.65,1.65,0,0,0,.23-0.53A2.57,2.57,0,0,0,511,95.32Z" fill="#172936"/>
  <path d="M512.75,94v0.92h0a1.5,1.5,0,0,1,.56-0.73,1.48,1.48,0,0,1,.91-0.24V94.4a1.42,1.42,0,0,0-.59.09,1.3,1.3,0,0,0-.76.74,1.52,1.52,0,0,0-.11.57v2.08h-0.48V94h0.47Z" fill="#172936"/>
  <path d="M515.18,92.47v0.76H514.7V92.47h0.48Zm0,1.5v3.91H514.7V94h0.48v0Z" fill="#172936"/>
  <path d="M516.58,92.47v5.41H516.1V92.47h0.48Z" fill="#172936"/>
  <path d="M519.42,97.88a1.86,1.86,0,0,1,.14-0.7,2,2,0,0,1,.34-0.54,3.17,3.17,0,0,1,.48-0.44l0.55-.39,0.56-.38A3.79,3.79,0,0,0,522,95a1.64,1.64,0,0,0,.33-0.45,1.27,1.27,0,0,0,.11-0.55,1.06,1.06,0,0,0-.09-0.46,1,1,0,0,0-.26-0.34,1.12,1.12,0,0,0-.38-0.21,1.47,1.47,0,0,0-.46-0.07,1.18,1.18,0,0,0-.56.12,1,1,0,0,0-.37.33,1.36,1.36,0,0,0-.21.47,2.14,2.14,0,0,0-.06.56h-0.48a2.47,2.47,0,0,1,.09-0.75,1.61,1.61,0,0,1,.31-0.59,1.43,1.43,0,0,1,.53-0.39,1.86,1.86,0,0,1,.75-0.14,2.12,2.12,0,0,1,.65.09,1.54,1.54,0,0,1,.52.28,1.26,1.26,0,0,1,.35.47,1.59,1.59,0,0,1,.13.65,1.61,1.61,0,0,1-.11.61,1.93,1.93,0,0,1-.29.5,2.93,2.93,0,0,1-.42.42,4.93,4.93,0,0,1-.5.36l-0.45.28a4.73,4.73,0,0,0-.5.34,2.67,2.67,0,0,0-.42.41,1.06,1.06,0,0,0-.23.49h3v0.44h-3.51Z" fill="#172936"/>
  <path d="M527.15,92.65v0.44q-0.25.26-.6,0.69a7.31,7.31,0,0,0-.68,1,7.89,7.89,0,0,0-.58,1.37,6.59,6.59,0,0,0-.29,1.69h-0.5a7.86,7.86,0,0,1,.18-1.27,6.28,6.28,0,0,1,.4-1.17,8,8,0,0,1,.65-1.15,12.24,12.24,0,0,1,.94-1.2h-2.93v-0.4h3.41Z" fill="#172936"/>
  <path d="M528.94,97.88a1.35,1.35,0,0,1,0,.33,1.16,1.16,0,0,1-.12.3,1,1,0,0,1-.21.25,0.77,0.77,0,0,1-.29.15V98.58a0.35,0.35,0,0,0,.16-0.11,0.83,0.83,0,0,0,.11-0.19,0.89,0.89,0,0,0,.06-0.21,0.76,0.76,0,0,0,0-.19h-0.32v-0.8H529v0.8h0Z" fill="#172936"/>
  <path d="M532,97.88a1.86,1.86,0,0,1,.14-0.7,2,2,0,0,1,.34-0.54A3.17,3.17,0,0,1,533,96.2l0.55-.39,0.56-.38a3.79,3.79,0,0,0,.5-0.41,1.64,1.64,0,0,0,.33-0.45,1.27,1.27,0,0,0,0-.57,1.06,1.06,0,0,0-.09-0.46,1,1,0,0,0-.26-0.34,1.12,1.12,0,0,0-.38-0.21,1.47,1.47,0,0,0-.46-0.07,1.18,1.18,0,0,0-.56.12,1,1,0,0,0-.37.33,1.36,1.36,0,0,0-.21.47,2.14,2.14,0,0,0-.06.56h-0.48a2.47,2.47,0,0,1,.09-0.75,1.61,1.61,0,0,1,.31-0.59,1.43,1.43,0,0,1,.53-0.39,1.86,1.86,0,0,1,.75-0.14,2.12,2.12,0,0,1,.65.09,1.54,1.54,0,0,1,.52.28,1.26,1.26,0,0,1,.35.47,1.59,1.59,0,0,1,.13.65,1.61,1.61,0,0,1-.11.61,1.93,1.93,0,0,1-.29.5,2.93,2.93,0,0,1-.42.42,4.93,4.93,0,0,1-.5.36l-0.45.28a4.73,4.73,0,0,0-.5.34,2.67,2.67,0,0,0-.42.41,1.06,1.06,0,0,0-.23.49h3v0.44H532Z" fill="#172936"/>
  <path d="M539,92.79a1.77,1.77,0,0,1,.56.65,2.84,2.84,0,0,1,.27.88,6.28,6.28,0,0,1,0,1.9,2.83,2.83,0,0,1-.27.88,1.74,1.74,0,0,1-.56.64,1.9,1.9,0,0,1-1.88,0,1.71,1.71,0,0,1-.56-0.64,2.83,2.83,0,0,1-.27-0.88,6.31,6.31,0,0,1-.07-0.95,6.38,6.38,0,0,1,.07-1,2.84,2.84,0,0,1,.27-0.88,1.73,1.73,0,0,1,.56-0.65A1.87,1.87,0,0,1,539,92.79Zm-1.67.38a1.51,1.51,0,0,0-.41.58,2.9,2.9,0,0,0-.19.76,6.31,6.31,0,0,0,0,1.5,2.93,2.93,0,0,0,.19.76,1.49,1.49,0,0,0,.41.59,1.24,1.24,0,0,0,1.45,0,1.48,1.48,0,0,0,.41-0.59,2.89,2.89,0,0,0,.19-0.76,6.17,6.17,0,0,0,0-1.5,2.86,2.86,0,0,0-.19-0.76,1.49,1.49,0,0,0-.41-0.58,1.24,1.24,0,0,0-1.41,0h0Z" fill="#172936"/>
  <path d="M543.25,92.79a1.76,1.76,0,0,1,.56.65,2.84,2.84,0,0,1,.27.88,6.28,6.28,0,0,1,0,1.9,2.83,2.83,0,0,1-.27.88,1.73,1.73,0,0,1-.56.64,1.9,1.9,0,0,1-1.88,0,1.72,1.72,0,0,1-.56-0.64,2.83,2.83,0,0,1-.27-0.88,6.44,6.44,0,0,1-.07-0.95,6.51,6.51,0,0,1,.07-1,2.84,2.84,0,0,1,.27-0.88,1.74,1.74,0,0,1,.56-0.65A1.87,1.87,0,0,1,543.25,92.79Zm-1.67.38a1.51,1.51,0,0,0-.41.58,2.94,2.94,0,0,0-.19.76,6.31,6.31,0,0,0,0,1.5,3,3,0,0,0,.19.76,1.49,1.49,0,0,0,.41.59,1.24,1.24,0,0,0,1.45,0,1.48,1.48,0,0,0,.41-0.59,2.86,2.86,0,0,0,.19-0.76,6.17,6.17,0,0,0,0-1.5,2.83,2.83,0,0,0-.19-0.76,1.49,1.49,0,0,0-.41-0.58A1.24,1.24,0,0,0,541.58,93.17Z" fill="#172936"/>
  <path d="M545.21,96.76a1.2,1.2,0,0,0,.26.44,1.17,1.17,0,0,0,.42.28,1.52,1.52,0,0,0,.57.1A1.68,1.68,0,0,0,547,97.5a1.29,1.29,0,0,0,.43-0.23,1.14,1.14,0,0,0,.3-0.37,1.07,1.07,0,0,0,.11-0.5,1.16,1.16,0,0,0-.1-0.5,1,1,0,0,0-.27-0.35,1.16,1.16,0,0,0-.41-0.21,1.77,1.77,0,0,0-.5-0.07h-0.4v-0.4h0.4a1.32,1.32,0,0,0,.38-0.06,1.08,1.08,0,0,0,.35-0.17,0.92,0.92,0,0,0,.25-0.3,0.88,0.88,0,0,0,.1-0.43,1,1,0,0,0-.09-0.45,0.87,0.87,0,0,0-.25-0.31A1,1,0,0,0,546.9,93a1.7,1.7,0,0,0-.45-0.06,1.31,1.31,0,0,0-.52.1,1,1,0,0,0-.38.28,1.13,1.13,0,0,0-.23.42,1.66,1.66,0,0,0-.07.54h-0.48a2,2,0,0,1,.12-0.7,1.61,1.61,0,0,1,.33-0.55,1.53,1.53,0,0,1,.53-0.36,1.75,1.75,0,0,1,.7-0.13,2.29,2.29,0,0,1,.61.08,1.62,1.62,0,0,1,.53.24,1.3,1.3,0,0,1,.28,1.78,1.11,1.11,0,0,1-.66.42h0a1.24,1.24,0,0,1,.81.44,1.34,1.34,0,0,1,.28.87,1.55,1.55,0,0,1-.15.69,1.49,1.49,0,0,1-.4.5,1.7,1.7,0,0,1-.58.31,2.36,2.36,0,0,1-.7.1,2.25,2.25,0,0,1-.75-0.12,1.67,1.67,0,0,1-.59-0.35,1.43,1.43,0,0,1-.37-0.56,1.8,1.8,0,0,1-.09-0.76h0.48A1.55,1.55,0,0,0,545.21,96.76Z" fill="#172936"/>
  <path d="M33.79,56.48a15,15,0,1,1,15-15A15,15,0,0,1,33.79,56.48Zm0-28.4A13.44,13.44,0,1,0,47.24,41.53,13.44,13.44,0,0,0,33.79,28.08Z" fill="#172936"/>
  <path d="M33.79,53.24A11.71,11.71,0,1,1,45.5,41.53,11.71,11.71,0,0,1,33.79,53.24Zm0-22.67a11,11,0,1,0,11,11h0A11,11,0,0,0,33.79,30.57Z" fill="#172936"/>
  <path d="M135.08,42.29c0,15.92-13.12,17.44-18.67,17.44-3.64,0-10.27,0-12.73.15a6.39,6.39,0,0,1,.25-2.11c2.6-.15,3.44-1,3.44-4.82V32.76c0-3.29-.79-4.13-3.39-4.27a6.76,6.76,0,0,1-.25-2.11c1.52,0.1,4.72.15,6.88,0.15,1.92,0,3.88-.1,5.8-0.1C125.11,26.42,135.08,28.78,135.08,42.29ZM130,43c0-10.66-7-14.74-14.4-14.74a15.68,15.68,0,0,0-3.63.44V53c0,3.64.74,4.57,4.42,4.57C124.22,57.53,130,54.14,130,43Z" fill="#172936"/>
  <path d="M169.23,59.88c-1,0-4-.15-5.6-0.15s-4.57.1-5.55,0.15a4.78,4.78,0,0,1,.34-2.11c2.7-.29,3-0.83,1.77-3.83l-2.16-5c-4.13,0-9.09,0-13,.2l-1.33,3.39c-1.47,3.88-.93,5.06,1.77,5.26a5.62,5.62,0,0,1,.34,2.11c-1.13-.1-3-0.15-4.67-0.15s-3.14.1-4.08,0.15a5.86,5.86,0,0,1,.34-2.06c1.77-.34,2.41-1.42,3.93-5.31L151.5,26.44a7.66,7.66,0,0,1,1.92-.2l11.69,26.83c1.62,3.68,2.26,4.47,3.78,4.72A6.44,6.44,0,0,1,169.23,59.88ZM153.36,38c-0.83-1.92-1.38-3.09-2.21-5.36-0.69,2.31-1.28,3.83-1.82,5.31l-3.39,8.79h11.15Z" fill="#172936"/>
  <path d="M176.84,32.76c0-3.29-.79-4.13-3.39-4.27a6.39,6.39,0,0,1-.25-2.11c1.82,0.1,3.83.15,5.95,0.15s4,0,5.95-.15a6.37,6.37,0,0,1-.25,2.11c-2.6.15-3.39,1-3.39,4.27V53.5c0,3.29.79,4.13,3.39,4.27a6.36,6.36,0,0,1,.25,2.11c-2-.1-4-0.15-5.95-0.15s-4.27,0-5.95.15a6.39,6.39,0,0,1,.25-2.11c2.6-.15,3.39-1,3.39-4.27V32.76Z" fill="#172936"/>
  <path d="M203.61,57.53c5.45,0,7-1.62,8.6-6.19a4.59,4.59,0,0,1,2.16,1.18,43.11,43.11,0,0,0-1.52,7.32c-1.92,0-5.9-.1-9.53-0.1s-10.27,0-12.73.15a6.39,6.39,0,0,1,.25-2.11c2.6-.15,3.44-1,3.44-4.82V32.76c0-3.29-.79-4.13-3.39-4.27a6.76,6.76,0,0,1-.25-2.11c1.92,0.1,4.52.15,5.94,0.15,2.11,0,4,0,5.95-.15a6.4,6.4,0,0,1-.25,2.11c-2.6.15-3.39,1-3.39,4.42V53c0,3.64.74,4.57,4.42,4.57h0.29v0Z" fill="#172936"/>
  <path d="M243.11,26.42a8.4,8.4,0,0,1-.2,1.92c-1.77.49-3.29,2-5,5.31L231.32,47v4.77c0,5.21.44,5.6,3.78,6a6.87,6.87,0,0,1,.29,2.11c-2.16,0-4.42-.15-6.24-0.15-2.16,0-5.31,0-6.68.1a7,7,0,0,1,.29-2.06c3.49-.29,3.93-0.79,3.93-5.41V47l-8.16-15.67c-1-2-1.82-2.8-3.64-2.9a5.9,5.9,0,0,1-.29-2c1.38,0,3.24.1,5.11,0.1s5.06,0,6.58-.1a6.26,6.26,0,0,1-.25,1.92c-2.56.25-2.85,1.23-1.38,4,1.72,3.29,3.78,7.52,5.75,11.94,2-4.47,3.83-8.25,5.31-11.2,1.77-3.44,1.28-4.27-1.33-4.67a6.93,6.93,0,0,1-.34-2c1.18,0.1,3.34.1,4.82,0.1S242,26.47,243.11,26.42Z" fill="#172936"/>
  <path d="M360,26.38a8,8,0,0,1-.25,2.11c-2.16,0-2.9,1.62-2.9,7V59.93a6.48,6.48,0,0,1-2,.25L334.4,33.55v17c0,5.55.74,7.22,3.39,7.22a6.39,6.39,0,0,1,.25,2.11c-1.47-.1-3.44-0.15-4.86-0.15s-3.69,0-4.91.15a6.75,6.75,0,0,1,.25-2.11c2.65,0,3.39-1.67,3.39-7.22V30.26L331.7,30c-0.93-1.18-1.57-1.37-3.19-1.52a8.48,8.48,0,0,1-.25-2.11c1,0.1,2.41.15,3.64,0.15a31.57,31.57,0,0,0,3.29-.15L354.3,51.73V35.46c0-5.36-.74-7-3.39-7a11,11,0,0,1-.25-2.11c1.42,0.1,3.24.15,4.62,0.15S358.62,26.47,360,26.38Z" fill="#172936"/>
  <path d="M389.47,52.51A43.11,43.11,0,0,0,388,59.84c-1.92,0-5.9-.1-10.51-0.1-3.64,0-10.27,0-12.72.15a6.39,6.39,0,0,1,.25-2.11c2.65-.15,3.39-1,3.39-4.82V32.76c0-3.29-.79-4.13-3.39-4.27a6.76,6.76,0,0,1-.25-2.11c1.92,0.1,6.49.15,8.25,0.15,7.71,0,12.19-.1,13.81-0.15a67,67,0,0,0,1,7.76,3.46,3.46,0,0,1-2.21.59c-0.25-3-1.72-6.24-8.06-6.24H373V42h3.1c4,0,5.4-.79,5.45-4a7.64,7.64,0,0,1,2.36-.34c-0.1,1.67-.1,3.64-0.1,5.36s0,4,.1,5.7a8.19,8.19,0,0,1-2.26-.25c-0.25-3.39-1.52-4.37-5.55-4.37H373V53c0,3.64.79,4.57,4.47,4.57h0.29c7,0,8.16-2.16,9.58-6.19A4.59,4.59,0,0,1,389.47,52.51Z" fill="#172936"/>
  <path d="M438.06,26.38a6.54,6.54,0,0,1-.34,2.11c-1.72.39-2.51,1.67-4.13,7.12l-7.17,24.27a5.88,5.88,0,0,1-2,.29c-3-8.16-6.63-17.79-9.88-26l-8.35,25.7a6.83,6.83,0,0,1-2.11.29c-2.8-8.7-5.75-17.44-8.75-26-1.82-5.26-2.11-5.45-3.88-5.65a7.55,7.55,0,0,1-.25-2.11c1.57,0.1,4,.15,5.55.15s4.13,0,6-.15a9,9,0,0,1-.25,2.11c-3.44.2-3.83,0.69-2.31,5.06,1.92,5.4,4.27,12.43,6.14,18.23l8.4-25.4a6,6,0,0,1,2.16-.25c3.14,7.91,6.73,17.49,9.68,25.65l4.77-16.31c1.47-5,.83-6.58-2.36-7a6.76,6.76,0,0,1-.34-2.11c1.38,0.1,3,.15,4.77.15C434.92,26.52,436.74,26.47,438.06,26.38Z" fill="#172936"/>
  <path d="M460.37,28.24a55.87,55.87,0,0,0,.29,6.49,8.28,8.28,0,0,1-2.75.44c-1-5.65-2.85-6.93-5.8-6.93-3.49,0-5.55,1.77-5.55,4.86,0,8.7,16.31,6.83,16.31,17.64,0,4.91-3.39,9.43-11.2,9.43-4.08,0-6.83-1.23-10-3.14a46.06,46.06,0,0,0,.44-7,11.57,11.57,0,0,1,2.65-.29c0.25,5,2.31,8.06,7.57,8.06,4.52,0,6.29-2.26,6.29-5.11,0-8.7-16.36-6.39-16.36-17.79,0-5.5,3.78-8.84,9.88-8.84A15.88,15.88,0,0,1,460.37,28.24Z" fill="#172936"/>
  <path d="M316.09,53.93c-0.75-.38-1.14.17-1.55,0.64-0.35-.51-0.69-0.52-1.11-0.06l-0.24.29a1.39,1.39,0,0,0-.48-0.25,0.79,0.79,0,0,0-.37.17c0-.25-0.06-0.53-0.09-0.81a0.25,0.25,0,0,1,0-.14,0.79,0.79,0,0,0,0-.78,0.91,0.91,0,0,1,0-.39,0.68,0.68,0,0,0-.55-0.79h-0.07a8.94,8.94,0,0,1-.89-0.09,0.37,0.37,0,0,1-.26-0.18,0.89,0.89,0,0,0-.93-0.63h-1.21a1.23,1.23,0,0,1-1.45-1.31,4.49,4.49,0,0,0-.46-1.7l-0.31-.57,0.43,0.13a3.35,3.35,0,0,0,3-.28,2.51,2.51,0,0,0,.34-0.33,3.06,3.06,0,0,1-2.28.62,13.53,13.53,0,0,1-1.5-.36,1.9,1.9,0,0,0-.4-0.11c0,0.09.1,0.18,0.16,0.27a4.7,4.7,0,0,1,.88,2.37,1.39,1.39,0,0,0,1.32,1.45h1.54a0.64,0.64,0,0,1,.75.6,0.26,0.26,0,0,0,.28.23h0a6,6,0,0,1,.9,0,0.56,0.56,0,0,1,.47.84,1.73,1.73,0,0,0-1.63,0,5.12,5.12,0,0,1,.64,0,6.88,6.88,0,0,1,.88.18,0.37,0.37,0,0,1,.23.19,2.42,2.42,0,0,1,.09.47,1.72,1.72,0,0,1-.41-0.06,1.21,1.21,0,0,0-1.26.11h0.28a1.67,1.67,0,0,1,1.06.19,0.52,0.52,0,0,1,.23.88,1.23,1.23,0,0,0-1.15-.28,0.51,0.51,0,0,0-.43.47c-0.08.48-.25,0.94-0.37,1.41a0.37,0.37,0,0,0,0,.26c0.13,0.19.3,0.36,0.42,0.56a0.5,0.5,0,0,1-.63.77,1.8,1.8,0,0,0-.47-0.19c-0.52,0-.65-0.23-0.44-0.71l0.12-.26a0.55,0.55,0,0,0-.38.67,1.41,1.41,0,0,1,.1.26,0.8,0.8,0,0,1-.06.48,0.47,0.47,0,0,1-.61.1c-0.25-.14-0.51-0.27-0.76-0.42a0.21,0.21,0,0,1-.08-0.18,4.6,4.6,0,0,1,.21-0.6,1.79,1.79,0,0,1,.21-0.29,0.81,0.81,0,0,0-.61.81c0,0.17.1,0.39-.2,0.45a0.66,0.66,0,0,1-.72-0.26c-0.1-.19-0.2-0.39-0.29-0.58a0.39,0.39,0,0,1,.25-0.6l0.27-.07,0.25-.06c-0.3-.25-0.73-0.1-1.07.39a0.81,0.81,0,0,1,0-1,0.57,0.57,0,0,1,.79-0.13h0c0.27,0.14.52,0.31,0.79,0.44a0.47,0.47,0,0,0,.73-0.28,3,3,0,0,0,0-2.46c-0.19-.45-0.25-0.48-0.72-0.4a2.56,2.56,0,0,1-1.75-.25,5,5,0,0,1-.7-0.55,1.45,1.45,0,0,0-.22-0.21,0.67,0.67,0,0,0,.38.63l0.66,0.44a1.72,1.72,0,0,1-1.71-.35,2.84,2.84,0,0,1-.7-1.6,8,8,0,0,1,0-2.8,1.24,1.24,0,0,0-.41-1.15,6.16,6.16,0,0,0-2.14-1.28l-2.69-1-0.28-.14a5.92,5.92,0,0,1,1.81-.63c0.58-.1,1.17-0.14,1.76-0.2a0.6,0.6,0,0,1,.59.3,3.57,3.57,0,0,0,1.26,1.15,1.67,1.67,0,0,0,.58.16l-1.11-.64v-0.1l0.62,0.06c-0.43-.3-1.07-0.21-1.32-0.82l0.36-.11a2.24,2.24,0,0,0-1.16-.2,12.07,12.07,0,0,0-3.62.89,4.55,4.55,0,0,0-2.22,2,1.46,1.46,0,0,0-.16.7,1.87,1.87,0,0,1-1.52,1.87,0.32,0.32,0,0,1-.41-0.18l0-.06a4.51,4.51,0,0,0-.31-0.6c0.45,0,.91.34,1.28-0.21l-0.5.15c-0.37.09-.53-0.06-0.47-0.42a0.55,0.55,0,0,0-.16-0.61A0.7,0.7,0,0,1,293,47c0.39,0.17.74,0.43,1.1,0a1.27,1.27,0,0,0-.43,0,0.27,0.27,0,0,1-.3-0.38,0.51,0.51,0,0,0-.1-0.57c-0.17-.19-0.08-0.37.19-0.4a1,1,0,0,1,.3,0l0.31,0.09c0-.51.63-0.25,0.79-0.69l-0.54.17a0.37,0.37,0,0,1-.47-0.14,0.41,0.41,0,0,1,0-.52,1.68,1.68,0,0,0,.23-0.56,0.26,0.26,0,0,1,.25-0.27l0.1,0a5.82,5.82,0,0,1,.65.17,0.3,0.3,0,0,0,.36-0.11c0.74-.77,1.47-1.56,2.25-2.29a3.9,3.9,0,0,1,4.26-.65,3.31,3.31,0,0,1,1.42,1.41c0.36,0.66.72,1.32,1.08,2a2.82,2.82,0,0,0,.21.29L304.48,44a2.55,2.55,0,0,0,1.68.47,1.51,1.51,0,0,0,1.18-1.13,2.08,2.08,0,0,1-1.64-.58c0.43-.11.84-0.19,1.24-0.33a1.07,1.07,0,0,0,.67-1.18h-0.78a7,7,0,0,1-.73-0.15c1.28-.75,1.59-1.1,1.43-1.67a2.8,2.8,0,0,1-1.62-.17l0.26-.12a1.4,1.4,0,0,0,.87-1,0.25,0.25,0,0,0-.24-0.37c-0.24,0-.72-0.14-1.08-0.21V37.52A1.55,1.55,0,0,0,307,36.43c-1.24,0-1.36-.06-1.58-0.43l0.5-.1a1.15,1.15,0,0,0,.83-0.61c0.08-.16.07-0.25-0.12-0.32a6,6,0,0,1-.77-0.36,3.76,3.76,0,0,1-.47-0.38,1.57,1.57,0,0,0,1.41-1.07,1.16,1.16,0,0,1-1.07-.73,2.91,2.91,0,0,0-2.51-1.66,0.21,0.21,0,0,1-.24-0.21,0.28,0.28,0,0,0-.4-0.26l-0.91.21c0.13-.31.25-0.57,0.36-0.84a0.73,0.73,0,0,0-.6-1.12,6.2,6.2,0,0,1-.87-0.37,0.32,0.32,0,0,1-.06-0.1l0.19-.09c-0.19-.3-0.34-0.1-0.5,0a0.52,0.52,0,0,1,.09.19,0.63,0.63,0,0,1-.76.47h0a0.73,0.73,0,0,0-.81.14,0.55,0.55,0,0,0-.15.67l0.22,0.7a0.5,0.5,0,0,1-.5.73,0.53,0.53,0,0,0-.58.43,0.85,0.85,0,0,1-.15.3,1.55,1.55,0,0,0-.23.62,6.21,6.21,0,0,0,.26,1.17,5.52,5.52,0,0,0,.27.64,5.63,5.63,0,0,1-.6,0,1.17,1.17,0,0,1-1.16-1.53c0-.21.06-0.42,0.09-0.7-0.24.17-.43,0.29-0.6,0.43a1.16,1.16,0,0,0-.45,1,1.39,1.39,0,0,0,1.27,1.5h0.18l1.19,0.07c-0.16.18-.06,0.6-0.49,0.5v0.43a0.45,0.45,0,0,1-.34.47,4.29,4.29,0,0,1-1.08.07,0.8,0.8,0,0,1-.71-0.61,8.52,8.52,0,0,1-.31-1.66,4.64,4.64,0,0,0-.46-1.81c-0.13-.29-0.31-0.55-0.49-0.88l0.39,0.12a0.51,0.51,0,0,0,.68-0.24l0-.07a0.4,0.4,0,0,1,.48-0.29,2,2,0,0,1,1.28.58l0.36,0.29L297,30.47l0.55,0.21a1.62,1.62,0,0,0-.44-1l0.67-.06a1.27,1.27,0,0,0-.81-0.77,1,1,0,0,0,.34-0.94,0.85,0.85,0,0,0-1.09-.33,1.16,1.16,0,0,0-.24-1.09L295.6,27,295,26.09h-0.08l-0.12.58L293.94,26a0.83,0.83,0,0,0,0,.37,1.84,1.84,0,0,1-.13,1.34,0.42,0.42,0,0,1-.53.26c-0.47-.12-0.67.07-0.69,0.57a0.28,0.28,0,0,1-.06.2l-1.47.87c0.06-.48.08-0.88,0.16-1.28q0.43-2.19.89-4.37a0.92,0.92,0,0,0-1-1.15h-0.29a0.8,0.8,0,0,0-.76-0.83h-0.19a0.34,0.34,0,0,1-.17-0.2A0.63,0.63,0,0,0,289,21.3l-0.11,0a0.26,0.26,0,0,1-.35-0.12h0a0.58,0.58,0,0,0-.7-0.27,0.21,0.21,0,0,1-.18,0,0.57,0.57,0,0,0-.79-0.16l-0.07.05a0.59,0.59,0,0,0-.71-0.23,0.75,0.75,0,0,1-.42,0c-0.37-.09-0.5,0-0.53.39a1.53,1.53,0,0,1-.09.31h-0.07a0.74,0.74,0,0,1,0-.13,1.07,1.07,0,0,0-.42-1.17,0.65,0.65,0,0,1-.16-0.19,0.25,0.25,0,0,1,.23-0.4h0.27V19c0-.49,0-0.49-0.49-0.55h0V18h-0.92V18.5h-0.52v0.91l0.59,0.06a1.35,1.35,0,0,1-.18.44,1.7,1.7,0,0,0-.57,1.3,1,1,0,0,1-.12-0.28c-0.1-.38-0.27-0.44-0.62-0.25a0.55,0.55,0,0,1-.27,0l-0.22-.07c0.08,0.22.41,0.37,0.11,0.58a0.45,0.45,0,0,1-.39.06c-0.28-.27.11-0.42,0.19-0.71l-0.42.27a1.18,1.18,0,0,0-.58-0.07,2.18,2.18,0,0,1-.86.29,1.57,1.57,0,0,0-.38.27,0.41,0.41,0,0,1-.25.09,0.63,0.63,0,0,0-.89.42,0.35,0.35,0,0,1-.33.24,0.83,0.83,0,0,0-.79.62,1.15,1.15,0,0,1-.09.17h-0.1a0.89,0.89,0,0,0-1,1.3,0.43,0.43,0,0,1,0,.17,1.48,1.48,0,0,0,0,.42c0.19,0.85.43,1.69,0.61,2.55s0.26,1.52.41,2.36c-0.53-.31-1-0.56-1.42-0.83a0.42,0.42,0,0,1-.15-0.27,0.6,0.6,0,0,0-.87-0.54,0.31,0.31,0,0,1-.39-0.17,1.65,1.65,0,0,1-.21-1.11,3.9,3.9,0,0,1,.11-0.67h-0.06l-0.9.64-0.13-.61h-0.08L272,27l-0.39-.54a1.24,1.24,0,0,0-.22,1.1,1,1,0,0,0-1,.23,0.85,0.85,0,0,0,.31,1.06,1.21,1.21,0,0,0-.85.81h0.73a1.53,1.53,0,0,0-.48,1l0.56-.19v0.65c0,0.21-.16.41,0.14,0.52a1.68,1.68,0,0,1,1.41-.86,0.46,0.46,0,0,1,.52.3,0.5,0.5,0,0,0,.63.32l0.09,0,0.3-.09a4.07,4.07,0,0,0-.75,3.44l-0.73,0a1.52,1.52,0,0,1-.07.57,1.12,1.12,0,0,1-1,1A1.41,1.41,0,0,1,270,36a1.37,1.37,0,0,1-.11-0.68,0.21,0.21,0,0,0,0-.06l-0.21.07-0.29-.62h1.26a1.37,1.37,0,0,0,1.42-1.32s0-.08,0-0.12a1.32,1.32,0,0,0-1-1.38v1a0.84,0.84,0,0,1-.53.91,12.57,12.57,0,0,1-1.3.28l0.42-1a1.33,1.33,0,0,0,0-1.37,2.58,2.58,0,0,1-.2-0.46,0.57,0.57,0,0,0-.6-0.45,0.49,0.49,0,0,1-.5-0.7c0.08-.26.18-0.52,0.25-0.78a0.55,0.55,0,0,0-.15-0.62,0.72,0.72,0,0,0-.73-0.17,0.46,0.46,0,0,1-.7-0.21,4.19,4.19,0,0,1-.26-0.46V27.79l-0.19.17,0.23,0.22c-0.39.14-.74,0.27-1.1,0.38a0.7,0.7,0,0,0-.53,1,1.06,1.06,0,0,0,.14.31l0.2,0.56-0.88-.19a0.28,0.28,0,0,0-.41.26,0.27,0.27,0,0,1-.18.18,2.91,2.91,0,0,0-2.56,1.68,1.13,1.13,0,0,1-1.08.71,1.56,1.56,0,0,0,1.36,1.09,2.13,2.13,0,0,1-1.36.81c0.17,0.78.8,0.85,1.43,1a0.48,0.48,0,0,1-.26.21c-0.43.1-.87,0.17-1.31,0.26a1.64,1.64,0,0,0,1.23,1.13l-1.37.28a1.49,1.49,0,0,0,1.13,1.41,2.38,2.38,0,0,1-1.65.22,1.38,1.38,0,0,0,.47,1,8.16,8.16,0,0,0,1,.58,3.44,3.44,0,0,1-1.54.22c0.17,1.19,1,1.41,2,1.38-0.32.43-.4,0.46-1.75,0.69a1.78,1.78,0,0,0,.87,1,2.09,2.09,0,0,0,2-.28,7.58,7.58,0,0,1-.75,1.19,2.68,2.68,0,0,1-2.63,1.07,1.82,1.82,0,0,1-1.68-1.54,4.22,4.22,0,0,1,.22-2.33c0.35-.94.74-1.87,1.12-2.8a10,10,0,0,0,.9-4.82,2.61,2.61,0,0,0-2.64-2.55,2,2,0,0,0-2.36,2.15,1,1,0,0,1-.6,1,1.93,1.93,0,0,0-1,2.51,3,3,0,0,1,.16.65,0.82,0.82,0,0,0,.38.74,0.36,0.36,0,0,1,.19.3,0.89,0.89,0,0,0,.25.5,0.93,0.93,0,0,1,.43.58,0.87,0.87,0,0,0,1,.63,1.93,1.93,0,0,1,.73-1.7,4,4,0,0,0,1-2.21,1.79,1.79,0,0,0-.86-2,1.33,1.33,0,0,1-.69-1.23,0.74,0.74,0,0,1,.59-0.82,2,2,0,0,1,.83,0A1.64,1.64,0,0,1,258.57,35a5.85,5.85,0,0,1-.26,2.92c-0.39,1.11-.87,2.2-1.3,3.3-0.22.56-.42,1.14-0.63,1.71l-0.89-.13a0.86,0.86,0,0,0-1,.7v0.06a7.09,7.09,0,0,0-.14.78,7.06,7.06,0,0,0,0,.72l0.64-.13a1,1,0,0,1,1.35.68,4.14,4.14,0,0,0,.4.71,3.14,3.14,0,0,0,3.4,1.19l0.84-.17a10.93,10.93,0,0,0-.5,1.17,10.11,10.11,0,0,0-.22,1.22A1.18,1.18,0,0,1,259,50.85h-1.45a0.82,0.82,0,0,0-.88.57,0.3,0.3,0,0,1-.31.25,8.82,8.82,0,0,0-1,.13,0.6,0.6,0,0,0-.48.7v0a2.57,2.57,0,0,1,0,.42,3.34,3.34,0,0,1-.06.77,1.84,1.84,0,0,1,0,.33,0.75,0.75,0,0,0,.26.84,5.29,5.29,0,0,1,.53-0.31,0.64,0.64,0,0,1,1,.5c0.08,0.4.17,0.79,0.25,1.18a0.38,0.38,0,0,1,0,.26,7,7,0,0,1-.48.54,2.11,2.11,0,0,0-.08-0.37c-0.07-.4-0.12-0.8-0.2-1.19a0.43,0.43,0,0,0-.66-0.37l-0.29.1a6.6,6.6,0,0,0-.41-0.58,0.35,0.35,0,0,0-.58,0l-0.16.18c-0.09-.12-0.17-0.24-0.26-0.34-0.39-.44-0.78-0.44-1.07,0h-0.06a1.2,1.2,0,0,0-1.42-.67,1.18,1.18,0,0,0-.76,1.09,0.91,0.91,0,0,0,1,1.12,1.63,1.63,0,0,0,0,.75,1.53,1.53,0,0,0,.65.3v0.09a0.5,0.5,0,0,0,.38.84,1.24,1.24,0,0,1,.5.07c0.16,0.07.27,0.12,0.15,0.31l-0.3.46c-0.78-.28-1.1-0.23-1.41.21a1.3,1.3,0,0,0,0,1.52,1.13,1.13,0,0,0,.53.3,1.36,1.36,0,0,0,1.18-.29,0.81,0.81,0,0,0,.83.79l0.17,0h0.08a0.46,0.46,0,0,1,.39.65,1.06,1.06,0,0,0,.27,1.24,1,1,0,0,0,1.18.22l0.18-.06,0.09,0.12a0.7,0.7,0,0,0,1.2,0,0.39,0.39,0,0,1,.54-0.09,0.82,0.82,0,0,0,1.09-.39l0-.07,0.14-.31a1.24,1.24,0,0,1,.38.32,0.68,0.68,0,0,1-.12.93,0.38,0.38,0,0,0-.08.53l0.08,0.08,0.26,0.32L259.7,65a0.75,0.75,0,0,0,0,1.39,1.42,1.42,0,0,0,2.11-.92,0.33,0.33,0,0,1,0-.21c0.36,0.05.39,0,.5-0.3a0.33,0.33,0,0,1,.07-0.15,1.43,1.43,0,0,1,.91.07l1,0.91A9,9,0,0,0,267,67.51a0.48,0.48,0,0,0,.64-0.15c0.31-.38.64-0.73,1-1.11l1.65,1-1,1.59L269.61,69c1.17,0.49,2.33,1,3.51,1.47a5.83,5.83,0,0,1,2.79,2,0.47,0.47,0,0,0,.41.09,9.1,9.1,0,0,0,1-.39,7.92,7.92,0,0,0,.74-0.35c0.32-.18.34-0.35,0-0.57l-0.73-.48-0.7-.4a5.26,5.26,0,0,1,2.6,0,3.93,3.93,0,0,1,2.39,2.15,5.85,5.85,0,0,0,.37-1.09A2,2,0,0,0,280.67,69a2.49,2.49,0,0,0-.49-0.13l-3.44-.45a4.54,4.54,0,0,1-2.22-.74c-0.33-.25-0.34-0.27,0-0.6a26.77,26.77,0,0,0,18-.08l0.23,0.45-0.51.34a5.61,5.61,0,0,1-2.49.61c-1,.12-2.09.22-3.13,0.41a2,2,0,0,0-1.8,2,1.91,1.91,0,0,0,.48,1.48,3.9,3.9,0,0,1,2.07-2,4.52,4.52,0,0,1,2.85,0c-0.52.32-1,.61-1.45,0.91-0.24.16-.23,0.32,0,0.44,0.67,0.34,1.35.66,2,1l0.19-.23a4.55,4.55,0,0,1,1.83-1.51l1.38-.58,3.46-1.41-0.94-1.6,1.66-1c0.32,0.38.65,0.75,1,1.13a0.47,0.47,0,0,0,.64.16,8.19,8.19,0,0,0,2.12-1.26c0.65-.54,1.28-1.11,1.84-1.6h0.72c0.15,0.18.1,0.68,0.61,0.47a0.35,0.35,0,0,0,.06.24,1.27,1.27,0,0,0,1,1.06,1.23,1.23,0,0,0,1.33-.38,0.68,0.68,0,0,0,0-1.13l-0.25-.17c0.62-.45.63-0.52,0.12-1.08a0.33,0.33,0,0,1-.09-0.14,0.81,0.81,0,0,1,.56-0.87L308,62.86a0.83,0.83,0,0,0,1.3.57,0.3,0.3,0,0,1,.4.15h0a0.64,0.64,0,0,0,.86.29l0.14-.1a1.55,1.55,0,0,0,.23-0.16,0.31,0.31,0,0,1,.38,0,0.78,0.78,0,0,0,.73,0,1.17,1.17,0,0,0,.62-1.51c0-.14-0.22-0.31,0-0.43a3.29,3.29,0,0,1,.45-0.2,0.91,0.91,0,0,1,.25,0,0.71,0.71,0,0,0,.72-0.53,0.62,0.62,0,0,1,.07-0.19,4.79,4.79,0,0,0,.56.24,1,1,0,0,0,1.29-.55,1.14,1.14,0,0,0-1.24-1.57,0.52,0.52,0,0,1-.65-0.34,0.2,0.2,0,0,1,.16-0.33,2.15,2.15,0,0,0,.5-0.07,0.49,0.49,0,0,0,.39-0.76l-0.06-.15a2.4,2.4,0,0,0,.68-0.38c0.21-.24,0-0.48-0.2-0.66,1-.24,1.1-0.35,1.17-0.87A1.3,1.3,0,0,0,316.09,53.93Zm-10.33,3.29a0.8,0.8,0,0,1,.21.35,1.3,1.3,0,0,1-.4.52A0.85,0.85,0,0,1,305.76,57.22Zm-1.68-1.46a0.75,0.75,0,0,0,.87-0.6v0h0A0.85,0.85,0,0,0,306.17,54a5.92,5.92,0,0,0-.32-0.81h1.76a0.32,0.32,0,0,1,.22.17,2.84,2.84,0,0,1,.08,2.37c-0.17.41-.39,0.46-0.78,0.23l-0.55-.34a0.84,0.84,0,0,0-.93,0,1,1,0,0,1-.41.14,0.5,0.5,0,0,0-.57.53l0,0.35-1.52-.07,0-.47a1.39,1.39,0,0,0,.38,0,1.76,1.76,0,0,0,.35-0.24,0.47,0.47,0,0,1,.2-0.1h0Zm0.78,0.72c0-.44.08-0.54,0.51-0.46,0.08,0.38,0,.47-0.51.46h0ZM304,53l-0.42.18a0.7,0.7,0,0,0-.93-0.34l-0.15.09-0.28.14a0.34,0.34,0,0,1-.48,0l0,0a0.53,0.53,0,0,0-.75,0l-0.08.11a6.82,6.82,0,0,0-.58.86,4.19,4.19,0,0,1-2.46,2c-0.61.19-.77,0-0.71-0.65h0.64a1.65,1.65,0,0,0,1.41-.68,0.79,0.79,0,0,1,.34-0.28,1.28,1.28,0,0,0,.87-1.59l0-.13a12.06,12.06,0,0,0-.47-1.2,1,1,0,0,0-.13-0.31c-0.17-.46-0.11-0.59.36-0.71a1.6,1.6,0,0,0,.92-0.56,0.5,0.5,0,0,1,.36-0.16c0.54,0,1.08.08,1.64,0.13A4.11,4.11,0,0,0,304,53Zm-8.44,7.18a1.22,1.22,0,0,0-.93-1,1,1,0,0,1-.29-0.23V58.86l1-.23a0.37,0.37,0,0,1,.21.06L296.11,59a1.12,1.12,0,0,0,1.13,0,0.86,0.86,0,0,1,.81.12c-0.29.25-.57,0.51-0.87,0.73a4.45,4.45,0,0,1-.57.3,0.42,0.42,0,0,0-.14.13l-0.78.52a0.87,0.87,0,0,0-.21.16,0.43,0.43,0,0,1-.5.22l0.08-.07a0.91,0.91,0,0,0,.47-0.94h0ZM285,60.9a1.67,1.67,0,0,1,1.92-.51,4.78,4.78,0,0,1,1,.65c0.32,0.23.58,0.53,0.9,0.76a1.52,1.52,0,0,0,1.24.2,0.53,0.53,0,0,1,.37.09,0.81,0.81,0,0,0,1.13,0A0.59,0.59,0,0,1,292,62h0.5a0.51,0.51,0,0,0,.62-0.37h0c0.78,0.08.78,0.08,1-.36l0.9-.06a0.86,0.86,0,0,1-.75.47,0.55,0.55,0,0,0-.38.16,2.37,2.37,0,0,1-1.06.65,4.26,4.26,0,0,1-.6.14l-0.2.14-0.45.16a0.44,0.44,0,0,0-.17,0,1,1,0,0,1-.94.33,0.69,0.69,0,0,0-.6.23,1.32,1.32,0,0,1-.63.24,2.11,2.11,0,0,1-.47,0l0.88-1.12A10.41,10.41,0,0,1,285,60.9Zm3.4,3a0.77,0.77,0,0,1-.89.15Zm-6.4.31a5.87,5.87,0,0,0-.64-0.06,0.36,0.36,0,0,0-.15.1l0.23,0.25-1.3-.15v-0.1h0.39a0.44,0.44,0,0,0,.17-0.1,0.39,0.39,0,0,0-.12-0.12,3.72,3.72,0,0,1-.51-0.1,10.77,10.77,0,0,0,3.49-2,8.62,8.62,0,0,0,3.66,2l-0.39.29a1,1,0,0,1-.79,0,0.34,0.34,0,0,0-.2-0.06h-0.45a0.29,0.29,0,0,0-.16,0,1.27,1.27,0,0,1-1.09.27,0.65,0.65,0,0,1-.68-0.18,0.46,0.46,0,0,0-.65,0l0,0a1,1,0,0,1-.93.11H282l0.15-.11L282,64.2h0Zm-4.43-1.51,0.7,0.91-0.13.31-0.44-.12-0.13-.4-0.3.27L277,63.59l-0.14-.39-0.31.24-0.93-.34V63l0.26,0.07h0.29l-0.22-.2-0.21-.08a0.28,0.28,0,0,0-.44.17l-0.52-.22-0.09-.34-0.34.14-0.25-.12L274,62.15l-0.32.11-0.33-.17a0.2,0.2,0,0,1-.1-0.11c0-.3-0.12-0.26-0.32-0.21s-0.32,0-.33-0.22a0.23,0.23,0,0,0-.18-0.13,0.73,0.73,0,0,1-.7-0.41,1,1,0,0,0-.65-0.39,1.13,1.13,0,0,1-.72-0.43,1.38,1.38,0,0,0-.69-0.5,2.36,2.36,0,0,1-.62-0.46,1,1,0,0,1,1-.11,1.26,1.26,0,0,0,.65,0A0.69,0.69,0,0,0,271,59a1.6,1.6,0,0,1,1.7-.07,0.27,0.27,0,0,1-.22.32h-0.05a1.2,1.2,0,0,0-.9,1,1,1,0,0,0,1.44,1c0.17,0.49.27,0.54,0.8,0.48a0.29,0.29,0,0,1,.22,0,0.79,0.79,0,0,0,1,.29,0.66,0.66,0,0,1,.59.13,0.71,0.71,0,0,0,1,0A0.41,0.41,0,0,1,277,62a1.43,1.43,0,0,0,1.16-.18c0.23-.14.44-0.32,0.66-0.48a12.45,12.45,0,0,1,1-.78,1.68,1.68,0,0,1,2.24.34,10.43,10.43,0,0,1-4.49,1.76h0ZM280,64l-0.13.28-0.49-.09a0.38,0.38,0,0,1-.12-0.11,0.44,0.44,0,0,1,.15-0.07H280Zm-18-8.85,0.21-.06c0.17,0.66.27,0.73,1,.63,0.06,0.46.43,0.43,0.76,0.45,0.11,0.46.1,0.48-.35,0.49h-1.07a1,1,0,0,0-.06-0.4,0.49,0.49,0,0,0-.5-0.44,1,1,0,0,1-.44-0.13,0.9,0.9,0,0,0-1,0c-0.2.12-.39,0.26-0.6,0.37a0.39,0.39,0,0,1-.63-0.23,3,3,0,0,1,0-2.33,0.47,0.47,0,0,1,.3-0.27h1.81a2.46,2.46,0,0,0-.27.45,2,2,0,0,0-.15.7A0.75,0.75,0,0,0,262,55.15ZM262,56c0.34-.08.34,0.25,0.46,0.51l-0.65-.08A1,1,0,0,1,262,56Zm0.74,2.11a0.33,0.33,0,0,1,.24.09,1.08,1.08,0,0,0,1.21.39h0.13a1.18,1.18,0,0,1-.58.84,1.11,1.11,0,0,0-1.06-1,1.32,1.32,0,0,1-.58-0.26c0.2,0,.41,0,0.62-0.06h0Zm1-4.93L263.3,53c0.92-.87.91-2,1-3.15,0.58,0,1.15-.12,1.73-0.15a0.45,0.45,0,0,1,.31.2,1.25,1.25,0,0,0,.8.52c0.56,0.13.61,0.26,0.4,0.81A17.07,17.07,0,0,0,266.9,53a1,1,0,0,0,.56,1.21,5.73,5.73,0,0,1,.8.61,1.69,1.69,0,0,0,1.17.48h0.75a5.52,5.52,0,0,1-.12.61c-0.07.22-.26,0.17-0.42,0.13a4.4,4.4,0,0,1-2.6-1.86c-0.19-.28-0.35-0.58-0.54-0.86-0.38-.57-0.67-0.61-1.19-0.16-0.27-.12-0.54-0.25-0.82-0.36-0.49-.15-0.59-0.09-0.81.39h0.06Zm1.69-5.86a9.1,9.1,0,0,1,3.84.13,2.9,2.9,0,0,1,1.83,4,2.09,2.09,0,0,0,.4,2.2,3.3,3.3,0,0,0,1.5,1.16,1.11,1.11,0,0,0,1.28-.22,1.14,1.14,0,0,1,.9-0.38c0.35,0,.45.2,0.3,0.54-0.23,0-.5-0.17-0.69.16h0.27a0.34,0.34,0,0,1,.38.51c-0.09.27-.18,0.53-0.28,0.8h0c-0.27-.3-0.15-1-0.85-0.87a0.86,0.86,0,0,1,.55.65,0.27,0.27,0,0,1-.14.29,1,1,0,0,0-.35.44,0.51,0.51,0,0,1-.64.34l-0.09,0a1,1,0,0,1-.71-0.76,0.45,0.45,0,0,0-.27-0.22c-0.24-.1-0.49-0.18-0.76-0.28l-0.14.23a0.57,0.57,0,0,1-.71.38l-0.12-.05a0.58,0.58,0,0,1-.17-0.21,3.7,3.7,0,0,0-.21-0.33,0.35,0.35,0,0,1,.06-0.53l0.27-.19-0.89-.8a1.14,1.14,0,0,0,.49.8,0.56,0.56,0,0,1-.78-0.15v0c-0.21-.2-0.4-0.42-0.6-0.63H269l0.53,0.79a1,1,0,0,1-1.19-.45,2.24,2.24,0,0,1-.33-2,8.21,8.21,0,0,1,.48-1.08A1,1,0,0,0,268,50a3.33,3.33,0,0,0-1.57-.39H265a2.59,2.59,0,0,0,.36-2.24h0.06ZM266.6,46l2.25-.76a1.33,1.33,0,0,0,.31-0.14,0.91,0.91,0,0,1,1.25.14,17.57,17.57,0,0,1,1.27,1.42,1.56,1.56,0,0,1,.21.66c0.06,0.29.08,0.59,0.13,0.93L271.76,48a2.07,2.07,0,0,0-1.62-.72,17.17,17.17,0,0,1-2-.17c-0.72-.06-1.46,0-2.19,0h-0.27V47l1.09-.55Zm5.86,3.42a1.85,1.85,0,0,0,1.42,1.27,1.13,1.13,0,0,1-1.21.45,0.58,0.58,0,0,1,.06.29,0.52,0.52,0,0,1-.31.26,1.69,1.69,0,0,0-1,.24A2,2,0,0,1,271,52a3.56,3.56,0,0,0,.4-2.61,3.62,3.62,0,0,0-1.75-2,1.82,1.82,0,0,1,1.64.33,3.43,3.43,0,0,1,.69.76,5.14,5.14,0,0,1,.47.94h0Zm0-.48,1.11,0.48a0.29,0.29,0,0,1,.15.18c0,0.29.09,0.59,0.13,0.92a2.16,2.16,0,0,1-1.43-1.58h0Zm1.2-4.36a0.46,0.46,0,0,1-.29-0.21,0.31,0.31,0,0,1,.06-0.3,0.45,0.45,0,0,1,.38,0,2.42,2.42,0,0,1,.4.47,2.28,2.28,0,0,1-.59,0h0Zm0.25,0.16v0.81h-0.39l0.32-.85h0.08v0Zm-9.5-4.56,0.92-.47a0.32,0.32,0,0,1,.22,0,4.08,4.08,0,0,0,1.68,0,4.66,4.66,0,0,1,3.26,1,6.08,6.08,0,0,0,.71.56c0.38,0.21.78,0.37,1.21,0.56a0.53,0.53,0,0,1-.49.4,8,8,0,0,1-1.15.08,0.76,0.76,0,0,1-.43-0.23,6.68,6.68,0,0,0-2-1.35,4,4,0,0,0-2-.22,4.71,4.71,0,0,1-2-.33h0Zm1,0.59c-0.34.24-.63,0.45-0.94,0.64a0.36,0.36,0,0,1-.3,0,0.88,0.88,0,0,1-.25-1.21Zm1-2.08h2.45a1.83,1.83,0,0,1,1.52.9l0.21,0.34,0.21-.17a1.21,1.21,0,0,1,.13,1.1l-0.28-.2a5.24,5.24,0,0,0-3.24-1.12l-1.6,0h-0.17c0.17-.27.31-0.52,0.48-0.75a0.41,0.41,0,0,1,.27-0.16h0Zm-1-.54a0.49,0.49,0,0,1-.09-0.25,0.16,0.16,0,0,1,0-.08c0.18-.46.18-0.46,0.65-0.33a7.54,7.54,0,0,0,2.32.08,4,4,0,0,1,1.63.21,1.25,1.25,0,0,1,.73,1.54,1.73,1.73,0,0,1-.11.2,2.25,2.25,0,0,0-1.65-1,12.73,12.73,0,0,0-1.43,0h-1a1.78,1.78,0,0,1-1.09-.37h0Zm6.9,4.2a0.25,0.25,0,0,1,.18.09,0.73,0.73,0,0,1,.11.2c0.38,0.79.3,1-.54,1.34l-1.21-1.34Zm0.28,0a0.87,0.87,0,0,1,.07-0.72h-0.29a6,6,0,0,1-1-.27,0.54,0.54,0,0,1-.16-0.84,0.23,0.23,0,0,1,.21,0c0.27,0.12.54,0.25,0.8,0.39a2.52,2.52,0,0,1,.31.24L272.6,41a6.36,6.36,0,0,0-.63-0.52,3.68,3.68,0,0,0-.6-0.24,0.74,0.74,0,0,1-.44-0.94,0.26,0.26,0,0,1,.21-0.13,2.26,2.26,0,0,1,1.86,1,1.45,1.45,0,0,0,1.14.71,0.79,0.79,0,0,1-1.34.51,2.08,2.08,0,0,0,.25.42,1.51,1.51,0,0,0,.44.29,3.64,3.64,0,0,0,.5.16,0.78,0.78,0,0,1-.89.66l-0.11,0a1.92,1.92,0,0,1-.43-0.58Zm-1.38-4.67a2.09,2.09,0,0,1,1.52.84,1.26,1.26,0,0,0,1,.69h0.43a1.3,1.3,0,0,1-.88.87A0.39,0.39,0,0,1,273,40a1.11,1.11,0,0,1-.24-0.24,2.12,2.12,0,0,0-1.29-.73,0.25,0.25,0,0,1-.24-0.3,10.6,10.6,0,0,1,0-1.1Zm1.62-.51,0.43-.51a1.37,1.37,0,0,1,.68,1.29,1.12,1.12,0,0,1-.74,1c0-.7.26-1.34-0.41-1.78Zm0.48-.84,0.27-.13c0,0.14.11,0.25,0.14,0.37a0.25,0.25,0,0,1-.08.1Zm2-2.41a0.37,0.37,0,0,1-.29.2,6.85,6.85,0,0,1-.85-0.16,4.19,4.19,0,0,1,.46-0.59,1.39,1.39,0,0,1,.47-0.19,0.18,0.18,0,0,1,.14,0c0.25,0.17,0,.45,0,0.69Zm-0.44.4a2.36,2.36,0,0,1,.34.37,0.47,0.47,0,0,1-.6-0.07,0.7,0.7,0,0,1,0-.3,0.62,0.62,0,0,1,.2,0ZM274.2,44l-0.07.09C274,44,273.87,43.92,274,43.71a7.87,7.87,0,0,0,.16-6.11c-0.13-.39-0.24-0.78-0.36-1.17l0.11-.06a1.35,1.35,0,0,1,.26.31A8.44,8.44,0,0,1,274.2,44Zm0.14-5.08-0.93.09,0.73-.88Zm-1.42,4.4a0.37,0.37,0,0,1,.16-0.21,2.56,2.56,0,0,1,.44-0.17,1,1,0,0,0,.7-0.79l-1-.28a1.48,1.48,0,0,0,1.13-1.12,3.85,3.85,0,0,1-.67-0.14,3.9,3.9,0,0,1-.6-0.38,2,2,0,0,0,1.21-1h0.09c0,0.51.06,1,.07,1.53a6.33,6.33,0,0,1-.48,2.5c-0.27.66-.43,0.73-1.13,0.46a1.93,1.93,0,0,1,.07-0.4h0Zm1.24,3a2.73,2.73,0,0,1,.58,0v0.09a2.59,2.59,0,0,1-.47.27,0.6,0.6,0,0,1-.29-0.11A0.65,0.65,0,0,1,274.16,46.32Zm0.64,1.26a0.56,0.56,0,0,1-.6.52h0a1.47,1.47,0,0,1,0-.49,2,2,0,0,1,.6,0h0ZM274.73,49v0.11l-0.59.24-0.08-.09a0.93,0.93,0,0,1,.25-0.38A0.82,0.82,0,0,1,274.73,49Zm-0.18,1a20,20,0,0,0,.82,2.41,1.41,1.41,0,0,1-.19,1.39c-0.28-.61-0.55-1.16-0.79-1.72a2.79,2.79,0,0,1-.27-0.94,2.3,2.3,0,0,0-.19-0.84,2.58,2.58,0,0,1-.09-0.73h0c0.6-.2.56-0.18,0.71,0.35V50Zm2-13.54c0.22-.17.31-0.15,0.74,0.13h0C277,36,277,36,277.51,35.78l0.15-.08a0.45,0.45,0,0,1,.71.36,3.64,3.64,0,0,0,.1.54l0.18-.46c0.4,0.1.59,0.26,0.53,0.51a4.14,4.14,0,0,1-.37.77c0.2,0.14.42,0.31,0.66,0.45a0.82,0.82,0,0,1,.42.88,2.16,2.16,0,0,1-1.33-.28,1.81,1.81,0,0,1,.77.94c-0.38-.25-0.74-0.47-1.08-0.72a0.58,0.58,0,0,1-.13-0.29,1.1,1.1,0,0,0-.11-0.32l-0.07.23a0.76,0.76,0,0,1-.82.54,0.3,0.3,0,0,1-.21-0.14,3.22,3.22,0,0,1-.2-0.75,1.14,1.14,0,0,1,.39-0.27c-0.36,0-.74.15-0.89-0.28a1.08,1.08,0,0,1,.33-1v0.08Zm-0.22-3.28,0.19-.1c0.08,0.1.15,0.22,0.23,0.33l-0.09.07ZM278,30.43a0.32,0.32,0,0,0-.38-0.25h0l-0.52.07c-0.09-.25,0-0.31.23-0.33l2.29-.29a47.57,47.57,0,0,1,7.51-.06,30.21,30.21,0,0,1,3.27.34,0.36,0.36,0,0,1,.19,0,0.72,0.72,0,0,1,.12.19,0.56,0.56,0,0,1-.19.06,1.21,1.21,0,0,1-.42,0,0.31,0.31,0,0,0-.37.23v0a0.32,0.32,0,0,0,.26.37h0L290.57,31v0.12a1.8,1.8,0,0,1-.48.07c-1.18-.14-2.36-0.31-3.55-0.45a10.06,10.06,0,0,0-1.27,0c-1.52,0-3,0-4.56.08-1,.06-2,0.26-3.07.41a0.53,0.53,0,0,1-.58-0.17l0.63-.17A0.33,0.33,0,0,0,278,30.43Zm16,8.07v0.34a1.08,1.08,0,0,1-.74-0.9,1.4,1.4,0,0,1,.67-1.34c0.38,0.39.38,0.4,0.15,0.84a1.48,1.48,0,0,0-.08,1.07h0Zm-0.82,5c0.09,0.19.18,0.38-.08,0.52-1.25-1.78-1.08-6.5.33-7.64a7.22,7.22,0,0,1-.19.77,10.39,10.39,0,0,0-.68,3.21,6.82,6.82,0,0,0,.63,3.15h0Zm-0.5-9a3.11,3.11,0,0,1-.54.16V34.59a2.12,2.12,0,0,1,.33-0.33,0.61,0.61,0,0,1,.29,0,0.61,0.61,0,0,1-.07.3h0Zm0.4,3.57L293.81,39l-0.92-.07Zm1.5,0.25A2.11,2.11,0,0,1,296,37.6v1.16a0.24,0.24,0,0,1-.16.17,2.18,2.18,0,0,0-1.59,1A0.3,0.3,0,0,1,294,40a1.32,1.32,0,0,1-.91-0.86,1.37,1.37,0,0,0,1.49-.76h0Zm-1-1.76,0.08-.46,0.28,0.09-0.26.4Zm0-.59c-0.18,0-.35,0-0.43-0.15a0.5,0.5,0,0,1,.14-0.61,0.73,0.73,0,0,1,.88.11,0.51,0.51,0,0,1,.06.72h0a3.36,3.36,0,0,0-.69-0.09Zm-0.48-.83c-0.16.06-.28,0-0.26-0.12a3.89,3.89,0,0,1,.21-0.91,0.48,0.48,0,0,1,.65,0,4.38,4.38,0,0,1,.4.63c-0.43.21-.74,0.29-1,0.41h0Zm0-1.26-0.82.14a0.19,0.19,0,0,1-.11,0,2.21,2.21,0,0,1-.17-0.8c0-.23.34-0.19,0.49-0.07a6.79,6.79,0,0,1,.66.66ZM292,32.61a2.83,2.83,0,0,0-.47-0.42,1.09,1.09,0,0,1,.55-0.14,1.35,1.35,0,0,1,.55.91,0.78,0.78,0,0,1-.68-0.35h0Zm0,0.21a0.33,0.33,0,0,1-.11.28,6.07,6.07,0,0,1-.62.35l-0.2-.5a0.3,0.3,0,0,1,.26-0.47,0.79,0.79,0,0,1,.59.35H292Zm-1,22.85a0.4,0.4,0,0,1,.46-0.51l-0.23.93h0.39l-0.83.34,0-.07a0.69,0.69,0,0,0,.15-0.19,1.16,1.16,0,0,0,0-.5H291Zm5.3-4.22a2.91,2.91,0,0,1,.47-3.11,3,3,0,0,1,1.89-1,10.32,10.32,0,0,1,3,0,0.24,0.24,0,0,1,.26.34,2.38,2.38,0,0,0,.48,1.91c-0.84.07-1.68,0.08-2.5,0.21a1.18,1.18,0,0,0-1,1.79c0.12,0.22.24,0.45,0.34,0.68a2.39,2.39,0,0,1-.16,2.41,1.17,1.17,0,0,1-1.23.52l0.55-.85-0.08-.09c-0.35.52-.67,1.1-1.45,0.92a1.42,1.42,0,0,0,.57-1,1.59,1.59,0,0,1-1,.89l0.39,0.3c0.23,0.18.23,0.26,0,.48a1.14,1.14,0,0,0-.22.35,0.45,0.45,0,0,1-.51.26,0.4,0.4,0,0,1-.45-0.25c-0.14-.37-0.15-0.36-0.51-0.24l-0.4.13a0.45,0.45,0,0,0-.36.41,0.68,0.68,0,0,1-.25.36,2,2,0,0,1-.43.26,0.4,0.4,0,0,1-.61-0.2,1.06,1.06,0,0,0-.5-0.61,0.25,0.25,0,0,1,0-.23c0.15-.24.33-0.47,0.49-0.69a0.38,0.38,0,0,0-.49.23h0c-0.11.2-.2,0.42-0.33,0.71a10.84,10.84,0,0,1-.35-1.07,0.5,0.5,0,0,1,.28-0.28,0.87,0.87,0,0,0,.39-0.07,1.9,1.9,0,0,0-.31-0.13h-0.41a0.51,0.51,0,0,1,.74-0.43,1.27,1.27,0,0,1,.39.27,1.21,1.21,0,0,0,1.52.26,3.3,3.3,0,0,0,1.9-2.17,1.75,1.75,0,0,0-.23-1.28h0.12Zm3.45-.11c0.12,0.29.26,0.56,0.39,0.84a2.11,2.11,0,0,1,.16,1.29,0.91,0.91,0,0,1-.62.69,11.26,11.26,0,0,0-.07-1.49,3.61,3.61,0,0,0-.42-1c-0.49-.94-0.29-1.46.72-1.76,0.29-.09.59-0.13,0.88-0.19h0.18a2.53,2.53,0,0,1-.33.35,1.09,1.09,0,0,1-.38.16c-0.7.15-1,.28-0.63,1.11h0.12Zm-5.13,5.54c0-.27.06-0.34,0.3-0.32a5.74,5.74,0,0,1,.83,0,1.87,1.87,0,0,1,.7.23,0.24,0.24,0,0,1,0,.38L295,58.29c-0.36-.35-0.39-0.51-0.22-1.41H294.6Zm0-.62,0.83-.28c0.18,0.33.11,0.46-.23,0.46a4.4,4.4,0,0,1-.6-0.09V56.26h0Zm1,1.83a9,9,0,0,1,.9-0.81,0.42,0.42,0,0,1,.37,0,1.37,1.37,0,0,1,.7.94,0.76,0.76,0,0,1-.68.83h-0.14a1.88,1.88,0,0,1-1.16-.59,0.36,0.36,0,0,1-.07-0.36h0.08Zm1.61-1.73-0.52-.13,0.31-.34,0.25,0.41Zm-4.33.28-0.37.49h-0.08l0-.75Zm-0.94-.85-0.49.11c-0.1-.35-0.07-0.43.29-0.64ZM291,55a0.63,0.63,0,0,1,.55-0.57L291.65,55H291Zm-0.77-6c-0.56.1-.58,0.12-0.51,0.67a0.42,0.42,0,0,1-.27.53h0a0.68,0.68,0,0,0-.57.85L289.3,51a0.31,0.31,0,0,1,.4.34V52a0.36,0.36,0,0,1-.33.39h0a1.12,1.12,0,0,1-1.1-.43L288,51.7a5,5,0,0,1-.09.82,0.84,0.84,0,0,1-.42.63,0.6,0.6,0,0,1-.93-0.23,1.08,1.08,0,0,0-.24-0.27c-0.36-.28-0.37-0.46,0-0.76l0.14-.11c-0.23,0-.23,0-0.64.65a1.54,1.54,0,0,1-.22-1,0.88,0.88,0,0,1,.38-0.2,1,1,0,0,1,.3,0V51.17L285.56,51a5.61,5.61,0,0,1,.11-0.62,0.42,0.42,0,0,1,.54-0.25l0.09,0a3.88,3.88,0,0,1,.58.49,0.6,0.6,0,0,0,.61.25,0.55,0.55,0,0,0,.33-0.54,3.93,3.93,0,0,0-.17-1.48,2.77,2.77,0,0,1-1.73.15,2,2,0,0,1-1.2-1.23,0.68,0.68,0,0,0,.2.74c0.28,0.28.29,0.4,0,.67a5,5,0,0,1-.67.42,4.1,4.1,0,0,0-.6-1.84,3.69,3.69,0,0,1-.29-2.37,1.28,1.28,0,0,0-.76-1.57l-0.1-.06-0.06-.06,0.73-.67-0.75-.23a1.49,1.49,0,0,1,1.93.19,3.56,3.56,0,0,0,.4.5,1.06,1.06,0,0,0,.34.15V43.62l-0.44-.34,0.23-.17a2.67,2.67,0,0,0-2.76-.5c0,0.4.3,0.44,0.64,0.57a1.83,1.83,0,0,1-.46.37,1.08,1.08,0,0,1-.55,0,4.2,4.2,0,0,1-.6-0.24l0.36,0.45a1.22,1.22,0,0,1-1.32-.14,0.7,0.7,0,0,0-.77-0.14,0.46,0.46,0,0,1-.6-0.26v0h-0.06L279,43.72a0.45,0.45,0,0,1-.09.63l-0.08,0a0.83,0.83,0,0,0-.2.19,0.47,0.47,0,0,1-.54.22,0.51,0.51,0,0,1-.42-0.41l-0.08-.32h-0.1v0.43c0.07,0.38,0,.5-0.42.5a0.65,0.65,0,0,1-.8-0.45v0c0-.18-0.33-0.29-0.18-0.51a2.18,2.18,0,0,1,.42-0.36,0.35,0.35,0,0,0,.14-0.19l-0.27.12a0.24,0.24,0,0,1-.38-0.22,2.92,2.92,0,0,1,0-.53,0.28,0.28,0,0,1,.29-0.27h0.07a7,7,0,0,1,.73.13l-0.63-.44a7.34,7.34,0,0,1,.7-0.41,0.35,0.35,0,0,1,.46.18v0c0.12,0.23.21,0.48,0.34,0.78a12.37,12.37,0,0,1,4.49-1.72l0.2,0.4c0.23-.12.44-0.24,0.66-0.33a1.55,1.55,0,0,1,1.78.26,0.84,0.84,0,0,1,.31.77,2.06,2.06,0,0,0,1.37,2.13,2.22,2.22,0,0,0,1,.06,1.14,1.14,0,0,0,.93-1.23,5.9,5.9,0,0,0-.33-2.11,14.86,14.86,0,0,1-.78-4,2.13,2.13,0,0,1,.68-1.94,1.85,1.85,0,0,1,2.18,0,0.73,0.73,0,0,1,.21.74,0.49,0.49,0,0,1-.66-0.21l0,0a0.66,0.66,0,0,0-.82-0.32,1.22,1.22,0,0,0-.94,1,5.92,5.92,0,0,0,.2,2.43c0.29,1.17.59,2.33,0.89,3.49a1,1,0,0,0,.06.42,1.66,1.66,0,0,1-.55,1.75,2.38,2.38,0,0,1-2.19.51c-0.25-.07-0.49-0.18-0.74-0.27h0a3.82,3.82,0,0,1,.38,1.83,0.77,0.77,0,0,0,.45.73,0.87,0.87,0,0,0,1,0c0.18-.13.35-0.29,0.53-0.43a0.58,0.58,0,0,1,1,.2l0.19,0.34L291.1,47a0.67,0.67,0,0,1-.31.9l-0.12,0a3.23,3.23,0,0,0-.61.1l-0.3.11v0.07l1-.09a0.67,0.67,0,0,1-.44.84l-0.14,0h0.09Zm0.26,2.82h-0.72l0-.44a0.56,0.56,0,0,1,.58.49Zm-10.07.33a0.22,0.22,0,0,1-.15.35c-0.15.06-.28,0.15-0.42,0.22a1.61,1.61,0,0,1-.41.17,0.39,0.39,0,0,1-.5-0.46A1,1,0,0,1,279,52a0.51,0.51,0,0,0-.29.58,0.3,0.3,0,0,1-.21.37h-0.12c-0.41,0-.54,0-0.55-0.44a0.56,0.56,0,0,0-.56-0.49,0.69,0.69,0,0,1,.63-0.64,0.43,0.43,0,0,0-.55.12c-0.08.1-.13,0.22-0.21,0.33s-0.13.15-.19,0.23a1,1,0,0,1-.12-0.31,6.81,6.81,0,0,1,0-.7,0.3,0.3,0,0,1,.43-0.32c0.21,0,.41.12,0.61,0.18V50.83c-0.13-.06-0.27-0.12-0.39-0.19l-0.28-.21,0.21-.19,0.34-.3a0.43,0.43,0,0,1,.75.16,1.52,1.52,0,0,0,.21.46,0.67,0.67,0,0,0,.46.23,2,2,0,0,0,1.4-1.23,0.49,0.49,0,0,0-.21-0.37,1.65,1.65,0,0,0-.5-0.17,1.94,1.94,0,0,1-1.19-.93c-0.22-.38-0.25-0.39-0.67-0.25a1.2,1.2,0,0,1-1.68-.77h0.39a5.88,5.88,0,0,0,1-.2,1.16,1.16,0,0,0,.55-0.45A3,3,0,0,1,281,45h1.73a1,1,0,0,0,0,1.58,6,6,0,0,0-.9.1A0.88,0.88,0,0,0,281,48a1,1,0,0,0,.82.52l0.62,0.07a0.4,0.4,0,0,1,.39.56,5.53,5.53,0,0,1-.22.59,2.13,2.13,0,0,1,.37.15,2.19,2.19,0,0,1,.43.35,0.33,0.33,0,0,1,0,.47l0,0a0.57,0.57,0,0,1-.42,0,5.47,5.47,0,0,1-.53-0.26l-0.21-.06V50.5l0.56,0.32a0.47,0.47,0,0,1,.28.48,0.54,0.54,0,0,1-.37.49,0.35,0.35,0,0,1-.28-0.06c-0.17-.14-0.31-0.33-0.48-0.47a0.37,0.37,0,0,0-.62.08,0.42,0.42,0,0,1-.53.18,0.77,0.77,0,0,0-.85.11,5,5,0,0,1,.4.56Zm-0.12.51v0.63c-0.49-.28-0.49-0.5-0.1-0.58Zm-2.52,0c-0.26.09-.42,0.16-0.59,0.21s-0.23,0-.15-0.17a1.2,1.2,0,0,1,.2-0.33,0.25,0.25,0,0,1,.24,0,1.9,1.9,0,0,1,.2.3h0.1Zm-0.32-3a1,1,0,0,1,.21.33,0.82,0.82,0,0,1-.79-0.24,0.46,0.46,0,0,1,.48-0.06Zm0-1.46c0.92-.22,1-0.35,1.35.36a1.09,1.09,0,0,1-1.45-.33ZM276,55.89l-0.49-.11,0.18-.51a0.42,0.42,0,0,1,.2.65Zm-0.28-1,0.11-.47a0.48,0.48,0,0,1,.55.5ZM275.8,56h0.32a1,1,0,0,0-.13-0.92c0.39,0,.49.09,0.47,0.44a6.42,6.42,0,0,0,.06.81L275.79,56h0v0Zm0-1.82a1.15,1.15,0,0,0-1.46.15,1.19,1.19,0,0,1-1.57.13,3.42,3.42,0,0,1-1.63-2,0.23,0.23,0,0,1,.09-0.31l0.07,0a2,2,0,0,1,1.17-.32,0.47,0.47,0,0,0,.39-0.17,3,3,0,0,1,1.11-.7L274.82,53a0.13,0.13,0,0,0,0,.1,1,1,0,0,0,1.07.93H276a0.23,0.23,0,0,1,.3.21,2.11,2.11,0,0,0,.17.55,4.31,4.31,0,0,0-.78-0.53Zm-0.28-.52c0.26-.83.39-0.91,1.11-0.77-0.2.82-.63,1.13-1.22,0.84Zm0.71-17.2a0.41,0.41,0,0,1,0,.21h-0.56c0.07-.3.28-0.22,0.4-0.13Zm-0.56-3.13c0.34,0.07.38,0.14,0.31,0.52-0.53,0-.59-0.1-0.42-0.44Zm0.55,5.22c0.43-.2.54-0.16,0.55,0.19ZM277,41.68v0.08a0.59,0.59,0,0,1-.27.16,1.19,1.19,0,0,1-.34-0.23V41.6Zm-1.25,3.17,0.27-.43,0.36,0.31-0.59.19Zm0.41,6.67-0.06-.08a0.81,0.81,0,0,1,.33-0.27,0.83,0.83,0,0,1,.34.26l-0.07.08h-0.54Zm2.67-6.84,0.32-.21,0,0.53H279.1Zm4-.19a1.24,1.24,0,0,1-.09-0.26,0.64,0.64,0,0,1,.59.63,10.58,10.58,0,0,1-.06,1.15,1.78,1.78,0,0,1-.06.55,0.77,0.77,0,0,1-.61-0.91l0-.09a1.31,1.31,0,0,1,.18-0.28c0.24-.39.24-0.39,0-0.79h0.05Zm0.78,13.26-2.11-.91a0.25,0.25,0,0,1-.13-0.17c0-.29,0-0.57-0.08-0.9,0.74,0.27,1.44.52,2.14,0.79a0.32,0.32,0,0,1,.16.23c0,0.29,0,.6,0,1h0.05Zm-2.37-.39a2.13,2.13,0,0,1,.07-0.34l1.93,0.76a1.22,1.22,0,0,0,1,0L286,57a3.48,3.48,0,0,1,0,.63,1.71,1.71,0,0,1-.72,1.07c-0.49.35-1,.7-1.48,1a0.48,0.48,0,0,1-.43,0c-0.54-.35-1.08-0.72-1.59-1.11a1.5,1.5,0,0,1-.63-1.23h0Zm3.92-5.59a0.84,0.84,0,0,1,.32.17,0.73,0.73,0,0,1-.19.24,2.65,2.65,0,0,1-.48.14c0-.32.08-0.56,0.31-0.55h0Zm-0.33-1.11a1.25,1.25,0,0,1,.39-0.28,0.83,0.83,0,0,1,.36.14v0.13h-0.75ZM286,55.81V56.7a0.24,0.24,0,0,1-.13.17l-2,.88v-1a0.32,0.32,0,0,1,.16-0.23l1.93-.72h0Zm0-2.31h-0.1a3.11,3.11,0,0,1,.08-0.5,0.28,0.28,0,0,1,.22-0.1,0.25,0.25,0,0,1,.19.11,0.26,0.26,0,0,1,0,.23,3.29,3.29,0,0,1-.47.25H286Zm-4.33-16.34a7.9,7.9,0,0,1,1,.06,1.12,1.12,0,0,1,.48.21,0.76,0.76,0,0,1,.14.32h-0.09a1.36,1.36,0,0,0-.37-0.31,6.31,6.31,0,0,0-1-.23c-0.4-.07-0.8-0.08-1.19-0.17a0.52,0.52,0,0,1-.37-0.59,0.49,0.49,0,0,1,.5-0.46v0.15a0.81,0.81,0,0,0,.82,1h0.08Zm0.66-1.6L282,35.49l-0.22-.08a1.14,1.14,0,0,1,.35-0.22c0.63-.08,1.27-0.14,1.9-0.21h0.16a0.84,0.84,0,0,0,.07.87,1.78,1.78,0,0,0,.48.23,8,8,0,0,1,.2-0.83,0.68,0.68,0,0,1,.28-0.18,0.62,0.62,0,0,1,0,.68,1,1,0,0,0,.24,1.39l0.07,0a4.92,4.92,0,0,0-.48.21,0.45,0.45,0,0,0-.23.22A0.8,0.8,0,0,0,285,38a0.85,0.85,0,0,0,.28.12l-0.1.36h-0.7l0.45,1h0l-1-1.09a1,1,0,0,0,.19-0.8,5.06,5.06,0,0,0-.27.49,0.56,0.56,0,0,1-.67.37c-0.54-.07-1.08-0.11-1.63-0.17a0.29,0.29,0,0,1,.39-0.33l0.8,0.08a0.39,0.39,0,0,0,.48-0.36,3.35,3.35,0,0,0,.07-0.73,0.57,0.57,0,0,0-.59-0.55l-0.16,0a1.51,1.51,0,0,1-.73,0,0.62,0.62,0,0,1-.16-0.45,0.4,0.4,0,0,1,.2-0.25,1,1,0,0,1,.32-0.08V35.55h0.08Zm2.72-2.9c-0.06.24-.11,0.45-0.17,0.65a0.2,0.2,0,0,1-.12.12,1.07,1.07,0,0,1-1-.09,1,1,0,0,1-1.1.06,1.54,1.54,0,0,1-.28-0.73,5.64,5.64,0,0,0,2.59,0Zm-2.86-.46a1.09,1.09,0,0,1-.54.17l0-.07c0.16-.42.31-0.85,0.48-1.26a0.66,0.66,0,0,1,.74-0.15,13.16,13.16,0,0,1-.7,1.3h0.07Zm2.52,2.58h-1.9a2.94,2.94,0,0,1,1.82,0h0.08Zm-2-.46a0.52,0.52,0,0,1,.07-0.6L283,34.39l-0.1.07a0.5,0.5,0,0,1-.24-0.15h0.06ZM283,34c0.38-.07.46,0,0.48,0.24a0.22,0.22,0,0,1-.13.17A0.34,0.34,0,0,1,283,34Zm0.68,0.28c0.08-.16,0-0.43.29-0.45a0.47,0.47,0,0,1,.23.15,0.37,0.37,0,0,1-.33.41h-0.06a0.22,0.22,0,0,1-.09-0.11h0Zm0.65,0.15,0.06-.71a0.29,0.29,0,0,1,.26.4c0,0.17,0,.34-0.28.31h0Zm-0.06.91A0.51,0.51,0,0,1,284.9,35l-0.3.88a0.39,0.39,0,0,1-.29-0.54h0ZM280.07,41l2.9-1a2.21,2.21,0,0,1-2.51,1.22l0.2-.16C280.44,41,280.18,41.3,280.07,41Zm5.33-3.13a1.79,1.79,0,0,1-.38-0.19,0.91,0.91,0,0,1,1.23.38l0,0a1.46,1.46,0,0,0,1.08,1,0.7,0.7,0,0,1-.48.52,0.42,0.42,0,0,1-.53-0.19,1.86,1.86,0,0,0-.24-0.21c-0.16-.2-0.3-0.42-0.47-0.61a0.26,0.26,0,0,1,0-.37h0c0.11-.16,0-0.25-0.23-0.35v0Zm0.71,1.39a2.72,2.72,0,0,0,.42.71,3.53,3.53,0,0,0,.82.42,0.56,0.56,0,0,1-.49.37,5.25,5.25,0,0,1-.84,0,0.14,0.14,0,0,1-.09,0,3.88,3.88,0,0,1-1-2,2.55,2.55,0,0,1,1.13.63v0Zm-4.25.2c-0.42.08-.85,0.11-1.32,0.16v0.22c-0.33,0-.39-0.13-0.34-0.52l0.88-.09a4.12,4.12,0,0,0,1.51-.49,1.46,1.46,0,0,1,1.54.13L284.3,39l0.08,0.12a7.31,7.31,0,0,0-2.52.35v0Zm3.49,0.72a4.72,4.72,0,0,0-3.59.08,0.72,0.72,0,0,1-1-.33l0-.1,1.59-.33a11.93,11.93,0,0,1,1.38-.23,1.7,1.7,0,0,1,1.62.94v0Zm-4.79-.09a1.41,1.41,0,0,1,.61.34v0.09c-0.41.07-.82,0.16-1.24,0.2a1.76,1.76,0,0,1-.56-0.15v-0.1a6.67,6.67,0,0,1,1.19-.35v0ZM280,41.2l-0.54.29a1.68,1.68,0,0,1,.83,0c-0.87.5-1.44,0.7-1.8,0.09,0.41-.16.8-0.32,1.2-0.45A0.36,0.36,0,0,1,280,41.2Zm3.45-1a2.26,2.26,0,0,1,2.15.51c0.13,0.09.25,0.2,0.37,0.3a1.86,1.86,0,0,0,1.43.47,0.76,0.76,0,0,1-.85.65h0a1.84,1.84,0,0,1-1.1-.62,1.65,1.65,0,0,0-1.48-.6,4,4,0,0,0-.67.2,1.4,1.4,0,0,0-.39.16,0.81,0.81,0,0,1,.41-1.07l0.15-.05v0Zm3.74-3.26c-0.31.35-.48,0.33-0.67-0.09a1.43,1.43,0,0,0-1.13-.76l0.1-.3c0.14-.41.24-0.44,0.57-0.15a1.75,1.75,0,0,1,.27.28,1.81,1.81,0,0,0,1,.8Zm-0.81,0a3.46,3.46,0,0,1,.12.37,0.67,0.67,0,0,0,.73.58,0.5,0.5,0,0,1-.41.47,0.32,0.32,0,0,1-.28-0.1,1.45,1.45,0,0,0-.71-0.73l-0.15-.12,0.21-.29c-0.53-.25-0.63-0.38-0.58-0.79a1,1,0,0,1,1.06.55v0.06Zm-5.22,1.7v0.07l-0.58.08c-0.42,0-.42,0-0.58-0.4Zm-1,.38a3.75,3.75,0,0,0,1.44-.33,4.54,4.54,0,0,1,1-.17v0.11a3.81,3.81,0,0,1-2.57.54v0.38c-0.32,0-.42-0.06-0.5-0.51h0.69Zm-0.17.75v0.09a0.4,0.4,0,0,1-.1.11c-0.47.21-.94,0.43-1.42,0.62a0.32,0.32,0,0,1-.5-0.28c0.43-.17.82-0.36,1.22-0.48a3.47,3.47,0,0,1,.76-0.12Zm-0.86.83a1.35,1.35,0,0,1,.51.42c-0.46.13-.84,0.26-1.23,0.35a0.51,0.51,0,0,1-.68-0.4,11.43,11.43,0,0,1,1.36-.43Zm11.72-4.3a0.33,0.33,0,0,1,.19.23,0.32,0.32,0,0,1-.23.21,3.25,3.25,0,0,1-.59-0.06h-0.07a0.14,0.14,0,0,1-.26-0.09,0.41,0.41,0,0,1,.21-0.28,1.13,1.13,0,0,1,.4,0,1.16,1.16,0,0,1,.3-0.07ZM290.7,53c0.69-.21,1,0,1.08.77C291.13,53.93,290.87,53.75,290.7,53Zm0.7-14.68h0a2.92,2.92,0,0,1,.09.32,1.45,1.45,0,0,1,0,.39,2.08,2.08,0,0,1-.13.4l-0.68-1.27h0l0.12,0.31c0.12,0.31.25,0.63,0.36,0.94a0.57,0.57,0,0,1-.19.7l-0.26-.44a5.63,5.63,0,0,1-.16.85,0.72,0.72,0,0,1-.4.25,1.63,1.63,0,0,0-.57-1.4,2.18,2.18,0,0,1-.45-1.9,0.8,0.8,0,0,1,.94-0.62h0.06a1,1,0,0,1,.28.28V36.89a2,2,0,0,1,1.12.09,1.33,1.33,0,0,1,.13,1.55Zm0-4.37c-0.19-.29-0.13-0.42.25-0.53,0.19,0.25.15,0.34-.24,0.5v0Zm-0.4-.82-0.42.24-0.06-.06L290.7,33ZM289.64,33l1.07-.48A0.72,0.72,0,0,1,289.64,33Zm0.47,0.24a0.24,0.24,0,0,1,.27.34,23.33,23.33,0,0,1-4.58-.76v0.11l0.2,0.16a0.51,0.51,0,0,1,.35.49,0.52,0.52,0,0,1-.43.46,0.7,0.7,0,0,1-.78-0.15A0.79,0.79,0,0,1,285,33a0.77,0.77,0,0,1,.69-0.54,2.53,2.53,0,0,1,.83.1,11.89,11.89,0,0,0,3.59.68h0ZM285,30.89a0.56,0.56,0,0,1,.83.39c0.15,0.39.22,0.62,0.33,0.93a0.45,0.45,0,0,1-.72-0.24A9.1,9.1,0,0,0,285,30.89Zm3,1.59c-0.18-.48-0.34-1-0.51-1.46,0.5,0,.54,0,0.71.4s0.44,1,.66,1.52a0.65,0.65,0,0,1-.84-0.38Zm-8.39-1.25a1.2,1.2,0,0,1,.52-0.27,0.38,0.38,0,0,1,.07.18c-0.17.49-.34,1-0.53,1.45a0.35,0.35,0,0,1-.2.18,5.42,5.42,0,0,1-.62.14c0.24-.57.46-1.14,0.75-1.68h0Zm1.2,1.31a1.88,1.88,0,0,1,.58-0.07,0.84,0.84,0,0,1,.89,1,0.61,0.61,0,0,1-.47.6,0.84,0.84,0,0,1-.84-0.24,0.44,0.44,0,0,1,.07-0.62l0.07,0c0.12-.08.25-0.15,0.38-0.22V32.86l-0.77.12c-0.88.17-1.76,0.36-2.65,0.52a8.14,8.14,0,0,1-1,.07h-0.21v-0.1a0.77,0.77,0,0,1,.3-0.18,12.12,12.12,0,0,0,3.64-.75h0ZM279,36c-0.32,0-.35-0.13-0.21-0.48Zm-1.34-.48a0.7,0.7,0,0,1-.35.12,0.9,0.9,0,0,1-.23-0.35l0-.06,0.51,0.2Zm-1.33-2.73c-0.07.22-.16,0.43-0.26,0.68a3.81,3.81,0,0,1-.59-0.36,0.41,0.41,0,0,1-.09-0.36,0.57,0.57,0,0,1,.77-0.23l0.11,0.08a0.24,0.24,0,0,1,0,.18h0ZM275.81,43a0.24,0.24,0,0,1,.12.18c-0.13.26-.37,0.12-0.59,0.14a0.38,0.38,0,0,1,.43-0.33h0Zm-0.93,14.11h-0.09a1.73,1.73,0,0,1-.29-0.45,0.73,0.73,0,0,1,.22-0.32h0.09Zm-2.7,1.22-1.31-1.16c-0.12-.11-0.16-0.24,0-0.33a1.1,1.1,0,0,1,.54-0.3,12.4,12.4,0,0,1,1.35.08l0.06,0.27h-0.43a1.49,1.49,0,0,1-.2,1.42v0Zm-1-.71c0.23,0.2.45,0.42,0.69,0.66a2.77,2.77,0,0,1-1.22.75,0.78,0.78,0,0,1-.83-0.27,0.69,0.69,0,0,1-.09-0.76V57.9c0.45-.78.84-0.9,1.47-0.3Zm-1.12-1.31,0.21-.38,0.35,0.32-0.51.13Zm1.64,0,0.13-.31,0.83,0.25v0.07a1,1,0,0,1-.94,0h0Zm-4.06-2.18a0.71,0.71,0,0,1-.61-0.8h0a14.75,14.75,0,0,1,.42-1.71c0.06-.23.19-0.45,0.26-0.68a0.43,0.43,0,0,0-.22-0.57l-0.11,0a3.77,3.77,0,0,1-.61-0.2,1.13,1.13,0,0,1-.39-0.4,4,4,0,0,1,1.64.47,0.82,0.82,0,0,1,.3,1.07c-0.12.33-.29,0.65-0.41,1a4.64,4.64,0,0,0-.27.91,6.81,6.81,0,0,0,0,.94h0ZM301,46.22a4.82,4.82,0,0,1,1.58,1,1.57,1.57,0,0,1,.49,1.45c-0.06.35-.09,0.7-0.13,1.09a1.83,1.83,0,0,1-1-1.58,1.57,1.57,0,0,1,0-.47,0.48,0.48,0,0,0-.39-0.7h0l-0.69-.54a0.65,0.65,0,0,1-.11-0.18A0.5,0.5,0,0,1,301,46.22Zm-5.44.42A5.2,5.2,0,0,1,297.13,45a0.79,0.79,0,0,1,.72-0.06l2.8,1-0.18.44,1.1,0.48c0.08,0.19-.06.13-0.16,0.13l-1.77,0a2.32,2.32,0,0,0-.48,0,8.82,8.82,0,0,1-2.12.18,1.8,1.8,0,0,0-1.28.5c-0.18.15-.34,0.32-0.55,0.47a3.6,3.6,0,0,1,.33-1.51h0Zm-2.09,3.5a0.73,0.73,0,0,1,.57-0.86h0.05a2.44,2.44,0,0,0,.8-0.5,2,2,0,0,1-1.45,1.67c0-.11,0-0.21,0-0.3h0Zm0,0.55a1.88,1.88,0,0,0,1.32-1.16,11,11,0,0,1,.66-1.21,2.06,2.06,0,0,1,2.19-.88c-1.82,1.11-2.34,2.6-1.35,4.55h-0.08a2.83,2.83,0,0,1-.54-0.18,0.83,0.83,0,0,0-.64-0.14,0.24,0.24,0,0,1-.17,0,0.86,0.86,0,0,1-.29-0.24,0.37,0.37,0,0,1,.11-0.25,6.69,6.69,0,0,0,.44-0.56,1.31,1.31,0,0,1-1,.48,3,3,0,0,1-.64-0.34l0-.07h0Zm-0.09-1.24a1.42,1.42,0,0,1-.13,1,0.51,0.51,0,0,0-.09.17c0,0.39-.08.77-0.12,1.18l0.34-.8a2,2,0,0,1,1.11.65,0.54,0.54,0,0,0,.6.21,2,2,0,0,1,1.14.4,0.26,0.26,0,0,1,0,.2,3.3,3.3,0,0,1-2,2.19,1.06,1.06,0,0,1-1-.16,3.58,3.58,0,0,0-.38-0.25,1.38,1.38,0,0,0-1.73.25,1.19,1.19,0,0,0-.16.26,0.52,0.52,0,0,1,.35-0.83c1,0,1-.11,1.27-1.15l-0.48.85a1,1,0,0,1-.14-1.27,9.69,9.69,0,0,0,.82-2.68,1.11,1.11,0,0,1,.08-0.3Zm-0.14-.25-0.07.1-0.6-.21V49a0.91,0.91,0,0,1,.43-0.15,0.84,0.84,0,0,1,.22.36h0Zm-0.09-1.54a0.33,0.33,0,0,1-.19.42h0c-0.29,0-.34-0.2-0.41-0.48,0.21,0.05.42-.32,0.6,0.05h0Zm0.1-1.28a0.33,0.33,0,0,1,0,.32,0.38,0.38,0,0,1-.33,0,1.84,1.84,0,0,1-.35-0.28,1.68,1.68,0,0,1,.4-0.14,0.39,0.39,0,0,1,.27.1h0Zm0.56-.84h-0.38v-0.8h0.08Zm-0.08-1a4.75,4.75,0,0,1-.55,0,0.57,0.57,0,0,1,.5-0.54c0.12,0,.27,0,0.28.18s0,0.38-.24.39v0Zm0.61-.83c-0.72.23-.78,0.2-1.06-0.49a6.81,6.81,0,0,1-.33-4.12,1.91,1.91,0,0,0,1.1,1.09v0.09a4,4,0,0,1-.54.32,4.41,4.41,0,0,1-.64.16,1.47,1.47,0,0,0,1.09,1.11l-0.89.26c0.06,0.6.3,0.78,1.24,1l0,0.6Zm0.07-.93a0.34,0.34,0,0,1-.25.1,0.87,0.87,0,0,1-.86-0.71,1.21,1.21,0,0,0,1.26-1,0.55,0.55,0,0,0-.14.14c-0.15.33-.35,0.31-0.66,0.2a1,1,0,0,1-.64-0.68,1.47,1.47,0,0,0,1.2-.72,2.35,2.35,0,0,1,2-1.07,0.78,0.78,0,0,1-.48,1.15,6.11,6.11,0,0,0-.78.38,0.68,0.68,0,0,0-.22.29,2.91,2.91,0,0,1,1.26-.54v0.16c0.14,0.55.06,0.72-.48,0.89a7.59,7.59,0,0,1-1,.21l0.14,0.27h0a4.77,4.77,0,0,1-.36,1v0Zm2.31-2.91,0.06-.08a2.14,2.14,0,0,1,2-1.19c0.69,0,1.37,0,2.06,0a0.47,0.47,0,0,1,.31.14c0.17,0.22.32,0.46,0.52,0.76a8.6,8.6,0,0,1-1.14,0,5,5,0,0,0-3.91,1.07l-0.26.19a0.91,0.91,0,0,1,.12-1.08Zm0.55-2.09a3.55,3.55,0,0,1,1.71-.25,6.36,6.36,0,0,0,2.76-.21L302,38a1.49,1.49,0,0,1-1.21.5c-0.59,0-1.18-.06-1.77-0.07a2.59,2.59,0,0,0-2.34,1,1.16,1.16,0,0,1,.45-1.58l0.08,0v0Zm-1.94,6.08a0.19,0.19,0,0,1-.12.07,0.75,0.75,0,0,1-.68-0.75,4.05,4.05,0,0,1,.3-0.78,0.18,0.18,0,0,1,.15-0.08l1.47,0.28Zm5.6-3.34a3.66,3.66,0,0,0-3.09.87L297,42a1.79,1.79,0,0,1-2,0l-0.27-.17a0.62,0.62,0,0,1,.23-0.16,2.35,2.35,0,0,0,1.43-.71A4.71,4.71,0,0,1,299,39.78a8,8,0,0,1,.9,0h1.55a1.32,1.32,0,0,1,.83.18l0.6,0.32a5,5,0,0,1-2,.32v0Zm1.72,0.73-0.74-.52,1.5-.6a1,1,0,0,1,0,.91,0.46,0.46,0,0,1-.77.25v0Zm4.5,2.35a1.43,1.43,0,0,1-1.61.81A2.46,2.46,0,0,1,303.87,43c-0.23-.49-0.52-1-0.77-1.38l0.66-.9a3.82,3.82,0,0,1,1,1.07c0.17,0.24.32,0.49,0.49,0.72a2.13,2.13,0,0,0,1.84,1.09v0Zm-0.2-2.09h0.59a1.13,1.13,0,0,1-.79,1,3.3,3.3,0,0,1-1,.1,0.66,0.66,0,0,1-.41-0.25c-0.19-.23-0.32-0.51-0.52-0.74s-0.61-.61-0.9-0.92a1.47,1.47,0,0,1-.28-0.4,4,4,0,0,1-.16-0.57c-0.34.34-.4,0.35-0.79,0.16a3,3,0,0,1-1.2-.82c-0.23-.31-0.22-0.35.11-0.53l0.29-.17,0.27-.16a29.68,29.68,0,0,1,3.64,2.88,1.47,1.47,0,0,0,1.14.45v0Zm0.22-1.79h0.25A1.5,1.5,0,0,1,306.06,41a0.51,0.51,0,0,1-.31-0.16,11.81,11.81,0,0,0-2.14-1.74,14.54,14.54,0,0,1-1.36-1.1,1.87,1.87,0,0,1-.28-0.43,2.72,2.72,0,0,0,1.35.27,1.1,1.1,0,0,1,.83.29c0.46,0.36.92,0.71,1.36,1.1a1.83,1.83,0,0,0,1.61.52v0Zm-0.68-3.11h0.22a1.7,1.7,0,0,1-.12.32,1,1,0,0,1-1.57.16c-0.18-.19-0.33-0.4-0.5-0.61l-0.15-.14c0.25,0.9,1.11,1.45,2.57,1.65a1.22,1.22,0,0,1-.49.94,0.62,0.62,0,0,1-.88,0l0,0-1.55-1.26a0.55,0.55,0,0,1,0-.11l0.54-.43a2.21,2.21,0,0,1-1.32-.7c1-.27,1.22-0.42,1.47-1A1.85,1.85,0,0,1,303,34.9a8.28,8.28,0,0,1,.8-0.28,0.85,0.85,0,0,1,.91.47,4.69,4.69,0,0,1,.22.52,1.49,1.49,0,0,0,1.5,1v0Zm-0.08-1.55,0.16,0.06,0.08,0.06a1.31,1.31,0,0,1-1.16.63,0.49,0.49,0,0,1-.28-0.2,2.57,2.57,0,0,1-.2-0.43,1.28,1.28,0,0,0-.89-0.78L304.3,34a2,2,0,0,1-.81-1.88,1.58,1.58,0,0,1,1.13.75,3.65,3.65,0,0,1,.34.77,2.09,2.09,0,0,0,1.4,1.42v0ZM302,29.2a0.73,0.73,0,0,1-.65.81h-0.07c0-.45.38-0.89,0-1.3a0.59,0.59,0,0,1,.71.44V29.2Zm-0.41,1.1a0.37,0.37,0,0,1-.15.12h-2.28l-0.09-.07a0.86,0.86,0,0,1,.27-0.13h2.08a0.43,0.43,0,0,1,.13.09h0Zm-2.73-.53a2,2,0,0,1-.12-0.55,0.52,0.52,0,0,1,.71-0.51c0.5,0.17.5,0.17,0.81-.24a0.26,0.26,0,0,1,.48.06,0.37,0.37,0,0,0,.37.33h0a1,1,0,0,1,0,.88,0.51,0.51,0,0,1-.59.12,0.27,0.27,0,0,1-.09-0.19,3.79,3.79,0,0,0,0-.75h-0.07V29.5c0,0.19.09,0.34-.15,0.39a0.55,0.55,0,0,1-.69-0.18l0.73-.1V29.54L299.29,29l-0.18.66,0.29,0.28c-0.4.21-.47,0.18-0.58-0.16h0Zm-1,3.59h0.54l-0.17.63H298Zm-1.48,1.12a0.93,0.93,0,0,1-.92-0.8,2.88,2.88,0,0,1,0-.84,0.82,0.82,0,0,1,.59-0.71v0.74a1.21,1.21,0,0,0,1.17,1.22,8.94,8.94,0,0,1,1.37.12,5.09,5.09,0,0,1,.92.25,0.3,0.3,0,0,1,.17.48c-0.11.2-.24,0.4-0.37,0.62a0.69,0.69,0,0,1-.11-0.14,1.25,1.25,0,0,0-1.22-.83c-0.6,0-1.12,0-1.63-.1h0.08Zm2.07-.52a0.75,0.75,0,0,1,.73-0.77h0.08a0.85,0.85,0,0,1,.41,1.12ZM299,35.63l-0.56.11-0.07-.89a0.76,0.76,0,0,1,.55.79H299Zm-1-.93h0.11l0.08,0.92-0.07,0a1.13,1.13,0,0,1-.4-0.28A3.27,3.27,0,0,1,298,34.7Zm-0.31,1.94a13.42,13.42,0,0,0,2.28-.13,3,3,0,0,0,1.07-.38,0.92,0.92,0,0,0,.38-1.22c-0.24,1.16-.42,1.35-1.61,1.45-0.79.06-1.59,0-2.42,0l0.08-.77,0.3,0.11a1.37,1.37,0,0,0,2-1.38,4,4,0,0,0,0-.67,0.65,0.65,0,0,0-.69-0.61l-0.13,0-0.92.11a0.4,0.4,0,0,1-.52-0.34,1.85,1.85,0,0,1-.06-0.53c0-.55.15-0.75,0.66-0.73l0.17,0L298,31.41a0.43,0.43,0,0,1-.16-0.14A0.37,0.37,0,0,1,298,31a1.08,1.08,0,0,0,.91-0.36,0.47,0.47,0,0,1,.3-0.06H301c0.17,0,.33,0,0.23.31l1.14-.42v0.06a1.33,1.33,0,0,0-.64,1l-0.28.09h0l0.5,0.07c-0.16-.65.34-0.82,0.74-1.11a1.58,1.58,0,0,1-.38,1.54,1.36,1.36,0,0,0,.68-1.23,2.58,2.58,0,0,1,2.2,1.06,5,5,0,0,1,.27.43,1.57,1.57,0,0,0,1,.89,1.19,1.19,0,0,1-.72.7,0.41,0.41,0,0,1-.62-0.24c-0.15-.29-0.27-0.6-0.43-0.89a1.83,1.83,0,0,0-1.57-.94c0.23,0.78.14,1.63,0.88,2.17a1.83,1.83,0,0,1-1.24.64c0,0.5.44,0.74,1.4,0.88-0.12.35-.28,0.42-1.37,0.62a1.39,1.39,0,0,0,1.14,1,1.21,1.21,0,0,1-1.6.31,4.62,4.62,0,0,0-.42-0.29,0.62,0.62,0,0,0-.43,0,3.25,3.25,0,0,1-1.54.26h-1.75a1.76,1.76,0,0,0-2,1.35,1.43,1.43,0,0,1,.37-1.73,1.66,1.66,0,0,1,1.14-.46h0Zm-2.16-.35a1.87,1.87,0,0,0,1.65-.07,0.28,0.28,0,0,1-.09.39l0,0a7.56,7.56,0,0,0-.79.65,0.81,0.81,0,0,1-.19.15,8.24,8.24,0,0,0-1,.39,6.87,6.87,0,0,0-.84.65c-0.27-.45-0.19-0.72.44-1.4l-0.28-.21a0.34,0.34,0,0,1-.15-0.46l0-.07a0.8,0.8,0,0,0,0-1c-0.16-.28-0.1-0.36.21-0.46l0.27-.08a1.65,1.65,0,0,0,.78,1.5h0Zm-0.84-1.91c0,0.34-.06.37-0.43,0.31A11.52,11.52,0,0,0,294,33a11.23,11.23,0,0,0-.66-1.52,0.27,0.27,0,0,1,.47,0,4.42,4.42,0,0,1,.89,2.9h0ZM291.81,32l-2.29.94c-0.17.07-.33,0.12-0.42-0.15l4.65-2.1,0.25,0.4ZM295,30.6a1.9,1.9,0,0,1,1.59-.16,0.85,0.85,0,0,1,.36.85,3.36,3.36,0,0,0-1.94-.73v0Zm2.35-.16a4.83,4.83,0,0,0-2.29-.16,0.28,0.28,0,0,1-.37-0.26l1.66-.31a0.84,0.84,0,0,1,1,.65v0.08Zm0.14-1-2.87.38h0a2.32,2.32,0,0,1,.36-0.16c0.49-.18,1-0.37,1.48-0.53a0.84,0.84,0,0,1,1,.28v0ZM297,27.81a0.59,0.59,0,0,1,.16.19,0.79,0.79,0,0,1-.5.79l-2,.74a0.28,0.28,0,0,1-.13,0,0.45,0.45,0,0,1-.23-0.11,0.24,0.24,0,0,1,.07-0.2l1.82-1.43A0.66,0.66,0,0,1,297,27.81Zm-1-1a0.78,0.78,0,0,1-.08.9,8,8,0,0,1-1.76,1.37Zm-1-.33a0.82,0.82,0,0,1,.17,1.15l-0.07.08a12.35,12.35,0,0,1-1,1.06,1.16,1.16,0,0,1-.21.14h-0.07a0.89,0.89,0,0,1,.09-0.32,4.83,4.83,0,0,0,1.14-2.09Zm-1.31,1.64a2.12,2.12,0,0,0,.31-1.73c0.65,0.23.79,0.59,0.47,1.11-0.19.3-.41,0.58-0.62,0.87l-0.15.14h-0.07a1.2,1.2,0,0,1,.12-0.37Zm-0.56,0a0.93,0.93,0,0,1,.25.22c0.45,0.78.89,1.57,1.32,2.36a0.33,0.33,0,0,1-.06.46l0,0a0.34,0.34,0,0,1-.48-0.07v0l0-.1c-0.43-.75-0.86-1.5-1.27-2.25a0.38,0.38,0,0,1,.37-0.63h-0.06Zm-2,1.59c0.47-.28,1-0.54,1.45-0.82L293,29.38l-1.91.94a0.25,0.25,0,0,1-.21,0,0.31,0.31,0,0,1,0-.25,1.56,1.56,0,0,1,.41-0.36h-0.06Zm0-6.73a0.77,0.77,0,1,1-.77.77,0.77,0.77,0,0,1,.77-0.77h0ZM290,22.2a0.61,0.61,0,0,1,.6.59,0.59,0.59,0,0,1-.58.6h0a0.57,0.57,0,0,1-.59-0.55s0,0,0,0A0.59,0.59,0,0,1,290,22.2h0Zm-1-.68a0.53,0.53,0,1,1,0,1.06h0a0.56,0.56,0,0,1-.54-0.52,0.55,0.55,0,0,1,.56-0.54h0Zm-1-.35a0.47,0.47,0,0,1,.49.44,0.49,0.49,0,0,1-.47.47,0.47,0.47,0,0,1-.46-0.45,0.44,0.44,0,0,1,.42-0.46h0ZM287,21l0.23-.29L287.39,21a0.24,0.24,0,0,1,.07.33l-0.07.07a0.48,0.48,0,0,1-.39,0c-0.21,0-.16-0.22,0-0.4Zm-0.38-.12c0.13,0.11.11,0.19,0,.29s-0.3.17-.55-0.16c0.19-.31.26-0.32,0.5-0.12h0Zm-0.81.58c0-.25,0-0.24.27-0.09a0.55,0.55,0,0,0,.34.09,1.21,1.21,0,0,1,1.13.44,1.24,1.24,0,0,0,.53.25,0.89,0.89,0,0,0,.33,0,0.84,0.84,0,0,0,1,.56,0.83,0.83,0,0,0,.83.83h0.05a0.26,0.26,0,0,1,.14.19,1.05,1.05,0,0,0,.36.71c0.15,0.12.11,0.24,0,.37L290,24.28a0.49,0.49,0,0,1-.69,0l-0.06-.07c-0.09-.22-0.16-0.45-0.26-0.72l1,0.77a3.47,3.47,0,0,0-.25-0.29l-1.24-1.22a0.42,0.42,0,0,0-.25-0.13l0.32,0.53a1.87,1.87,0,0,1,.54,1.23,0.8,0.8,0,0,1-.16.41,0.6,0.6,0,0,0-.7-0.35,1,1,0,0,0,.32-1.28l-0.81-.44,0,0.07V22.54a0.48,0.48,0,0,0-.44-0.47,0.58,0.58,0,0,1-.46-0.25,0.68,0.68,0,0,0-.32-0.15L286,21.5a0.75,0.75,0,0,1,.1.29A0.71,0.71,0,0,1,286,22c-0.23-.11-0.3-0.24-0.13-0.43a0.22,0.22,0,0,0-.11-0.1h0Zm1,5.77-0.51.1V25.94l0.6,0.14c0.33,0.06.47-.06,0.44-0.39s-0.09-.69-0.14-1h1.47c-0.08.41-.17,0.81-0.24,1.22s0,0.39.34,0.38h0.67a9.86,9.86,0,0,1-.12,1.23,0.33,0.33,0,0,1-.26.1,6.07,6.07,0,0,1-.65-0.15l-0.07.91-1.2-.11a1.36,1.36,0,0,1,.1-0.42c0-.53-0.09-0.64-0.52-0.58h0.09Zm-1-3.36c-0.18-.48-0.36-1-0.57-1.51a2.79,2.79,0,0,1,1.27,1.79,0.45,0.45,0,0,1-.84-0.28h0.14ZM287,22.18a0.41,0.41,0,1,1-.4.42,0.4,0.4,0,0,1,.38-0.42h0Zm-0.85-.08c0.18-.33.22-0.34,0.56-0.06-0.29.33-.3,0.33-0.55,0.06h0Zm1.6,0.9a0.67,0.67,0,0,1,.69.65h0a0.69,0.69,0,0,1-.67.69,0.7,0.7,0,0,1-.68-0.69A0.67,0.67,0,0,1,287.75,23Zm-2.39-2.14a0.29,0.29,0,0,1,.28,0c0.17,0.2,0,.3-0.15.46-0.13-.17-0.35-0.32-0.14-0.49v0Zm-0.3,1.2,0.11-.08c0-.16-0.27-0.33,0-0.48a0.2,0.2,0,0,1,.25.29l-0.18.24,0.32,0.07a1.33,1.33,0,0,1,1,.74,2.44,2.44,0,0,0,.49.48,0.94,0.94,0,0,0,.35,1.08l-0.35.07-0.08.35H286.9c-0.16-.34-0.34-0.68-0.48-1a3,3,0,0,0-1.22-1.51,2.37,2.37,0,0,0-.36-0.17v0c0.11,0.21.23,0.42,0.32,0.64a10.84,10.84,0,0,1,.47,1.35c0.13,0.54-.1.75-0.69,0.68V24.18h-0.5l0.14-.18a0.83,0.83,0,0,0,.17-0.89,5.6,5.6,0,0,0-.26-0.65,0.38,0.38,0,0,1,.05-0.53l0.09-.06,0.21-.17Zm-1.66-.22-0.31-.25a1.38,1.38,0,0,1,1.53,0l-0.28.25c-0.52-.36-0.53-0.36-0.94,0v0Zm0.73,0.25H283.6a0.25,0.25,0,0,1,.13-0.33l0.11,0a0.26,0.26,0,0,1,.29.32v0Zm-0.32.13a0.42,0.42,0,0,1,.47.33h-0.82a0.34,0.34,0,0,1,.33-0.35h0v0Zm0,0.46a0.7,0.7,0,0,1,.68.72h0a0.71,0.71,0,0,1-.69.71,0.73,0.73,0,0,1-.7-0.74,0.7,0.7,0,0,1,.69-0.71h0v0Zm0.53-2.58,0.4,0.52c-0.47,0-.55-0.08-0.4-0.54v0Zm-0.85.21v-1H283V18.7h0.49l0.07-.58h0.56v0.55h0.55v0.65h-0.5v1.22a0.57,0.57,0,0,0,.32.26c0.32,0.15.33,0.16,0.17,0.52a2.16,2.16,0,0,0-1.65,0c-0.21-.34-0.2-0.4.17-0.53a0.45,0.45,0,0,0,.34-0.5v0Zm-0.23-.22c0.14,0.46.1,0.52-.41,0.56ZM282.9,21.6l0.35,0.28a0.37,0.37,0,0,1,.13.47c-0.08.2-.15,0.41-0.24,0.6a0.84,0.84,0,0,0,.12,1L283.32,24a0.17,0.17,0,0,1,0,0H282.9v0.6c-0.55.16-.87-0.11-0.71-0.63s0.46-1.19.69-1.78A0.82,0.82,0,0,0,283,22a2.26,2.26,0,0,0-1.36,1.08c-0.28.52-.5,1.07-0.77,1.68-0.09-.27,0-0.57-0.45-0.47a1,1,0,0,0,.29-1.18,0.91,0.91,0,0,0,.64-0.62,1.61,1.61,0,0,1,.55-0.47c-0.1-.18-0.31-0.38,0-0.53,0.22,0.11.25,0.26,0,.5C282.34,22,282.75,22.12,282.9,21.6Zm-1,2.48a0.39,0.39,0,0,1-.26.13,1.92,1.92,0,0,1-.36,0,2.85,2.85,0,0,1,1.19-1.78h0.06a12.38,12.38,0,0,1-.59,1.65h0Zm-1.35-.42a0.68,0.68,0,1,1-1.35,0,0.7,0.7,0,1,1,1.39,0h0Zm-0.35-1.08a0.41,0.41,0,0,1,.42-0.4h0a0.4,0.4,0,0,1,.42.38v0a0.4,0.4,0,0,1-.38.42h0a0.43,0.43,0,0,1-.39-0.42H280.2Zm2.21-.62c-0.25-.3-0.25-0.32,0-0.52,0.33,0.19.33,0.21,0.05,0.56Zm-0.24-1.31c0.12,0.17.33,0.29,0.14,0.49a0.28,0.28,0,0,1-.27,0c-0.16-.24.09-0.33,0.19-0.5h-0.06Zm-1.63.3a0.74,0.74,0,0,1,.3.26,0.73,0.73,0,0,1-.27.28,1.2,1.2,0,0,1-.44-0.17V21.16a1.19,1.19,0,0,1,.47-0.22h-0.06Zm-0.92.23a0.43,0.43,0,0,1,.47.44,0.45,0.45,0,0,1-.44.46h0a0.47,0.47,0,0,1-.48-0.45,0.45,0.45,0,0,1,.44-0.46h0Zm0.16,1a0.7,0.7,0,0,0,.3-0.19c0.28-.19.55-0.38,0.84-0.56a0.25,0.25,0,0,1,.18,0,0.52,0.52,0,0,0,.62-0.12,0.52,0.52,0,0,1,.24,0v0.11l-0.7.31c0,0.17.35,0.29,0.11,0.52a0.25,0.25,0,0,1-.24,0c-0.28-.19,0-0.35.06-0.53H281.1a3,3,0,0,1-.83.45,1.58,1.58,0,0,0-.37.64,0.86,0.86,0,0,0-.85.58,0.9,0.9,0,0,0,.41,1c-0.25.09-.59-0.06-0.66,0.31a0.28,0.28,0,0,1-.19-0.43c0.15-.39.32-0.78,0.49-1.16a4.79,4.79,0,0,1,.32-0.51l-0.07-.06-0.67.72a5,5,0,0,1-.32,1,1.18,1.18,0,0,1-.6.12V24.26l0.81-.94-0.93.85L277,24.9l-0.18-.32a1,1,0,0,0,.5-1c0.81-.13.87-0.18,1-0.78a1.58,1.58,0,0,0,.68-0.23,0.88,0.88,0,0,1,.84-0.39h-0.06Zm-1.37,6.21-0.13.46h-0.06a1,1,0,0,1-.09-0.32,0.76,0.76,0,0,1,.34-0.14h-0.06Zm0.17-6.87a0.53,0.53,0,0,1,0,1.06h0a0.53,0.53,0,0,1,.09-1.06h-0.06Zm-1,.72a0.58,0.58,0,1,1-.58.58v0a0.58,0.58,0,0,1,.6-0.56h0Zm-1.17.76a0.74,0.74,0,0,1,.75.73h0a0.74,0.74,0,1,1-1.47,0,0.72,0.72,0,0,1,.7-0.74h0Zm-0.68,1.61c0.34,0.08.62,0.13,0.91,0.21a0.31,0.31,0,0,1,.09.23v1c0,0.3.13,0.38,0.45,0.29l0.16,0a0.22,0.22,0,0,1,.34.2c0.06,0.35.12,0.7,0.18,1.08h-0.55c-0.27,0-.35.11-0.26,0.36,0.14,0.43.29,0.85,0.46,1.27s0.35,0.33.55,0.08a0.85,0.85,0,0,0,.09-0.14c0.1-.19.21-0.2,0.38-0.06a3.48,3.48,0,0,0,.48.28,2.79,2.79,0,0,0,.25-0.57,8.82,8.82,0,0,0,.14-1.12c0-.32-0.16-0.45-0.44-0.3-0.58.31-.58,0.15-0.63-0.4a3.29,3.29,0,0,0-.07-0.8h0.68c0.31,0,.38-0.08.33-0.4S279.13,25,279,24.58h1.47a6.48,6.48,0,0,1-.14.94,0.39,0.39,0,0,0,.52.5l0.51-.11v1.41l-0.4-.05c-0.44-.07-0.54,0-0.43.47a2.89,2.89,0,0,0,.1.43l-0.55.06a0.66,0.66,0,0,0-.33.06,0.78,0.78,0,0,0-.3.42,0.31,0.31,0,0,0,.38.24,4.91,4.91,0,0,0,1-.07,1.1,1.1,0,0,0,.24.28,0.37,0.37,0,0,0,.48-0.18c0.31-.34.35-0.34,0.63,0a0.48,0.48,0,0,0,.36.19,0.5,0.5,0,0,0,.3-0.31c0.12-.45.2-0.92,0.29-1.38,0-.26,0-0.36-0.31-0.31l-0.82.16V25.9h0.74c0.36,0,.46-0.09.43-0.45s-0.1-.71-0.15-1.09h1.63l-0.1.77v0.14c-0.08.56,0,.65,0.57,0.62h0.59v1.44L285,27.19c-0.31,0-.4,0-0.35.36l0.1,0.55h-1.22a0.4,0.4,0,0,0-.42.38v0a0.36,0.36,0,0,0,.41.3h0a8.13,8.13,0,0,0,.82,0,2.86,2.86,0,0,0,.5-0.13,2.51,2.51,0,0,0,.1.27c0.15,0.3.33,0.33,0.57,0.1a0.47,0.47,0,0,1,.76,0c0.35,0.29.34,0.17,0.54,0a0.39,0.39,0,0,1,.27-0.11c0.31,0,.62.06,0.93,0.07a1.74,1.74,0,0,0,.39-0.08h0l0.24,0.48a3.11,3.11,0,0,0,.45-0.24c0.23-.18.28-0.17,0.46,0.07a0.53,0.53,0,0,0,.33.24,0.54,0.54,0,0,0,.31-0.31c0.16-.39.29-0.79,0.42-1.19s0-.34-0.26-0.35h-0.52a7.6,7.6,0,0,1,.12-1,0.27,0.27,0,0,1,.26-0.28l0.11,0c0.63,0.09.63,0.09,0.63-.54V24.89a0.58,0.58,0,0,1,0-.09l1-.22a21.79,21.79,0,0,0-1,5.17,48.4,48.4,0,0,0-14.14,0,21.86,21.86,0,0,0-1-5.14h0Zm1,5.38a0.61,0.61,0,0,1,.1.28,0.59,0.59,0,0,1-.27,0l-1.87-.93,0.28-.51c0.59,0.42,1.17.78,1.74,1.17h0Zm-3.14-3.61c-0.25.8,0.26,1.41,0.42,2.2a1.06,1.06,0,0,1-.26-0.17c-0.21-.3-0.42-0.6-0.61-0.91-0.34-.5-0.22-0.85.43-1.12h0Zm-1,0a3.63,3.63,0,0,0,1,2.1c0.17,0.19.17,0.19,0,.46-0.41-.49-0.83-1-1.21-1.44a0.86,0.86,0,0,1,.23-1.09Zm-1,.42,1.79,2.27h0l-0.69-.55-0.81-.66a0.89,0.89,0,0,1-.24-1Zm-1.16,1.37a0.53,0.53,0,0,1,.53-0.53l0.16,0a1.13,1.13,0,0,1,.37.19q0.86,0.67,1.69,1.35a0.66,0.66,0,0,1,.11.24,0.62,0.62,0,0,1-.29.07l-2.13-.8a0.63,0.63,0,0,1-.38-0.51Zm-0.27,1.22A0.7,0.7,0,0,1,271,29a17.58,17.58,0,0,1,2,.77Zm2.43,1.18a0.55,0.55,0,0,1-.24,0,1.9,1.9,0,0,0-1.44.5l-0.14.08a0.63,0.63,0,0,1,.61-0.89,9.4,9.4,0,0,1,1.18,0,0.42,0.42,0,0,1,.15.08,0.4,0.4,0,0,1-.07.21Zm0-.35a3.58,3.58,0,0,0-2.33.18,0.81,0.81,0,0,1,.86-0.76l0.14,0c0.56,0.08,1.11.19,1.68,0.29a0.24,0.24,0,0,1-.17.29h-0.1Zm0.39,1a1.54,1.54,0,0,1-.29-0.28,3.36,3.36,0,0,1,.14-0.34l1.23-2.18,0.09-.14a0.34,0.34,0,0,1,.47-0.11l0,0a0.31,0.31,0,0,1,.16.41l0,0.05c-0.45.8-.9,1.61-1.36,2.4a0.32,0.32,0,0,1-.36.17H273Zm0.62-.13,0.26-.44,4.65,2.1c-0.07.25-.22,0.24-0.4,0.17l-1.8-.73L276,32.12,278,33v0.08h-1.1a0.44,0.44,0,0,1-.2-0.18c-0.1-.11-0.17-0.25-0.28-0.35a0.68,0.68,0,0,0-1,0l0,0-0.21.19c0.29-.59.39-0.66,0.85-0.56L275.81,32l-1.81-.8Zm0,0.61c0.28-.33.36-0.35,0.76-0.08a2.31,2.31,0,0,0-.92,2.57,1.19,1.19,0,0,1,.61-0.07,2.18,2.18,0,0,1,.33.81,0.38,0.38,0,0,1-.17.26,0.41,0.41,0,0,1-.23-0.06,3.56,3.56,0,0,0-.44-0.16,3.44,3.44,0,0,0-.49,0,3.71,3.71,0,0,1,.66-3.27H273.6ZM273,35.42a0.77,0.77,0,0,1,.85-0.19,0.5,0.5,0,0,1,.22.61,0.27,0.27,0,0,1-.31.22l-0.06,0a0.49,0.49,0,0,0-.64.17,0.53,0.53,0,0,1-.1-0.74Zm-3,.83a6.74,6.74,0,0,0,.68.17,1.3,1.3,0,0,0,1.63-1.26,0.39,0.39,0,0,1,.12-0.26,1,1,0,0,1,.47.1,0.45,0.45,0,0,1,0,.34,0.73,0.73,0,0,0,0,1c0.2,0.27.16,0.37-.12,0.58l-0.26.2a1,1,0,0,1,.41,1.5,1.28,1.28,0,0,0-.11-0.22,2.5,2.5,0,0,0-1.43-.88,1.67,1.67,0,0,1-.5-0.31c-0.24-.17-0.46-0.38-0.71-0.53S269.92,36.44,270,36.25Zm-0.54-.91a1.13,1.13,0,0,1-.37.39l-0.1,0,0.06-.94a0.59,0.59,0,0,1,.45.6h0Zm0.42-1.21a1.37,1.37,0,0,0,1.37-1.79V32.15h0a3.07,3.07,0,0,1,.44.44,1.3,1.3,0,0,1-.79,1.94,10.56,10.56,0,0,1-1.4.11,1.41,1.41,0,0,0-1.49.92,0.56,0.56,0,0,1-.17-0.13,1.56,1.56,0,0,1-.28-0.64,0.52,0.52,0,0,1,.54-0.41c0.62-.13,1.2-0.19,1.77-0.26h0Zm-1,.74a2.15,2.15,0,0,1-.07.67c-0.07.22-.16,0.19-0.32,0.17a0.21,0.21,0,0,1-.22-0.27,0.69,0.69,0,0,1,.68-0.57h-0.07Zm-1.33-.53a1,1,0,0,1,.12-0.94,1.13,1.13,0,0,1,.79-0.08,0.61,0.61,0,0,1,.36.65ZM269.1,34H269l-0.18-.62h0.56Zm-3-5.1a4.36,4.36,0,0,0,.35-0.36c0.15-.19.35-0.23,0.49,0a0.56,0.56,0,0,0,.75.25l0.06,0a0.53,0.53,0,0,1,.67.27,1.08,1.08,0,0,1-.2,1,0.69,0.69,0,0,1-.36,0,0.37,0.37,0,0,1,0-.19,1.59,1.59,0,0,1,.33-0.1A0.71,0.71,0,0,0,267.9,29l-0.8.61,0.6,0.07c-0.08.28-.14,0.29-0.75,0.21v-1h-0.1L266.77,30a1.16,1.16,0,0,1-.57-0.18,2.8,2.8,0,0,1-.14-0.84,0.28,0.28,0,0,1,.1-0.09H266.1Zm2,1.45v0.07h-2.29a0.61,0.61,0,0,1-.22-0.1,0.55,0.55,0,0,1,.22-0.15h2a1.07,1.07,0,0,1,.38.16Zm-2.92-1c-0.06-.35.1-0.53,0.57-0.68l0.1,1.31a0.59,0.59,0,0,1-.58-0.6h0ZM261.49,34a1.17,1.17,0,0,1-.8-0.71,2,2,0,0,0,1.18-1.16A2.49,2.49,0,0,1,263.73,31c0.35,0,.41,0,0.49.33a1.19,1.19,0,0,0,.56.9h0.1a1.63,1.63,0,0,1-.43-1.56c0.62,0.23.85,0.56,0.68,1l0.51,0.06-0.79-1.21,1.1,0.4V30.65h2a0.61,0.61,0,0,1,.57.29,0.61,0.61,0,0,0,.39.1c0.22,0,.43,0,0.42.34L269,31.5v0.06l0.29,0a0.39,0.39,0,0,1,.43.35v0a4.47,4.47,0,0,1,0,.88,0.41,0.41,0,0,1-.46.36h0l-1.1,0a0.54,0.54,0,0,0-.67.6,6.27,6.27,0,0,0,0,1,1.27,1.27,0,0,0,1.7,1.14c0.2-.06.39-0.14,0.6-0.22l0.12,0.8h-1.67a6.37,6.37,0,0,1-1,0,1.37,1.37,0,0,1-1.36-1.22A0.68,0.68,0,0,0,266,36a1.92,1.92,0,0,0,1.31.58c0.76,0.06,1.52.08,2.28,0.12A1.56,1.56,0,0,1,271,38.58a0.88,0.88,0,0,1-.09.23l-0.06,0a1.76,1.76,0,0,0-2-1.34h-2.2a7.89,7.89,0,0,1-1-.23,1.56,1.56,0,0,0-.45,0l-0.09.06a1.4,1.4,0,0,1-2,0l0,0a1.58,1.58,0,0,0,1.24-1,1.54,1.54,0,0,1-1.43-.6,1.55,1.55,0,0,0,1.47-.81l-1.09-.52a1,1,0,0,1-.22-0.24c0.87-.48.59-1.41,0.94-2.14a1.78,1.78,0,0,0-1.47.75,7.93,7.93,0,0,0-.52,1,0.41,0.41,0,0,1-.43.39Zm0,1.81a1.38,1.38,0,0,1-.9-0.65l0.3-.13a2.12,2.12,0,0,0,1.31-1.37,3.8,3.8,0,0,1,.48-0.94,1.56,1.56,0,0,1,1-.59c-0.16.72,0,1.5-.87,1.87l0.25,0.39a1.5,1.5,0,0,0-1,1.11,0.4,0.4,0,0,1-.43.37l-0.13,0v0Zm-0.36,3.31a1.11,1.11,0,0,1-.8-1.14,2.42,2.42,0,0,0,2.38-1.48c-0.16.19-.31,0.38-0.47,0.56a0.82,0.82,0,0,1-.88.3,1,1,0,0,1-.83-0.73h0.28a1.49,1.49,0,0,0,1.37-1c0.09-.21.17-0.42,0.27-0.62a0.8,0.8,0,0,1,1-.41c0.21,0.06.42,0.15,0.64,0.22a0.64,0.64,0,0,1-.64.43c-0.26.06-.52,0.09-0.77,0.14,0,0.49.29,0.67,1.39,1a2.16,2.16,0,0,1-1.36.71l0.66,0.51c-0.67.51-1.27,1-1.88,1.43a0.51,0.51,0,0,1-.35.11v0ZM260.9,40.9a1.34,1.34,0,0,1-1-1.14h0.22a1.85,1.85,0,0,0,1.55-.49c0.58-.46,1.17-0.9,1.77-1.34a0.48,0.48,0,0,1,.33-0.11,1.76,1.76,0,0,0,1.48-.36l0.09,0.08a7.56,7.56,0,0,1-.73.86,7.4,7.4,0,0,1-1,.72,8.44,8.44,0,0,0-2,1.61A0.54,0.54,0,0,1,260.9,40.9Zm0.42,1.73a1.93,1.93,0,0,1-.67-0.08,1,1,0,0,1-.81-1,5,5,0,0,0,.83-0.09,1.56,1.56,0,0,0,.71-0.35A11.34,11.34,0,0,1,264.1,39a5.93,5.93,0,0,0,.83-0.63,0.25,0.25,0,0,1,.35,0,2.57,2.57,0,0,0,.44.25,0.22,0.22,0,0,1,.1.39,3.93,3.93,0,0,1-.53.53,2.59,2.59,0,0,1-.52.29,0.79,0.79,0,0,1-1,0,2,2,0,0,1-.81,1.3c-0.35.4-.66,0.84-1,1.27a0.56,0.56,0,0,1-.65.23h0Zm-1.07,1.29c-0.06-.07-0.11-0.15-0.2-0.28a2.26,2.26,0,0,0,2-1.15c0.39-.55.84-1,1.26-1.58l0.13-.11c0.21,0.27.42,0.53,0.61,0.81a0.27,0.27,0,0,1,0,.23c-0.34.63-.66,1.26-1,1.87A1.8,1.8,0,0,1,260.25,43.92Zm-3.6-8.19a1.85,1.85,0,0,1,.77,2,3.51,3.51,0,0,1-.84,1.75l-0.33.38a1.93,1.93,0,0,0-.61,1.43,0.81,0.81,0,0,1-.67-1.15c0.28-.71.59-1.42,0.88-2.13a1.07,1.07,0,0,1,.11-0.33h-0.07a0.79,0.79,0,0,1-.13.26c-0.32.68-.63,1.36-0.95,2a0.36,0.36,0,0,1-.21.2,0.47,0.47,0,0,1-.3-0.21,0.58,0.58,0,0,1,0-.4c0.23-.63.49-1.26,0.73-1.89l0.12-.29h-0.09l-1,2c-0.61-.59-0.15-1.15-0.05-1.73l-0.15.26-0.17.3a1.68,1.68,0,0,1,.47-2.26A2.41,2.41,0,0,1,256.65,35.73Zm-0.58-.45h-0.92a0.6,0.6,0,0,1-.22-0.13A0.57,0.57,0,0,1,255.1,35a2.53,2.53,0,0,1,.57-0.12C256,34.81,256.07,34.93,256.07,35.28ZM255.32,60.8a0.88,0.88,0,0,1-1-.25,0.67,0.67,0,0,1,0-.88c0.17-.22.36-0.43,0.56-0.67l1.25,1,0.15,0.14A6,6,0,0,1,255.32,60.8Zm1.81-2.13a0.53,0.53,0,0,0-.22.61,0.65,0.65,0,0,1-.38.83L255,58.81a0.9,0.9,0,0,1,1.11-.39,0.57,0.57,0,0,0,.67-0.08,0.45,0.45,0,0,1,.18-0.07c0.15,0,.3-0.09.39,0.09S257.24,58.59,257.13,58.67Zm0.52,0.11c-0.06-.17-0.13-0.32-0.18-0.48a0.28,0.28,0,0,1,.29-0.39L258.12,58A0.78,0.78,0,0,1,257.65,58.78Zm2.14,0h-0.11l-0.32-.6,0.56-.22Zm0.31-1.13a0.86,0.86,0,0,0-.56-0.86,2.82,2.82,0,0,1,.22.37,2,2,0,0,1,.13.48,0.21,0.21,0,0,1-.17.25h-0.05a1.16,1.16,0,0,0-.49.24,0.61,0.61,0,0,1-.78,0,0.68,0.68,0,0,1,0-.49,0.72,0.72,0,0,0-.29-1l0,0c0.07,0.17.13,0.29,0.18,0.41a0.42,0.42,0,0,1-.36.65,2.22,2.22,0,0,0-.46.13,0.61,0.61,0,0,1-.72-0.06,0.66,0.66,0,0,1,0-.79,4.43,4.43,0,0,1,.56-0.5,3.55,3.55,0,0,1-.52-1.67,0.46,0.46,0,0,0-.24-0.31,1,1,0,0,0-1.17.09l-0.14.08a0.49,0.49,0,0,1,.12-0.79,1.85,1.85,0,0,1,1.08-.26,1.78,1.78,0,0,0,.34,0,1.49,1.49,0,0,0-1.58.06c-0.17-.49,0-0.79.44-0.82s0.9,0,1.38,0c-0.24-.35-0.46-0.35-1.67-0.11a0.45,0.45,0,0,1,.3-0.76c0.41-.07.84-0.08,1.28-0.12h0a0.85,0.85,0,0,1,.88-0.82l0.22,0h1.18a1.25,1.25,0,0,0,1.34-1.16s0,0,0-.06a5.78,5.78,0,0,1,1-2.83c-0.21.06-.41,0.14-0.62,0.18a9.55,9.55,0,0,1-1.66.28,2.64,2.64,0,0,1-2.61-1.74,1.19,1.19,0,0,0-1.38-1l-0.24.07a0.52,0.52,0,0,1-.38-0.06,0.49,0.49,0,0,1,.13-0.61,0.76,0.76,0,0,1,.39-0.13h1.1c-0.24-.2-0.27-0.21-1.45-0.13a0.62,0.62,0,0,1,.66-0.83c0.4,0,.8.07,1.2,0.1,0.19-.6.34-1.22,0.58-1.81,0.35-.87.77-1.71,1.12-2.58a7,7,0,0,0,.48-3.86,1.72,1.72,0,0,0-1.68-1.58,1.05,1.05,0,0,0-1.27.94c-0.08.41-.22,0.5-0.63,0.39a0.3,0.3,0,0,1-.15-0.22,1.63,1.63,0,0,1,1.18-1.74,2.59,2.59,0,0,1,3.5,2.37,11.2,11.2,0,0,1-1,5c-0.33.79-.67,1.57-1,2.37a4.35,4.35,0,0,0-.27,2.57,2,2,0,0,0,2,1.63,2.78,2.78,0,0,0,2.8-1.46c0.48-.82.91-1.66,1.37-2.49a3.66,3.66,0,0,1,2.13-1.86,3.9,3.9,0,0,1,3.45.65,11.1,11.1,0,0,1,2.22,2.2,0.75,0.75,0,0,0,1,.32l0.22,0a0.28,0.28,0,0,1,.4.26,1.49,1.49,0,0,0,.17.47c0.08,0.14.27,0.28,0.12,0.44a1.25,1.25,0,0,1-.54.29h-0.43l0.74,0.5a0.46,0.46,0,0,0,.19,0,1.58,1.58,0,0,1,.41,0c0.25,0,.28.18,0.15,0.4a0.88,0.88,0,0,0-.13.46c0,0.43-.06.53-0.49,0.46h-0.21c0.24,0.3.28,0.29,1,0a0.63,0.63,0,0,1-.08.29,0.55,0.55,0,0,0-.16.54c0,0.49-.18.63-0.63,0.45l-0.3-.12c0.34,0.58.8,0.23,1.22,0.24a7.58,7.58,0,0,1-.36.74,0.37,0.37,0,0,1-.3.09,1.72,1.72,0,0,1-1.53-1.57,3,3,0,0,0-.94-2.4,5.8,5.8,0,0,0-3-1.45,19.27,19.27,0,0,0-2-.33,1.61,1.61,0,0,0-1.07.19l0.3,0.11c-0.25.6-.87,0.53-1.31,0.81l0.65,0v0.1l-1.33.69h0.27a3,3,0,0,0,1.7-1.27A0.79,0.79,0,0,1,266,44a8.37,8.37,0,0,1,3.2.69l0.18,0.08,0.09,0.08-0.65.28-2,.79-0.23.12h0l-0.25.06,0.17,0.28-0.87.53a0.63,0.63,0,0,0-.41.79l0,0.07a1.85,1.85,0,0,1-.84,1.91h-0.16c0-.56-0.1-1.1-0.1-1.63a1.24,1.24,0,0,1,.62-1c0.36-.25.74-0.48,1.12-0.71a0.88,0.88,0,0,0,.21-0.17,3.83,3.83,0,0,0-1.92,1.25,1.51,1.51,0,0,0-.2,1.22,7.69,7.69,0,0,1-.14,3,1.88,1.88,0,0,1-2,1.6l-0.37-.07A1.92,1.92,0,0,0,262.61,52a2.1,2.1,0,0,1-1.4,1,7.33,7.33,0,0,1-1.43.06,0.53,0.53,0,0,0-.6.38,3.09,3.09,0,0,0,0,2.54,0.45,0.45,0,0,0,.69.26c0.24-.11.46-0.25,0.69-0.38a0.63,0.63,0,0,1,.85,0,0.89,0.89,0,0,1,.12,1.06,1,1,0,0,0-1.18-.45l0.45,0.12c0.46,0.12.54,0.29,0.32,0.7a2.55,2.55,0,0,0-.15.36,0.65,0.65,0,0,1-.51.44,0.32,0.32,0,0,1-.42-0.41v0ZM261.74,58h-0.07a2.86,2.86,0,0,1-.41-0.38,0.37,0.37,0,0,1,0-.3,0.28,0.28,0,0,1,.21-0.13,0.38,0.38,0,0,1,.16.23,4.85,4.85,0,0,1,.11.61v0Zm-0.47,1.71c-0.55-.3-0.7-0.83-0.3-1.18a2.45,2.45,0,0,1,.65-0.29v0.06h0c0.68,0,.88.35,0.55,1a0.65,0.65,0,0,1-.17.26,0.47,0.47,0,0,1-.62.25l-0.11-.07v0Zm1,0.68a0.32,0.32,0,0,1-.26-0.52q0.24-.55.51-1.09a0.3,0.3,0,0,1,.52-0.13,1,1,0,0,1-.77,1.76v0Zm1.38-.73,0.7,0.48v0.09l-0.89-.09Zm2.7,6.1c-0.41-.3-0.84-0.58-1.23-0.91s-0.77-.71-1.15-1.08a0.28,0.28,0,0,1-.08-0.23c0.2-.57.41-1.13,0.63-1.73l1.68,1.55-0.09.12a0.84,0.84,0,0,0-.2,1.09c0.16,0.37.34,0.74,0.51,1.12Zm1,1.61-1.36-3h0l2.42,1.81Zm2.16,1.28,0.85-1.36,2.45,1.17v0.07Zm7.24,0.89C277.88,69.7,279,69.8,280,70a1.78,1.78,0,0,1,1.48,2,3.74,3.74,0,0,0-2.17-1.78,4.92,4.92,0,0,0-3,.14l2,1.2-1.08.53c-1.16-1.81-3.11-2.4-5-3.24,0.48-.17,1.09.2,1.36-0.47L274,68.59a5.87,5.87,0,0,0,2.79,1v0Zm-3-1.82a27.6,27.6,0,0,1-7.32-4.48l0.69-.65A25.64,25.64,0,0,0,274.33,67Zm13.68-.38a26.86,26.86,0,0,1-4.86.31A23.12,23.12,0,0,1,267.76,62c-1.06-.91-2.09-1.86-3.14-2.79a1.36,1.36,0,0,0-.27-0.15l0.09-.13a1.45,1.45,0,0,0,1.15,0,0.18,0.18,0,0,1,.15,0,2.49,2.49,0,0,1,1.85.24,1,1,0,0,1,.48.28,1,1,0,0,0,0,.39,1.82,1.82,0,0,0,.69.32,0.39,0.39,0,0,1,.42.36s0,0,0,0a0.61,0.61,0,0,0,.51.49,0.73,0.73,0,0,0,.31,0l0.45,0.32a1.41,1.41,0,0,0-.11.18,1.58,1.58,0,0,0-.06.2h0.2a0.79,0.79,0,0,1,.65.31l0.12,0.22,0.26-.27L272,62.44a0.58,0.58,0,0,0,.22.09,0.61,0.61,0,0,1,.26.06,1.79,1.79,0,0,0,.85.43,20.56,20.56,0,0,0,6.25,2.08c1,0.17,2.08.26,3.13,0.33h2.1a1.32,1.32,0,0,1,.48.06,0.54,0.54,0,0,0,.2,0,0.49,0.49,0,0,1,.19-0.08,3.37,3.37,0,0,0,1.07-.13h0.34a0.23,0.23,0,0,0,.16,0,1.24,1.24,0,0,1,1-.27,0.77,0.77,0,0,0,.55-0.14,0.94,0.94,0,0,1,.41,0,0.35,0.35,0,0,0,.24-0.07,0.82,0.82,0,0,1,.63-0.22,0.76,0.76,0,0,0,.81-0.19,0.85,0.85,0,0,1,.9-0.28,0.28,0.28,0,0,0,.24-0.12c0.11-.21.17-0.34,0.45-0.16s0.21-.09.2-0.24l1.18-.55a0.48,0.48,0,0,1,.27,0,0.59,0.59,0,0,0,.72-0.38,0.53,0.53,0,0,1,.63-0.28,0.31,0.31,0,0,0,.26-0.17c0.07-.22.1-0.42,0.4-0.22a0.2,0.2,0,0,0,.18-0.08,0.65,0.65,0,0,1,.34-0.45c0.25,0.18.29,0.16,0.34-.15a0.35,0.35,0,0,1,.4-0.24,0.93,0.93,0,0,0,.25,0V60.81l0.38-.28,0.22,0.12a0.75,0.75,0,0,0,.1-0.21,0.32,0.32,0,0,1,.32-0.32h0.08a0.28,0.28,0,0,0,.22-0.07,0.52,0.52,0,0,0,0-.25l0.35-.29a0.61,0.61,0,0,0,.29,0,0.65,0.65,0,0,0,.09-0.3l0.71-.34a0.9,0.9,0,0,0,1.27,0l0.11-.14,0.63,0.65-0.13-.23a1.21,1.21,0,0,0,.53-0.25,0.62,0.62,0,0,1,.68-0.25,0.86,0.86,0,0,0,.77-0.32,0.62,0.62,0,0,1,.42-0.16,1.43,1.43,0,0,1,.63.14,3,3,0,0,1-.67.17,1,1,0,0,0-.92.63A1.1,1.1,0,0,1,303,60l-0.5-.59a1.12,1.12,0,0,1-.14.17c-1.09,1-2.16,1.93-3.29,2.84a23.73,23.73,0,0,1-11.52,5v0Zm6.9,1.51c-0.62.26-1.25,0.51-1.87,0.78a6.75,6.75,0,0,0-2.67,2,0.34,0.34,0,0,1-.46.13l-0.06,0c-0.2-.12-0.42-0.21-0.65-0.32a8.92,8.92,0,0,1,1.91-1.21,4.76,4.76,0,0,0-2.94-.22,3.61,3.61,0,0,0-2.29,1.81,1.66,1.66,0,0,1,.42-1.29,2.66,2.66,0,0,1,1.87-.87c0.81-.06,1.62-0.07,2.42-0.14a5.81,5.81,0,0,0,3.25-1.25c0.27,0.64.86,0.34,1.34,0.51Zm3-.16-3.29-.19V68.47l2.48-1.15Zm-4.28-1-0.49-.81a26.1,26.1,0,0,0,7.23-4.21l0.62,0.69a27.37,27.37,0,0,1-7.35,4.34h0Zm6.45-.21-1.09-1.29L301,64.44h0.06Zm3.6-3.73a9.57,9.57,0,0,1-2.49,2H300.6c0.17-.38.31-0.74,0.49-1.09a0.65,0.65,0,0,0-.1-0.89,1.44,1.44,0,0,1-.18-0.27l1.79-1.61c0.22,0.58.44,1.14,0.64,1.69a0.23,0.23,0,0,1,0,.18h0Zm-0.41-3.49V60.2l0.7-.5,0.24,0.47Zm1.85,0.17a1,1,0,0,1-1-1,0.94,0.94,0,0,1,.46-0.76,0.3,0.3,0,0,1,.42,0l0,0.08c0.2,0.4.4,0.81,0.57,1.22,0.12,0.22-.14.43-0.48,0.44Zm1.73-1.23a1.17,1.17,0,0,1-.76.66,0.43,0.43,0,0,1-.38-0.15,5.06,5.06,0,0,1-.43-0.9,0.31,0.31,0,0,1,.19-0.4H305a2.86,2.86,0,0,0,.52-0.11,3,3,0,0,1,.49.14,0.59,0.59,0,0,1,.34.76v0Zm1.18-.42h-0.12L307.28,58l0.57,0.15Zm2.8-2.4a0.39,0.39,0,0,1,0-.27c0.07-.34.14-0.68,0.22-1a0.72,0.72,0,0,1,1.22-.4L312.16,55l-0.1.31-0.35-.15a0.43,0.43,0,0,0-.64.36,2.94,2.94,0,0,1-.07.78c-0.07.26-.08,0.41-0.13,0.69a5.77,5.77,0,0,1-.51-0.56v0Zm-0.81,2.34a0.64,0.64,0,0,1-.39-0.8c0.41-.11.51-0.07,0.66,0.32h0Zm1.1,1.34a0.64,0.64,0,0,1-.39-0.73A0.73,0.73,0,0,0,310,58.6a0.88,0.88,0,0,1-.16-0.31,0.57,0.57,0,0,1,.63.07,0.58,0.58,0,0,0,.61.07,0.86,0.86,0,0,1,1.12.4Zm2.21,0.45a0.91,0.91,0,0,1-1,.24c-0.33-.18-0.65-0.4-1-0.62l1.4-1.16c0.19,0.22.38,0.43,0.55,0.65a0.67,0.67,0,0,1,.06.9h0Z" fill="#172936"/>
  <path d="M309,41.87a6,6,0,0,1,.56,2.62,1.93,1.93,0,0,1-1.86,2h-0.14a3.24,3.24,0,0,1-2.45-1l-0.24-.17a2.72,2.72,0,0,0,2.37,1.39,2.16,2.16,0,0,0,2.44-2.21,4.75,4.75,0,0,0-.3-1.91,24.08,24.08,0,0,0-1-2.29,11.83,11.83,0,0,1-1.1-5,2.57,2.57,0,0,1,2.5-2.63h0.34A1.83,1.83,0,0,1,312,34.17c0.09,0.53,0,.71-0.51.63H311.4a2.29,2.29,0,0,0-.11-0.52,1,1,0,0,0-1.13-.85,2.3,2.3,0,0,0-.66.13,1.88,1.88,0,0,0-1.21,1.83,7.83,7.83,0,0,0,.64,3.71c0.48,1.16.94,2.33,1.39,3.5a5.22,5.22,0,0,1,.17.69h0.26A7,7,0,0,1,311.7,43a0.67,0.67,0,0,1,.67.87,1.64,1.64,0,0,0-1.47.16H312a0.55,0.55,0,0,1,.52.85c-0.33,0-.65-0.06-1-0.07a0.73,0.73,0,0,0-.7.35,12.22,12.22,0,0,0-.54,1.16c0.17-.27.34-0.53,0.5-0.81a0.91,0.91,0,0,1,1.09-.54l0.88,0.12-0.08-.68-0.08-.64a0.92,0.92,0,0,0-.92-0.92l-0.23,0-0.82.12c-0.18-.56-0.33-1.12-0.54-1.64-0.37-.91-0.81-1.8-1.16-2.72a6.92,6.92,0,0,1-.49-3.56,1.7,1.7,0,0,1,1.38-1.58,1.06,1.06,0,0,1,1.31.65,1.3,1.3,0,0,1-.56,1.4,1.85,1.85,0,0,0-1,2A4.29,4.29,0,0,0,310.82,40a1.71,1.71,0,0,1,.58,1.51,0.87,0.87,0,0,0,1-.61,0.78,0.78,0,0,1,.12-0.34,2.84,2.84,0,0,0,.72-1,4.61,4.61,0,0,0,.74-2.4,0.64,0.64,0,0,0,0-.19,2.05,2.05,0,0,0-1.33-1.49,0.36,0.36,0,0,1-.21-0.19c-0.07-.39-0.12-0.79-0.18-1.19a1.67,1.67,0,0,0-.76-1.23,2.74,2.74,0,0,0-2.22-.34,2.64,2.64,0,0,0-2,2.61,8.78,8.78,0,0,0,.49,3.57C308.14,39.76,308.6,40.81,309,41.87ZM313.19,36a1.64,1.64,0,0,1,.38,2.2L313,36.92h-0.07L313,37.2c0.14,0.35.29,0.69,0.43,1a1,1,0,0,1-.21,1.09l-1-1.87h-0.08c0.14,0.31.31,0.61,0.43,0.93a10.93,10.93,0,0,1,.4,1.22c0.08,0.33,0,.47-0.41.59l-1.16-2.51h-0.07a3.37,3.37,0,0,0,.11.37c0.28,0.68.59,1.36,0.86,2a0.85,0.85,0,0,1-.48,1.1l-0.18,0a2.48,2.48,0,0,0-.88-1.72,3.58,3.58,0,0,1-1-2.34,1.74,1.74,0,0,1,1.5-1.8A2.37,2.37,0,0,1,313.19,36Zm-0.9-.86a0.58,0.58,0,0,1-.22.18h-0.88c0-.34,0-0.44.34-0.44a2.69,2.69,0,0,1,.58.07,0.56,0.56,0,0,1,.17.14v0Z" fill="#172936"/>
  <path d="M267,31.4a2.14,2.14,0,0,0,0,2A4.25,4.25,0,0,1,267,31.4Z" fill="#172936"/>
  <path d="M300.46,33.39a2.23,2.23,0,0,0,0-1.86v1.86Z" fill="#172936"/>
  <rect x="18.53" y="66.89" width="234.17" height="0.76" fill="#172936"/>
  <rect x="314.79" y="66.89" width="233.81" height="0.76" fill="#172936"/>
  <rect x="18.53" y="17.94" width="257.72" height="0.76" fill="#172936"/>
  <rect x="290.87" y="17.94" width="257.73" height="0.76" fill="#172936"/>
  <rect x="18.53" y="176.87" width="191.82" height="2.69" fill="#cacaca"/>
  <rect x="18.53" y="188.6" width="191.82" height="2.69" fill="#cacaca"/>
  <rect x="18.53" y="200.33" width="191.82" height="2.69" fill="#cacaca"/>
  <rect x="18.53" y="212.06" width="191.82" height="2.69" fill="#cacaca"/>
  <rect x="18.53" y="223.79" width="191.82" height="2.69" fill="#cacaca"/>
  <rect x="18.53" y="235.52" width="191.82" height="2.69" fill="#cacaca"/>
  <rect x="18.53" y="247.25" width="191.82" height="2.69" fill="#cacaca"/>
  <rect x="18.53" y="258.98" width="191.82" height="2.69" fill="#cacaca"/>
  <rect x="229.25" y="176.87" width="191.82" height="2.69" fill="#cacaca"/>
  <rect x="229.25" y="188.6" width="191.82" height="2.69" fill="#cacaca"/>
  <rect x="229.25" y="200.33" width="191.82" height="2.69" fill="#cacaca"/>
  <rect x="229.25" y="212.06" width="191.82" height="2.69" fill="#cacaca"/>
  <rect x="229.25" y="223.79" width="191.82" height="2.69" fill="#cacaca"/>
  <rect x="229.25" y="235.52" width="191.82" height="2.69" fill="#cacaca"/>
  <rect x="229.25" y="247.25" width="191.82" height="2.69" fill="#cacaca"/>
  <rect x="229.25" y="258.98" width="191.82" height="2.69" fill="#cacaca"/>
  <rect x="438.98" y="176.87" width="109.62" height="2.69" fill="#cacaca"/>
  <rect x="438.98" y="188.6" width="109.62" height="2.69" fill="#cacaca"/>
  <rect x="438.98" y="200.33" width="109.62" height="2.69" fill="#cacaca"/>
  <rect x="438.98" y="212.06" width="109.62" height="2.69" fill="#cacaca"/>
  <rect x="438.98" y="223.79" width="109.62" height="2.69" fill="#cacaca"/>
  <rect x="438.98" y="235.52" width="109.62" height="2.69" fill="#cacaca"/>
  <rect x="438.98" y="247.25" width="109.62" height="2.69" fill="#cacaca"/>
  <rect x="438.98" y="258.98" width="109.62" height="2.69" fill="#cacaca"/>
  <rect x="18.53" y="270.71" width="191.82" height="2.69" fill="#cacaca"/>
  <rect x="229.25" y="270.71" width="191.82" height="2.69" fill="#cacaca"/>
  <rect x="438.98" y="270.71" width="109.62" height="2.69" fill="#cacaca"/>
  <path d="M30.59,39.33V37.24a0.69,0.69,0,0,1,.79-0.8h7.31a0.59,0.59,0,0,1,.69.64v7.37a2.88,2.88,0,0,1-.22,1.24,1.65,1.65,0,0,1-1.58,1H30.17A2,2,0,0,1,28.24,45a4.14,4.14,0,0,1,0-.54V40a0.68,0.68,0,0,1,.63-0.73h1.76Zm1.2,6.15h5.7A0.5,0.5,0,0,0,38.08,45a2.64,2.64,0,0,0,0-.52V37.7H31.85v6.75c0,0.34,0,.67-0.05,1h0Zm-2.33-4.89v4.1a1.26,1.26,0,0,0,.09.42,0.49,0.49,0,0,0,.47.35,0.48,0.48,0,0,0,.47-0.35,1.9,1.9,0,0,0,.1-0.58v-3.9H29.47v0Z"/>
  <path d="M35.16,42.22H33.73a0.63,0.63,0,0,1,0-1.26H36.6a0.63,0.63,0,1,1,0,1.26H35.16Z"/>
  <path d="M35.17,40H33.65a0.62,0.62,0,0,1-.56-0.86,0.59,0.59,0,0,1,.57-0.38h3A0.63,0.63,0,1,1,36.82,40H35.17Z"/>
  <path d="M35.17,44.48H33.69A0.63,0.63,0,0,1,33.06,44a0.61,0.61,0,0,1,.31-0.69,0.77,0.77,0,0,1,.33-0.08h2.94a0.63,0.63,0,0,1,.67.59s0,0,0,0a0.64,0.64,0,0,1-.66.62H35.17Z"/>
  <rect x="493.79" y="27.17" width="54.81" height="1.53" fill="#cacaca"/>
  <rect x="506.52" y="33.08" width="42.08" height="1.53" fill="#cacaca"/>
</svg>
