<svg id="Layer_1" data-name="Layer 1" xmlns="http://www.w3.org/2000/svg" viewBox="0 0 367.9 70.44">
  <title>legend</title>
  <g>
    <path d="M97.85,50.76a11,11,0,1,1,11-11A11,11,0,0,1,97.85,50.76Z" fill="#d08055"/>
    <path d="M97.85,29.18A10.61,10.61,0,1,1,87.24,39.78,10.61,10.61,0,0,1,97.85,29.18m0-.75A11.35,11.35,0,1,0,109.2,39.78,11.37,11.37,0,0,0,97.85,28.43h0Z" fill="#ca9885"/>
  </g>
  <circle cx="5.11" cy="38.78" r="2.12" fill="#fff"/>
  <g>
    <path d="M201.25,2.46V6.25h4V2.46h1.65v9.09h-1.65V7.69h-4v3.85H199.6V2.46h1.65Z" fill="#fff"/>
    <path d="M212.16,4.56a3.77,3.77,0,0,1,1.29.22,2.69,2.69,0,0,1,1,.67,3.7,3.7,0,0,1,1,2.72,3.66,3.66,0,0,1-1,2.69,3.09,3.09,0,0,1-2.32.9,3.18,3.18,0,0,1-2.35-.9,3.64,3.64,0,0,1-1-2.69,3.67,3.67,0,0,1,1-2.72A3.18,3.18,0,0,1,212.16,4.56Zm1.64,3.58a2.61,2.61,0,0,0-.42-1.62A1.4,1.4,0,0,0,212.21,6a1.56,1.56,0,0,0-1.23.54,2.38,2.38,0,0,0-.48,1.62,2.57,2.57,0,0,0,.43,1.62,1.41,1.41,0,0,0,1.17.54,1.55,1.55,0,0,0,1.22-.54A2.38,2.38,0,0,0,213.79,8.14Z" fill="#fff"/>
    <path d="M221.93,10.31a2.16,2.16,0,0,1-2.07,1.36,2.3,2.3,0,0,1-2.38-1.41,3,3,0,0,1-.21-1.19V4.73h1.65V8.9a1.38,1.38,0,0,0,.32,1,1.06,1.06,0,0,0,.79.33,2.07,2.07,0,0,0,.79-0.13,1.53,1.53,0,0,0,.56-0.4,2.5,2.5,0,0,0,.55-1.61V4.73h1.65v6.82h-1.65V10.31Z" fill="#fff"/>
    <path d="M227.11,9.47q0,1,1.41,1a1.54,1.54,0,0,0,.88-0.23,0.66,0.66,0,0,0,.34-0.54,0.58,0.58,0,0,0-.21-0.48,2.05,2.05,0,0,0-.66-0.31l-1.48-.53a2,2,0,0,1-1.65-1.88,1.61,1.61,0,0,1,.78-1.39,3.68,3.68,0,0,1,2.09-.52,3.13,3.13,0,0,1,2,.57,1.87,1.87,0,0,1,.73,1.44H229.8A0.68,0.68,0,0,0,229.47,6a1.52,1.52,0,0,0-.84-0.2,1.43,1.43,0,0,0-.85.22,0.61,0.61,0,0,0-.3.5,0.89,0.89,0,0,0,.83.73l1.61,0.6a3.18,3.18,0,0,1,1.22.68,1.42,1.42,0,0,1,.43,1.07,1.8,1.8,0,0,1-.8,1.46,3.45,3.45,0,0,1-2.18.64,3.65,3.65,0,0,1-2.18-.59,2,2,0,0,1-.84-1.67h1.54Z" fill="#fff"/>
    <path d="M238.83,6.59A3.82,3.82,0,0,1,239,7.67a6.3,6.3,0,0,1-.06.88h-4.4A2.36,2.36,0,0,0,235,9.89a1.33,1.33,0,0,0,1.15.52,1.09,1.09,0,0,0,1.22-.9H239a2.44,2.44,0,0,1-.94,1.61,3.09,3.09,0,0,1-1.95.62,3,3,0,0,1-2.25-1,3.72,3.72,0,0,1-.94-2.62,3.68,3.68,0,0,1,.94-2.63,3,3,0,0,1,2.25-1,2.64,2.64,0,0,1,2.2,1A3.11,3.11,0,0,1,238.83,6.59Zm-2.71-.71a1.36,1.36,0,0,0-1.09.46,2,2,0,0,0-.46,1.17h2.9a1.53,1.53,0,0,0-.7-1.48A1.36,1.36,0,0,0,236.13,5.87Z" fill="#fff"/>
    <path d="M242.63,5.85a2.21,2.21,0,0,1,2-1.29,2.34,2.34,0,0,1,2,.83,3.48,3.48,0,0,1,.64,2.18v4h-1.65v-4a1.6,1.6,0,0,0-.36-1.14,1.34,1.34,0,0,0-1-.39,1.4,1.4,0,0,0-1.13.59,2.91,2.91,0,0,0-.5,1.76v3.15H241V1.94h1.65V5.85Z" fill="#fff"/>
    <path d="M252.38,4.56a3.77,3.77,0,0,1,1.29.22,2.69,2.69,0,0,1,1,.67,3.7,3.7,0,0,1,1,2.72,3.66,3.66,0,0,1-1,2.69,3.09,3.09,0,0,1-2.32.9,3.18,3.18,0,0,1-2.35-.9,3.64,3.64,0,0,1-1-2.69,3.67,3.67,0,0,1,1-2.72A3.18,3.18,0,0,1,252.38,4.56ZM254,8.14a2.61,2.61,0,0,0-.42-1.62A1.4,1.4,0,0,0,252.43,6a1.56,1.56,0,0,0-1.23.54,2.38,2.38,0,0,0-.48,1.62,2.57,2.57,0,0,0,.43,1.62,1.41,1.41,0,0,0,1.17.54,1.55,1.55,0,0,0,1.22-.54A2.38,2.38,0,0,0,254,8.14Z" fill="#fff"/>
    <path d="M257.63,1.94h1.65v9.6h-1.65V1.94Z" fill="#fff"/>
    <path d="M266.32,10.49a2,2,0,0,1-1.93,1.25,2.8,2.8,0,0,1-2.18-1,3.84,3.84,0,0,1-.91-2.63,3.79,3.79,0,0,1,.87-2.59,2.72,2.72,0,0,1,2.13-1,2.12,2.12,0,0,1,1.92,1V1.94h1.67v9.6h-1.36ZM264.6,6a1.46,1.46,0,0,0-1.17.57A2.31,2.31,0,0,0,263,8.13a2.34,2.34,0,0,0,.48,1.53,1.5,1.5,0,0,0,2.28.11,1.67,1.67,0,0,0,.49-1.23V7.65a1.71,1.71,0,0,0-.49-1.19A1.52,1.52,0,0,0,264.6,6Z" fill="#fff"/>
    <path d="M276.7,4.56a3.77,3.77,0,0,1,1.29.22,2.69,2.69,0,0,1,1,.67,3.7,3.7,0,0,1,1,2.72,3.66,3.66,0,0,1-1,2.69,3.09,3.09,0,0,1-2.32.9,3.18,3.18,0,0,1-2.35-.9,3.64,3.64,0,0,1-1-2.69,3.67,3.67,0,0,1,1-2.72A3.18,3.18,0,0,1,276.7,4.56Zm1.64,3.58a2.61,2.61,0,0,0-.42-1.62A1.4,1.4,0,0,0,276.75,6a1.56,1.56,0,0,0-1.23.54A2.38,2.38,0,0,0,275,8.14a2.57,2.57,0,0,0,.43,1.62,1.41,1.41,0,0,0,1.17.54,1.55,1.55,0,0,0,1.22-.54A2.38,2.38,0,0,0,278.33,8.14Z" fill="#fff"/>
    <path d="M282.55,4.74l1.37,4.86,1.3-4.48h1.5L288,9.61l1.39-4.87h1.65l-2.24,6.8H287.2l-1.26-4.07-1.23,4.07h-1.64l-2.25-6.8h1.74Z" fill="#fff"/>
    <path d="M294.18,5.92a2.47,2.47,0,0,1,4.05-.53,3.48,3.48,0,0,1,.64,2.18v4h-1.65v-4a1.6,1.6,0,0,0-.36-1.14,1.34,1.34,0,0,0-1-.39,1.4,1.4,0,0,0-1.13.59,2.91,2.91,0,0,0-.5,1.76v3.15h-1.65V4.74H294Z" fill="#fff"/>
    <path d="M306.55,6.59a3.82,3.82,0,0,1,.17,1.08,6.3,6.3,0,0,1-.06.88h-4.4a2.36,2.36,0,0,0,.41,1.34,1.33,1.33,0,0,0,1.15.52,1.09,1.09,0,0,0,1.22-.9h1.67a2.44,2.44,0,0,1-.94,1.61,3.09,3.09,0,0,1-1.95.62,3,3,0,0,1-2.25-1,3.72,3.72,0,0,1-.94-2.62,3.68,3.68,0,0,1,.94-2.63,3,3,0,0,1,2.25-1,2.64,2.64,0,0,1,2.2,1A3.11,3.11,0,0,1,306.55,6.59Zm-2.71-.71a1.36,1.36,0,0,0-1.09.46,2,2,0,0,0-.46,1.17h2.9a1.53,1.53,0,0,0-.7-1.48A1.36,1.36,0,0,0,303.84,5.87Z" fill="#fff"/>
    <path d="M310.35,6.08a2,2,0,0,1,1.85-1.47,2.45,2.45,0,0,1,.6.1l0,1.65A3.69,3.69,0,0,0,312,6.28q-1.65,0-1.65,2.28v3H308.7V4.73h1.65V6.08Z" fill="#fff"/>
    <path d="M315.45,9.47q0,1,1.41,1a1.54,1.54,0,0,0,.88-0.23,0.66,0.66,0,0,0,.34-0.54,0.58,0.58,0,0,0-.21-0.48,2.05,2.05,0,0,0-.66-0.31l-1.48-.53a2,2,0,0,1-1.65-1.88,1.61,1.61,0,0,1,.78-1.39,3.68,3.68,0,0,1,2.09-.52,3.13,3.13,0,0,1,2,.57,1.87,1.87,0,0,1,.73,1.44h-1.55A0.68,0.68,0,0,0,317.81,6a1.52,1.52,0,0,0-.84-0.2,1.43,1.43,0,0,0-.85.22,0.61,0.61,0,0,0-.3.5,0.89,0.89,0,0,0,.83.73l1.61,0.6a3.18,3.18,0,0,1,1.22.68,1.42,1.42,0,0,1,.43,1.07,1.8,1.8,0,0,1-.8,1.46,3.45,3.45,0,0,1-2.18.64,3.65,3.65,0,0,1-2.18-.59,2,2,0,0,1-.84-1.67h1.54Z" fill="#fff"/>
    <path d="M323.55,5.85a2.21,2.21,0,0,1,2-1.29,2.34,2.34,0,0,1,2,.83,3.48,3.48,0,0,1,.64,2.18v4h-1.65v-4a1.6,1.6,0,0,0-.36-1.14,1.34,1.34,0,0,0-1-.39,1.4,1.4,0,0,0-1.13.59,2.91,2.91,0,0,0-.5,1.76v3.15H321.9V1.94h1.65V5.85Z" fill="#fff"/>
    <path d="M330.57,2.54a1,1,0,0,1,.27-0.71,1.22,1.22,0,0,1,1.5,0,0.93,0.93,0,0,1,.27.71,0.92,0.92,0,0,1-.27.71,1.22,1.22,0,0,1-1.5,0A0.94,0.94,0,0,1,330.57,2.54Zm0.2,2.18h1.65v6.82h-1.65V4.73Z" fill="#fff"/>
    <path d="M336.73,5.66a2.12,2.12,0,0,1,2-1.11,2.85,2.85,0,0,1,2.16,1,3.68,3.68,0,0,1,1,2.63,3.67,3.67,0,0,1-1,2.65,2.84,2.84,0,0,1-2.14,1,2.16,2.16,0,0,1-1.82-.74v3.86h-1.65V4.74h1.36Zm1.67,4.58a1.64,1.64,0,0,0,.61-0.13,1.6,1.6,0,0,0,.57-0.39,2.19,2.19,0,0,0,.56-1.58,2.29,2.29,0,0,0-.48-1.55A1.5,1.5,0,0,0,338.47,6a1.63,1.63,0,0,0-1.13.4,1.54,1.54,0,0,0-.47,1.14V8.8a1.35,1.35,0,0,0,.46,1.06A1.56,1.56,0,0,0,338.39,10.24Z" fill="#fff"/>
    <path d="M349.94,13.2A7.94,7.94,0,0,1,347,7.09,7.89,7.89,0,0,1,349.94,1l1.19,0.87a9.79,9.79,0,0,0-1.81,2.53,6.23,6.23,0,0,0-.6,2.71,6.14,6.14,0,0,0,.6,2.69,9.91,9.91,0,0,0,1.81,2.51Z" fill="#fff"/>
    <path d="M354.37,2.28a2,2,0,0,1,.73.13,1.75,1.75,0,0,1,.62.4,2.08,2.08,0,0,1,.57,1.58,2.16,2.16,0,0,1-.57,1.6,1.84,1.84,0,0,1-1.36.53A1.8,1.8,0,0,1,353,6a2.16,2.16,0,0,1-.57-1.6A2.08,2.08,0,0,1,353,2.81,1.85,1.85,0,0,1,354.37,2.28Zm4.87,0.18h1.67l-6.15,9.09h-1.68ZM355,4.39q0-1.06-.69-1.06t-0.67,1.06q0,1.08.67,1.08T355,4.39Zm4.58,3.09A1.85,1.85,0,0,1,361,8a2.08,2.08,0,0,1,.57,1.58,2.17,2.17,0,0,1-.57,1.61,2,2,0,0,1-2.69,0,2.17,2.17,0,0,1-.57-1.61A2.08,2.08,0,0,1,358.27,8,1.85,1.85,0,0,1,359.62,7.48Zm0,1q-0.67,0-.67,1.07t0.67,1.07a0.6,0.6,0,0,0,.49-0.25,1.34,1.34,0,0,0,.2-0.83,1.34,1.34,0,0,0-.2-0.83A0.6,0.6,0,0,0,359.62,8.53Z" fill="#fff"/>
    <path d="M364,1a7.94,7.94,0,0,1,2.93,6.1A8,8,0,0,1,364,13.2l-1.2-.9a9.77,9.77,0,0,0,1.82-2.51,6.14,6.14,0,0,0,.6-2.69,6.17,6.17,0,0,0-.61-2.71,9.93,9.93,0,0,0-1.81-2.53Z" fill="#fff"/>
    <path d="M202.27,21.36a3.77,3.77,0,0,1,1.29.22,2.7,2.7,0,0,1,1,.67,3.7,3.7,0,0,1,1,2.72,3.66,3.66,0,0,1-1,2.69,3.09,3.09,0,0,1-2.32.9,3.18,3.18,0,0,1-2.35-.9A3.63,3.63,0,0,1,199,25a3.68,3.68,0,0,1,1-2.72A3.18,3.18,0,0,1,202.27,21.36Zm1.64,3.58a2.61,2.61,0,0,0-.42-1.62,1.4,1.4,0,0,0-1.17-.54,1.56,1.56,0,0,0-1.23.54,2.38,2.38,0,0,0-.48,1.62,2.57,2.57,0,0,0,.43,1.62,1.41,1.41,0,0,0,1.17.54,1.55,1.55,0,0,0,1.22-.54A2.38,2.38,0,0,0,203.91,24.94Z" fill="#fff"/>
    <path d="M206.78,21.54h1v-0.8a2.06,2.06,0,0,1,.62-1.61,2.09,2.09,0,0,1,1.46-.5,7.48,7.48,0,0,1,1.41.17L211,20.07a2.14,2.14,0,0,0-.71-0.14,0.91,0.91,0,0,0-.55.17,0.76,0.76,0,0,0-.24.65v0.78h1.25v1.11h-1.25v5.7h-1.67v-5.7h-1V21.54Z" fill="#fff"/>
    <path d="M218.43,24.37a7.84,7.84,0,0,1,1.88.27V24A1.62,1.62,0,0,0,220,22.9a1.16,1.16,0,0,0-.94-0.34,1.66,1.66,0,0,0-1,.26,0.86,0.86,0,0,0-.35.74h-1.81a1.84,1.84,0,0,1,.82-1.68,4.28,4.28,0,0,1,2.29-.52,2.62,2.62,0,0,1,2.72,1.47A3.09,3.09,0,0,1,222,24v4.33h-1.44l-0.13-.91a2.19,2.19,0,0,1-2,1.11,3,3,0,0,1-2-.64,2,2,0,0,1-.67-1.56,1.66,1.66,0,0,1,.74-1.46A3.53,3.53,0,0,1,218.43,24.37Zm1.88,1.32a5.91,5.91,0,0,0-1.54-.22q-1.34,0-1.34.9a0.84,0.84,0,0,0,.31.65,1.47,1.47,0,0,0,1,.27,1.49,1.49,0,0,0,1.12-.46A1.68,1.68,0,0,0,220.3,25.68Z" fill="#fff"/>
    <path d="M234,22.83a2.34,2.34,0,0,1,2.31-1.47,2.3,2.3,0,0,1,1.89.83,3.35,3.35,0,0,1,.64,2.18v4h-1.67v-4a1.6,1.6,0,0,0-.36-1.14,1.34,1.34,0,0,0-1-.38,1.28,1.28,0,0,0-1.08.57,3.06,3.06,0,0,0-.45,1.74v3.19h-1.65v-4a1.6,1.6,0,0,0-.36-1.14,1.34,1.34,0,0,0-1-.38,1.4,1.4,0,0,0-1.13.59,2.91,2.91,0,0,0-.5,1.76v3.15h-1.65v-6.8h1.44l0.18,1.18a2.25,2.25,0,0,1,2.16-1.36,2.44,2.44,0,0,1,1.42.39A2.35,2.35,0,0,1,234,22.83Z" fill="#fff"/>
    <path d="M243.87,21.36a3.77,3.77,0,0,1,1.29.22,2.7,2.7,0,0,1,1,.67,3.7,3.7,0,0,1,1,2.72,3.66,3.66,0,0,1-1,2.69,3.09,3.09,0,0,1-2.32.9,3.18,3.18,0,0,1-2.35-.9,3.63,3.63,0,0,1-1-2.69,3.68,3.68,0,0,1,1-2.72A3.18,3.18,0,0,1,243.87,21.36Zm1.64,3.58a2.61,2.61,0,0,0-.42-1.62,1.4,1.4,0,0,0-1.17-.54,1.56,1.56,0,0,0-1.23.54,2.38,2.38,0,0,0-.48,1.62,2.57,2.57,0,0,0,.43,1.62,1.41,1.41,0,0,0,1.17.54,1.55,1.55,0,0,0,1.22-.54A2.38,2.38,0,0,0,245.5,24.94Z" fill="#fff"/>
    <path d="M254.84,22.34a3.76,3.76,0,0,1,.86,2.58,3.84,3.84,0,0,1-.91,2.63,2.82,2.82,0,0,1-2.2,1,2.09,2.09,0,0,1-1.16-.34,2.26,2.26,0,0,1-.83-1l-0.41,1.18h-1.08v-9.6h1.65v3.65a2.12,2.12,0,0,1,1.92-1A2.74,2.74,0,0,1,254.84,22.34Zm-4.07,2.18v0.9a1.64,1.64,0,0,0,.52,1.18,1.56,1.56,0,0,0,1.13.45,1.43,1.43,0,0,0,1.14-.58,2.34,2.34,0,0,0,.48-1.53,2.31,2.31,0,0,0-.47-1.52,1.46,1.46,0,0,0-1.17-.57,1.58,1.58,0,0,0-1.16.46A1.65,1.65,0,0,0,250.77,24.52Z" fill="#fff"/>
    <path d="M257.66,19.34a0.94,0.94,0,0,1,.27-0.71,1.22,1.22,0,0,1,1.5,0,1.05,1.05,0,0,1,0,1.41,1.22,1.22,0,0,1-1.5,0A0.94,0.94,0,0,1,257.66,19.34Zm0.2,2.18h1.65v6.82h-1.65V21.53Z" fill="#fff"/>
    <path d="M262.3,18.74H264v9.6H262.3v-9.6Z" fill="#fff"/>
    <path d="M271.83,23.39a3.82,3.82,0,0,1,.17,1.08,6.32,6.32,0,0,1-.06.88h-4.4a2.36,2.36,0,0,0,.41,1.34,1.33,1.33,0,0,0,1.15.52,1.09,1.09,0,0,0,1.22-.9H272a2.44,2.44,0,0,1-.94,1.61,3.09,3.09,0,0,1-1.95.62,3,3,0,0,1-2.25-1,3.72,3.72,0,0,1-.94-2.62,3.68,3.68,0,0,1,.94-2.63,3,3,0,0,1,2.25-1,2.64,2.64,0,0,1,2.2,1A3.12,3.12,0,0,1,271.83,23.39Zm-2.71-.71a1.36,1.36,0,0,0-1.09.46,2,2,0,0,0-.46,1.17h2.9a1.53,1.53,0,0,0-.7-1.48A1.37,1.37,0,0,0,269.12,22.67Z" fill="#fff"/>
    <path d="M279,22.46a2.12,2.12,0,0,1,2-1.11,2.85,2.85,0,0,1,2.16,1,3.68,3.68,0,0,1,1,2.63,3.67,3.67,0,0,1-1,2.65,2.84,2.84,0,0,1-2.14,1,2.16,2.16,0,0,1-1.82-.74v3.86h-1.65V21.54h1.36ZM280.7,27a1.63,1.63,0,0,0,.61-0.12,1.59,1.59,0,0,0,.57-0.39,2.19,2.19,0,0,0,.56-1.58A2.3,2.3,0,0,0,282,23.4a1.5,1.5,0,0,0-1.18-.56,1.63,1.63,0,0,0-1.13.4,1.54,1.54,0,0,0-.47,1.14V25.6a1.35,1.35,0,0,0,.46,1.06A1.56,1.56,0,0,0,280.7,27Z" fill="#fff"/>
    <path d="M287.71,22.65a2.21,2.21,0,0,1,2-1.29,2.34,2.34,0,0,1,2,.83,3.48,3.48,0,0,1,.64,2.18v4h-1.65v-4a1.6,1.6,0,0,0-.36-1.14,1.34,1.34,0,0,0-1-.38,1.4,1.4,0,0,0-1.13.59,2.91,2.91,0,0,0-.5,1.76v3.15h-1.65v-9.6h1.65v3.91Z" fill="#fff"/>
    <path d="M297.46,21.36a3.77,3.77,0,0,1,1.29.22,2.7,2.7,0,0,1,1,.67,3.7,3.7,0,0,1,1,2.72,3.66,3.66,0,0,1-1,2.69,3.09,3.09,0,0,1-2.32.9,3.18,3.18,0,0,1-2.35-.9,3.63,3.63,0,0,1-1-2.69,3.68,3.68,0,0,1,1-2.72A3.18,3.18,0,0,1,297.46,21.36Zm1.64,3.58a2.61,2.61,0,0,0-.42-1.62,1.4,1.4,0,0,0-1.17-.54,1.56,1.56,0,0,0-1.23.54,2.38,2.38,0,0,0-.48,1.62,2.57,2.57,0,0,0,.43,1.62,1.41,1.41,0,0,0,1.17.54,1.55,1.55,0,0,0,1.22-.54A2.38,2.38,0,0,0,299.1,24.94Z" fill="#fff"/>
    <path d="M304.33,22.72a2.47,2.47,0,0,1,4.05-.53,3.48,3.48,0,0,1,.64,2.18v4h-1.65v-4a1.6,1.6,0,0,0-.36-1.14,1.34,1.34,0,0,0-1-.38,1.4,1.4,0,0,0-1.13.59,2.91,2.91,0,0,0-.5,1.76v3.15h-1.65v-6.8h1.44Z" fill="#fff"/>
    <path d="M316.7,23.39a3.82,3.82,0,0,1,.17,1.08,6.32,6.32,0,0,1-.06.88h-4.4a2.36,2.36,0,0,0,.41,1.34,1.33,1.33,0,0,0,1.15.52,1.09,1.09,0,0,0,1.22-.9h1.67a2.44,2.44,0,0,1-.94,1.61,3.09,3.09,0,0,1-1.95.62,3,3,0,0,1-2.25-1,3.72,3.72,0,0,1-.94-2.62,3.68,3.68,0,0,1,.94-2.63,3,3,0,0,1,2.25-1,2.64,2.64,0,0,1,2.2,1A3.12,3.12,0,0,1,316.7,23.39ZM314,22.67a1.36,1.36,0,0,0-1.09.46,2,2,0,0,0-.46,1.17h2.9a1.53,1.53,0,0,0-.7-1.48A1.37,1.37,0,0,0,314,22.67Z" fill="#fff"/>
  </g>
  <g>
    <path d="M8.05,5.24A2.56,2.56,0,0,1,7.5,6.9a2.85,2.85,0,0,1-1.57,1l2.44,3.7H6.22L4.21,8H3v3.54H1.3V2.46H4.66a3.73,3.73,0,0,1,2.51.77A2.5,2.5,0,0,1,8.05,5.24ZM4.51,6.9a2,2,0,0,0,1.37-.41,1.39,1.39,0,0,0,.46-1.09A1.46,1.46,0,0,0,5.92,4.3a1.73,1.73,0,0,0-1.26-.41H3v3H4.51Z" fill="#fff"/>
    <path d="M15.59,6.59a3.85,3.85,0,0,1,.17,1.08,6.31,6.31,0,0,1-.05.88h-4.4a2.36,2.36,0,0,0,.41,1.34,1.33,1.33,0,0,0,1.15.52,1.09,1.09,0,0,0,1.22-.9h1.67a2.43,2.43,0,0,1-.94,1.61,3.09,3.09,0,0,1-1.95.62,3,3,0,0,1-2.25-1,3.72,3.72,0,0,1-.94-2.62,3.68,3.68,0,0,1,.94-2.63,3,3,0,0,1,2.25-1,2.64,2.64,0,0,1,2.2,1A3.12,3.12,0,0,1,15.59,6.59Zm-2.71-.71a1.36,1.36,0,0,0-1.09.46,2,2,0,0,0-.46,1.17h2.9A1.53,1.53,0,0,0,13.52,6,1.35,1.35,0,0,0,12.88,5.87Z" fill="#fff"/>
    <path d="M19.25,5.66a2.12,2.12,0,0,1,2-1.11,2.85,2.85,0,0,1,2.15,1,3.68,3.68,0,0,1,1,2.63,3.66,3.66,0,0,1-1,2.65,2.84,2.84,0,0,1-2.14,1A2.16,2.16,0,0,1,19.39,11v3.86H17.74V4.74H19.1Zm1.67,4.58a1.64,1.64,0,0,0,.61-0.13,1.6,1.6,0,0,0,.57-0.39,2.19,2.19,0,0,0,.56-1.58,2.3,2.3,0,0,0-.48-1.55A1.5,1.5,0,0,0,21,6a1.62,1.62,0,0,0-1.13.4,1.54,1.54,0,0,0-.47,1.14V8.8a1.35,1.35,0,0,0,.46,1.06A1.56,1.56,0,0,0,20.92,10.24Z" fill="#fff"/>
    <path d="M29,4.56a3.78,3.78,0,0,1,1.29.22,2.69,2.69,0,0,1,1,.67,3.7,3.7,0,0,1,1,2.72,3.66,3.66,0,0,1-1,2.69,3.08,3.08,0,0,1-2.32.9,3.18,3.18,0,0,1-2.35-.9,3.64,3.64,0,0,1-1-2.69,3.68,3.68,0,0,1,1-2.72A3.18,3.18,0,0,1,29,4.56Zm1.64,3.58a2.61,2.61,0,0,0-.42-1.62A1.4,1.4,0,0,0,29,6a1.56,1.56,0,0,0-1.23.54,2.39,2.39,0,0,0-.47,1.62,2.57,2.57,0,0,0,.43,1.62,1.41,1.41,0,0,0,1.17.54,1.55,1.55,0,0,0,1.22-.54A2.38,2.38,0,0,0,30.59,8.14Z" fill="#fff"/>
    <path d="M35.85,6.08A2,2,0,0,1,37.7,4.61a2.46,2.46,0,0,1,.6.1l0,1.65a3.69,3.69,0,0,0-.77-0.08q-1.65,0-1.65,2.28v3H34.2V4.73h1.65V6.08Z" fill="#fff"/>
    <path d="M43.86,11.38a4.28,4.28,0,0,1-1.46.36,3.1,3.1,0,0,1-.93-0.13,2.11,2.11,0,0,1-.71-0.38,2,2,0,0,1-.64-1.58V5.85h-1V4.74h1V2.95h1.65V4.74h1.85V5.85H41.78V9.6a0.73,0.73,0,0,0,.8.84,3.35,3.35,0,0,0,1.05-.22Z" fill="#fff"/>
    <path d="M50.83,6.59A3.79,3.79,0,0,1,51,7.67a6.29,6.29,0,0,1-.06.88h-4.4A2.37,2.37,0,0,0,47,9.89a1.33,1.33,0,0,0,1.15.52,1.09,1.09,0,0,0,1.22-.9H51A2.44,2.44,0,0,1,50,11.12a3.08,3.08,0,0,1-1.95.62,3,3,0,0,1-2.25-1,3.72,3.72,0,0,1-.94-2.62,3.68,3.68,0,0,1,.94-2.63,3,3,0,0,1,2.25-1,2.64,2.64,0,0,1,2.2,1A3.09,3.09,0,0,1,50.83,6.59Zm-2.71-.71A1.37,1.37,0,0,0,47,6.33a2,2,0,0,0-.46,1.17h2.9A1.53,1.53,0,0,0,48.76,6,1.37,1.37,0,0,0,48.12,5.87Z" fill="#fff"/>
    <path d="M57.41,10.49a2,2,0,0,1-1.93,1.25,2.8,2.8,0,0,1-2.18-1,3.85,3.85,0,0,1-.91-2.63,3.79,3.79,0,0,1,.87-2.59,2.72,2.72,0,0,1,2.13-1,2.12,2.12,0,0,1,1.92,1V1.94H59v9.6H57.61ZM55.69,6a1.46,1.46,0,0,0-1.17.57,2.31,2.31,0,0,0-.47,1.52,2.35,2.35,0,0,0,.48,1.53,1.5,1.5,0,0,0,2.28.11,1.66,1.66,0,0,0,.49-1.23V7.65a1.7,1.7,0,0,0-.49-1.19A1.51,1.51,0,0,0,55.69,6Z" fill="#fff"/>
    <path d="M65.1,2.46H71V3.89h-4.2V6.28h3.93V7.71H66.75V10.1H71v1.44H65.1V2.46Z" fill="#fff"/>
    <path d="M79,5.54a3.77,3.77,0,0,1,.86,2.58A3.84,3.84,0,0,1,79,10.75a2.82,2.82,0,0,1-2.2,1,2.1,2.1,0,0,1-1.15-.34,2.26,2.26,0,0,1-.83-1l-0.41,1.18H73.32V1.94H75V5.59a2.12,2.12,0,0,1,1.93-1A2.74,2.74,0,0,1,79,5.54ZM75,7.72v0.9a1.64,1.64,0,0,0,.52,1.18,1.56,1.56,0,0,0,1.13.45,1.44,1.44,0,0,0,1.14-.58,2.35,2.35,0,0,0,.47-1.53,2.31,2.31,0,0,0-.47-1.52A1.46,1.46,0,0,0,76.59,6a1.57,1.57,0,0,0-1.16.46A1.64,1.64,0,0,0,75,7.72Z" fill="#fff"/>
    <path d="M84.59,4.56a3.77,3.77,0,0,1,1.29.22,2.68,2.68,0,0,1,1,.67,3.7,3.7,0,0,1,1,2.72,3.66,3.66,0,0,1-1,2.69,3.09,3.09,0,0,1-2.32.9,3.18,3.18,0,0,1-2.35-.9,3.63,3.63,0,0,1-1-2.69,3.67,3.67,0,0,1,1-2.72A3.18,3.18,0,0,1,84.59,4.56Zm1.64,3.58a2.61,2.61,0,0,0-.42-1.62A1.4,1.4,0,0,0,84.64,6a1.56,1.56,0,0,0-1.22.54,2.38,2.38,0,0,0-.48,1.62,2.57,2.57,0,0,0,.43,1.62,1.41,1.41,0,0,0,1.17.54,1.55,1.55,0,0,0,1.22-.54A2.39,2.39,0,0,0,86.23,8.14Z" fill="#fff"/>
    <path d="M89.84,1.94h1.65v9.6H89.84V1.94Z" fill="#fff"/>
    <path d="M96.33,7.57a7.83,7.83,0,0,1,1.88.27V7.16a1.62,1.62,0,0,0-.29-1.06A1.16,1.16,0,0,0,97,5.76,1.66,1.66,0,0,0,96,6a0.86,0.86,0,0,0-.35.74h-1.8a1.84,1.84,0,0,1,.82-1.68,4.28,4.28,0,0,1,2.29-.52A2.62,2.62,0,0,1,99.65,6a3.11,3.11,0,0,1,.21,1.19v4.33H98.42l-0.13-.91a2.18,2.18,0,0,1-2,1.11,3,3,0,0,1-2-.64,2,2,0,0,1-.67-1.56,1.66,1.66,0,0,1,.74-1.46A3.54,3.54,0,0,1,96.33,7.57Zm1.88,1.32a5.91,5.91,0,0,0-1.54-.22q-1.34,0-1.34.9a0.84,0.84,0,0,0,.31.65,1.47,1.47,0,0,0,1,.27A1.49,1.49,0,0,0,97.74,10,1.67,1.67,0,0,0,98.21,8.88Z" fill="#fff"/>
    <path d="M108.4,4.56a2.94,2.94,0,0,1,1.16.22,2.7,2.7,0,0,1,.86.57A2.73,2.73,0,0,1,111.24,7l-1.67,0a1.54,1.54,0,0,0-.41-0.74A1,1,0,0,0,108.47,6a1.72,1.72,0,0,0-.67.12,1.31,1.31,0,0,0-.49.37,2.52,2.52,0,0,0-.47,1.62,2.35,2.35,0,0,0,.45,1.56,1.38,1.38,0,0,0,1.09.52,1.23,1.23,0,0,0,.92-0.3,1.14,1.14,0,0,0,.29-0.82h1.67A2.53,2.53,0,0,1,110.5,11a2.86,2.86,0,0,1-2.12.76,3,3,0,0,1-2.25-1,3.73,3.73,0,0,1-1-2.62,3.64,3.64,0,0,1,1-2.65A3,3,0,0,1,108.4,4.56Z" fill="#fff"/>
    <path d="M115.47,7.57a7.85,7.85,0,0,1,1.88.27V7.16a1.62,1.62,0,0,0-.29-1.06,1.16,1.16,0,0,0-.94-0.34,1.66,1.66,0,0,0-1,.26,0.86,0.86,0,0,0-.35.74H113a1.84,1.84,0,0,1,.82-1.68,4.27,4.27,0,0,1,2.29-.52A2.62,2.62,0,0,1,118.79,6,3.07,3.07,0,0,1,119,7.22v4.33h-1.44l-0.12-.91a2.19,2.19,0,0,1-2,1.11,3,3,0,0,1-2-.64,2,2,0,0,1-.67-1.56,1.66,1.66,0,0,1,.74-1.46A3.54,3.54,0,0,1,115.47,7.57Zm1.88,1.32a5.91,5.91,0,0,0-1.54-.22c-0.89,0-1.34.3-1.34,0.9a0.85,0.85,0,0,0,.31.65,1.47,1.47,0,0,0,1,.27,1.49,1.49,0,0,0,1.12-.46A1.69,1.69,0,0,0,117.35,8.88Z" fill="#fff"/>
    <path d="M122.33,9.47q0,1,1.41,1a1.54,1.54,0,0,0,.88-0.23A0.66,0.66,0,0,0,125,9.67a0.58,0.58,0,0,0-.21-0.48,2.05,2.05,0,0,0-.66-0.31l-1.48-.53A2,2,0,0,1,121,6.48a1.61,1.61,0,0,1,.78-1.39,3.67,3.67,0,0,1,2.09-.52,3.13,3.13,0,0,1,2,.57,1.87,1.87,0,0,1,.73,1.44H125A0.69,0.69,0,0,0,124.7,6a1.52,1.52,0,0,0-.84-0.2,1.43,1.43,0,0,0-.85.22,0.61,0.61,0,0,0-.3.5,0.89,0.89,0,0,0,.83.73l1.61,0.6a3.16,3.16,0,0,1,1.22.68,1.42,1.42,0,0,1,.43,1.07,1.8,1.8,0,0,1-.8,1.46,3.45,3.45,0,0,1-2.18.64,3.66,3.66,0,0,1-2.18-.59,2,2,0,0,1-.84-1.67h1.54Z" fill="#fff"/>
    <path d="M134.06,6.59a3.85,3.85,0,0,1,.17,1.08,6.31,6.31,0,0,1-.05.88h-4.4a2.36,2.36,0,0,0,.41,1.34,1.33,1.33,0,0,0,1.15.52,1.09,1.09,0,0,0,1.22-.9h1.67a2.43,2.43,0,0,1-.94,1.61,3.09,3.09,0,0,1-1.95.62,3,3,0,0,1-2.25-1,3.72,3.72,0,0,1-.94-2.62,3.68,3.68,0,0,1,.94-2.63,3,3,0,0,1,2.25-1,2.64,2.64,0,0,1,2.2,1A3.12,3.12,0,0,1,134.06,6.59Zm-2.71-.71a1.36,1.36,0,0,0-1.09.46,2,2,0,0,0-.46,1.17h2.9A1.53,1.53,0,0,0,132,6,1.35,1.35,0,0,0,131.35,5.87Z" fill="#fff"/>
    <path d="M137.13,9.47q0,1,1.41,1a1.54,1.54,0,0,0,.88-0.23,0.66,0.66,0,0,0,.34-0.54,0.57,0.57,0,0,0-.21-0.48,2.05,2.05,0,0,0-.66-0.31l-1.48-.53a2,2,0,0,1-1.65-1.88,1.61,1.61,0,0,1,.78-1.39,3.68,3.68,0,0,1,2.09-.52,3.14,3.14,0,0,1,2,.57,1.87,1.87,0,0,1,.73,1.44h-1.55A0.68,0.68,0,0,0,139.49,6a1.51,1.51,0,0,0-.84-0.2,1.42,1.42,0,0,0-.85.22,0.62,0.62,0,0,0-.3.5,0.89,0.89,0,0,0,.83.73l1.61,0.6a3.19,3.19,0,0,1,1.22.68,1.42,1.42,0,0,1,.43,1.07,1.81,1.81,0,0,1-.8,1.46,3.45,3.45,0,0,1-2.18.64,3.65,3.65,0,0,1-2.18-.59,2,2,0,0,1-.84-1.67h1.54Z" fill="#fff"/>
  </g>
  <rect x="284.23" y="47.13" width="22.95" height="23.31" fill="gray"/>
  <rect x="201.39" y="47.13" width="22.95" height="23.31" fill="#fff"/>
  <path d="M236.86,53.64a3,3,0,0,1,2.52,1.18,5.37,5.37,0,0,1,.92,3.38,5.37,5.37,0,0,1-.92,3.38,3,3,0,0,1-2.52,1.18,3.06,3.06,0,0,1-2.53-1.16,5.33,5.33,0,0,1-.93-3.39,5.33,5.33,0,0,1,.93-3.4A3.07,3.07,0,0,1,236.86,53.64Zm2.29,4.56a4.88,4.88,0,0,0-.59-2.63,2.06,2.06,0,0,0-3.43,0,4.89,4.89,0,0,0-.59,2.63,4.89,4.89,0,0,0,.59,2.63,2.06,2.06,0,0,0,3.43,0A4.88,4.88,0,0,0,239.15,58.2Z" fill="#fff"/>
  <g>
    <path d="M18.58,33.8L23,40.87V33.8h1.11V42.6H22.82l-4.44-7.17V42.6H17.27V33.8h1.32Z" fill="#fff"/>
    <path d="M29.29,35.74a3,3,0,0,1,2.26.91,3.64,3.64,0,0,1,.86,2.6,3.62,3.62,0,0,1-.86,2.59,3.26,3.26,0,0,1-4.52,0,3.62,3.62,0,0,1-.86-2.59,3.64,3.64,0,0,1,.86-2.6A3,3,0,0,1,29.29,35.74Zm2,3.51a3.09,3.09,0,0,0-.5-1.88,1.72,1.72,0,0,0-1.48-.68,1.76,1.76,0,0,0-1.49.68,3,3,0,0,0-.52,1.88,3.15,3.15,0,0,0,.49,1.88,1.68,1.68,0,0,0,1.46.68,1.8,1.8,0,0,0,1.5-.68A3,3,0,0,0,31.29,39.25Z" fill="#fff"/>
    <path d="M35.59,37.2a2.52,2.52,0,0,1,4.11-.67,3.2,3.2,0,0,1,.67,2.14V42.6H39.27V38.67a2.07,2.07,0,0,0-.46-1.46,1.68,1.68,0,0,0-1.29-.49,1.63,1.63,0,0,0-1.36.69,3.23,3.23,0,0,0-.55,1.9V42.6H34.51V35.91h1Z" fill="#fff"/>
    <path d="M45.28,41.86a1.39,1.39,0,0,0,1.58-1.22H48a2.3,2.3,0,0,1-.89,1.56,3,3,0,0,1-1.83.55,2.77,2.77,0,0,1-2.18-1,3.73,3.73,0,0,1-.84-2.55,3.69,3.69,0,0,1,.85-2.55,2.87,2.87,0,0,1,2.25-1,2.32,2.32,0,0,1,2.1,1.09,3.87,3.87,0,0,1,.48,2.66H43.36a2.74,2.74,0,0,0,.5,1.7A1.67,1.67,0,0,0,45.28,41.86Zm0.81-5.07a1.88,1.88,0,0,0-2.14.41,2.55,2.55,0,0,0-.58,1.45h3.57A1.92,1.92,0,0,0,46.09,36.79Z" fill="#fff"/>
  </g>
  <g>
    <path d="M122.87,33.67v5.85h1.53v1h-1.53V42.6h-1.08V40.47h-4.55V39.62l4.61-6h1Zm-4.31,6h3.26v-4.2Z" fill="#fff"/>
    <path d="M128.88,33.64a3,3,0,0,1,2.52,1.18,5.37,5.37,0,0,1,.92,3.38,5.37,5.37,0,0,1-.92,3.38,3,3,0,0,1-2.52,1.18,3.06,3.06,0,0,1-2.53-1.16,5.33,5.33,0,0,1-.93-3.39,5.33,5.33,0,0,1,.93-3.4A3.07,3.07,0,0,1,128.88,33.64Zm2.3,4.56a4.88,4.88,0,0,0-.59-2.63,2.06,2.06,0,0,0-3.43,0,4.89,4.89,0,0,0-.59,2.63,4.89,4.89,0,0,0,.59,2.63,2.06,2.06,0,0,0,3.43,0A4.88,4.88,0,0,0,131.17,38.2Z" fill="#fff"/>
    <path d="M137.19,33.64a3,3,0,0,1,2.52,1.18,5.37,5.37,0,0,1,.92,3.38,5.37,5.37,0,0,1-.92,3.38,3,3,0,0,1-2.52,1.18,3.06,3.06,0,0,1-2.53-1.16,5.33,5.33,0,0,1-.93-3.39,5.34,5.34,0,0,1,.93-3.4A3.07,3.07,0,0,1,137.19,33.64Zm2.3,4.56a4.89,4.89,0,0,0-.59-2.63,2.06,2.06,0,0,0-3.43,0,4.88,4.88,0,0,0-.59,2.63,4.88,4.88,0,0,0,.59,2.63,2.06,2.06,0,0,0,3.43,0A4.89,4.89,0,0,0,139.49,38.2Z" fill="#fff"/>
    <path d="M145.51,33.64A3,3,0,0,1,148,34.82,5.37,5.37,0,0,1,149,38.2a5.37,5.37,0,0,1-.92,3.38,3,3,0,0,1-2.52,1.18A3.06,3.06,0,0,1,143,41.59a5.33,5.33,0,0,1-.93-3.39,5.33,5.33,0,0,1,.93-3.4A3.07,3.07,0,0,1,145.51,33.64Zm2.3,4.56a4.88,4.88,0,0,0-.59-2.63,2.06,2.06,0,0,0-3.43,0,4.89,4.89,0,0,0-.59,2.63,4.89,4.89,0,0,0,.59,2.63,2.06,2.06,0,0,0,3.43,0A4.88,4.88,0,0,0,147.81,38.2Z" fill="#fff"/>
  </g>
  <g>
    <path d="M317.24,54.48a3.15,3.15,0,0,0,1.64-.71h0.9V62.6h-1.09V55.08a3,3,0,0,1-1.44.49V54.48Z" fill="#fff"/>
    <path d="M325.36,53.64a3,3,0,0,1,2.52,1.18,5.37,5.37,0,0,1,.92,3.38,5.37,5.37,0,0,1-.92,3.38,3,3,0,0,1-2.52,1.18,3.06,3.06,0,0,1-2.53-1.16,5.33,5.33,0,0,1-.93-3.39,5.33,5.33,0,0,1,.93-3.4A3.07,3.07,0,0,1,325.36,53.64Zm2.3,4.56a4.88,4.88,0,0,0-.59-2.63,2.06,2.06,0,0,0-3.43,0,4.89,4.89,0,0,0-.59,2.63,4.89,4.89,0,0,0,.59,2.63,2.06,2.06,0,0,0,3.43,0A4.88,4.88,0,0,0,327.66,58.2Z" fill="#fff"/>
    <path d="M333.68,53.64a3,3,0,0,1,2.52,1.18,5.37,5.37,0,0,1,.92,3.38,5.37,5.37,0,0,1-.92,3.38,3,3,0,0,1-2.52,1.18,3.06,3.06,0,0,1-2.53-1.16,5.33,5.33,0,0,1-.93-3.39,5.34,5.34,0,0,1,.93-3.4A3.07,3.07,0,0,1,333.68,53.64ZM336,58.2a4.89,4.89,0,0,0-.59-2.63,2.06,2.06,0,0,0-3.43,0,4.88,4.88,0,0,0-.59,2.63,4.88,4.88,0,0,0,.59,2.63,2.06,2.06,0,0,0,3.43,0A4.89,4.89,0,0,0,336,58.2Z" fill="#fff"/>
  </g>
  <g>
    <line x1="255.13" y1="58.78" x2="270.88" y2="58.78" fill="none" stroke="#fff" stroke-miterlimit="10"/>
    <polyline points="268.04 55.95 270.88 58.78 268.04 61.62" fill="none" stroke="#fff" stroke-miterlimit="10"/>
  </g>
  <g>
    <line x1="58.67" y1="38.78" x2="74.41" y2="38.78" fill="none" stroke="#fff" stroke-miterlimit="10"/>
    <polyline points="71.58 35.95 74.41 38.78 71.58 41.62" fill="none" stroke="#fff" stroke-miterlimit="10"/>
  </g>
</svg>
