<svg xmlns="http://www.w3.org/2000/svg" viewBox="0 0 479.73 362">
  <title>phone</title>
  <g>
    <path d="M13.68,363V71.28a62.5,62.5,0,0,1,62.5-62.5H402.54A62.5,62.5,0,0,1,465,71.28V363h10.2V69.44A69.44,69.44,0,0,0,405.8,0H72.49A69.44,69.44,0,0,0,3,69.44V363H13.68Z" fill="#8a888e"/>
    <path d="M467.49,363V71.56A64.58,64.58,0,0,0,402.91,7H74.38A64.58,64.58,0,0,0,9.8,71.56V363H467.49Z" fill="#172936"/>
    <rect x="31.96" y="122.12" width="413.88" height="241.9" fill="#fff"/>
    <circle cx="238.84" cy="32.7" r="6.12" fill="#284a61"/>
    <circle cx="165.35" cy="62.1" r="8.57" fill="#284a61"/>
    <path d="M271.71,65.77H205.88a4.9,4.9,0,0,1-4.9-4.9h0a4.9,4.9,0,0,1,4.9-4.9h65.83a4.9,4.9,0,0,1,4.9,4.9h0A4.9,4.9,0,0,1,271.71,65.77Z" fill="#284a61"/>
    <rect x="472.79" y="207.86" width="6.94" height="68.59" rx="2.08" ry="2.08" fill="#8a888e"/>
    <rect x="0.4" y="122.12" width="6.94" height="41.64" rx="2.08" ry="2.08" fill="#8a888e"/>
    <rect y="207.86" width="6.94" height="71.04" rx="2.08" ry="2.08" fill="#8a888e"/>
    <path d="M7.35,363V298.13A2.08,2.08,0,0,0,5.27,296H2.49A2.08,2.08,0,0,0,.4,298.13V363H7.35Z" fill="#8a888e"/>
    <rect x="3.05" y="75.57" width="6.75" height="14.54" fill="#98969b"/>
    <rect x="467.74" y="75.57" width="7.5" height="14.54" fill="#98969b"/>
  </g>
</svg>
