<svg xmlns="http://www.w3.org/2000/svg" viewBox="0 0 294 96">
  <title>Health Communication Capacity Collaborative</title>
  <path d="M109.78,13.84v6.53h6.89V13.84h3v16.3h-3V23h-6.89v7.18h-3V13.84h3Z" fill="#be3434"/>
  <path d="M132.18,22.91H126V27.7h6.87v2.44h-9.84V13.84h9.48v2.44H126v4.21h6.14v2.42Z" fill="#be3434"/>
  <path d="M138.79,25.52l-1.4,4.62h-3.07l5.22-16.3h3.8l5.3,16.3h-3.19L144,25.52h-5.18Zm4.67-2.25-1.28-4c-0.31-1-.58-2.1-0.82-3h0c-0.24.94-.48,2.08-0.77,3l-1.26,4h4.18Z" fill="#be3434"/>
  <path d="M150.91,13.84h3V27.65h6.7v2.49h-9.67V13.84Z" fill="#be3434"/>
  <path d="M163.61,16.33H159V13.84h12.31v2.49h-4.69V30.14h-3V16.33Z" fill="#be3434"/>
  <path d="M176.16,13.84v6.53h6.89V13.84h3v16.3h-3V23h-6.89v7.18h-3V13.84h3Z" fill="#be3434"/>
  <path d="M118.49,47.64a10.31,10.31,0,0,1-4.21.73c-5.18,0-8.32-3.24-8.32-8.2,0-5.37,3.72-8.61,8.71-8.61a9.35,9.35,0,0,1,4,.73L118,34.66a7.93,7.93,0,0,0-3.19-.63c-3.31,0-5.71,2.08-5.71,6,0,3.58,2.1,5.88,5.68,5.88a8.31,8.31,0,0,0,3.24-.6Z" fill="#be3434"/>
  <path d="M134.87,39.81c0,5.47-3.31,8.58-7.81,8.58s-7.5-3.51-7.5-8.29c0-5,3.14-8.54,7.74-8.54C132.06,31.56,134.87,35.16,134.87,39.81ZM122.7,40c0,3.31,1.67,5.95,4.52,5.95s4.5-2.66,4.5-6.07c0-3.07-1.52-6-4.5-6S122.7,36.69,122.7,40Z" fill="#be3434"/>
  <path d="M151.19,41.48c-0.1-2.1-.22-4.64-0.19-6.84h-0.07c-0.53,2-1.21,4.18-1.93,6.24l-2.37,7.06h-2.3l-2.18-7c-0.63-2.08-1.21-4.31-1.64-6.34h0c-0.07,2.13-.17,4.72-0.29,6.94l-0.36,6.55H137l1.09-16.3H142l2.13,6.55c0.58,1.91,1.09,3.84,1.5,5.66h0.07c0.44-1.77,1-3.77,1.62-5.68l2.25-6.53h3.87l0.94,16.3h-2.9Z" fill="#be3434"/>
  <path d="M171.2,41.48c-0.1-2.1-.22-4.64-0.19-6.84h-0.07c-0.53,2-1.21,4.18-1.94,6.24l-2.37,7.06h-2.3l-2.18-7c-0.63-2.08-1.21-4.31-1.64-6.34h0c-0.07,2.13-.17,4.72-0.29,6.94l-0.36,6.55H157l1.09-16.3H162l2.13,6.55c0.58,1.91,1.09,3.84,1.5,5.66h0.07c0.44-1.77,1-3.77,1.62-5.68l2.25-6.53h3.87l0.94,16.3h-2.9Z" fill="#be3434"/>
  <path d="M180.4,31.83v9.5c0,3.19,1.33,4.67,3.34,4.67s3.43-1.48,3.43-4.67v-9.5h3v9.31c0,5-2.59,7.25-6.51,7.25s-6.22-2.1-6.22-7.23V31.83h3Z" fill="#be3434"/>
  <path d="M193.56,48.13V31.83h3.39l4.21,7a45,45,0,0,1,2.78,5.47h0c-0.19-2.18-.27-4.28-0.27-6.77V31.83h2.76v16.3H203.4L199.14,41a56.76,56.76,0,0,1-2.93-5.63l-0.07,0c0.12,2.1.14,4.26,0.14,6.94v5.83h-2.73Z" fill="#be3434"/>
  <path d="M212.89,31.83v16.3h-3V31.83h3Z" fill="#be3434"/>
  <path d="M228,47.64a10.31,10.31,0,0,1-4.21.73c-5.18,0-8.32-3.24-8.32-8.2,0-5.37,3.72-8.61,8.71-8.61a9.35,9.35,0,0,1,4,.73l-0.65,2.37a7.92,7.92,0,0,0-3.19-.63c-3.31,0-5.71,2.08-5.71,6,0,3.58,2.1,5.88,5.68,5.88a8.31,8.31,0,0,0,3.24-.6Z" fill="#be3434"/>
  <path d="M234,43.51l-1.4,4.62h-3.07l5.22-16.3h3.8l5.3,16.3h-3.19l-1.48-4.62H234Zm4.67-2.25-1.28-4c-0.32-1-.58-2.1-0.82-3h0c-0.24.94-.48,2.08-0.77,3l-1.26,4h4.18Z" fill="#be3434"/>
  <path d="M247.24,34.32h-4.64V31.83H254.9v2.49h-4.69V48.13h-3V34.32Z" fill="#be3434"/>
  <path d="M259.79,31.83v16.3h-3V31.83h3Z" fill="#be3434"/>
  <path d="M277.67,39.81c0,5.47-3.31,8.58-7.81,8.58s-7.5-3.51-7.5-8.29c0-5,3.14-8.54,7.74-8.54C274.86,31.56,277.67,35.16,277.67,39.81ZM265.5,40c0,3.31,1.67,5.95,4.52,5.95s4.5-2.66,4.5-6.07c0-3.07-1.52-6-4.5-6S265.5,36.69,265.5,40Z" fill="#be3434"/>
  <path d="M280.23,48.13V31.83h3.39l4.21,7a45,45,0,0,1,2.78,5.47h0c-0.19-2.18-.27-4.28-0.27-6.77V31.83h2.76v16.3h-3.07L285.82,41a56.76,56.76,0,0,1-2.93-5.63l-0.07,0c0.12,2.1.14,4.26,0.14,6.94v5.83h-2.73Z" fill="#be3434"/>
  <path d="M118.49,65.63a10.31,10.31,0,0,1-4.21.73c-5.18,0-8.32-3.24-8.32-8.2,0-5.37,3.72-8.61,8.71-8.61a9.35,9.35,0,0,1,4,.73L118,52.65a7.93,7.93,0,0,0-3.19-.63c-3.31,0-5.71,2.08-5.71,6,0,3.58,2.1,5.88,5.68,5.88a8.31,8.31,0,0,0,3.24-.6Z" fill="#e94e1b"/>
  <path d="M124.47,61.5l-1.4,4.62H120l5.22-16.3H129l5.3,16.3h-3.19l-1.48-4.62h-5.18Zm4.67-2.25-1.28-4c-0.31-1-.58-2.1-0.82-3h0c-0.24.94-.48,2.08-0.77,3l-1.26,4h4.18Z" fill="#e94e1b"/>
  <path d="M136.59,50a25.86,25.86,0,0,1,4.55-.34A7.38,7.38,0,0,1,145.95,51a4.61,4.61,0,0,1,1.6,3.6,4.94,4.94,0,0,1-1.4,3.7A7.19,7.19,0,0,1,141,60.07a8.36,8.36,0,0,1-1.45-.1v6.14h-3V50Zm3,7.59a6,6,0,0,0,1.45.12c2.23,0,3.58-1.09,3.58-3S143.31,52,141.25,52a8.2,8.2,0,0,0-1.72.15v5.51Z" fill="#e94e1b"/>
  <path d="M151.66,61.5l-1.4,4.62h-3.07l5.22-16.3h3.8l5.3,16.3h-3.19l-1.48-4.62h-5.18Zm4.67-2.25-1.28-4c-0.31-1-.58-2.1-0.82-3h0c-0.24.94-.48,2.08-0.77,3l-1.26,4h4.18Z" fill="#e94e1b"/>
  <path d="M174.95,65.63a10.31,10.31,0,0,1-4.21.73c-5.18,0-8.32-3.24-8.32-8.2,0-5.37,3.72-8.61,8.71-8.61a9.35,9.35,0,0,1,4,.73l-0.65,2.37a7.92,7.92,0,0,0-3.19-.63c-3.31,0-5.71,2.08-5.71,6,0,3.58,2.1,5.88,5.68,5.88a8.31,8.31,0,0,0,3.24-.6Z" fill="#e94e1b"/>
  <path d="M180.47,49.82v16.3h-3V49.82h3Z" fill="#e94e1b"/>
  <path d="M187,52.31h-4.64V49.82h12.31v2.49H190V66.12h-3V52.31Z" fill="#e94e1b"/>
  <path d="M200.67,66.12v-6.8l-5.15-9.5h3.39l2,4.18c0.56,1.21,1,2.13,1.4,3.24h0c0.41-1,.87-2.06,1.43-3.24l2-4.18h3.36l-5.42,9.43v6.87h-3Z" fill="#e94e1b"/>
  <path d="M118.49,83.62a10.3,10.3,0,0,1-4.21.73c-5.18,0-8.32-3.24-8.32-8.2,0-5.37,3.72-8.61,8.71-8.61a9.35,9.35,0,0,1,4,.73L118,70.63a7.93,7.93,0,0,0-3.19-.63c-3.31,0-5.71,2.08-5.71,6,0,3.58,2.1,5.88,5.68,5.88a8.31,8.31,0,0,0,3.24-.6Z" fill="#f39543"/>
  <path d="M134.87,75.78c0,5.47-3.31,8.58-7.81,8.58s-7.5-3.51-7.5-8.29c0-5,3.14-8.54,7.74-8.54C132.06,67.54,134.87,71.14,134.87,75.78ZM122.7,76c0,3.31,1.67,5.95,4.52,5.95s4.5-2.66,4.5-6.07c0-3.07-1.52-6-4.5-6S122.7,72.66,122.7,76Z" fill="#f39543"/>
  <path d="M137.43,67.8h3V81.61h6.7V84.1h-9.67V67.8Z" fill="#f39543"/>
  <path d="M149.36,67.8h3V81.61H159V84.1h-9.67V67.8Z" fill="#f39543"/>
  <path d="M164.65,79.48l-1.4,4.62h-3.07l5.22-16.3h3.8l5.3,16.3H171.3l-1.48-4.62h-5.18Zm4.67-2.25-1.28-4c-0.32-1-.58-2.1-0.82-3h0c-0.24.94-.48,2.08-0.77,3l-1.26,4h4.18Z" fill="#f39543"/>
  <path d="M176.77,68a24.94,24.94,0,0,1,4.33-.34c2.2,0,3.55.27,4.67,1a3.44,3.44,0,0,1,1.69,3,3.79,3.79,0,0,1-2.71,3.53v0a4.11,4.11,0,0,1,3.29,4,4.23,4.23,0,0,1-1.57,3.36c-1.16,1-3.07,1.52-6,1.52a28.75,28.75,0,0,1-3.65-.22V68Zm3,6.43h1.52c2.06,0,3.22-1,3.22-2.35s-1.16-2.22-3-2.22a8.1,8.1,0,0,0-1.69.12v4.45Zm0,7.5a13.11,13.11,0,0,0,1.57.07c1.91,0,3.6-.73,3.6-2.73s-1.64-2.66-3.7-2.66h-1.48V82Z" fill="#f39543"/>
  <path d="M205.16,75.78c0,5.47-3.31,8.58-7.81,8.58s-7.5-3.51-7.5-8.29c0-5,3.14-8.54,7.74-8.54C202.36,67.54,205.16,71.14,205.16,75.78ZM193,76c0,3.31,1.67,5.95,4.52,5.95s4.5-2.66,4.5-6.07c0-3.07-1.52-6-4.5-6S193,72.66,193,76Z" fill="#f39543"/>
  <path d="M207.73,68a28.32,28.32,0,0,1,4.5-.34c2.35,0,3.94.39,5,1.31a4.13,4.13,0,0,1,1.4,3.27,4.35,4.35,0,0,1-3,4.09v0.07c1.16,0.44,1.86,1.57,2.27,3.14a32.61,32.61,0,0,0,1.28,4.55H216.2a23.06,23.06,0,0,1-1.09-3.85c-0.46-2.13-1.23-2.8-2.93-2.85h-1.5v6.7h-3V68Zm3,7.21h1.77c2,0,3.26-1.06,3.26-2.68,0-1.79-1.26-2.61-3.19-2.61a8.53,8.53,0,0,0-1.84.15v5.15Z" fill="#f39543"/>
  <path d="M224.93,79.48l-1.4,4.62h-3.07l5.22-16.3h3.8l5.3,16.3h-3.19l-1.48-4.62h-5.18Zm4.67-2.25-1.28-4c-0.32-1-.58-2.1-0.82-3h0c-0.24.94-.48,2.08-0.77,3l-1.26,4h4.18Z" fill="#f39543"/>
  <path d="M238.21,70.29h-4.64V67.8h12.31v2.49h-4.69V84.1h-3V70.29Z" fill="#f39543"/>
  <path d="M250.77,67.8V84.1h-3V67.8h3Z" fill="#f39543"/>
  <path d="M257.9,84.1l-5.27-16.3h3.24l2.23,7.4c0.63,2.06,1.16,4,1.6,5.95h0c0.44-1.94,1-3.92,1.67-5.9l2.37-7.45h3.17l-5.63,16.3H257.9Z" fill="#f39543"/>
  <path d="M277.83,76.87h-6.14v4.79h6.87V84.1h-9.84V67.8h9.48v2.44h-6.51v4.21h6.14v2.42Z" fill="#f39543"/>
  <path d="M41.88,63.39s10.1,4.85,20.9.34c6-2.49,10.47-6.14,13.48-13.88C78.73,43.48,79.91,23,59.5,11.38A41.33,41.33,0,0,0,41.88,6.15c-13.22-.93-21.5,5.66-21.5,5.66S33.06,0.85,47,.85c15.69,0,23.79,4.81,29.66,9.45,9.24,7.31,18.91,24.07,11.6,40.83C82,65.48,70.52,70.35,63.15,70.91,49,72,41.88,63.39,41.88,63.39Z" fill="#c94e1a"/>
  <path d="M40.86,35.82S31.56,42.08,30,53.67c-0.87,6.4,0,12.15,5.14,18.66,4.23,5.36,21.31,16.76,41.66,5A41.36,41.36,0,0,0,90.2,64.83c7.5-10.92,6-21.4,6-21.4s3,16.48-4.05,28.53C84.22,85.48,76,90,69,92.73,58,97,38.66,96.84,27.91,82.05,18.71,69.4,20.35,57,23.6,50.36,29.86,37.59,40.86,35.82,40.86,35.82Z" fill="#f39543"/>
  <path d="M64.82,49.42s-0.6-11.19-9.73-18.5c-5-4-10.41-6.24-18.65-5.17-6.77.89-25.32,9.68-25.7,33.17a41.34,41.34,0,0,0,3.87,18C20.13,88.93,29.89,93,29.89,93S14.19,87.17,7.48,74.91C0,61.15.29,51.73,1.55,44.36c2-11.61,12-28.15,30.25-29.78C47.38,13.18,57.19,21,61.21,27.15,69,39.07,64.82,49.42,64.82,49.42Z" fill="#9e1522"/>
  <path d="M46.29,40v7.29h6.41V40H58V59.76H52.71V51.94H46.29v7.82H41V40h5.3Z" fill="#be3434"/>
</svg>