<svg xmlns="http://www.w3.org/2000/svg" width="15.19" height="12.83" viewBox="0 0 15.19 12.83">
  <title>Watch</title>
  <path d="M10.91,4.91H1.22A1.18,1.18,0,0,0,0,6.14q0,2.73,0,5.47a1.19,1.19,0,0,0,1.23,1.23h9.69a1.19,1.19,0,0,0,1.21-1.21q0-2.74,0-5.48A1.18,1.18,0,0,0,10.91,4.91Z" transform="translate(0 0)"/>
  <path d="M3.56,4.66A2.35,2.35,0,0,0,5.9,2.41,2.33,2.33,0,1,0,3.56,4.66Z" transform="translate(0 0)"/>
  <path d="M8.58,4.66A2.33,2.33,0,1,0,6.24,2.42,2.33,2.33,0,0,0,8.58,4.66Z" transform="translate(0 0)"/>
  <path d="M15.14,5.72L12.63,7.61a0.18,0.18,0,0,0-.05.13c0,0.82,0,1.65,0,2.47a0.16,0.16,0,0,0,.07.14l1.24,0.93,1.3,1V5.7Z" transform="translate(0 0)"/>
</svg>
