<svg xmlns="http://www.w3.org/2000/svg" width="9.43" height="20.19" viewBox="0 0 9.43 20.19">
  <title>Facebook</title>
  <path d="M9.43,6.61h-3c-0.08,0-.17,0-0.16-0.11,0-.73,0-1.46,0-2.19A0.77,0.77,0,0,1,7,3.56a3.48,3.48,0,0,1,.57-0.07H9.24A0.15,0.15,0,0,0,9.42,3.3c0-1,0-2.07,0-3.11,0-.06,0-0.13,0-0.19H6L5.87,0C5.46,0.12,5,.18,4.64.3A2.64,2.64,0,0,0,3,1.67a4.59,4.59,0,0,0-.48,2c0,0.93,0,1.87,0,2.8,0,0.14,0,.19-0.19.19H0.18A0.15,0.15,0,0,0,0,6.79c0,1,0,2.09,0,3.13C0,10,0,10,0,10.1H2.53v0.24q0,4.84,0,9.67c0,0.06,0,.12,0,0.18H6.3c0-.06,0-0.12,0-0.18q0-4.85,0-9.7c0-.07,0-0.14,0-0.22H9.06Z"/>
</svg>