<svg class="icon-replay" xmlns="http://www.w3.org/2000/svg" width="50" height="50" viewBox="0 0 50 50">
  <path class="icon-replay__background" fill="#172936" d="M25 49.4L25 49.4C11.5 49.4 0.6 38.5 0.6 25v0C0.6 11.5 11.5 0.6 25 0.6h0c13.5 0 24.4 10.9 24.4 24.4v0C49.4 38.5 38.5 49.4 25 49.4z"/>
  <path fill="#FFFFFF" class="st1" d="M33 25.3c0.9 0 1.9 0 2.8 0 0.1 3.3-1.8 7.8-6.5 9.9 -4.7 2.1-10.1 0.5-13.1-3.6 -3-4.2-2.6-9.7 0.8-13.4 3.5-4 9.7-4.9 14.3-1.5 0.6-0.9 1.2-1.8 1.9-2.7 0.9 2.5 1.7 5.1 2.6 7.6 -2.7 0-5.4 0-8.1 0 0.6-0.9 1.2-1.7 1.9-2.6 -2.3-1.7-5.8-2.2-8.8-0.3 -3.2 2-4.6 5.8-3.4 9.3 1.2 3.4 4.5 5.7 8.1 5.4 2.1-0.1 3.9-1 5.3-2.5C32.2 29.3 32.9 27.4 33 25.3z"/>
</svg>