<svg xmlns="http://www.w3.org/2000/svg" width="19.16" height="15.69" viewBox="0 0 19.16 15.69">
  <title>Twitter</title>
  <path d="M0,13.93a8.13,8.13,0,0,0,5.72-1.62A4.1,4.1,0,0,1,2.06,9.55a6.21,6.21,0,0,0,1.69-.08A4,4,0,0,1,.68,5.56,4.43,4.43,0,0,0,2.36,6,4.08,4.08,0,0,1,.81,3.59,4,4,0,0,1,1.22.76L2.16,1.67A11,11,0,0,0,9.24,4.85h0.1c0-.36,0-0.7,0-1A3.91,3.91,0,0,1,12.53.08,3.78,3.78,0,0,1,15.91,1a0.58,0.58,0,0,0,.65.15l1.67-.63,0.46-.2a4.65,4.65,0,0,1-1.54,2.09,10.1,10.1,0,0,0,2-.46l-0.1.16a8.21,8.21,0,0,1-1.57,1.62,0.49,0.49,0,0,0-.22.42A12.41,12.41,0,0,1,17,6.74a11.38,11.38,0,0,1-4.78,7.15,10,10,0,0,1-4.56,1.69A12.23,12.23,0,0,1,3,15.33,12.36,12.36,0,0,1,.18,14.11L0,14A0.37,0.37,0,0,1,0,13.93Z"/>
</svg>